<svg xmlns="http://www.w3.org/2000/svg" viewBox="0 0 1000 1000"><path d="M65,588.77a14.17,14.17,0,0,0-2.76,3.86,14.42,14.42,0,0,0-1.37,4.7,14.66,14.66,0,0,0,.28,5.06,16.47,16.47,0,0,0,3.61,7.49,15.17,15.17,0,0,0,6,4.15,21.38,21.38,0,0,0,7.56,1.36,34.84,34.84,0,0,0,8.19-.9A33.38,33.38,0,0,0,94,611.81a21.46,21.46,0,0,0,6-4.48,15.42,15.42,0,0,0,3.58-6.36,16.54,16.54,0,0,0,0-8.31q-1.45-6.31-6.12-9a18.32,18.32,0,0,0-11.18-2l-3-13.34a32.82,32.82,0,0,1,11.24.29,26.06,26.06,0,0,1,9.39,3.94,25.08,25.08,0,0,1,7,7.26A31.71,31.71,0,0,1,115.11,590a32.9,32.9,0,0,1,.46,13.51,28.26,28.26,0,0,1-4.66,11.27,31.26,31.26,0,0,1-8.92,8.42,38.92,38.92,0,0,1-12.28,5,40.37,40.37,0,0,1-13.51.88,32.11,32.11,0,0,1-11.87-3.65,28.26,28.26,0,0,1-9.24-8.09,34.43,34.43,0,0,1-6.26-22.48,27.22,27.22,0,0,1,2.45-9.24A24.08,24.08,0,0,1,57,578.06a25.73,25.73,0,0,1,9-5.2L69,586.2A11.33,11.33,0,0,0,65,588.77Z"/><path d="M42,549l24.13-1.94,0-.27a14.72,14.72,0,0,1-6.37-5.72,16.66,16.66,0,0,1-2.43-7.2,21.41,21.41,0,0,1,.72-8.5,12.49,12.49,0,0,1,3.44-5.47,15,15,0,0,1,5.8-3.13A37.35,37.35,0,0,1,75,515.42l28.53-2.29,1,12.74L78.39,528c-3.83.31-6.64,1.13-8.42,2.48s-2.56,3.55-2.32,6.6q.42,5.21,3.7,7.28t10.37,1.52l24.31-2,1,12.74-64,5.14Z"/><path d="M71.27,504.35a14.84,14.84,0,0,1-7.36-2.59,15.25,15.25,0,0,1-4.53-5.25,21.87,21.87,0,0,1-2.25-7,39.21,39.21,0,0,1-.41-7.72,52.45,52.45,0,0,1,.82-7.08,21.88,21.88,0,0,1,2.24-6.48A12.93,12.93,0,0,1,64,463.56,11.21,11.21,0,0,1,70.88,462l24.18,1.11a48.25,48.25,0,0,0,6-.08,10.74,10.74,0,0,0,4.37-1.06l-.59,13a18.83,18.83,0,0,1-2.23.48,17.71,17.71,0,0,1-2.31.21,16.65,16.65,0,0,1,4.07,7.39,28.77,28.77,0,0,1,.87,8.51,22.68,22.68,0,0,1-1.09,6.17,14.41,14.41,0,0,1-2.75,4.92A11.88,11.88,0,0,1,97,505.76a14.61,14.61,0,0,1-6.26.93,13.55,13.55,0,0,1-6.46-1.7,11.56,11.56,0,0,1-3.92-3.78,16.06,16.06,0,0,1-2.06-5.14,53.78,53.78,0,0,1-1-5.77q-.31-2.9-.46-5.69a33.82,33.82,0,0,0-.58-5,8.56,8.56,0,0,0-1.42-3.49,3.44,3.44,0,0,0-3-1.31,6.88,6.88,0,0,0-3.32.52,5,5,0,0,0-2,1.71,7.29,7.29,0,0,0-1,2.57,21.69,21.69,0,0,0-.37,3.18,9.69,9.69,0,0,0,1.35,6q1.52,2.24,5.27,2.76ZM82.06,475.3a5.76,5.76,0,0,1,1,2.07,21.54,21.54,0,0,1,.55,2.64c.14.94.24,1.92.31,2.94s.18,2.05.31,3.08a25.62,25.62,0,0,0,.59,2.87,8.65,8.65,0,0,0,1.1,2.48,5.77,5.77,0,0,0,1.86,1.75,6.23,6.23,0,0,0,2.94.77,6,6,0,0,0,2.9-.5,4.85,4.85,0,0,0,1.93-1.62,7.44,7.44,0,0,0,1.06-2.48,16.64,16.64,0,0,0,.4-2.95,11.21,11.21,0,0,0-1-5.9,8.34,8.34,0,0,0-2.87-3.2,9.59,9.59,0,0,0-3.49-1.37,23.09,23.09,0,0,0-2.87-.36Z"/><path d="M62.47,435.55l5.85,1,0-.18A14,14,0,0,1,64,429.6a18.32,18.32,0,0,1-.3-8.1,20.17,20.17,0,0,1,3.69-8.94,19.56,19.56,0,0,1,6.56-5.51,23.33,23.33,0,0,1,8.52-2.41,35.16,35.16,0,0,1,9.57.42,31.85,31.85,0,0,1,8.64,2.82,22.93,22.93,0,0,1,6.86,5.1,18.86,18.86,0,0,1,4.11,7.22,19.24,19.24,0,0,1,.38,9.16,18.17,18.17,0,0,1-3.12,7.54,15.12,15.12,0,0,1-6.15,5l0,.17,21.71,3.86-2.24,12.59-61.85-11Zm39.24-9.89a10.15,10.15,0,0,0-2.64-3.94,13.41,13.41,0,0,0-4.32-2.65,27.41,27.41,0,0,0-5.32-1.49,26.08,26.08,0,0,0-5.5-.39,14.61,14.61,0,0,0-5.08,1.07,10.78,10.78,0,0,0-4,2.81,9.76,9.76,0,0,0-2.19,4.86,9.86,9.86,0,0,0,.37,5.42,10.37,10.37,0,0,0,2.72,3.95A14,14,0,0,0,80.14,438a27.93,27.93,0,0,0,5.4,1.5,25.52,25.52,0,0,0,5.51.39,14.19,14.19,0,0,0,5-1,10.9,10.9,0,0,0,5.68-13.16Z"/><path d="M78.94,365.85l8.21,2.38-2.6,9,22.13,6.41c2.07.6,3.56.66,4.45.16s1.64-1.77,2.24-3.84c.2-.7.36-1.37.49-2a19,19,0,0,0,.26-1.89l9.51,2.76a30.88,30.88,0,0,1-.65,3.56c-.31,1.28-.64,2.53-1,3.74a39,39,0,0,1-2,5.29,13.39,13.39,0,0,1-2.81,4.06,8.46,8.46,0,0,1-4.09,2.14,11.88,11.88,0,0,1-5.77-.46L81,389.49l-2.15,7.44-8.22-2.38,2.16-7.44-13.4-3.88L62.94,371l13.4,3.88Z"/><path d="M119.61,357.47q3.67-1.62,5.69-6.63a11.36,11.36,0,0,0,.7-6.9,8.08,8.08,0,0,0-2.51-4.71l4.21-10.43q6.75,5.64,8,12.16A24.38,24.38,0,0,1,134,354.83a26.45,26.45,0,0,1-5.34,8.52,20.67,20.67,0,0,1-7.43,5.06,22.62,22.62,0,0,1-8.95,1.48,28.46,28.46,0,0,1-9.8-2.17,27,27,0,0,1-8.37-5.23,22.46,22.46,0,0,1-7.38-16.32,24.17,24.17,0,0,1,1.87-9.68,22.2,22.2,0,0,1,6-8.74,20.74,20.74,0,0,1,8.43-4.41,25.39,25.39,0,0,1,9.71-.49,32.81,32.81,0,0,1,9.93,3L110.09,357Q115.94,359.09,119.61,357.47Zm-17.28-22.56c-2.13.79-3.79,2.63-5,5.52a11.09,11.09,0,0,0-.95,5.1,9.71,9.71,0,0,0,1.17,4,9.36,9.36,0,0,0,2.36,2.79,13.8,13.8,0,0,0,2.62,1.69l7.79-19.27A14.74,14.74,0,0,0,102.33,334.91Z"/><path d="M109,295.68l7.62,4.07.09-.16a16.08,16.08,0,0,1-3.52-8.61,17.14,17.14,0,0,1,.2-4.69,15.3,15.3,0,0,1,1.56-4.46,10.12,10.12,0,0,1,1.71-2.26l10.49,5.59c-.39.48-.82,1.06-1.3,1.76s-.89,1.39-1.26,2.08a13.75,13.75,0,0,0-1.76,5.79,10.29,10.29,0,0,0,1,5,12.89,12.89,0,0,0,3.17,4.09,26.14,26.14,0,0,0,4.87,3.31L150.39,317l-6,11.28L103.31,306.4Z"/><path d="M146.86,257.85a21.27,21.27,0,0,1-2.42-17.59,28.91,28.91,0,0,1,12.16-15.68,21.17,21.17,0,0,1,17.66-2.08,30.72,30.72,0,0,1,16,12.37,21.81,21.81,0,0,1,3.11,8.56,21.08,21.08,0,0,1-.78,9,29.63,29.63,0,0,1-12.16,15.69,21.11,21.11,0,0,1-8.51,3,21.73,21.73,0,0,1-9.06-.87,30.82,30.82,0,0,1-16-12.38Zm19.42.36a14.65,14.65,0,0,0,4.9,1.47A9.81,9.81,0,0,0,176,259a10.54,10.54,0,0,0,4.31-3.49,10.91,10.91,0,0,0,2.34-5.08,9.81,9.81,0,0,0-.52-4.84,14.47,14.47,0,0,0-2.64-4.38,27.27,27.27,0,0,0-4-3.76,28.16,28.16,0,0,0-4.67-2.94,14.07,14.07,0,0,0-4.9-1.46,10.31,10.31,0,0,0-4.82.7,10.59,10.59,0,0,0-4.37,3.51,9.8,9.8,0,0,0-1.73,9.87,13.93,13.93,0,0,0,2.64,4.38,28.06,28.06,0,0,0,8.64,6.7Z"/><path d="M181.85,195.33l4.56,4.61.2-.19a14.71,14.71,0,0,1,.32-8.62,18.25,18.25,0,0,1,4.33-6.89,21.65,21.65,0,0,1,7-4.93,12.44,12.44,0,0,1,6.4-.89,15,15,0,0,1,6.13,2.42,37.68,37.68,0,0,1,6.09,5L237,206.23l-9.08,9-18.5-18.67q-4.05-4.1-7.32-4.84c-2.19-.5-4.36.33-6.54,2.48q-3.71,3.67-3.19,7.53t5.53,8.9L215,228l-9.08,9-32.74-33.06Z"/><path d="M247,184q4,.47,8.27-2.82a11.42,11.42,0,0,0,4.11-5.59,8,8,0,0,0,.22-5.33l8.94-6.84q2.94,8.3.7,14.54A24.42,24.42,0,0,1,260.69,189a26.69,26.69,0,0,1-8.93,4.62,20.64,20.64,0,0,1-9,.58,22.49,22.49,0,0,1-8.45-3.28,28,28,0,0,1-7.34-6.85,27.09,27.09,0,0,1-4.56-8.75,22.51,22.51,0,0,1,1.95-17.81,24.16,24.16,0,0,1,6.53-7.39,22.21,22.21,0,0,1,9.62-4.47,20.69,20.69,0,0,1,9.5.49,25.3,25.3,0,0,1,8.61,4.52,32.87,32.87,0,0,1,7,7.67L239,178.72Q243,183.49,247,184Zm-3.42-28.22q-3.34-.62-7.07,2.24a11.18,11.18,0,0,0-3.41,3.91,9.66,9.66,0,0,0-1,4,9.48,9.48,0,0,0,.61,3.61,14.36,14.36,0,0,0,1.4,2.78l16.51-12.63A14.74,14.74,0,0,0,243.56,155.74Z"/><path d="M267,144.09l-7.36-11.74,12-7.51,7.36,11.74Zm21.54,7.74,7.36,11.74-12,7.51-7.36-11.74Z"/><path d="M371.46,128.12,338.4,83l-.16.06,5.49,55.73-8.31,3.2L297,87.88l8.15-3.13,30.93,45.38.17-.06L330.53,75l8.65-3.32,32.44,44.8.17-.06-7-54.59,8-3.06,7,66.15Z"/><path d="M395.08,54.7l5,24.06.18,0A10,10,0,0,1,402,74.65,14,14,0,0,1,405,71.53a18.7,18.7,0,0,1,3.86-2.22A21.31,21.31,0,0,1,413,68a20.18,20.18,0,0,1,7.75-.31,12.54,12.54,0,0,1,5.55,2.43A13.14,13.14,0,0,1,430,74.83a28.8,28.8,0,0,1,2.14,6.59l6.19,30-7.49,1.54-6.37-30.84a9.28,9.28,0,0,0-3.85-6.19,9.38,9.38,0,0,0-7.3-1.07,15.57,15.57,0,0,0-5.73,2.29A11.41,11.41,0,0,0,404,81,13,13,0,0,0,402.43,86a18.64,18.64,0,0,0,.33,5.85l5.32,25.74-7.5,1.55-13-62.93Z"/><path d="M489,106.38A10.83,10.83,0,0,1,483.6,108a6.55,6.55,0,0,1-4.85-1.26q-1.89-1.5-2.21-5.27a18.24,18.24,0,0,1-6.85,6,25.31,25.31,0,0,1-14.9,2.22,13.92,13.92,0,0,1-5.07-1.83,10.73,10.73,0,0,1-3.62-3.71,15.87,15.87,0,0,1-.92-12.43,11.79,11.79,0,0,1,3.2-4.38,16.26,16.26,0,0,1,4.82-2.81,57.73,57.73,0,0,1,5.67-1.83c2.05-.6,4-1.08,5.88-1.45a33.27,33.27,0,0,0,4.9-1.32,8.28,8.28,0,0,0,3.26-2,4.14,4.14,0,0,0,1-3.38,7.63,7.63,0,0,0-1.28-3.95A6.54,6.54,0,0,0,470,68.52a9.85,9.85,0,0,0-3.41-.79,24.78,24.78,0,0,0-3.66,0A16.13,16.13,0,0,0,455,70.29q-3.08,2.11-2.91,7.25l-7.62.65a16.45,16.45,0,0,1,1.18-7.42,13.58,13.58,0,0,1,3.89-5.16,18,18,0,0,1,5.92-3.17A33.07,33.07,0,0,1,462.8,61a45.25,45.25,0,0,1,6.27-.08,16.33,16.33,0,0,1,5.76,1.36,10.83,10.83,0,0,1,4.37,3.55,12.47,12.47,0,0,1,2.08,6.4l2,23.8A17.83,17.83,0,0,0,484,100c.28.81,1,1.17,2.21,1.07a9.18,9.18,0,0,0,2.3-.56Zm-14.4-22.71a9.62,9.62,0,0,1-3.63,1.88c-1.53.46-3.13.87-4.82,1.22s-3.39.74-5.1,1.15a19.31,19.31,0,0,0-4.55,1.69,8.63,8.63,0,0,0-3.15,2.83,7.18,7.18,0,0,0-.91,4.62,6.11,6.11,0,0,0,1,3.1,6.39,6.39,0,0,0,2.15,1.93,8.34,8.34,0,0,0,2.92.92,15.7,15.7,0,0,0,3.44.07,18.25,18.25,0,0,0,6.37-1.58,13.5,13.5,0,0,0,4.18-3,10.49,10.49,0,0,0,2.22-3.6,8.69,8.69,0,0,0,.51-3.51Z"/><path d="M515,60.6l-.05,6.75-9.27-.06-.2,28.89a8,8,0,0,0,.21,2.16,2.17,2.17,0,0,0,.85,1.26,3.61,3.61,0,0,0,1.75.6,24.47,24.47,0,0,0,2.92.16l3.51,0,0,6.75-5.85,0a27.12,27.12,0,0,1-5.08-.44,7.45,7.45,0,0,1-3.41-1.51,6.35,6.35,0,0,1-1.91-3.07,17.88,17.88,0,0,1-.6-5.23L498,67.23l-7.92,0,.05-6.75,7.92,0,.09-13.94,7.65.05-.09,13.95Z"/><path d="M586.43,115.63a10.88,10.88,0,0,1-5.61.27,6.63,6.63,0,0,1-4.4-2.4q-1.45-1.92-.86-5.66a18.09,18.09,0,0,1-8.11,4.2,25.31,25.31,0,0,1-15-1.47,13.94,13.94,0,0,1-4.48-3,10.84,10.84,0,0,1-2.6-4.48,13.61,13.61,0,0,1-.24-6.1,13.8,13.8,0,0,1,2.37-6.18,11.83,11.83,0,0,1,4.17-3.47A16.28,16.28,0,0,1,557,85.78q2.93-.34,5.94-.4,3.21-.12,6.06,0a33.48,33.48,0,0,0,5.08-.08,8.54,8.54,0,0,0,3.65-1.14,4.24,4.24,0,0,0,1.77-3,7.71,7.71,0,0,0-.29-4.15,6.47,6.47,0,0,0-2-2.7,9.79,9.79,0,0,0-3.12-1.6,24.07,24.07,0,0,0-3.55-.85,16.15,16.15,0,0,0-8.29.52q-3.49,1.31-4.58,6.32l-7.56-1.22a16.54,16.54,0,0,1,3-6.91,13.64,13.64,0,0,1,5-4.06,18.14,18.14,0,0,1,6.51-1.63,31.82,31.82,0,0,1,7.46.39,44,44,0,0,1,6.1,1.44,16.72,16.72,0,0,1,5.26,2.72,10.9,10.9,0,0,1,3.37,4.51,12.56,12.56,0,0,1,.46,6.71l-3.83,23.58a18,18,0,0,0-.33,4c.08.87.71,1.39,1.89,1.58a8.79,8.79,0,0,0,2.37,0ZM578,90.1a9.68,9.68,0,0,1-4,.94c-1.6.07-3.25.07-5,0s-3.47-.11-5.23-.13a19.07,19.07,0,0,0-4.82.54,8.3,8.3,0,0,0-3.74,2,7.1,7.1,0,0,0-2,4.25,6.12,6.12,0,0,0,.25,3.26,6.3,6.3,0,0,0,1.62,2.4,8.27,8.27,0,0,0,2.61,1.6,15.4,15.4,0,0,0,3.32.9,18.26,18.26,0,0,0,6.56,0,13.94,13.94,0,0,0,4.77-1.85,10.33,10.33,0,0,0,3-3,8.5,8.5,0,0,0,1.35-3.27Z"/><path d="M610.29,74.36l-2.49,9.49.17.05a20.62,20.62,0,0,1,8.74-6.36,17.16,17.16,0,0,1,10.57.17l-2.06,7.83a21.65,21.65,0,0,0-7.89-.77,12.41,12.41,0,0,0-6,2.24,15.26,15.26,0,0,0-4.28,5,31.81,31.81,0,0,0-2.89,7.48l-5.26,20-7.4-1.94,11.81-45Z"/><path d="M649.84,132.89q-6.27,1.94-13.71-.77a23.86,23.86,0,0,1-8.47-5,19,19,0,0,1-4.75-7.09,21.39,21.39,0,0,1-1.29-8.7,37.13,37.13,0,0,1,1.87-9.76A28.14,28.14,0,0,1,628.33,93a23.4,23.4,0,0,1,6.88-5.64A20.82,20.82,0,0,1,643.45,85a21.19,21.19,0,0,1,8.86,1.31,19.05,19.05,0,0,1,8.81,5.93,20.4,20.4,0,0,1,4,8.38,26,26,0,0,1,.26,9.28,36.69,36.69,0,0,1-2.33,8.64l-32.73-11.9a18.67,18.67,0,0,0-1.31,5.71,13.17,13.17,0,0,0,.8,5.45,12.74,12.74,0,0,0,3.16,4.74,15.72,15.72,0,0,0,5.74,3.43,13.26,13.26,0,0,0,8.26.61,10.84,10.84,0,0,0,6.18-5l7.11,2.58Q656.09,131,649.84,132.89Zm8.47-28.72A13.55,13.55,0,0,0,644.2,91.62a12.43,12.43,0,0,0-4.82,1.27,13.68,13.68,0,0,0-4,3,15.85,15.85,0,0,0-2.83,4.38l25.12,9.13A15.85,15.85,0,0,0,658.31,104.17Z"/><path d="M722.15,99.71l-12.41,21.21.16.09a10,10,0,0,1,4-1.87,14.19,14.19,0,0,1,4.37-.26,19.18,19.18,0,0,1,4.35.93,20.94,20.94,0,0,1,3.92,1.77,20.42,20.42,0,0,1,6,5,12.68,12.68,0,0,1,2.5,5.53,13,13,0,0,1-.42,6,28.42,28.42,0,0,1-2.81,6.33l-15.46,26.41-6.6-3.86,15.91-27.19a9.26,9.26,0,0,0,1.28-7.17,9.37,9.37,0,0,0-4.71-5.68,15.57,15.57,0,0,0-5.79-2.13,11.3,11.3,0,0,0-5.23.48,13.09,13.09,0,0,0-4.56,2.7,18.8,18.8,0,0,0-3.67,4.58L689.7,155.17l-6.6-3.86,32.45-55.46Z"/><path d="M735.28,192.24a48.56,48.56,0,0,1-5.58,3,15.66,15.66,0,0,1-4.6,1.33,9.89,9.89,0,0,1-4.11-.38,13.73,13.73,0,0,1-4-2.14,20.16,20.16,0,0,1-2-1.77,12.49,12.49,0,0,1-1.7-2.07l4.21-5.61a12.83,12.83,0,0,0,1.38,2,9.73,9.73,0,0,0,1.57,1.58,6.62,6.62,0,0,0,3.81,1.45,6.86,6.86,0,0,0,3.82-1.12l7.23-4.37,13-48.06,6.91,5.19-12,38.6.14.11,33.31-22.6,6.47,4.87Z"/><path d="M796.64,174.39l-4.35,4.55.13.12a11.42,11.42,0,0,1,8.18.05,22.13,22.13,0,0,1,7.65,4.89,21,21,0,0,1,5.43,7.93,19.35,19.35,0,0,1,1.11,8.48,23.83,23.83,0,0,1-2.49,8.39,31.62,31.62,0,0,1-5.5,7.69,32.56,32.56,0,0,1-7.41,5.86,22,22,0,0,1-8.18,2.83,18.58,18.58,0,0,1-8.39-.87,21.65,21.65,0,0,1-8-5.07,23.14,23.14,0,0,1-2.51-2.91,20.5,20.5,0,0,1-2.22-3.74,16.14,16.14,0,0,1-1.3-4.3,12.18,12.18,0,0,1,.15-4.65l-.13-.12-16.55,17.3-5.53-5.29,44.43-46.43Zm8.45,30.94a17.06,17.06,0,0,0,1.94-5.8,12.71,12.71,0,0,0-.57-5.91,13.66,13.66,0,0,0-3.66-5.49A12.59,12.59,0,0,0,791,184.54a16.55,16.55,0,0,0-5.67,2.35,27.3,27.3,0,0,0-9,9.43,16.48,16.48,0,0,0-2,5.83,13.15,13.15,0,0,0,.58,6,14.18,14.18,0,0,0,3.85,5.75,13,13,0,0,0,5.84,3.46,12.23,12.23,0,0,0,5.89,0,17.43,17.43,0,0,0,5.67-2.54,30.3,30.3,0,0,0,5.12-4.32A23.55,23.55,0,0,0,805.09,205.33Z"/><path d="M818.57,262.32q-6.37-1.54-11.38-7.68a24,24,0,0,1-4.72-8.63,19.14,19.14,0,0,1-.45-8.52,21.43,21.43,0,0,1,3.36-8.14,36.86,36.86,0,0,1,6.6-7.42,27.92,27.92,0,0,1,8.56-4.89,23.15,23.15,0,0,1,8.8-1.31,20.54,20.54,0,0,1,8.28,2.18,21.17,21.17,0,0,1,6.94,5.66,19.07,19.07,0,0,1,4.53,9.61,20.41,20.41,0,0,1-.9,9.21,25.68,25.68,0,0,1-4.53,8.11,37.17,37.17,0,0,1-6.42,6.23l-22-27a18.34,18.34,0,0,0-4,4.23,13.06,13.06,0,0,0-2.12,5.09,12.86,12.86,0,0,0,.29,5.69,15.73,15.73,0,0,0,3.17,5.89,13.23,13.23,0,0,0,6.78,4.75,10.88,10.88,0,0,0,7.89-1.15L832,260.1Q824.94,263.87,818.57,262.32Zm22-20.32a13,13,0,0,0,1.48-4.81,13.2,13.2,0,0,0-.45-5,13.05,13.05,0,0,0-2.53-4.73,13.31,13.31,0,0,0-4.19-3.5,12.54,12.54,0,0,0-4.78-1.38,13.54,13.54,0,0,0-5,.56,15.92,15.92,0,0,0-4.68,2.3l16.9,20.71A15.57,15.57,0,0,0,840.55,242Z"/><path d="M866.88,255.44l-8.16,5.45.1.15a20.7,20.7,0,0,1,10.76,1,17.12,17.12,0,0,1,7.8,7.12l-6.73,4.51a21.54,21.54,0,0,0-5.4-5.81,12.28,12.28,0,0,0-6-2.29,15.28,15.28,0,0,0-6.5.88,31.69,31.69,0,0,0-7.12,3.68l-17.21,11.51-4.25-6.36,38.68-25.87Z"/><path d="M867.79,281.37a21.79,21.79,0,0,1,8.86.13,20.57,20.57,0,0,1,7.93,3.81,26,26,0,0,1,9.23,17.16,20.46,20.46,0,0,1-1.2,8.67,22,22,0,0,1-4.77,7.48,31.07,31.07,0,0,1-7.76,5.81,30.64,30.64,0,0,1-9.08,3.25,21.64,21.64,0,0,1-8.83-.16,19.78,19.78,0,0,1-7.86-3.79,24,24,0,0,1-6.26-7.72,24.29,24.29,0,0,1-3-9.43,19.87,19.87,0,0,1,1.15-8.69,21.75,21.75,0,0,1,4.73-7.46,32.43,32.43,0,0,1,16.84-9.06Zm-11.37,15a15.8,15.8,0,0,0-3.36,5.34,13.46,13.46,0,0,0-.78,5.68,14.13,14.13,0,0,0,5.34,9.9,13.3,13.3,0,0,0,5.16,2.48,15.79,15.79,0,0,0,6.31.14,25.75,25.75,0,0,0,13.23-7.13,16.17,16.17,0,0,0,3.41-5.36,13.31,13.31,0,0,0,.81-5.7,14,14,0,0,0-5.33-9.9,13.2,13.2,0,0,0-5.21-2.46,16,16,0,0,0-6.35-.11,25.64,25.64,0,0,0-13.23,7.12Z"/><path d="M925.33,326.35l-22.44,8.58.06.17a11.47,11.47,0,0,1,7.38,3.54,22.17,22.17,0,0,1,4.82,7.69,20.94,20.94,0,0,1,1.51,9.5A19.15,19.15,0,0,1,914,364a23.67,23.67,0,0,1-5.84,6.52,31.53,31.53,0,0,1-8.26,4.6,32.85,32.85,0,0,1-9.21,2.13,22,22,0,0,1-8.6-.95,18.67,18.67,0,0,1-7.21-4.37,21.66,21.66,0,0,1-5.1-8,23.74,23.74,0,0,1-1-3.7,21.24,21.24,0,0,1-.4-4.32,16.26,16.26,0,0,1,.66-4.45,12.37,12.37,0,0,1,2.13-4.14l-.07-.17-5.8,2.22-2.73-7.14,60-23Zm-22.16,37.91a17.19,17.19,0,0,0,4.24-4.41,13,13,0,0,0,2-5.59,13.67,13.67,0,0,0-1-6.52,12.61,12.61,0,0,0-9.09-8.28,16.53,16.53,0,0,0-6.14-.3,26.92,26.92,0,0,0-6.24,1.56,27.36,27.36,0,0,0-5.89,3.12,16.51,16.51,0,0,0-4.34,4.41,13.14,13.14,0,0,0-2,5.64,14.26,14.26,0,0,0,1,6.84,13.14,13.14,0,0,0,3.8,5.63,12.26,12.26,0,0,0,5.31,2.55,17.63,17.63,0,0,0,6.21.12,30.67,30.67,0,0,0,6.48-1.7A24.13,24.13,0,0,0,903.17,364.26Z"/><path d="M867,399.79a11.39,11.39,0,0,1-5-7.06,19.79,19.79,0,0,1-.7-3.83l6.32-1.78c0,.3.05.56.08.77a4.34,4.34,0,0,0,.14.66l.44,1.56c.45,1.62,1.21,2.59,2.27,2.91s2.74.16,5-.49l49.19-13.91,2.08,7.36-50.4,14.25Q870.52,401.93,867,399.79Zm65.9-23.45,9-2.55,2.09,7.36-9,2.55Z"/><path d="M894.38,440.59q-4.89-4.36-6.4-12.14a23.84,23.84,0,0,1-.08-9.84,19.05,19.05,0,0,1,3.63-7.72,21.37,21.37,0,0,1,6.8-5.59,37.56,37.56,0,0,1,9.33-3.42,28.1,28.1,0,0,1,9.85-.26,23.25,23.25,0,0,1,8.37,3,20.48,20.48,0,0,1,6.28,5.84,21.25,21.25,0,0,1,3.44,8.27,19.05,19.05,0,0,1-.55,10.6,20.41,20.41,0,0,1-5.15,7.7,25.85,25.85,0,0,1-7.83,5,36.74,36.74,0,0,1-8.6,2.46l-6.65-34.19a18.34,18.34,0,0,0-5.56,1.81,13,13,0,0,0-4.27,3.5,12.75,12.75,0,0,0-2.44,5.15,15.81,15.81,0,0,0,0,6.68,13.22,13.22,0,0,0,3.73,7.39,10.91,10.91,0,0,0,7.5,2.72l1.44,7.42Q899.26,445,894.38,440.59Zm29-7.52a13,13,0,0,0,3.57-3.53,13.57,13.57,0,0,0,2-4.6,14.14,14.14,0,0,0-2-10.43,12.15,12.15,0,0,0-3.57-3.47,13.39,13.39,0,0,0-4.62-1.85,15.65,15.65,0,0,0-5.21-.18l5.1,26.24A15.89,15.89,0,0,0,923.36,433.07Z"/><path d="M933.92,479.48a11.64,11.64,0,0,0,1.84-7.9,14.22,14.22,0,0,0-2-6.79,12.37,12.37,0,0,0-4.38-4.14,17,17,0,0,0-6-1.94,31.67,31.67,0,0,0-6.83-.21,26.37,26.37,0,0,0-6.23,1.24,16.68,16.68,0,0,0-5.25,2.79,12.07,12.07,0,0,0-3.49,4.51,12.6,12.6,0,0,0-1,6.3c.28,3.77,1.5,6.64,3.63,8.61a13.42,13.42,0,0,0,8.64,3.28l.59,7.8q-8.7-.6-13.76-5.41T894,473.93a24.4,24.4,0,0,1,1-9.51,18.12,18.12,0,0,1,4.33-7.18,21,21,0,0,1,7.18-4.7,31.16,31.16,0,0,1,9.45-2.11,34.21,34.21,0,0,1,9.84.6,22.7,22.7,0,0,1,8.21,3.49,19.16,19.16,0,0,1,5.81,6.46,22.54,22.54,0,0,1,2.66,9.46,28.32,28.32,0,0,1-.38,7.48,18,18,0,0,1-2.46,6.32A16,16,0,0,1,935,489a18.4,18.4,0,0,1-7,2.69l-.6-7.89A11.65,11.65,0,0,0,933.92,479.48Z"/><path d="M942.32,522.09l-6.74-.1.15-9.27-28.89-.47a8.57,8.57,0,0,0-2.16.19,2.2,2.2,0,0,0-1.28.84,3.78,3.78,0,0,0-.61,1.74,26.21,26.21,0,0,0-.18,2.92l-.06,3.51-6.75-.11.1-5.85a27.45,27.45,0,0,1,.48-5.07,7.59,7.59,0,0,1,1.54-3.4,6.41,6.41,0,0,1,3.09-1.89,17.84,17.84,0,0,1,5.23-.54l29.61.48.13-7.92,6.75.11-.13,7.92,13.95.22-.13,7.65-13.95-.22Z"/><path d="M905.33,535.34a8.12,8.12,0,0,0-3.07,2.53,12.64,12.64,0,0,0-1.89,3.78,22.59,22.59,0,0,0-.93,4.47,29.18,29.18,0,0,0-.13,3.79,13.93,13.93,0,0,0,.61,3.73,6.82,6.82,0,0,0,1.81,3,5.66,5.66,0,0,0,3.42,1.45,5.12,5.12,0,0,0,4.72-1.77,19.3,19.3,0,0,0,3-5.33c.86-2.17,1.68-4.55,2.47-7.12a37.9,37.9,0,0,1,2.91-7.07,15.11,15.11,0,0,1,4.49-5.18,10.13,10.13,0,0,1,7.22-1.5,11.12,11.12,0,0,1,5.83,2.2,12.77,12.77,0,0,1,3.64,4.46,18.61,18.61,0,0,1,1.75,5.79,25.89,25.89,0,0,1,.11,6.21,36.92,36.92,0,0,1-1.44,7.18,17,17,0,0,1-2.94,5.62,12.22,12.22,0,0,1-4.91,3.6,17.26,17.26,0,0,1-7.21,1l.8-7.61a7.79,7.79,0,0,0,3.84-.77,7.64,7.64,0,0,0,2.63-2.26,11.28,11.28,0,0,0,1.66-3.22,17.66,17.66,0,0,0,.79-3.67,23.47,23.47,0,0,0,.1-3.47,11.65,11.65,0,0,0-.61-3.28,6.44,6.44,0,0,0-1.54-2.52,4.63,4.63,0,0,0-2.82-1.2,4.31,4.31,0,0,0-3.41,1,11.34,11.34,0,0,0-2.52,3.31,30.66,30.66,0,0,0-1.94,4.69q-.87,2.61-1.78,5.24a58.14,58.14,0,0,1-2.11,5.43,18.22,18.22,0,0,1-2.88,4.58,11.53,11.53,0,0,1-4.07,3,11,11,0,0,1-5.69.72,13,13,0,0,1-6.8-2.49,13.52,13.52,0,0,1-4-5,19.11,19.11,0,0,1-1.7-6.61,37.26,37.26,0,0,1,.07-7.09,32.27,32.27,0,0,1,1.58-7.26,18.2,18.2,0,0,1,3.29-5.9A13.48,13.48,0,0,1,903,528a16.68,16.68,0,0,1,7.49-1l-.8,7.6A8.74,8.74,0,0,0,905.33,535.34Z"/><path d="M895.17,596.85l-9.75-2.2,2.2-9.74,9.74,2.19ZM942,583.44a20.39,20.39,0,0,1,5.84,5.42,17.92,17.92,0,0,1,3,7.23,21.36,21.36,0,0,1-.27,8.61,23,23,0,0,1-2.88,7.24A17.09,17.09,0,0,1,943,617a15.85,15.85,0,0,1-6.34,2.59,19.7,19.7,0,0,1-7.77-.32,17.19,17.19,0,0,1-4.73-1.76,17.8,17.8,0,0,1-3.52-2.59,21.29,21.29,0,0,1-2.71-3.14c-.79-1.14-1.55-2.28-2.27-3.42s-1.35-2.26-2.06-3.37a23.2,23.2,0,0,0-2.34-3.11,14.46,14.46,0,0,0-2.94-2.51,12.08,12.08,0,0,0-3.94-1.57l-3.42-.77,1.68-7.47,4.12.93a17.24,17.24,0,0,1,6,2.78,20.21,20.21,0,0,1,4,3.93,38.55,38.55,0,0,1,2.92,4.44A43.85,43.85,0,0,0,922.4,606,16.46,16.46,0,0,0,926,609.5a12.82,12.82,0,0,0,5.36,2,11.64,11.64,0,0,0,8.25-1.41,10.51,10.51,0,0,0,4.41-6.9,12.38,12.38,0,0,0,.08-5.7,11.47,11.47,0,0,0-2.21-4.51,12.7,12.7,0,0,0-4.06-3.27,22.72,22.72,0,0,0-5.55-2l1.68-7.47A24.14,24.14,0,0,1,942,583.44Z"/></svg>