<svg xmlns="http://www.w3.org/2000/svg" viewBox="0 0 1000 1000"><path d="M158.2,764.48a14.19,14.19,0,0,0-.78,4.68,14.77,14.77,0,0,0,3.32,9.24,16.59,16.59,0,0,0,6.54,5.13,15.32,15.32,0,0,0,7.25,1.08,21.53,21.53,0,0,0,7.38-2.11,35.2,35.2,0,0,0,7-4.42,32.32,32.32,0,0,0,5.52-5.7,21.44,21.44,0,0,0,3.45-6.67,15.46,15.46,0,0,0,.41-7.29,16.48,16.48,0,0,0-3.67-7.45q-4.08-5-9.45-5.37a18.3,18.3,0,0,0-10.92,3.11l-8.61-10.62a32.62,32.62,0,0,1,10.21-4.7,26.33,26.33,0,0,1,10.18-.6,25.28,25.28,0,0,1,9.49,3.43,31.9,31.9,0,0,1,8.26,7.32,33.06,33.06,0,0,1,6.37,11.93,28.53,28.53,0,0,1,.77,12.17,31.26,31.26,0,0,1-4.3,11.49,38.77,38.77,0,0,1-8.81,9.92A40.13,40.13,0,0,1,186,795.79a32.12,32.12,0,0,1-12.27,2,28.36,28.36,0,0,1-11.86-3.19,32.33,32.33,0,0,1-10.38-8.67,32.72,32.72,0,0,1-5.14-8.75,27.14,27.14,0,0,1-1.86-9.38,24.07,24.07,0,0,1,1.74-9.35,26.06,26.06,0,0,1,5.77-8.62l8.61,10.63A11.49,11.49,0,0,0,158.2,764.48Z"/><path d="M120,738.94l20.81-12.36-.14-.23a14.87,14.87,0,0,1-8.24-2.33,16.77,16.77,0,0,1-5.35-5.4,21.67,21.67,0,0,1-3.1-8,12.43,12.43,0,0,1,.69-6.43,15,15,0,0,1,3.82-5.36,37.76,37.76,0,0,1,6.38-4.68l24.61-14.62,6.53,11L143.44,704q-5,2.94-6.47,5.94c-1,2-.74,4.31.83,6.94,1.78,3,3.95,4.63,6.53,4.92s5.9-.79,10-3.21l21-12.46,6.52,11-55.25,32.82Z"/><path d="M126.64,685.93a14.83,14.83,0,0,1-7.74.91,15.35,15.35,0,0,1-6.39-2.72,22,22,0,0,1-5.09-5.29,39.25,39.25,0,0,1-3.77-6.75,50.86,50.86,0,0,1-2.38-6.72,21.66,21.66,0,0,1-.85-6.8,12.85,12.85,0,0,1,1.74-6,11.11,11.11,0,0,1,5.48-4.44l22.2-9.66a46.79,46.79,0,0,0,5.39-2.73,10.79,10.79,0,0,0,3.46-2.88l5.16,11.89a17.71,17.71,0,0,1-1.79,1.42,19.27,19.27,0,0,1-2,1.2,16.61,16.61,0,0,1,6.92,4.84,29.09,29.09,0,0,1,4.53,7.26,23,23,0,0,1,1.73,6,14.27,14.27,0,0,1-.3,5.63,11.72,11.72,0,0,1-2.62,4.81,14.46,14.46,0,0,1-5.21,3.59,13.48,13.48,0,0,1-6.54,1.32,11.53,11.53,0,0,1-5.19-1.67,16.06,16.06,0,0,1-4.11-3.7,52.23,52.23,0,0,1-3.4-4.76q-1.56-2.46-2.92-4.91a33.66,33.66,0,0,0-2.71-4.22,8.7,8.7,0,0,0-2.81-2.51,3.47,3.47,0,0,0-3.23.13,6.78,6.78,0,0,0-2.75,1.93,4.94,4.94,0,0,0-1,2.4,7.06,7.06,0,0,0,.21,2.75,22.57,22.57,0,0,0,1.07,3,9.69,9.69,0,0,0,3.85,4.8c1.57.89,3.55.94,6,.16Zm-3.1-30.84a5.57,5.57,0,0,1,1.84,1.41,19.5,19.5,0,0,1,1.66,2.12c.54.78,1.07,1.62,1.58,2.5s1.06,1.77,1.63,2.63a23.72,23.72,0,0,0,1.79,2.31,8.43,8.43,0,0,0,2.09,1.75,5.67,5.67,0,0,0,2.44.75,6.11,6.11,0,0,0,3-.6,6,6,0,0,0,2.39-1.73,4.72,4.72,0,0,0,1-2.3,7.09,7.09,0,0,0-.14-2.69,15.87,15.87,0,0,0-.93-2.83,11.44,11.44,0,0,0-3.49-4.87,8.55,8.55,0,0,0-4-1.6,9.66,9.66,0,0,0-3.75.3,23.42,23.42,0,0,0-2.73,1Z"/><path d="M88.45,628l5.71-1.65,0-.17A14,14,0,0,1,87.19,622a18.11,18.11,0,0,1-3.83-7.14,20.24,20.24,0,0,1-.63-9.65,19.65,19.65,0,0,1,3.47-7.84,23.27,23.27,0,0,1,6.58-5.92,35.52,35.52,0,0,1,8.78-3.83,32.07,32.07,0,0,1,9-1.28,23.07,23.07,0,0,1,8.41,1.56,18.58,18.58,0,0,1,11.25,12.74,18.1,18.1,0,0,1,.52,8.14,15.14,15.14,0,0,1-3.32,7.18l0,.17,21.19-6.09,3.53,12.28L91.81,639.7Zm30.87-26.16a10.18,10.18,0,0,0-4.1-2.38,13.62,13.62,0,0,0-5-.47,28.19,28.19,0,0,0-5.43,1,26.46,26.46,0,0,0-5.11,2.08,14.58,14.58,0,0,0-4.09,3.19,10.68,10.68,0,0,0-2.33,4.28,9.66,9.66,0,0,0,.17,5.33,9.87,9.87,0,0,0,2.71,4.7,10.57,10.57,0,0,0,4.19,2.35,14,14,0,0,0,5.1.46,28.35,28.35,0,0,0,5.51-1,26.2,26.2,0,0,0,5.11-2.08,14.41,14.41,0,0,0,4-3.13,10,10,0,0,0,2.2-4.23,10.24,10.24,0,0,0-.23-5.37A10.08,10.08,0,0,0,119.32,601.87Z"/><path d="M72.54,558.2,81,556.72l1.62,9.22,22.7-4c2.12-.38,3.48-1,4.06-1.81s.69-2.32.32-4.45c-.13-.7-.27-1.38-.45-2a17.46,17.46,0,0,0-.59-1.81l9.75-1.72a32.41,32.41,0,0,1,1,3.49c.28,1.29.54,2.55.76,3.79a37.58,37.58,0,0,1,.57,5.61,13.43,13.43,0,0,1-.74,4.89,8.29,8.29,0,0,1-2.73,3.72,11.76,11.76,0,0,1-5.38,2.13l-27,4.75,1.34,7.63-8.42,1.48L76.38,580l-13.75,2.42-2.21-12.59,13.74-2.41Z"/><path d="M105.37,532.76q2.56-3.06,2.18-8.45a11.37,11.37,0,0,0-2.4-6.51,8,8,0,0,0-4.33-3.11L100,503.47q8.53,2.08,12.53,7.39a24.39,24.39,0,0,1,4.56,13.21,26.35,26.35,0,0,1-1,10,20.45,20.45,0,0,1-4.44,7.81,22.49,22.49,0,0,1-7.38,5.27,28.44,28.44,0,0,1-9.76,2.37,26.9,26.9,0,0,1-9.81-1A22.41,22.41,0,0,1,70.85,537.1a23.93,23.93,0,0,1-2.58-9.51,22.12,22.12,0,0,1,1.54-10.49,20.71,20.71,0,0,1,5.63-7.67,25.45,25.45,0,0,1,8.5-4.72,33.06,33.06,0,0,1,10.26-1.64l2.42,33.48Q102.79,535.85,105.37,532.76ZM79.91,520.12c-1.56,1.64-2.23,4-2,7.14a11.06,11.06,0,0,0,1.4,5,9.5,9.5,0,0,0,2.79,3,9.19,9.19,0,0,0,3.35,1.47,14.91,14.91,0,0,0,3.1.37L87,516.4A14.74,14.74,0,0,0,79.91,520.12Z"/><path d="M68.65,482l8.64.29v-.18a15.67,15.67,0,0,1-3.92-2.56,15.94,15.94,0,0,1-3-3.62,17.27,17.27,0,0,1-1.88-4.29,15.38,15.38,0,0,1-.56-4.7,10.21,10.21,0,0,1,.54-2.78l11.88.4c-.14.6-.27,1.32-.39,2.15a23.63,23.63,0,0,0-.22,2.42,13.67,13.67,0,0,0,1,6,10.24,10.24,0,0,0,3.07,4,12.48,12.48,0,0,0,4.65,2.27,25.6,25.6,0,0,0,5.82.83l21,.7-.43,12.78-46.5-1.57Z"/><path d="M77.74,404.75l8.42,1.48-1.63,9.22,22.69,4c2.13.38,3.61.28,4.44-.31s1.44-1.94,1.82-4.06c.12-.71.22-1.4.27-2.06a15.48,15.48,0,0,0,.06-1.91l9.75,1.73a30.47,30.47,0,0,1-.27,3.61c-.17,1.31-.37,2.58-.58,3.82a38.33,38.33,0,0,1-1.38,5.47,13.34,13.34,0,0,1-2.37,4.33,8.28,8.28,0,0,1-3.84,2.57,11.91,11.91,0,0,1-5.78.17l-27-4.78L81,435.66l-8.42-1.49,1.35-7.62-13.74-2.43,2.23-12.59L76.11,414Z"/><path d="M135.41,370.24l-32.28-1.38,0,.17,27.46,16.85-3.93,12.63-48.82.26,4-12.89,32.7,1.23,0-.18L86.7,370.15l3.69-11.86,32.44,1.81,0-.17L95.35,342.4l3.9-12.55,40.07,27.84Z"/><path d="M116,326.19a21.32,21.32,0,0,1-5.91-16.75,26.61,26.61,0,0,1,2.8-9.66,26.91,26.91,0,0,1,6-8.15,21.17,21.17,0,0,1,16.89-5.58,28.52,28.52,0,0,1,9.84,2.93,28.11,28.11,0,0,1,8.29,6,21.74,21.74,0,0,1,4.76,7.75,21.23,21.23,0,0,1,1.05,9,27.49,27.49,0,0,1-2.86,9.68,27,27,0,0,1-5.9,8.13,21.12,21.12,0,0,1-7.74,4.62,21.8,21.8,0,0,1-9.05,1A30.67,30.67,0,0,1,116,326.19Zm19.09-3.55a14.46,14.46,0,0,0,5.1.45,9.87,9.87,0,0,0,4.56-1.62,10.52,10.52,0,0,0,3.51-4.29,10.8,10.8,0,0,0,1.27-5.44,9.56,9.56,0,0,0-1.48-4.64,14.42,14.42,0,0,0-3.46-3.76,26.86,26.86,0,0,0-4.65-2.89,28,28,0,0,0-5.16-1.94,14.12,14.12,0,0,0-5.1-.45,10.3,10.3,0,0,0-4.58,1.66,10.51,10.51,0,0,0-3.57,4.31,10.29,10.29,0,0,0-1.21,5.43,10.18,10.18,0,0,0,1.5,4.59,13.9,13.9,0,0,0,3.46,3.76,28,28,0,0,0,9.81,4.83Z"/><path d="M143.66,276.36l-11.78-7.29,7.43-12,11.79,7.3Zm22.74-2.54,11.79,7.3-7.44,12L159,285.84Z"/><path d="M155.29,203.23,176,221.55l22.45-25.32L177.74,177.9l5.67-6.39,48.09,42.62-5.67,6.4L203.8,201l-22.44,25.32,22,19.52-5.67,6.4-48.09-42.63Z"/><path d="M263.3,186.68l-4.78-5.63-.14.12a15.53,15.53,0,0,1-.62,8.86,18.54,18.54,0,0,1-5.47,7.31,20.63,20.63,0,0,1-6.62,4,12.08,12.08,0,0,1-6,.57,13,13,0,0,1-5.49-2.36,28.84,28.84,0,0,1-5-4.75L209.3,171.52l5.83-5,20.4,24a9.28,9.28,0,0,0,6.35,3.58,9.41,9.41,0,0,0,6.92-2.57,15.51,15.51,0,0,0,3.92-4.76,11.27,11.27,0,0,0,1.28-5.1,13.3,13.3,0,0,0-1.05-5.19,18.79,18.79,0,0,0-3.11-5l-17-20,5.82-5L268.79,182Z"/><path d="M257.46,132.34l3.58,5.83.15-.09q.3-9.48,8.66-14.62a16.82,16.82,0,0,1,7.61-2.56,10,10,0,0,1,7.42,2.62,16.13,16.13,0,0,1,2.2-8.21,17.34,17.34,0,0,1,6.08-6.17,24.06,24.06,0,0,1,5.81-2.67,13,13,0,0,1,5.39-.51,10.8,10.8,0,0,1,4.87,1.91,15.31,15.31,0,0,1,4.19,4.67l17.86,29.06-6.52,4-16-26a21.77,21.77,0,0,0-2.43-3.26,8.36,8.36,0,0,0-2.87-2.1,6.86,6.86,0,0,0-3.5-.44,10.88,10.88,0,0,0-4.29,1.69q-4.83,3-5.9,7.43a11.67,11.67,0,0,0,1.76,9l15.18,24.7-6.52,4-16-26a19.91,19.91,0,0,0-2.52-3.32,8.83,8.83,0,0,0-2.9-2.07,6.67,6.67,0,0,0-3.4-.45,10.36,10.36,0,0,0-4,1.59,11.37,11.37,0,0,0-4.16,4.14,13,13,0,0,0-1.4,9.25,11.31,11.31,0,0,0,1.2,3.23l15.17,24.69-6.52,4-24.36-39.65Z"/><path d="M377.89,122a10.78,10.78,0,0,1-4.6,3.21,6.58,6.58,0,0,1-5,.32q-2.25-.85-3.74-4.33a18.32,18.32,0,0,1-4.62,7.87,24.27,24.27,0,0,1-7.68,5.06,24.62,24.62,0,0,1-5.79,1.68,14.07,14.07,0,0,1-5.4-.16,10.73,10.73,0,0,1-4.59-2.41,13.41,13.41,0,0,1-3.45-5,13.76,13.76,0,0,1-1.29-6.5,11.92,11.92,0,0,1,1.68-5.16,16.29,16.29,0,0,1,3.71-4.16q2.29-1.84,4.82-3.51t5.14-3.2a33,33,0,0,0,4.25-2.78,8.33,8.33,0,0,0,2.48-2.91,4.17,4.17,0,0,0-.12-3.51,7.62,7.62,0,0,0-2.45-3.36A6.43,6.43,0,0,0,348.09,92a10,10,0,0,0-3.49.3,25.6,25.6,0,0,0-3.46,1.18,16.14,16.14,0,0,0-6.74,4.86q-2.26,3-.51,7.79l-7,3a16.46,16.46,0,0,1-1.19-7.41,13.6,13.6,0,0,1,2.1-6.12,18.2,18.2,0,0,1,4.64-4.85A32.32,32.32,0,0,1,338.92,87a42.88,42.88,0,0,1,5.94-2,16.35,16.35,0,0,1,5.89-.5,10.79,10.79,0,0,1,5.26,2A12.46,12.46,0,0,1,360,92l9.32,22a17.71,17.71,0,0,0,1.83,3.52c.52.69,1.34.8,2.44.33a9.51,9.51,0,0,0,2-1.24Zm-20.74-17.12a9.41,9.41,0,0,1-2.87,2.92q-1.95,1.36-4.2,2.66c-1.49.86-3,1.75-4.48,2.67a19.24,19.24,0,0,0-3.81,3,8.55,8.55,0,0,0-2.11,3.66,7.12,7.12,0,0,0,.57,4.68,6.11,6.11,0,0,0,1.94,2.63,6.5,6.5,0,0,0,2.64,1.16,8.36,8.36,0,0,0,3.07,0,15.69,15.69,0,0,0,3.29-1,18,18,0,0,0,5.56-3.48,13.51,13.51,0,0,0,3.05-4.11,10.26,10.26,0,0,0,1-4.11,8.51,8.51,0,0,0-.6-3.49Z"/><path d="M377.06,73.92l2,7.09.18-.05q2.24-9.45,12.18-12.32a20.2,20.2,0,0,1,7.7-.91,12.61,12.61,0,0,1,5.73,2,13,13,0,0,1,4,4.41,28.43,28.43,0,0,1,2.65,6.4l8.48,29.4-7.35,2.12L404,81.8a9.26,9.26,0,0,0-4.32-5.88,9.43,9.43,0,0,0-7.36-.5,15.63,15.63,0,0,0-5.53,2.72,11.42,11.42,0,0,0-3.26,4.13,13.1,13.1,0,0,0-1.18,5.17,18.82,18.82,0,0,0,.78,5.81l7.29,25.25L383,120.62l-12.9-44.71Z"/><path d="M433.68,96.71A8.07,8.07,0,0,0,436.93,99a12.61,12.61,0,0,0,4.15.82,22.75,22.75,0,0,0,4.56-.3,27.59,27.59,0,0,0,3.68-.89,13.7,13.7,0,0,0,3.44-1.57,6.84,6.84,0,0,0,2.36-2.54,5.65,5.65,0,0,0,.48-3.68,5.08,5.08,0,0,0-3-4.07,19,19,0,0,0-5.95-1.52c-2.32-.25-4.83-.42-7.52-.49a38,38,0,0,1-7.59-.93,15.13,15.13,0,0,1-6.19-2.94A10.17,10.17,0,0,1,422,74.34a11.19,11.19,0,0,1,.57-6.21,12.86,12.86,0,0,1,3.32-4.7A18.54,18.54,0,0,1,431,60.21,25,25,0,0,1,437,58.44a37,37,0,0,1,7.3-.53,16.94,16.94,0,0,1,6.2,1.34A12.26,12.26,0,0,1,455.27,63a17.24,17.24,0,0,1,2.93,6.68L450.66,71a7.84,7.84,0,0,0-1.77-3.49A7.53,7.53,0,0,0,446,65.52a11.39,11.39,0,0,0-3.54-.74,17.43,17.43,0,0,0-3.75.22,21.92,21.92,0,0,0-3.38.83,11.7,11.7,0,0,0-3,1.45,6.56,6.56,0,0,0-2,2.16,4.65,4.65,0,0,0-.41,3,4.34,4.34,0,0,0,1.92,3A11.15,11.15,0,0,0,435.7,77a30.73,30.73,0,0,0,5,.62c1.84.09,3.68.2,5.53.32s3.89.29,5.8.58a18.76,18.76,0,0,1,5.18,1.56,11.79,11.79,0,0,1,4,3.13,11,11,0,0,1,2.2,5.29,13,13,0,0,1-.58,7.21,13.74,13.74,0,0,1-3.79,5.19,19.22,19.22,0,0,1-5.92,3.4,37.58,37.58,0,0,1-6.86,1.82,32.8,32.8,0,0,1-7.41.41,18.08,18.08,0,0,1-6.56-1.6,13.55,13.55,0,0,1-5.06-4.09,16.87,16.87,0,0,1-3-6.94l7.55-1.25A8.53,8.53,0,0,0,433.68,96.71Z"/><path d="M537.65,100a10.7,10.7,0,0,1-5.5,1.11,6.55,6.55,0,0,1-4.7-1.71q-1.74-1.68-1.7-5.46a18.38,18.38,0,0,1-7.39,5.36,25.37,25.37,0,0,1-15,.79,13.87,13.87,0,0,1-4.88-2.3,10.72,10.72,0,0,1-3.25-4,13.59,13.59,0,0,1-1.15-6,13.64,13.64,0,0,1,1.42-6.46,11.79,11.79,0,0,1,3.6-4.06,16.18,16.18,0,0,1,5.06-2.33q2.85-.78,5.82-1.29,3.15-.6,6-.88a32.56,32.56,0,0,0,5-.85,8.32,8.32,0,0,0,3.44-1.67,4.16,4.16,0,0,0,1.29-3.28,7.64,7.64,0,0,0-.9-4.06,6.54,6.54,0,0,0-2.4-2.36,10.17,10.17,0,0,0-3.32-1.12,25.3,25.3,0,0,0-3.65-.3,16.18,16.18,0,0,0-8.11,1.75c-2.18,1.21-3.37,3.52-3.59,6.94l-7.65-.08a16.53,16.53,0,0,1,1.88-7.27,13.65,13.65,0,0,1,4.37-4.77A18.24,18.24,0,0,1,508.49,53a32.84,32.84,0,0,1,7.44-.73,43.55,43.55,0,0,1,6.25.52,16.28,16.28,0,0,1,5.6,1.9,10.7,10.7,0,0,1,4,3.95,12.45,12.45,0,0,1,1.46,6.57L533,89.11a17.91,17.91,0,0,0,.27,4c.2.84.9,1.27,2.1,1.28a9.28,9.28,0,0,0,2.35-.34ZM525.49,76a9.52,9.52,0,0,1-3.8,1.53c-1.56.31-3.2.56-4.91.75s-3.44.42-5.19.67a18.81,18.81,0,0,0-4.69,1.25,8.48,8.48,0,0,0-3.4,2.51,7.15,7.15,0,0,0-1.35,4.51,6.1,6.1,0,0,0,.73,3.19,6.24,6.24,0,0,0,2,2.12,8.18,8.18,0,0,0,2.82,1.2,15.62,15.62,0,0,0,3.41.39,18.14,18.14,0,0,0,6.5-1A13.76,13.76,0,0,0,522,90.58a10.34,10.34,0,0,0,2.56-3.38,8.53,8.53,0,0,0,.84-3.44Z"/><path d="M550.1,91.25a8.11,8.11,0,0,0,2.47,3.12,12.66,12.66,0,0,0,3.74,2,23.32,23.32,0,0,0,4.46,1,28.58,28.58,0,0,0,3.78.2,14,14,0,0,0,3.74-.54,6.82,6.82,0,0,0,3-1.76,5.62,5.62,0,0,0,1.51-3.39,5.09,5.09,0,0,0-1.68-4.74A19,19,0,0,0,565.84,84c-2.16-.91-4.51-1.78-7.07-2.61a37.62,37.62,0,0,1-7-3,15.08,15.08,0,0,1-5.1-4.58,10.16,10.16,0,0,1-1.37-7.24,11.17,11.17,0,0,1,2.31-5.79,12.8,12.8,0,0,1,4.52-3.56A18.56,18.56,0,0,1,558,55.49a25.29,25.29,0,0,1,6.21,0,36.24,36.24,0,0,1,7.15,1.56,17,17,0,0,1,5.57,3.06,12.18,12.18,0,0,1,3.5,5,17,17,0,0,1,.92,7.23l-7.59-.94a7.88,7.88,0,0,0-.7-3.86,7.73,7.73,0,0,0-2.21-2.67,11.25,11.25,0,0,0-3.19-1.72,17.62,17.62,0,0,0-3.65-.86,23.53,23.53,0,0,0-3.48-.16,11.37,11.37,0,0,0-3.28.55,6.35,6.35,0,0,0-2.55,1.49,4.48,4.48,0,0,0-1.25,2.79,4.29,4.29,0,0,0,1,3.44A11.28,11.28,0,0,0,557.64,73a31.49,31.49,0,0,0,4.64,2q2.61.92,5.21,1.87a56.87,56.87,0,0,1,5.39,2.21,18.32,18.32,0,0,1,4.53,3,11.51,11.51,0,0,1,2.93,4.13,11,11,0,0,1,.61,5.7,13,13,0,0,1-2.61,6.75,13.59,13.59,0,0,1-5.11,3.89,19.08,19.08,0,0,1-6.64,1.58,37.18,37.18,0,0,1-7.09-.2,33,33,0,0,1-7.22-1.71,18.12,18.12,0,0,1-5.84-3.41,13.48,13.48,0,0,1-3.68-5.35,16.7,16.7,0,0,1-.88-7.5l7.59.94A8.59,8.59,0,0,0,550.1,91.25Z"/><path d="M641.39,72.89l-1.82,6.5-8.93-2.5-7.79,27.82a8.39,8.39,0,0,0-.36,2.14,2.15,2.15,0,0,0,.48,1.45,3.75,3.75,0,0,0,1.53,1,25,25,0,0,0,2.78.92l3.38,1-1.82,6.5-5.63-1.58a27.26,27.26,0,0,1-4.79-1.76,7.44,7.44,0,0,1-2.89-2.35,6.33,6.33,0,0,1-1-3.47,17.75,17.75,0,0,1,.8-5.2l8-28.51-7.62-2.13,1.82-6.5,7.62,2.13,3.77-13.43L636.22,57l-3.76,13.43Z"/><path d="M665.84,62.34,657,85.27l.17.06a10.18,10.18,0,0,1,3.66-2.5,14.39,14.39,0,0,1,4.27-1,19,19,0,0,1,4.45.22,21.94,21.94,0,0,1,4.15,1.11,20.11,20.11,0,0,1,6.69,3.93,12.66,12.66,0,0,1,3.36,5,13.14,13.14,0,0,1,.55,6,28.85,28.85,0,0,1-1.76,6.7l-11,28.55-7.14-2.75,11.32-29.39a9.24,9.24,0,0,0,.11-7.29,9.39,9.39,0,0,0-5.56-4.85A15.53,15.53,0,0,0,664.22,88a11.48,11.48,0,0,0-5.09,1.32,13.1,13.1,0,0,0-4.06,3.4,18.71,18.71,0,0,0-2.88,5.11l-9.45,24.52-7.14-2.75,23.1-60Z"/><path d="M710.89,150.26q-6.46,1.06-13.47-2.64a23.84,23.84,0,0,1-7.71-6.12,19.06,19.06,0,0,1-3.72-7.68,21.33,21.33,0,0,1-.08-8.8,36.84,36.84,0,0,1,3.2-9.4,27.78,27.78,0,0,1,6-7.83,23.35,23.35,0,0,1,7.6-4.64,20.52,20.52,0,0,1,8.48-1.21,21.15,21.15,0,0,1,8.6,2.51,19.09,19.09,0,0,1,7.91,7.09,20.39,20.39,0,0,1,2.75,8.84,25.71,25.71,0,0,1-1,9.24,36.79,36.79,0,0,1-3.49,8.23l-30.78-16.3a18.5,18.5,0,0,0-2.08,5.47,13.16,13.16,0,0,0,0,5.52,12.85,12.85,0,0,0,2.48,5.13,15.87,15.87,0,0,0,5.22,4.19,13.24,13.24,0,0,0,8.09,1.73,10.85,10.85,0,0,0,6.82-4.13l6.68,3.54Q717.35,149.21,710.89,150.26ZM723.24,123a13,13,0,0,0-2.86-9.4,14.13,14.13,0,0,0-9.39-5,12.23,12.23,0,0,0-5,.59,13.53,13.53,0,0,0-4.34,2.43,15.68,15.68,0,0,0-3.41,4l23.62,12.5A15.76,15.76,0,0,0,723.24,123Z"/><path d="M786.92,160.09a11.65,11.65,0,0,0-4.59-6.69,14.28,14.28,0,0,0-6.4-3.08,12.48,12.48,0,0,0-6,.43,17.07,17.07,0,0,0-5.46,3.1,31.67,31.67,0,0,0-4.77,4.9,26.33,26.33,0,0,0-3.29,5.42,16.8,16.8,0,0,0-1.48,5.76,12,12,0,0,0,1,5.62,12.69,12.69,0,0,0,4,5q4.46,3.49,8.8,3.14a13.38,13.38,0,0,0,8.25-4.17l6.16,4.84q-6.33,6-13.29,6.5t-14-5a24.34,24.34,0,0,1-6.34-7.15,18.39,18.39,0,0,1-2.38-8,21,21,0,0,1,1.39-8.47,31.53,31.53,0,0,1,4.82-8.4,34.39,34.39,0,0,1,7.1-6.84,22.46,22.46,0,0,1,8.11-3.7,19.19,19.19,0,0,1,8.69.07A22.54,22.54,0,0,1,786,147.7a28.16,28.16,0,0,1,5.26,5.33,18.07,18.07,0,0,1,3,6.08,15.81,15.81,0,0,1,.35,6.62,18.21,18.21,0,0,1-2.72,7l-6.23-4.89A11.67,11.67,0,0,0,786.92,160.09Z"/><path d="M803,223.5q-6.5-.88-12.1-6.48a23.75,23.75,0,0,1-5.58-8.11,19,19,0,0,1-1.32-8.43,21.27,21.27,0,0,1,2.51-8.43A36.78,36.78,0,0,1,792.3,184a28,28,0,0,1,8-5.74,23.34,23.34,0,0,1,8.62-2.21,20.56,20.56,0,0,1,8.46,1.33,21,21,0,0,1,7.49,4.92,19.06,19.06,0,0,1,5.48,9.09,20.4,20.4,0,0,1,0,9.26,26.07,26.07,0,0,1-3.68,8.54A37.82,37.82,0,0,1,821,216l-24.66-24.6a18.23,18.23,0,0,0-3.59,4.62,13.24,13.24,0,0,0-1.59,5.28A13,13,0,0,0,792,207a15.86,15.86,0,0,0,3.76,5.54,13.33,13.33,0,0,0,7.23,4,10.88,10.88,0,0,0,7.73-1.95l5.35,5.33Q809.46,224.38,803,223.5ZM822.77,201a13,13,0,0,0-3-14.29,13.38,13.38,0,0,0-4.52-3.05,12.34,12.34,0,0,0-4.9-.88,13.46,13.46,0,0,0-4.87,1.06,16,16,0,0,0-4.42,2.77L820,205.53A15.51,15.51,0,0,0,822.77,201Z"/><path d="M851.12,212.44l-5.8,4.56.11.14q9.6-1.48,16,6.65a20.22,20.22,0,0,1,3.74,6.8,12.58,12.58,0,0,1,.3,6.06,13,13,0,0,1-2.56,5.39A28.87,28.87,0,0,1,858,246.9l-24.05,18.92-4.73-6L854,240.33a9.23,9.23,0,0,0,3.81-6.21,9.36,9.36,0,0,0-2.3-7,15.58,15.58,0,0,0-4.61-4.11,11.34,11.34,0,0,0-5-1.47,13.27,13.27,0,0,0-5.23.85,18.81,18.81,0,0,0-5.09,2.92l-20.66,16.25-4.73-6,36.57-28.77Z"/><path d="M889.22,265.87l-5.67,3.65-5-7.8-24.29,15.63a8.28,8.28,0,0,0-1.7,1.36,2.29,2.29,0,0,0-.6,1.4,3.83,3.83,0,0,0,.46,1.79,25.4,25.4,0,0,0,1.47,2.54l1.9,2.95L850.09,291l-3.16-4.92a27,27,0,0,1-2.41-4.49,7.51,7.51,0,0,1-.61-3.68,6.42,6.42,0,0,1,1.53-3.29,17.73,17.73,0,0,1,4-3.35l24.9-16-4.28-6.66,5.68-3.65,4.28,6.66,11.73-7.55,4.14,6.44-11.73,7.54Z"/><path d="M898,281.29,889.4,286l.09.16a20.69,20.69,0,0,1,10.61,2,17.16,17.16,0,0,1,7.09,7.83l-7.12,3.85a21.85,21.85,0,0,0-4.83-6.29,12.38,12.38,0,0,0-5.73-2.84A15.26,15.26,0,0,0,883,291a31.6,31.6,0,0,0-7.44,3l-18.22,9.83-3.63-6.73L894.61,275Z"/><path d="M882.71,350.09q-5.72-3.21-8.88-10.46a23.85,23.85,0,0,1-2.22-9.59,19.21,19.21,0,0,1,1.86-8.33,21.39,21.39,0,0,1,5.42-6.93,37.73,37.73,0,0,1,8.36-5.37,28.25,28.25,0,0,1,9.56-2.4,23.21,23.21,0,0,1,8.83,1.11,20.53,20.53,0,0,1,7.39,4.33,21.16,21.16,0,0,1,5.16,7.32A19,19,0,0,1,920,330.24a20.33,20.33,0,0,1-3.35,8.64,26,26,0,0,1-6.55,6.59,37.47,37.47,0,0,1-7.86,4.26l-13.93-31.92a18.7,18.7,0,0,0-5,3,13.25,13.25,0,0,0-3.41,4.34,12.79,12.79,0,0,0-1.25,5.56,15.72,15.72,0,0,0,1.47,6.52,13.29,13.29,0,0,0,5.25,6.4,10.86,10.86,0,0,0,7.91,1l3,6.93Q888.44,353.29,882.71,350.09Zm26.65-13.65a13,13,0,0,0,2.46-14.38,13.28,13.28,0,0,0-3.09-4.49A12.21,12.21,0,0,0,904.5,315a13.52,13.52,0,0,0-4.92-.8,15.93,15.93,0,0,0-5.13,1l10.7,24.5A15.69,15.69,0,0,0,909.36,336.44Z"/><path d="M924,378.35a21.6,21.6,0,0,1,8.52,2.45,20.32,20.32,0,0,1,6.65,5.75,23.59,23.59,0,0,1,4,9,23.34,23.34,0,0,1,.37,9.94,20.31,20.31,0,0,1-3.44,8.05,21.69,21.69,0,0,1-6.56,6,31,31,0,0,1-9,3.57,30.42,30.42,0,0,1-9.62.76,21.85,21.85,0,0,1-8.48-2.46,20,20,0,0,1-6.59-5.72,26.7,26.7,0,0,1-4.42-19,19.87,19.87,0,0,1,3.39-8.09,21.66,21.66,0,0,1,6.51-5.95A32.54,32.54,0,0,1,924,378.35ZM909.14,389.8a15.62,15.62,0,0,0-4.64,4.27,13.41,13.41,0,0,0-2.24,5.28,13.73,13.73,0,0,0,.13,5.74,13.88,13.88,0,0,0,2.42,5.22,13.63,13.63,0,0,0,4.33,3.75,15.87,15.87,0,0,0,6.06,1.78,23.23,23.23,0,0,0,7.57-.61,23,23,0,0,0,7.06-2.8,16,16,0,0,0,4.69-4.28,13.26,13.26,0,0,0,2.28-5.28,14,14,0,0,0-2.55-11,13.11,13.11,0,0,0-4.38-3.74,16.06,16.06,0,0,0-6.09-1.77,25.55,25.55,0,0,0-14.64,3.4Z"/><path d="M941.44,426l6.69-.89,1,7.76L956,432q5.63-.75,9,2.12t4.17,9.11a18.14,18.14,0,0,1,.15,2.48,13.83,13.83,0,0,1-.21,2.53l-6.6.87a9.67,9.67,0,0,0,.21-2.2,19.48,19.48,0,0,0-.16-2.16,7.39,7.39,0,0,0-1.64-4.14q-1.27-1.38-4.3-1l-6.43.86,1.19,8.92-6.69.89-1.19-8.92-39.43,5.27-1-7.59,39.43-5.26Z"/><path d="M953.67,505.08l-6.75,0,0-9.27L918,496a8.32,8.32,0,0,0-2.16.23,2.26,2.26,0,0,0-1.25.86,3.84,3.84,0,0,0-.58,1.76,23.93,23.93,0,0,0-.12,2.93v3.51l-6.75,0,0-5.85a27.74,27.74,0,0,1,.38-5.09,7.44,7.44,0,0,1,1.47-3.43,6.32,6.32,0,0,1,3-1.94,17.56,17.56,0,0,1,5.22-.66l29.61-.13,0-7.92,6.75,0,0,7.92,13.95-.06,0,7.65-14,.06Z"/><path d="M970.51,525.74,946,523.52v.18a10,10,0,0,1,3.4,2.84,14.44,14.44,0,0,1,2.09,3.84,19.56,19.56,0,0,1,1,4.34,22.19,22.19,0,0,1,.06,4.3,20.31,20.31,0,0,1-2,7.51,12.61,12.61,0,0,1-3.95,4.61,13,13,0,0,1-5.57,2.16,29.21,29.21,0,0,1-6.92.14l-30.48-2.78.69-7.62,31.37,2.86A8.71,8.71,0,0,0,946,537.34a15.67,15.67,0,0,0-.52-6.15,11.42,11.42,0,0,0-2.66-4.54,13.41,13.41,0,0,0-4.39-3,18.76,18.76,0,0,0-5.7-1.38l-26.17-2.38.69-7.62,64,5.82Z"/><path d="M898.26,593.11q-2.79-5.93-1.14-13.67a23.86,23.86,0,0,1,3.77-9.09,19.2,19.2,0,0,1,6.37-5.69,21.47,21.47,0,0,1,8.44-2.48,37.07,37.07,0,0,1,9.92.51,27.82,27.82,0,0,1,9.17,3.6,23.29,23.29,0,0,1,6.54,6,20.48,20.48,0,0,1,3.48,7.83,21.17,21.17,0,0,1-.06,9,19.13,19.13,0,0,1-4.66,9.54,20.35,20.35,0,0,1-7.75,5.07,26,26,0,0,1-9.16,1.55,37.73,37.73,0,0,1-8.88-1.11l7.26-34.07a18.49,18.49,0,0,0-5.83-.5,13.07,13.07,0,0,0-5.3,1.54,12.88,12.88,0,0,0-4.25,3.78,15.79,15.79,0,0,0-2.6,6.17,13.18,13.18,0,0,0,.54,8.26,10.9,10.9,0,0,0,5.84,5.43l-1.58,7.39Q901,599,898.26,593.11Zm29.6,4.42a13,13,0,0,0,10.38-10.26,13.41,13.41,0,0,0,.1-5.45,12.29,12.29,0,0,0-1.92-4.6,13.7,13.7,0,0,0-3.53-3.51,15.77,15.77,0,0,0-4.73-2.2l-5.57,26.14A15.51,15.51,0,0,0,927.86,597.53Z"/><path d="M874.91,660.26q-1.71-6.33,1.29-13.66a23.77,23.77,0,0,1,5.32-8.28,19,19,0,0,1,7.26-4.48,21.58,21.58,0,0,1,8.75-1,37.41,37.41,0,0,1,9.68,2.24,28.12,28.12,0,0,1,8.39,5.17,23.44,23.44,0,0,1,5.37,7.1,20.78,20.78,0,0,1,2,8.32,21.28,21.28,0,0,1-1.65,8.81,19.08,19.08,0,0,1-6.26,8.57,20.44,20.44,0,0,1-8.53,3.62,25.91,25.91,0,0,1-9.29-.09,37.28,37.28,0,0,1-8.54-2.66l13.15-32.25a18.29,18.29,0,0,0-5.65-1.53,13.14,13.14,0,0,0-5.48.59,12.81,12.81,0,0,0-4.86,3,16.05,16.05,0,0,0-3.65,5.61,13.23,13.23,0,0,0-.92,8.22,10.87,10.87,0,0,0,4.79,6.38l-2.86,7Q876.61,666.58,874.91,660.26Zm28.36,9.57a13.22,13.22,0,0,0,4.93-1,13.36,13.36,0,0,0,4.15-2.79,13.08,13.08,0,0,0,2.94-4.48,13.44,13.44,0,0,0,1.07-5.35,12.41,12.41,0,0,0-1.08-4.86,13.76,13.76,0,0,0-2.86-4.08,15.93,15.93,0,0,0-4.27-3L898.06,669A15.54,15.54,0,0,0,903.27,669.83Z"/><path d="M846.73,707.7a10.89,10.89,0,0,1,1.63-5.37A6.53,6.53,0,0,1,852.1,699q2.31-.74,5.62,1.09a18.39,18.39,0,0,1-1.23-9.05,24.29,24.29,0,0,1,2.92-8.73,23.67,23.67,0,0,1,3.52-4.89,14,14,0,0,1,4.34-3.21,10.82,10.82,0,0,1,5.09-.94,13.51,13.51,0,0,1,5.83,1.83,13.74,13.74,0,0,1,5,4.31,11.89,11.89,0,0,1,1.87,5.09,16.31,16.31,0,0,1-.35,5.57q-.66,2.88-1.62,5.73c-.65,2.05-1.34,3.94-2.07,5.7a32.8,32.8,0,0,0-1.62,4.81,8.26,8.26,0,0,0-.16,3.82,4.18,4.18,0,0,0,2.27,2.69,7.62,7.62,0,0,0,4,1.13,6.43,6.43,0,0,0,3.22-1,9.62,9.62,0,0,0,2.56-2.39,25.47,25.47,0,0,0,2-3.06,16.29,16.29,0,0,0,2.3-8q-.06-3.72-4.42-6.44l3.7-6.7a16.59,16.59,0,0,1,5.51,5.1,13.58,13.58,0,0,1,2.13,6.11,18.12,18.12,0,0,1-.65,6.68,33.25,33.25,0,0,1-2.88,6.89,43.47,43.47,0,0,1-3.42,5.26,16.19,16.19,0,0,1-4.33,4,10.83,10.83,0,0,1-5.37,1.66,12.54,12.54,0,0,1-6.48-1.83l-20.92-11.54a17.57,17.57,0,0,0-3.61-1.64c-.83-.22-1.54.19-2.12,1.25a9.36,9.36,0,0,0-.82,2.22Zm26.88.65a9.57,9.57,0,0,1,.46-4.07c.46-1.52,1-3.08,1.66-4.68s1.27-3.23,1.87-4.88a19.19,19.19,0,0,0,1.13-4.72,8.62,8.62,0,0,0-.6-4.19,7.12,7.12,0,0,0-3.33-3.33,6.13,6.13,0,0,0-3.16-.87,6.43,6.43,0,0,0-2.8.72,8.49,8.49,0,0,0-2.39,1.92,15.85,15.85,0,0,0-2,2.82,18.19,18.19,0,0,0-2.23,6.17,13.73,13.73,0,0,0,.14,5.12,10.41,10.41,0,0,0,1.76,3.85,8.62,8.62,0,0,0,2.63,2.37Z"/><path d="M877.55,744.09l-8.1-5.54-.1.15a20.73,20.73,0,0,1,3,10.37,17.23,17.23,0,0,1-3.71,9.89L862,754.39a21.66,21.66,0,0,0,3.38-7.17,12.42,12.42,0,0,0-.1-6.39,15.19,15.19,0,0,0-3.24-5.71,32,32,0,0,0-6.07-5.24L838.88,718.2l4.32-6.31,38.41,26.26Z"/><path d="M850.51,780.21,845.22,776l5.77-7.26-22.63-18a8.49,8.49,0,0,0-1.84-1.17,2.15,2.15,0,0,0-1.51-.11,3.7,3.7,0,0,0-1.55,1,24,24,0,0,0-1.93,2.21l-2.18,2.74-5.29-4.19,3.64-4.58a27.67,27.67,0,0,1,3.48-3.74,7.47,7.47,0,0,1,3.29-1.75,6.23,6.23,0,0,1,3.6.39,17.47,17.47,0,0,1,4.48,2.75l23.19,18.4,4.93-6.2,5.28,4.2L861,767,872,775.63l-4.76,6L856.27,773Z"/><path d="M850.69,806.92l-17.7-17-.12.13a10.12,10.12,0,0,1,.87,4.34,13.89,13.89,0,0,1-.78,4.31,19,19,0,0,1-1.92,4,22.22,22.22,0,0,1-2.65,3.39,20.24,20.24,0,0,1-6.21,4.63,12.59,12.59,0,0,1-6,1.13,13.07,13.07,0,0,1-5.69-1.8,28.49,28.49,0,0,1-5.49-4.23l-22-21.23,5.31-5.51L811,800.91a9.31,9.31,0,0,0,6.68,2.93,9.42,9.42,0,0,0,6.62-3.24,15.77,15.77,0,0,0,3.44-5.13,11.34,11.34,0,0,0,.76-5.2,13.1,13.1,0,0,0-1.56-5.06,19,19,0,0,0-3.58-4.65l-18.93-18.23,5.31-5.51L856,801.41Z"/><path d="M772.94,806.28l-6.53-7.56,7.57-6.53,6.52,7.57Z"/></svg>