<svg id="Ebene_1" data-name="Ebene 1" xmlns="http://www.w3.org/2000/svg" viewBox="0 0 1000 1000"><defs><style>.cls-1{fill:none;stroke:#000;stroke-miterlimit:10;stroke-width:10px;}</style></defs><title>2</title><path d="M356.62,614.14q22.75-46.89,88.82-85.23l65.72-38q44.15-25.68,61.95-43.85,28.07-28.47,28.07-65.16,0-42.87-25.67-68.08t-68.46-25.2q-63.33,0-87.63,48.06-13,25.74-14.37,71.39H342.41q1-64,23.62-104.39,40.05-71.19,141.36-71.2,84.21,0,123.05,45.53t38.85,101.31q0,58.88-41.41,100.63-24,24.32-85.92,58.88l-46.89,26q-33.56,18.48-52.71,35.26-34.23,29.77-43.13,66.06H666.9v58.19H330.43Q333.85,661,356.62,614.14Z"/><circle class="cls-1" cx="499" cy="500" r="443"/></svg>