<svg xmlns="http://www.w3.org/2000/svg" viewBox="0 0 1000 1000"><path d="M91.94,689.58a14.46,14.46,0,0,0-2.27,9.24A14.68,14.68,0,0,0,91,703.71a16.53,16.53,0,0,0,5.08,6.58,15.23,15.23,0,0,0,6.76,2.82,21.64,21.64,0,0,0,7.67-.22,35.39,35.39,0,0,0,7.83-2.58,32.47,32.47,0,0,0,6.76-4.16,21.31,21.31,0,0,0,5-5.62,15.32,15.32,0,0,0,2.19-7,16.49,16.49,0,0,0-1.72-8.12q-2.73-5.88-7.84-7.53a18.33,18.33,0,0,0-11.35.33l-5.74-12.42a33,33,0,0,1,11.06-2,26,26,0,0,1,10,1.92,25.29,25.29,0,0,1,8.36,5.65,31.87,31.87,0,0,1,6.2,9.13,33.09,33.09,0,0,1,3.24,13.13,28.41,28.41,0,0,1-2.24,12,31.23,31.23,0,0,1-7,10.07,38.82,38.82,0,0,1-11,7.46,40,40,0,0,1-13,3.64,32.21,32.21,0,0,1-12.37-1.12,28.39,28.39,0,0,1-10.7-6,34.47,34.47,0,0,1-10.76-20.71,27.2,27.2,0,0,1,.5-9.55,23.94,23.94,0,0,1,4-8.63,25.79,25.79,0,0,1,7.7-6.93l5.74,12.42A11.63,11.63,0,0,0,91.94,689.58Z"/><path d="M61.22,655.45l23.22-6.86-.08-.26A14.77,14.77,0,0,1,77,644a16.65,16.65,0,0,1-3.87-6.55A21.71,21.71,0,0,1,72,629,12.45,12.45,0,0,1,74.28,623a15,15,0,0,1,5-4.25,37.57,37.57,0,0,1,7.33-3l27.44-8.12,3.63,12.26-25.2,7.45Q87,629,84.78,631.5c-1.47,1.68-1.78,4-.91,6.93q1.48,5,5.12,6.37t10.46-.66l23.39-6.91,3.63,12.25L64.85,667.71Z"/><path d="M80.67,605.69a14.86,14.86,0,0,1-7.74-1,15.29,15.29,0,0,1-5.51-4.21,21.63,21.63,0,0,1-3.64-6.38,39,39,0,0,1-2-7.47,51.6,51.6,0,0,1-.66-7.1,21.77,21.77,0,0,1,.85-6.8,13.07,13.07,0,0,1,3.17-5.44,11.24,11.24,0,0,1,6.41-2.95l23.89-3.9a49.5,49.5,0,0,0,5.89-1.32,10.93,10.93,0,0,0,4.07-1.94L107.49,570a19.38,19.38,0,0,1-2.08.93,18.4,18.4,0,0,1-2.22.68,16.69,16.69,0,0,1,5.52,6.4,28.83,28.83,0,0,1,2.6,8.15,22.9,22.9,0,0,1,.2,6.26,14.26,14.26,0,0,1-1.68,5.38,11.69,11.69,0,0,1-3.72,4,14.65,14.65,0,0,1-5.93,2.2,13.56,13.56,0,0,1-6.67-.33,11.68,11.68,0,0,1-4.62-2.89,16.14,16.14,0,0,1-3.07-4.61,52.29,52.29,0,0,1-2.12-5.44q-.92-2.78-1.62-5.48a34.32,34.32,0,0,0-1.6-4.76,8.78,8.78,0,0,0-2.1-3.12,3.47,3.47,0,0,0-3.17-.67,6.77,6.77,0,0,0-3.13,1.19A5,5,0,0,0,70.5,580a7.13,7.13,0,0,0-.47,2.72,21.47,21.47,0,0,0,.29,3.18,9.74,9.74,0,0,0,2.56,5.61q2,1.86,5.73,1.62ZM85.25,575a5.76,5.76,0,0,1,1.43,1.82,20.86,20.86,0,0,1,1.09,2.47c.33.89.63,1.83.91,2.81s.6,2,.94,3a22,22,0,0,0,1.17,2.68A8.18,8.18,0,0,0,92.38,590a5.73,5.73,0,0,0,2.18,1.33,6.23,6.23,0,0,0,3,.14,6,6,0,0,0,2.74-1.08,4.84,4.84,0,0,0,1.55-2,7.3,7.3,0,0,0,.52-2.64,15.06,15.06,0,0,0-.21-3,11.25,11.25,0,0,0-2.18-5.57,8.48,8.48,0,0,0-3.47-2.54,9.62,9.62,0,0,0-3.71-.62,22.6,22.6,0,0,0-2.87.24Z"/><path d="M57.88,540.17l5.94-.18v-.18A14.06,14.06,0,0,1,58.14,534a18.26,18.26,0,0,1-2-7.86A20.28,20.28,0,0,1,58,516.67a19.62,19.62,0,0,1,5.28-6.74,23.37,23.37,0,0,1,7.84-4.12,35.8,35.8,0,0,1,9.45-1.56,31.92,31.92,0,0,1,9,1,22.9,22.9,0,0,1,7.76,3.58,18.86,18.86,0,0,1,5.51,6.22,19.13,19.13,0,0,1,2.26,8.88,18.19,18.19,0,0,1-1.5,8,15,15,0,0,1-5,6.15v.18l22-.7.41,12.77-62.79,2Zm36.36-17.76a10.12,10.12,0,0,0-3.39-3.31,13.64,13.64,0,0,0-4.78-1.7,28.1,28.1,0,0,0-5.51-.36,25.65,25.65,0,0,0-5.46.75,14.89,14.89,0,0,0-4.76,2.09,10.73,10.73,0,0,0-3.3,3.57,9.7,9.7,0,0,0-1.15,5.22,9.88,9.88,0,0,0,1.48,5.22,10.49,10.49,0,0,0,3.48,3.31,14,14,0,0,0,4.82,1.69,28,28,0,0,0,5.6.36,25.74,25.74,0,0,0,5.47-.75,14.33,14.33,0,0,0,4.66-2,10,10,0,0,0,3.17-3.57,11.5,11.5,0,0,0-.33-10.48Z"/><path d="M59.64,468.58l8.52.63-.7,9.34,23,1.71c2.16.16,3.62-.09,4.39-.75s1.24-2.08,1.4-4.23q.08-1.08.06-2.07a16.69,16.69,0,0,0-.13-1.91L106,472a30,30,0,0,1,.09,3.62c0,1.32-.11,2.61-.2,3.86a37.59,37.59,0,0,1-.82,5.58,13.19,13.19,0,0,1-1.92,4.55,8.36,8.36,0,0,1-3.56,2.94,11.83,11.83,0,0,1-5.74.74l-27.38-2L65.94,499l-8.53-.63.58-7.72-13.91-1,1-12.74,13.91,1Z"/><path d="M97.71,452c2.17-1.56,3.56-4.12,4.2-7.66a11.38,11.38,0,0,0-.74-6.9,8,8,0,0,0-3.43-4.09l2-11.07q7.77,4.13,10.33,10.25a24.26,24.26,0,0,1,1.18,13.92,26.46,26.46,0,0,1-3.47,9.44,20.45,20.45,0,0,1-6.23,6.48,22.34,22.34,0,0,1-8.44,3.29,28.06,28.06,0,0,1-10-.1,27,27,0,0,1-9.27-3.39,22.53,22.53,0,0,1-10.59-14.45,24.13,24.13,0,0,1-.16-9.86,22,22,0,0,1,4.08-9.79A20.73,20.73,0,0,1,74.44,422a25.49,25.49,0,0,1,9.4-2.48,32.76,32.76,0,0,1,10.35.93l-5.9,33Q94.46,454.35,97.71,452ZM76.14,433.48c-1.92,1.21-3.16,3.35-3.7,6.42a11.14,11.14,0,0,0,.12,5.19,9.77,9.77,0,0,0,2,3.64A9.29,9.29,0,0,0,77.41,451a14.4,14.4,0,0,0,2.91,1.12L84,431.63A14.76,14.76,0,0,0,76.14,433.48Z"/><path d="M74.62,393.72l8.3,2.4,0-.17a16.05,16.05,0,0,1-3.17-3.45,15.85,15.85,0,0,1-2-4.25,16.93,16.93,0,0,1-.77-4.62,15.12,15.12,0,0,1,.61-4.7,9.75,9.75,0,0,1,1.21-2.55l11.41,3.3c-.28.55-.59,1.21-.91,2a21,21,0,0,0-.8,2.3,13.59,13.59,0,0,0-.53,6,10.35,10.35,0,0,0,2,4.65,12.83,12.83,0,0,0,4,3.34,25.8,25.8,0,0,0,5.44,2.24l20.14,5.83-3.55,12.28-44.7-12.95Z"/><path d="M102.41,321.12l7.79,3.51-3.84,8.53,21,9.47q3,1.33,4.38.79t2.76-3.49a19.86,19.86,0,0,0,.77-1.93,15,15,0,0,0,.53-1.83l9,4.07a32.13,32.13,0,0,1-1.15,3.43c-.49,1.23-1,2.41-1.51,3.56a36.8,36.8,0,0,1-2.68,5,13.2,13.2,0,0,1-3.36,3.62,8.38,8.38,0,0,1-4.35,1.55,11.8,11.8,0,0,1-5.65-1.27l-25-11.27-3.19,7.05-7.79-3.51,3.18-7.06-12.72-5.73,5.26-11.65,12.71,5.73Z"/><path d="M97.44,292.67l20.94,12.16.13-.23a14.75,14.75,0,0,1-2-8.33,16.64,16.64,0,0,1,2.11-7.31,21.83,21.83,0,0,1,5.43-6.58,12.57,12.57,0,0,1,6-2.53,15.08,15.08,0,0,1,6.54.73,37.9,37.9,0,0,1,7.2,3.3l24.74,14.38-6.41,11.05-22.73-13.2q-5-2.89-8.33-2.76t-5.67,4.1q-2.61,4.51-1.11,8.09t7.66,7.16L153,325,146.59,336,91,303.72Z"/><path d="M143,254.42l7,5.11.1-.15a15.76,15.76,0,0,1-1.79-4.33,16.15,16.15,0,0,1-.46-4.69,17.24,17.24,0,0,1,.87-4.61,15.32,15.32,0,0,1,2.19-4.2,10.5,10.5,0,0,1,2-2l9.58,7c-.45.41-1,.93-1.53,1.55a23.32,23.32,0,0,0-1.55,1.88,13.74,13.74,0,0,0-2.57,5.48,10.33,10.33,0,0,0,.26,5.05,12.6,12.6,0,0,0,2.56,4.5,25.34,25.34,0,0,0,4.34,4l16.91,12.41-7.56,10.3-37.52-27.53Z"/><path d="M193,248.37q4-.27,7.62-4.28a11.37,11.37,0,0,0,3-6.24,8,8,0,0,0-.75-5.28l7.54-8.35q4.39,7.6,3.34,14.16a24.38,24.38,0,0,1-6.38,12.44,26.47,26.47,0,0,1-7.93,6.17,20.6,20.6,0,0,1-8.71,2.2,22.4,22.4,0,0,1-8.92-1.68,28.18,28.18,0,0,1-8.46-5.39,27.1,27.1,0,0,1-6.07-7.79A22.53,22.53,0,0,1,166,226.46a24,24,0,0,1,5.08-8.44,22.05,22.05,0,0,1,8.63-6.15,20.75,20.75,0,0,1,9.44-1.25,25.36,25.36,0,0,1,9.29,2.87,32.92,32.92,0,0,1,8.28,6.27l-22.49,24.92Q189,248.64,193,248.37Zm-8.49-27.13c-2.27,0-4.45,1.18-6.54,3.49a11.13,11.13,0,0,0-2.64,4.47,9.82,9.82,0,0,0-.27,4.13,9.45,9.45,0,0,0,1.26,3.44,14.3,14.3,0,0,0,1.88,2.48l13.93-15.43A14.76,14.76,0,0,0,184.53,221.24Z"/><path d="M228.94,212q4,.24,8.09-3.29a11.37,11.37,0,0,0,3.79-5.81,8.07,8.07,0,0,0-.08-5.33l8.52-7.34q3.42,8.1,1.54,14.47a24.44,24.44,0,0,1-7.88,11.54,27,27,0,0,1-8.65,5.13,20.55,20.55,0,0,1-8.92,1.08,22.34,22.34,0,0,1-8.63-2.78,28.17,28.17,0,0,1-7.72-6.42,26.79,26.79,0,0,1-5.05-8.48,22.45,22.45,0,0,1,.92-17.89,24,24,0,0,1,6.1-7.75,22.14,22.14,0,0,1,9.34-5,20.66,20.66,0,0,1,9.51-.06,25.34,25.34,0,0,1,8.86,4,32.94,32.94,0,0,1,7.44,7.25l-25.44,21.91Q224.93,211.77,228.94,212Zm-5-28c-2.25-.27-4.57.61-6.93,2.65a11.09,11.09,0,0,0-3.18,4.1,9.72,9.72,0,0,0-.78,4.06,9.25,9.25,0,0,0,.82,3.57,14.49,14.49,0,0,0,1.55,2.7l15.76-13.57A14.85,14.85,0,0,0,223.91,184Z"/><path d="M246.62,171.06l-8-11.3,11.52-8.18,8,11.3Zm21.94,6.5,8,11.31L265.05,197l-8-11.3Z"/><path d="M303.18,99.86q8.73-4.26,15.41-2t10.63,10.39q3.94,8.08,1.66,14.81T319.83,134l-17.63,8.6,11.52,23.62L306,170l-28.17-57.76Zm10.9,28.93q6.6-3.12,8.29-7.34t-.84-9.41q-2.52-5.17-6.88-6.41t-10.9,2l-15.05,7.34L299,136.13Z"/><path d="M386.22,133.36q-3.68,5.43-11.19,7.95a24,24,0,0,1-9.74,1.37,18.92,18.92,0,0,1-8.14-2.58,21.34,21.34,0,0,1-6.43-6,37.17,37.17,0,0,1-4.62-8.8,27.86,27.86,0,0,1-1.56-9.73,23.3,23.3,0,0,1,1.87-8.7,20.58,20.58,0,0,1,5-7,21.23,21.23,0,0,1,7.75-4.51,19.07,19.07,0,0,1,10.58-.85A20.51,20.51,0,0,1,378,98.62a26,26,0,0,1,6,7.1,37.46,37.46,0,0,1,3.57,8.2l-33,11.1a18.58,18.58,0,0,0,2.54,5.28,13,13,0,0,0,4,3.77,12.83,12.83,0,0,0,5.43,1.74,15.92,15.92,0,0,0,6.62-.9,13.28,13.28,0,0,0,6.84-4.67,10.9,10.9,0,0,0,1.7-7.79l7.16-2.41Q389.91,127.95,386.22,133.36ZM375,105.63a13.17,13.17,0,0,0-4-3.08,13.37,13.37,0,0,0-4.81-1.32,12.9,12.9,0,0,0-5.32.7,13.32,13.32,0,0,0-4.75,2.68,12.46,12.46,0,0,0-3,4,13.55,13.55,0,0,0-1.23,4.82,16,16,0,0,0,.51,5.2l25.34-8.52A15.78,15.78,0,0,0,375,105.63Z"/><path d="M396.77,85.72,399,95.27l.18,0a20.65,20.65,0,0,1,4.74-9.71,17.22,17.22,0,0,1,9.41-4.8l1.86,7.89a21.49,21.49,0,0,0-7.34,3,12.36,12.36,0,0,0-4.24,4.78,15.25,15.25,0,0,0-1.45,6.4,31.91,31.91,0,0,0,.94,8l4.74,20.15-7.45,1.75-10.64-45.3Z"/><path d="M449.07,84.46a11.58,11.58,0,0,0-8-1.33,14.34,14.34,0,0,0-6.65,2.49,12.27,12.27,0,0,0-3.84,4.63A16.76,16.76,0,0,0,429,96.33a31.41,31.41,0,0,0,.23,6.83,25.79,25.79,0,0,0,1.64,6.13,16.86,16.86,0,0,0,3.12,5.06,12.19,12.19,0,0,0,4.72,3.2,12.71,12.71,0,0,0,6.35.56c3.75-.53,6.53-1.93,8.37-4.18a13.49,13.49,0,0,0,2.71-8.84l7.75-1.09q0,8.73-4.51,14.09t-13.3,6.6a24.46,24.46,0,0,1-9.55-.38,18.17,18.17,0,0,1-7.45-3.86,21,21,0,0,1-5.15-6.86,31.36,31.36,0,0,1-2.72-9.3,34.67,34.67,0,0,1,0-9.86,22.58,22.58,0,0,1,3-8.41,19.19,19.19,0,0,1,6.08-6.22,22.53,22.53,0,0,1,9.26-3.26,28.16,28.16,0,0,1,7.49-.1,18.11,18.11,0,0,1,6.47,2,16,16,0,0,1,5,4.34,18.48,18.48,0,0,1,3.13,6.78l-7.84,1.11A11.64,11.64,0,0,0,449.07,84.46Z"/><path d="M505.94,116.76c-3.43,2.72-7.77,4.13-13.05,4.25a24,24,0,0,1-9.72-1.58,19.12,19.12,0,0,1-7-4.89,21.42,21.42,0,0,1-4.36-7.64A37.66,37.66,0,0,1,470,97.12a28,28,0,0,1,1.4-9.75,23.48,23.48,0,0,1,4.38-7.75,20.65,20.65,0,0,1,6.81-5.19,21.19,21.19,0,0,1,8.74-2,19.1,19.1,0,0,1,10.36,2.34,20.4,20.4,0,0,1,6.71,6.38A25.7,25.7,0,0,1,512,89.71a36.84,36.84,0,0,1,1,8.89l-34.82.77a18.65,18.65,0,0,0,.85,5.79,13.11,13.11,0,0,0,2.72,4.8,12.65,12.65,0,0,0,4.66,3.27,15.94,15.94,0,0,0,6.6,1.12,13.17,13.17,0,0,0,7.91-2.43,10.82,10.82,0,0,0,3.94-6.93l7.56-.17Q511.07,112.7,505.94,116.76Zm-2.51-29.83a13,13,0,0,0-12.37-7.74,13.32,13.32,0,0,0-5.33,1.16,12.25,12.25,0,0,0-4,2.92,13.38,13.38,0,0,0-2.61,4.25,15.72,15.72,0,0,0-1.06,5.1L504.76,92A15.74,15.74,0,0,0,503.43,86.93Z"/><path d="M532.14,74.4l-.64,6.26.18,0a11.41,11.41,0,0,1,6.48-5,22,22,0,0,1,9-.83,20.9,20.9,0,0,1,9.16,2.93,19,19,0,0,1,6.07,6A23.59,23.59,0,0,1,565.62,92a31.48,31.48,0,0,1,.39,9.44,33,33,0,0,1-2.25,9.18,21.9,21.9,0,0,1-4.73,7.25,18.63,18.63,0,0,1-7.15,4.47,21.65,21.65,0,0,1-9.46.93,23.84,23.84,0,0,1-3.77-.75,20.67,20.67,0,0,1-4-1.59,16.41,16.41,0,0,1-3.67-2.59,12.4,12.4,0,0,1-2.74-3.77l-.18,0-2.44,23.82-7.61-.78,6.56-63.93Zm25.67,19.23a17.36,17.36,0,0,0-2-5.77,12.75,12.75,0,0,0-4.09-4.31,13.63,13.63,0,0,0-6.25-2.09A12.65,12.65,0,0,0,534,85.84a16.8,16.8,0,0,0-3,5.35,26.58,26.58,0,0,0-1.42,6.28,26.9,26.9,0,0,0,.13,6.66,16.38,16.38,0,0,0,2,5.86,13.17,13.17,0,0,0,4.12,4.36,14.27,14.27,0,0,0,6.56,2.16,13.12,13.12,0,0,0,6.74-.84,12.47,12.47,0,0,0,4.67-3.6,17.75,17.75,0,0,0,2.91-5.49A30.29,30.29,0,0,0,558,100,24.06,24.06,0,0,0,557.81,93.63Z"/><path d="M599.77,84.69l-1.36,6.62-9.08-1.86-5.8,28.3a8.27,8.27,0,0,0-.21,2.16,2.15,2.15,0,0,0,.58,1.4,3.8,3.8,0,0,0,1.6.93,25.57,25.57,0,0,0,2.84.72l3.44.7-1.36,6.62-5.73-1.18a27.52,27.52,0,0,1-4.9-1.42,7.45,7.45,0,0,1-3-2.14,6.36,6.36,0,0,1-1.28-3.38,17.66,17.66,0,0,1,.43-5.24l6-29-7.76-1.59,1.35-6.61,7.76,1.59L586,67.63l7.5,1.54-2.8,13.66Z"/><path d="M617.54,89.35l-12,45-7.39-2,12-45Zm-5.23-10.06,2.42-9,7.39,2-2.42,9Z"/><path d="M626,105.59a21.56,21.56,0,0,1,6.7-5.8,20.18,20.18,0,0,1,8.44-2.44A26.08,26.08,0,0,1,659.46,104a20.4,20.4,0,0,1,4.88,7.28,21.68,21.68,0,0,1,1.42,8.75,32.41,32.41,0,0,1-6.52,18,22,22,0,0,1-6.69,5.76,20.1,20.1,0,0,1-8.39,2.41,26.63,26.63,0,0,1-18.31-6.65,19.75,19.75,0,0,1-4.94-7.24,21.78,21.78,0,0,1-1.44-8.71,30.79,30.79,0,0,1,1.9-9.46A31.14,31.14,0,0,1,626,105.59Zm1.48,18.73a15.72,15.72,0,0,0,1,6.22,13.32,13.32,0,0,0,3.21,4.75,13.59,13.59,0,0,0,4.88,3,13.75,13.75,0,0,0,5.69.82,13.5,13.5,0,0,0,5.51-1.59,15.73,15.73,0,0,0,4.79-4.1,25.71,25.71,0,0,0,5.13-14.13,16.4,16.4,0,0,0-1-6.26,13.4,13.4,0,0,0-3.2-4.8,13.68,13.68,0,0,0-4.89-3,14,14,0,0,0-5.68-.82,13.21,13.21,0,0,0-5.52,1.64,16.14,16.14,0,0,0-4.81,4.14,25.71,25.71,0,0,0-5.13,14.13Z"/><path d="M689.93,116.18l-3.35,6.58.16.08q8.09-5.37,17.31-.68a20.16,20.16,0,0,1,6.25,4.6,12.56,12.56,0,0,1,2.81,5.37,12.88,12.88,0,0,1-.06,6,29.19,29.19,0,0,1-2.44,6.48l-13.89,27.27-6.82-3.47,14.3-28.07a9.25,9.25,0,0,0,.86-7.24,9.4,9.4,0,0,0-5-5.39,15.8,15.8,0,0,0-5.91-1.8,11.46,11.46,0,0,0-5.2.79,13.09,13.09,0,0,0-4.38,3,18.59,18.59,0,0,0-3.4,4.78l-11.93,23.42-6.81-3.47,21.11-41.46Z"/><path d="M744.46,163.15a21.66,21.66,0,0,1,8.14-3.51,20.27,20.27,0,0,1,8.79.22,23.67,23.67,0,0,1,8.87,4.42,23.36,23.36,0,0,1,6.59,7.44,20.41,20.41,0,0,1,2.46,8.41A21.65,21.65,0,0,1,778,188.9a32.43,32.43,0,0,1-11.64,15.17,21.62,21.62,0,0,1-8.11,3.47,19.84,19.84,0,0,1-8.73-.23,23.91,23.91,0,0,1-8.87-4.48,24.23,24.23,0,0,1-6.59-7.38,19.84,19.84,0,0,1-2.52-8.4,21.75,21.75,0,0,1,1.26-8.73,32.61,32.61,0,0,1,11.64-15.17Zm-4.23,18.3a15.77,15.77,0,0,0-.88,6.25,13.44,13.44,0,0,0,1.62,5.5,14.2,14.2,0,0,0,8.93,6.85,13.65,13.65,0,0,0,5.73.14,15.59,15.59,0,0,0,5.81-2.47,25.71,25.71,0,0,0,9.15-11.92,16.24,16.24,0,0,0,.9-6.28A13.2,13.2,0,0,0,769.9,174a13.92,13.92,0,0,0-3.75-4.35,13.74,13.74,0,0,0-5.18-2.49,13.15,13.15,0,0,0-5.76-.11,16.12,16.12,0,0,0-5.83,2.5,25.67,25.67,0,0,0-9.15,11.92Z"/><path d="M788.17,188.91l4.6-4.95,5.73,5.34,4.72-5.07q3.87-4.15,8.26-4.06t9,4.39a18.29,18.29,0,0,1,1.69,1.82,12.63,12.63,0,0,1,1.44,2.08l-4.53,4.87a9.76,9.76,0,0,0-1.25-1.83,17.58,17.58,0,0,0-1.49-1.57,7.4,7.4,0,0,0-3.89-2.15q-1.86-.25-3.94,2l-4.42,4.74,6.59,6.13-4.6,4.94-6.59-6.13-27.09,29.12-5.61-5.21,27.1-29.12Z"/><path d="M854.61,222.31l-19.3,15.2.11.14a10.1,10.1,0,0,1,4.42-.27,14.16,14.16,0,0,1,4.17,1.36,19,19,0,0,1,3.71,2.46,22.26,22.26,0,0,1,3,3.08,20.18,20.18,0,0,1,3.74,6.79,12.58,12.58,0,0,1,.3,6.06,13,13,0,0,1-2.56,5.4,28.87,28.87,0,0,1-4.94,4.86l-24,18.93-4.73-6,24.75-19.49a9.23,9.23,0,0,0,3.81-6.21,9.39,9.39,0,0,0-2.3-7,15.7,15.7,0,0,0-4.61-4.11,11.24,11.24,0,0,0-5-1.46,13.12,13.12,0,0,0-5.23.85,18.69,18.69,0,0,0-5.09,2.92l-20.65,16.25-4.73-6,50.49-39.75Z"/><path d="M832.94,313.21a48.88,48.88,0,0,1-6.3.76,15.85,15.85,0,0,1-4.77-.46,9.8,9.8,0,0,1-3.67-1.86,13.44,13.44,0,0,1-2.91-3.44,21.06,21.06,0,0,1-1.26-2.4,13.09,13.09,0,0,1-.83-2.55l6-3.68a13.42,13.42,0,0,0,.55,2.36,9.84,9.84,0,0,0,.89,2.05,6.55,6.55,0,0,0,3,2.74,6.83,6.83,0,0,0,4,.36l8.32-1.41,29.77-39.93,4.52,7.37-25.33,31.5.09.15,39.27-8.8,4.24,6.91Z"/><path d="M896.59,319.19l-5.73,2.62.07.17a11.44,11.44,0,0,1,7.6,3,22.25,22.25,0,0,1,5.31,7.36,21.12,21.12,0,0,1,2.12,9.38,19.11,19.11,0,0,1-2.09,8.28,23.72,23.72,0,0,1-5.4,6.89,31.55,31.55,0,0,1-8,5.13,32.81,32.81,0,0,1-9,2.72,21.83,21.83,0,0,1-8.64-.39,18.54,18.54,0,0,1-7.48-3.89,21.62,21.62,0,0,1-5.61-7.68,23.82,23.82,0,0,1-1.27-3.63,21.58,21.58,0,0,1-.68-4.29,16.55,16.55,0,0,1,.37-4.47,12.17,12.17,0,0,1,1.86-4.27l-.08-.17-21.76,10L835,339l58.4-26.81Zm-3.54,31.87a17.24,17.24,0,0,0,3.94-4.68,12.86,12.86,0,0,0,1.64-5.7,13.59,13.59,0,0,0-1.38-6.45,13,13,0,0,0-4.13-5.33,13.19,13.19,0,0,0-5.48-2.34,16.52,16.52,0,0,0-6.14.1,26.72,26.72,0,0,0-6.13,2,27.18,27.18,0,0,0-5.67,3.5,16.35,16.35,0,0,0-4.05,4.68,13.24,13.24,0,0,0-1.66,5.76,14.3,14.3,0,0,0,1.47,6.76,13.06,13.06,0,0,0,4.15,5.37,12.28,12.28,0,0,0,5.46,2.2,17.74,17.74,0,0,0,6.21-.28,31.05,31.05,0,0,0,6.36-2.12A24,24,0,0,0,893.05,351.06Z"/><path d="M884.57,409q-5.36-3.78-7.75-11.33a23.8,23.8,0,0,1-1.21-9.77,19,19,0,0,1,2.72-8.08,21.34,21.34,0,0,1,6.11-6.33,37.29,37.29,0,0,1,8.88-4.47,28,28,0,0,1,9.75-1.39,23.16,23.16,0,0,1,8.67,2,20.41,20.41,0,0,1,6.9,5.08,21.07,21.07,0,0,1,4.37,7.82,19.14,19.14,0,0,1,.67,10.6,20.57,20.57,0,0,1-4.23,8.23,25.71,25.71,0,0,1-7.21,5.87,36.69,36.69,0,0,1-8.26,3.43l-10.53-33.2a18.41,18.41,0,0,0-5.31,2.44,13,13,0,0,0-3.85,4,12.83,12.83,0,0,0-1.83,5.39,15.83,15.83,0,0,0,.79,6.64,13.29,13.29,0,0,0,4.55,6.92,10.91,10.91,0,0,0,7.76,1.83l2.29,7.21Q889.92,412.76,884.57,409Zm27.92-10.79a13.06,13.06,0,0,0,4-14.05,13.24,13.24,0,0,0-2.61-4.79,12.28,12.28,0,0,0-3.94-3.05,13.69,13.69,0,0,0-4.8-1.31,15.87,15.87,0,0,0-5.2.43L908,400.9A15.87,15.87,0,0,0,912.49,398.2Z"/><path d="M932,420.37l-9.58,2.08,0,.17a20.81,20.81,0,0,1,9.63,4.91,17.17,17.17,0,0,1,4.64,9.5l-7.92,1.71a21.39,21.39,0,0,0-2.89-7.38,12.34,12.34,0,0,0-4.71-4.32,15.27,15.27,0,0,0-6.37-1.57,31.92,31.92,0,0,0-8,.81l-20.23,4.39L885,423.19l45.47-9.86Z"/><path d="M923.35,444.76a21.75,21.75,0,0,1,8.2,3.37,20.36,20.36,0,0,1,6,6.45,26.05,26.05,0,0,1,2.31,19.35,20.58,20.58,0,0,1-4.3,7.63,21.72,21.72,0,0,1-7.18,5.2,32.4,32.4,0,0,1-19,2.27,21.81,21.81,0,0,1-8.15-3.38,20,20,0,0,1-5.93-6.41A26.65,26.65,0,0,1,893,459.89a20,20,0,0,1,4.25-7.66,21.79,21.79,0,0,1,7.13-5.2,30.23,30.23,0,0,1,9.31-2.56A30.84,30.84,0,0,1,923.35,444.76Zm-16.05,9.76a15.53,15.53,0,0,0-5.09,3.73,13.4,13.4,0,0,0-2.8,5,14.06,14.06,0,0,0,1.33,11.17,13.36,13.36,0,0,0,3.9,4.2,15.81,15.81,0,0,0,5.82,2.44,25.57,25.57,0,0,0,14.92-1.78,16.21,16.21,0,0,0,5.13-3.74,13.23,13.23,0,0,0,2.85-5A14.07,14.07,0,0,0,932,459.36a13.39,13.39,0,0,0-3.95-4.2,16.13,16.13,0,0,0-5.86-2.42,23.15,23.15,0,0,0-7.6-.23A22.79,22.79,0,0,0,907.3,454.52Z"/><path d="M960.42,507.68l-24-.23v.18a11.51,11.51,0,0,1,5.57,6,22.22,22.22,0,0,1,1.67,8.92,21.16,21.16,0,0,1-2.07,9.39,19.14,19.14,0,0,1-5.42,6.61,23.88,23.88,0,0,1-7.82,3.93,32,32,0,0,1-9.38,1.26,32.65,32.65,0,0,1-9.34-1.4,22,22,0,0,1-7.66-4,18.66,18.66,0,0,1-5.11-6.71,21.42,21.42,0,0,1-1.8-9.33,23.11,23.11,0,0,1,.39-3.82,22.05,22.05,0,0,1,1.21-4.18,16.39,16.39,0,0,1,2.25-3.89,12.16,12.16,0,0,1,3.49-3.07v-.18l-6.21-.06.08-7.65,64.25.61Zm-34.51,27.17a17,17,0,0,0,5.56-2.56,12.8,12.8,0,0,0,3.92-4.46,13.83,13.83,0,0,0,1.5-6.42,13.24,13.24,0,0,0-1.47-6.59,13,13,0,0,0-4-4.44,16.71,16.71,0,0,0-5.6-2.53,27.14,27.14,0,0,0-13-.08,16.31,16.31,0,0,0-5.65,2.51,12.9,12.9,0,0,0-4,4.51,14.06,14.06,0,0,0-1.55,6.73,13.07,13.07,0,0,0,1.46,6.63,12.21,12.21,0,0,0,4,4.31,17.5,17.5,0,0,0,5.74,2.4,30.47,30.47,0,0,0,6.65.78A23.77,23.77,0,0,0,925.91,534.85Z"/><path d="M879.21,554.7a11.42,11.42,0,0,1-2-8.39,19.06,19.06,0,0,1,.74-3.81l6.54.65q-.13.44-.21.75a6.18,6.18,0,0,0-.12.67l-.16,1.61q-.24,2.51,1,3.54t4.88,1.39l50.87,5.08L940,563.8l-52.12-5.2Q881.73,558,879.21,554.7ZM949.12,557l9.31.93-.76,7.61-9.31-.93Z"/><path d="M889.77,602.67q-3-5.85-1.51-13.64a24.09,24.09,0,0,1,3.53-9.19A19.13,19.13,0,0,1,898,574a21.39,21.39,0,0,1,8.38-2.71,37.08,37.08,0,0,1,9.93.24,27.79,27.79,0,0,1,9.26,3.36,23.24,23.24,0,0,1,6.7,5.86,20.56,20.56,0,0,1,3.69,7.73,21.06,21.06,0,0,1,.17,9,19,19,0,0,1-4.39,9.66,20.47,20.47,0,0,1-7.61,5.28,25.84,25.84,0,0,1-9.12,1.79,37.19,37.19,0,0,1-8.9-.87L912.45,579a18.44,18.44,0,0,0-5.84-.35,13.13,13.13,0,0,0-5.26,1.69,12.79,12.79,0,0,0-4.15,3.9,15.73,15.73,0,0,0-2.44,6.23,13.3,13.3,0,0,0,.77,8.24,10.85,10.85,0,0,0,6,5.27l-1.38,7.43Q892.72,608.53,889.77,602.67Zm29.72,3.62a13.1,13.1,0,0,0,4.62-2,13.29,13.29,0,0,0,3.49-3.56,13.07,13.07,0,0,0,2-5,13.52,13.52,0,0,0,0-5.46,12.26,12.26,0,0,0-2-4.54,13.59,13.59,0,0,0-3.62-3.42,15.7,15.7,0,0,0-4.79-2.07l-4.86,26.28A15.77,15.77,0,0,0,919.49,606.29Z"/><path d="M912.27,653.35a11.6,11.6,0,0,0,4.62-6.67,14.27,14.27,0,0,0,.59-7.07,12.41,12.41,0,0,0-2.55-5.46,16.92,16.92,0,0,0-4.84-4,31.22,31.22,0,0,0-6.28-2.7,26,26,0,0,0-6.24-1.14,16.62,16.62,0,0,0-5.91.67,12.05,12.05,0,0,0-4.9,2.9,12.73,12.73,0,0,0-3.22,5.51q-1.68,5.42.21,9.34a13.39,13.39,0,0,0,6.84,6.22l-2.32,7.48q-7.87-3.77-10.82-10.09t-.29-14.84a24.1,24.1,0,0,1,4.41-8.47,18.2,18.2,0,0,1,6.67-5.1,21,21,0,0,1,8.41-1.73,31.53,31.53,0,0,1,9.56,1.51,34,34,0,0,1,8.93,4.18,22.43,22.43,0,0,1,6.35,6.26,19.24,19.24,0,0,1,3,8.15,22.52,22.52,0,0,1-1,9.77,27.91,27.91,0,0,1-3.1,6.81,18.09,18.09,0,0,1-4.61,5,16,16,0,0,1-6.06,2.69,18.45,18.45,0,0,1-7.47-.06l2.34-7.56A11.65,11.65,0,0,0,912.27,653.35Z"/><path d="M904.38,696.11l-6.23-2.59L901.7,685,875,673.88a8.14,8.14,0,0,0-2.08-.62,2.21,2.21,0,0,0-1.49.3,3.74,3.74,0,0,0-1.22,1.4,25.81,25.81,0,0,0-1.24,2.65l-1.35,3.24-6.23-2.59,2.24-5.4a28.33,28.33,0,0,1,2.32-4.54,7.49,7.49,0,0,1,2.69-2.59,6.32,6.32,0,0,1,3.57-.61,17.39,17.39,0,0,1,5.06,1.42l27.34,11.35,3-7.31,6.24,2.59-3,7.31,12.88,5.35-2.93,7.07-12.89-5.35Z"/><path d="M865.09,694.82a8.11,8.11,0,0,0-3.78,1.21,12.85,12.85,0,0,0-3.16,2.82,22.87,22.87,0,0,0-2.5,3.82,28.51,28.51,0,0,0-1.52,3.47,14.1,14.1,0,0,0-.81,3.69,6.86,6.86,0,0,0,.6,3.42,5.66,5.66,0,0,0,2.65,2.6,5.1,5.1,0,0,0,5,.1,19.25,19.25,0,0,0,4.8-3.84q2.4-2.55,4.92-5.7a38.16,38.16,0,0,1,5.31-5.5,15.27,15.27,0,0,1,6.08-3.17A10.16,10.16,0,0,1,890,699a11.23,11.23,0,0,1,4.62,4.2,12.74,12.74,0,0,1,1.74,5.48,18.41,18.41,0,0,1-.51,6,26.16,26.16,0,0,1-2.18,5.82,36.55,36.55,0,0,1-4,6.14,16.83,16.83,0,0,1-4.81,4.14,12.12,12.12,0,0,1-5.88,1.54,17,17,0,0,1-7.1-1.68l3.55-6.78a7.8,7.8,0,0,0,3.85.7,7.6,7.6,0,0,0,3.28-1.13,11.57,11.57,0,0,0,2.73-2.38,18.67,18.67,0,0,0,2.09-3.12,22.29,22.29,0,0,0,1.36-3.2,11.57,11.57,0,0,0,.65-3.27,6.35,6.35,0,0,0-.51-2.91,4.57,4.57,0,0,0-2.17-2.15,4.33,4.33,0,0,0-3.56-.29,11.15,11.15,0,0,0-3.56,2.15,30,30,0,0,0-3.53,3.64q-1.77,2.12-3.59,4.22a57.48,57.48,0,0,1-4,4.27,18.25,18.25,0,0,1-4.37,3.2,11.71,11.71,0,0,1-4.89,1.3,11,11,0,0,1-5.55-1.43,13,13,0,0,1-5.41-4.82,13.69,13.69,0,0,1-1.85-6.15,19.07,19.07,0,0,1,.85-6.77,37.86,37.86,0,0,1,2.68-6.57A32.2,32.2,0,0,1,854.1,693a18.08,18.08,0,0,1,5.23-4.27,13.41,13.41,0,0,1,6.31-1.57A16.71,16.71,0,0,1,873,689l-3.55,6.78A8.5,8.5,0,0,0,865.09,694.82Z"/><path d="M839.73,738.34,831.3,733l5.37-8.43,8.42,5.37Z"/></svg>