<svg id="Ebene_1" data-name="Ebene 1" xmlns="http://www.w3.org/2000/svg" viewBox="0 0 1000 1000"><defs><style>.cls-1{fill:none;stroke:#000;stroke-miterlimit:10;stroke-width:10px;}</style></defs><title>3</title><path d="M367.49,704Q328.3,656.2,328.3,587.75h64.35q4.1,47.58,17.79,69.14,24,38.68,86.6,38.68,48.6,0,78-26t29.44-67.09q0-50.65-31-70.85t-86.08-20.2q-6.16,0-12.49.17t-12.84.51V457.68q9.58,1,16.09,1.37t14,.34q34.57,0,56.82-10.95,39-19.17,39-68.46,0-36.62-26-56.47t-60.59-19.86q-61.61,0-85.23,41.08-13,22.59-14.72,64.35H340.62q0-54.76,21.9-93.11Q400.17,247.52,495,247.52q75,0,116,33.37t41.08,96.7q0,45.18-24.3,73.25-15.07,17.45-39,27.38,38.68,10.61,60.42,40.9t21.73,74.11q0,70.17-46.21,114.32T493.62,751.7Q406.68,751.7,367.49,704Z"/><circle class="cls-1" cx="499" cy="500" r="443"/></svg>