<svg xmlns="http://www.w3.org/2000/svg" viewBox="0 0 1000 1000"><path d="M109.75,706.84a14.36,14.36,0,0,0-1.71,4.43A14.65,14.65,0,0,0,109.4,721a16.52,16.52,0,0,0,5.35,6.36,15.18,15.18,0,0,0,6.87,2.53,21.39,21.39,0,0,0,7.66-.55,35.31,35.31,0,0,0,7.72-2.91,33.24,33.24,0,0,0,6.57-4.44,21.67,21.67,0,0,0,4.74-5.84,15.37,15.37,0,0,0,1.88-7,16.53,16.53,0,0,0-2.06-8.05q-3-5.76-8.16-7.19a18.31,18.31,0,0,0-11.32.82l-6.27-12.16a32.74,32.74,0,0,1,11-2.51,26.12,26.12,0,0,1,10.08,1.49,25.39,25.39,0,0,1,8.6,5.29,31.86,31.86,0,0,1,6.59,8.86,32.86,32.86,0,0,1,3.79,13,28.4,28.4,0,0,1-1.72,12.07,31.31,31.31,0,0,1-6.56,10.37A38.81,38.81,0,0,1,143.47,739a40.1,40.1,0,0,1-12.87,4.2,32.14,32.14,0,0,1-12.41-.6,28.13,28.13,0,0,1-11-5.54A34.53,34.53,0,0,1,95.6,716.81a27.37,27.37,0,0,1,.09-9.56,24.16,24.16,0,0,1,3.62-8.8,26,26,0,0,1,7.4-7.25L113,703.36A11.72,11.72,0,0,0,109.75,706.84Z"/><path d="M77.61,674.07l22.9-7.85-.09-.26a14.7,14.7,0,0,1-7.59-4,16.75,16.75,0,0,1-4.14-6.38,21.69,21.69,0,0,1-1.41-8.41,12.45,12.45,0,0,1,2-6.15,15,15,0,0,1,4.85-4.47,37.58,37.58,0,0,1,7.2-3.28L128.38,624l4.14,12.09-24.85,8.52q-5.46,1.88-7.55,4.49t-.61,7q1.69,4.93,5.39,6.14t10.42-1.1l23.07-7.91,4.15,12.09L81.75,686.16Z"/><path d="M94.91,623.52a14.78,14.78,0,0,1-7.77-.68,15.34,15.34,0,0,1-5.69-4,21.78,21.78,0,0,1-3.91-6.22,38.73,38.73,0,0,1-2.31-7.38,50.84,50.84,0,0,1-1-7.06,21.82,21.82,0,0,1,.56-6.83,13,13,0,0,1,2.94-5.57A11.16,11.16,0,0,1,84,582.58l23.7-4.91a50,50,0,0,0,5.83-1.58,10.84,10.84,0,0,0,4-2.11l2.63,12.69a19.4,19.4,0,0,1-2,1,17.72,17.72,0,0,1-2.19.77,16.65,16.65,0,0,1,5.78,6.16,28.52,28.52,0,0,1,3,8,22.8,22.8,0,0,1,.47,6.24,14.32,14.32,0,0,1-1.44,5.45,11.75,11.75,0,0,1-3.55,4.18,14.58,14.58,0,0,1-5.83,2.45,13.59,13.59,0,0,1-6.68,0,11.68,11.68,0,0,1-4.74-2.69,16.65,16.65,0,0,1-3.27-4.47,56.35,56.35,0,0,1-2.35-5.35c-.68-1.82-1.3-3.63-1.85-5.41a33.29,33.29,0,0,0-1.8-4.68,8.59,8.59,0,0,0-2.23-3,3.49,3.49,0,0,0-3.19-.54,6.83,6.83,0,0,0-3.08,1.33,4.93,4.93,0,0,0-1.49,2.15A7.12,7.12,0,0,0,83.3,601a20.86,20.86,0,0,0,.43,3.17,9.69,9.69,0,0,0,2.79,5.49q2,1.79,5.8,1.37Zm3.26-30.82a5.75,5.75,0,0,1,1.52,1.76,20.2,20.2,0,0,1,1.19,2.42c.36.87.71,1.79,1,2.77s.68,1.94,1.06,2.9a22.81,22.81,0,0,0,1.28,2.63,8.5,8.5,0,0,0,1.69,2.13,5.63,5.63,0,0,0,2.23,1.24,6.15,6.15,0,0,0,3,0,6,6,0,0,0,2.7-1.2,4.91,4.91,0,0,0,1.46-2,7.32,7.32,0,0,0,.41-2.66,16,16,0,0,0-.34-3,11.24,11.24,0,0,0-2.42-5.47,8.41,8.41,0,0,0-3.57-2.38,9.56,9.56,0,0,0-3.73-.47,27.29,27.29,0,0,0-2.87.36Z"/><path d="M69.34,559l5.93-.44,0-.18a13.93,13.93,0,0,1-5.91-5.51,18.25,18.25,0,0,1-2.3-7.77,20.3,20.3,0,0,1,1.36-9.58,19.61,19.61,0,0,1,5-7,23.11,23.11,0,0,1,7.66-4.45,34.87,34.87,0,0,1,9.37-2,31.82,31.82,0,0,1,9.07.58A23.06,23.06,0,0,1,107.4,526a18.74,18.74,0,0,1,5.77,6,19.1,19.1,0,0,1,2.64,8.78,18.11,18.11,0,0,1-1.15,8.07,15.15,15.15,0,0,1-4.72,6.36v.18l22-1.64.95,12.74-62.64,4.67Zm35.57-19.3a10.26,10.26,0,0,0-3.53-3.16,13.39,13.39,0,0,0-4.85-1.49A27.47,27.47,0,0,0,91,535a26.23,26.23,0,0,0-5.43,1,14.49,14.49,0,0,0-4.66,2.29A10.72,10.72,0,0,0,77.77,542a9.69,9.69,0,0,0-.92,5.25,9.83,9.83,0,0,0,1.7,5.16,10.56,10.56,0,0,0,3.62,3.16A14,14,0,0,0,87.06,557a27.46,27.46,0,0,0,5.6.12,25,25,0,0,0,5.44-1,14.12,14.12,0,0,0,4.57-2.23,10.94,10.94,0,0,0,2.24-14.16Z"/><path d="M68,487.4l8.55.27-.3,9.35,23,.74c2.16.06,3.61-.25,4.35-.95s1.15-2.12,1.22-4.28q0-1.08,0-2.07a14.34,14.34,0,0,0-.21-1.9l9.9.31a30.06,30.06,0,0,1,.24,3.61c0,1.33,0,2.62,0,3.88a37.59,37.59,0,0,1-.58,5.6,13.3,13.3,0,0,1-1.72,4.63,8.35,8.35,0,0,1-3.43,3.09,12,12,0,0,1-5.71,1l-27.43-.87-.25,7.73-8.55-.27.25-7.73-13.94-.45.4-12.77,13.95.44Z"/><path d="M105.36,469.25c2.1-1.66,3.38-4.27,3.86-7.84a11.3,11.3,0,0,0-1-6.86,8,8,0,0,0-3.6-3.93l1.5-11.15q7.93,3.78,10.76,9.8a24.44,24.44,0,0,1,1.77,13.86,26.66,26.66,0,0,1-3.06,9.58,20.59,20.59,0,0,1-5.94,6.73,22.43,22.43,0,0,1-8.31,3.66,28.31,28.31,0,0,1-10,.33,27.22,27.22,0,0,1-9.4-3,22.53,22.53,0,0,1-11.2-14,24,24,0,0,1-.58-9.84,22,22,0,0,1,3.65-10,20.69,20.69,0,0,1,7.08-6.36,25.19,25.19,0,0,1,9.28-2.88,32.87,32.87,0,0,1,10.38.49L96,471.17Q102.2,471.73,105.36,469.25ZM83,451.67q-2.8,1.93-3.43,6.57a11.19,11.19,0,0,0,.35,5.18A9.48,9.48,0,0,0,85,469.1a14.66,14.66,0,0,0,3,1l2.77-20.61A14.77,14.77,0,0,0,83,451.67Z"/><path d="M79.79,412l8.4,2,0-.17a16.08,16.08,0,0,1-5.54-7.47,16.78,16.78,0,0,1-1-4.59,15.35,15.35,0,0,1,.41-4.71,10.1,10.1,0,0,1,1.1-2.61l11.54,2.82c-.26.55-.53,1.23-.82,2a23.42,23.42,0,0,0-.7,2.33,13.61,13.61,0,0,0-.28,6.05,10.31,10.31,0,0,0,2.18,4.56,12.79,12.79,0,0,0,4.09,3.17,25.54,25.54,0,0,0,5.53,2l20.38,5-3,12.41-45.21-11Z"/><path d="M101.1,369.75l-7.94-3.16L96,359.48l-3.35-1.33a13.92,13.92,0,0,1-8-7.36q-2.25-5.06.65-12.33c.42-1.06.88-2.1,1.39-3.13s1-2,1.44-3L97,335.85a39.68,39.68,0,0,0-2,4.25,4.9,4.9,0,0,0-.25,3.92,6,6,0,0,0,3.39,2.56l2.59,1,3.26-8.2,8,3.16-3.26,8.2,35.29,14-4.73,11.87-35.29-14Z"/><path d="M119.07,337.08a21.29,21.29,0,0,1-5.5-16.88,26.37,26.37,0,0,1,3-9.59,26.92,26.92,0,0,1,6.16-8,21.22,21.22,0,0,1,17-5.18,30.84,30.84,0,0,1,17.91,9.36,21.93,21.93,0,0,1,4.57,7.87,21.18,21.18,0,0,1,.82,9,29.54,29.54,0,0,1-9.18,17.59,21.3,21.3,0,0,1-7.85,4.43,21.75,21.75,0,0,1-9.07.74,27.87,27.87,0,0,1-9.73-3.15A28.69,28.69,0,0,1,119.07,337.08ZM138.25,334a14.45,14.45,0,0,0,5.08.57,9.8,9.8,0,0,0,4.59-1.51,10.63,10.63,0,0,0,3.62-4.2,10.78,10.78,0,0,0,1.4-5.41,9.72,9.72,0,0,0-1.36-4.67,14.4,14.4,0,0,0-3.38-3.85,26.9,26.9,0,0,0-4.57-3,27.83,27.83,0,0,0-5.12-2.06,14.14,14.14,0,0,0-5.08-.57,10.2,10.2,0,0,0-4.62,1.55,10.5,10.5,0,0,0-3.68,4.22,10.31,10.31,0,0,0-1.34,5.39,10.42,10.42,0,0,0,1.39,4.63,14.1,14.1,0,0,0,3.37,3.85,28,28,0,0,0,4.62,3A27.24,27.24,0,0,0,138.25,334Z"/><path d="M191.65,280.24l-5.3-3.72-.16.22a14.38,14.38,0,0,1,1.17,8.52,18.59,18.59,0,0,1-3.08,7.51,22.4,22.4,0,0,1-5.94,6.11,12.09,12.09,0,0,1-6.11,2,15,15,0,0,1-6.46-1.3,37.11,37.11,0,0,1-6.88-3.9l-23.42-16.45,7.35-10.45,21.5,15.1q4.71,3.31,8.07,3.47t6-3.6q3-4.28,1.8-8t-7-7.79l-20-14,7.35-10.46,38.07,26.75Z"/><path d="M177,224.44l6.49,5.7.12-.14a16.19,16.19,0,0,1-1.41-4.47,15.83,15.83,0,0,1,0-4.71,16.88,16.88,0,0,1,1.26-4.52,15.6,15.6,0,0,1,2.54-4,10.15,10.15,0,0,1,2.18-1.8l8.94,7.82c-.49.38-1,.85-1.66,1.42a23.22,23.22,0,0,0-1.71,1.74,13.64,13.64,0,0,0-3,5.24,10.34,10.34,0,0,0-.18,5.05,12.71,12.71,0,0,0,2.16,4.7,25.42,25.42,0,0,0,4,4.33l15.77,13.82L204,264.25l-35-30.67Z"/><path d="M204.78,216l-9.73-9.88,10.06-9.91,9.73,9.87Zm22.7,2.9,9.73,9.86-10.06,9.92-9.73-9.87Z"/><path d="M248.14,137.35l57.59,38L298,180.8,281.11,169l-22.2,15.69,5.29,20-7.13,5L240.42,142.8Zm26.61,27.37-26-18.29-.15.1,8.4,30.76Z"/><path d="M303.94,124.15l3.29,5.89-8.1,4.52,14.08,25.23a8.41,8.41,0,0,0,1.25,1.77,2.26,2.26,0,0,0,1.36.69,3.72,3.72,0,0,0,1.82-.35,23.39,23.39,0,0,0,2.62-1.31l3.07-1.71,3.29,5.9-5.11,2.85a27.85,27.85,0,0,1-4.64,2.12,7.31,7.31,0,0,1-3.71.37,6.3,6.3,0,0,1-3.18-1.73,17.63,17.63,0,0,1-3.1-4.25l-14.43-25.85-6.91,3.86-3.29-5.9,6.91-3.86-6.79-12.18,6.68-3.73,6.79,12.19Z"/><path d="M318.55,131.68a21.59,21.59,0,0,1,.87-8.82,20.24,20.24,0,0,1,4.44-7.59,26.09,26.09,0,0,1,17.86-7.8,20.42,20.42,0,0,1,8.54,1.92,21.82,21.82,0,0,1,7.06,5.36A32.55,32.55,0,0,1,365,132.28a21.76,21.76,0,0,1-.88,8.78,19.79,19.79,0,0,1-4.42,7.53,26.64,26.64,0,0,1-17.86,7.8,19.91,19.91,0,0,1-8.57-1.86,21.75,21.75,0,0,1-7-5.32,30.44,30.44,0,0,1-5.14-8.17A30.93,30.93,0,0,1,318.55,131.68Zm14,12.56a15.74,15.74,0,0,0,5,3.79,13.38,13.38,0,0,0,5.6,1.23,14,14,0,0,0,10.31-4.5,13.41,13.41,0,0,0,2.9-4.95,15.7,15.7,0,0,0,.65-6.27,25.64,25.64,0,0,0-6-13.77,16,16,0,0,0-5.06-3.83,13.06,13.06,0,0,0-5.61-1.28,13.65,13.65,0,0,0-5.63,1.18,13.82,13.82,0,0,0-4.68,3.32,13.23,13.23,0,0,0-2.88,5,16.17,16.17,0,0,0-.63,6.31,25.6,25.6,0,0,0,6,13.78Z"/><path d="M373,94.49l1.74,6.61.17,0q3-9,12.52-11.48a16.88,16.88,0,0,1,8-.26A10.09,10.09,0,0,1,401.78,94a16.3,16.3,0,0,1,4.48-7.23,17.4,17.4,0,0,1,7.61-4.14,24.24,24.24,0,0,1,6.33-.88,13.13,13.13,0,0,1,5.3,1.07A10.92,10.92,0,0,1,429.62,86a15.36,15.36,0,0,1,2.65,5.68l8.69,33-7.39,2-7.78-29.5a20.43,20.43,0,0,0-1.38-3.82,8.16,8.16,0,0,0-2.14-2.84,6.7,6.7,0,0,0-3.21-1.43,11.07,11.07,0,0,0-4.61.37q-5.47,1.45-7.79,5.41a11.65,11.65,0,0,0-.93,9.18l7.38,28L405.72,134l-7.78-29.5a19.55,19.55,0,0,0-1.44-3.9,8.83,8.83,0,0,0-2.19-2.83,6.48,6.48,0,0,0-3.12-1.41,10.31,10.31,0,0,0-4.32.35,11.54,11.54,0,0,0-5.19,2.76,12.86,12.86,0,0,0-2.91,4.12,13.16,13.16,0,0,0-1.1,4.34,11.07,11.07,0,0,0,.21,3.43l7.38,28-7.39,1.94L366,96.32Z"/><path d="M443.62,70l-1.31-9.27,7.57-1.07,1.31,9.27Zm8.74,7.21,6.51,46.08-7.57,1.07-6.51-46.08Z"/><path d="M495,81.66a11.62,11.62,0,0,0-7.86-2,14.33,14.33,0,0,0-6.83,1.92,12.39,12.39,0,0,0-4.22,4.3A17,17,0,0,0,474,91.82a31.5,31.5,0,0,0-.34,6.82,26,26,0,0,0,1.13,6.25,16.66,16.66,0,0,0,2.69,5.3,12,12,0,0,0,4.44,3.58,12.71,12.71,0,0,0,6.28,1.09q5.66-.33,8.68-3.47a13.36,13.36,0,0,0,3.43-8.58l7.82-.45q-.76,8.7-5.67,13.67t-13.79,5.47a24.32,24.32,0,0,1-9.49-1.17,18.18,18.18,0,0,1-7.1-4.47,20.83,20.83,0,0,1-4.56-7.27,31.18,31.18,0,0,1-1.94-9.48,34.31,34.31,0,0,1,.79-9.83A22.6,22.6,0,0,1,470,81.14a19.19,19.19,0,0,1,6.57-5.69A22.47,22.47,0,0,1,486.1,73a28,28,0,0,1,7.46.52,18.28,18.28,0,0,1,6.28,2.57,16,16,0,0,1,4.64,4.74,18.3,18.3,0,0,1,2.56,7l-7.9.45A11.68,11.68,0,0,0,495,81.66Z"/><path d="M577.23,125.58l-3.93-38-.17,0L558.45,122.8l-8.19-1.21-8-48.22,8.37,1.24,4.84,39.2.18,0,14.84-36.29,8.28,1.22,4,39.09.17,0,15.91-36.13,7.83,1.16-21.5,43.86Z"/><path d="M644.35,142.61a10.81,10.81,0,0,1-5.6-.44,6.52,6.52,0,0,1-4-2.94c-.81-1.4-.85-3.31-.14-5.72a18.27,18.27,0,0,1-8.58,3.13,25.37,25.37,0,0,1-14.67-3.37,14,14,0,0,1-4.07-3.56,10.73,10.73,0,0,1-2-4.77A15.77,15.77,0,0,1,608.92,113a11.72,11.72,0,0,1,4.57-2.92,16.53,16.53,0,0,1,5.51-.85q3,0,6,.36c2.13.2,4.13.46,6,.8a32.14,32.14,0,0,0,5,.56,8.3,8.3,0,0,0,3.77-.66,4.2,4.2,0,0,0,2.14-2.79,7.69,7.69,0,0,0,.25-4.16,6.53,6.53,0,0,0-1.67-2.93,9.69,9.69,0,0,0-2.88-2,24.19,24.19,0,0,0-3.42-1.3,16.25,16.25,0,0,0-8.29-.54q-3.63.84-5.35,5.69l-7.33-2.18a16.44,16.44,0,0,1,3.8-6.48,13.61,13.61,0,0,1,5.51-3.38,18.08,18.08,0,0,1,6.67-.79,32.11,32.11,0,0,1,7.34,1.34A41.86,41.86,0,0,1,642.41,93a16.62,16.62,0,0,1,4.87,3.36,10.79,10.79,0,0,1,2.77,4.9,12.45,12.45,0,0,1-.4,6.72l-6.8,22.9a17.73,17.73,0,0,0-.83,3.88c0,.86.52,1.47,1.67,1.81a9.46,9.46,0,0,0,2.35.32Zm-5.12-26.4a9.42,9.42,0,0,1-4.07.43c-1.59-.13-3.23-.34-4.93-.62s-3.42-.55-5.16-.79a19,19,0,0,0-4.86-.09,8.43,8.43,0,0,0-4,1.49,7.09,7.09,0,0,0-2.54,4,6.07,6.07,0,0,0-.17,3.27,6.3,6.3,0,0,0,1.3,2.58,8.5,8.5,0,0,0,2.38,1.92,16.2,16.2,0,0,0,3.18,1.32,18.47,18.47,0,0,0,6.5.86,13.64,13.64,0,0,0,5-1.24,10.34,10.34,0,0,0,3.39-2.54,8.57,8.57,0,0,0,1.75-3.08Z"/><path d="M658.71,137.66a8.11,8.11,0,0,0,1.51,3.67,12.61,12.61,0,0,0,3.07,2.92,22.41,22.41,0,0,0,4,2.19,27.27,27.27,0,0,0,3.58,1.23,13.79,13.79,0,0,0,3.74.51,6.73,6.73,0,0,0,3.36-.87,5.61,5.61,0,0,0,2.38-2.85,5.11,5.11,0,0,0-.31-5,19.33,19.33,0,0,0-4.21-4.48q-2.73-2.19-6.08-4.44a37.92,37.92,0,0,1-5.91-4.86,15.06,15.06,0,0,1-3.64-5.8,10.15,10.15,0,0,1,.67-7.34,11,11,0,0,1,3.81-4.93A12.8,12.8,0,0,1,670,105.4a18.63,18.63,0,0,1,6.05,0,25.66,25.66,0,0,1,6,1.71,36.87,36.87,0,0,1,6.45,3.47,17,17,0,0,1,4.51,4.46,12.31,12.31,0,0,1,2,5.74A17.07,17.07,0,0,1,693.9,128l-7-3a7.78,7.78,0,0,0,.38-3.89,7.69,7.69,0,0,0-1.38-3.18,11.55,11.55,0,0,0-2.6-2.52A17.28,17.28,0,0,0,680,113.6a22.31,22.31,0,0,0-3.29-1.11,11.74,11.74,0,0,0-3.31-.38,6.52,6.52,0,0,0-2.86.74,4.57,4.57,0,0,0-2,2.34,4.36,4.36,0,0,0,0,3.57,11.35,11.35,0,0,0,2.43,3.38,30.82,30.82,0,0,0,3.91,3.22c1.51,1.07,3,2.14,4.5,3.23s3.12,2.34,4.58,3.61a18.74,18.74,0,0,1,3.54,4.1,11.56,11.56,0,0,1,1.68,4.77,10.92,10.92,0,0,1-1,5.65,12.89,12.89,0,0,1-4.36,5.77,13.64,13.64,0,0,1-6,2.35,19.28,19.28,0,0,1-6.82-.3,38,38,0,0,1-6.76-2.15,32.7,32.7,0,0,1-6.48-3.63,18.12,18.12,0,0,1-4.68-4.87,13.6,13.6,0,0,1-2.07-6.16,16.78,16.78,0,0,1,1.21-7.46l7,3A8.55,8.55,0,0,0,658.71,137.66Z"/><path d="M728.54,131.07l-3.18,6-8.18-4.37-13.6,25.49a7.93,7.93,0,0,0-.82,2,2.19,2.19,0,0,0,.16,1.52,3.76,3.76,0,0,0,1.27,1.34,25.19,25.19,0,0,0,2.52,1.49l3.09,1.66-3.18,6-5.16-2.75a28.64,28.64,0,0,1-4.29-2.75,7.5,7.5,0,0,1-2.32-2.93,6.25,6.25,0,0,1-.26-3.61,17.61,17.61,0,0,1,1.9-4.9l13.94-26.12-7-3.73,3.17-5.95,7,3.73,6.57-12.31,6.75,3.6-6.57,12.31Z"/><path d="M742,191.09q-6.54.43-13.15-3.93a23.85,23.85,0,0,1-7.09-6.83,19,19,0,0,1-3-8,21.25,21.25,0,0,1,.77-8.77,37.13,37.13,0,0,1,4.08-9.06,28,28,0,0,1,6.71-7.22,23.08,23.08,0,0,1,8-3.88,20.59,20.59,0,0,1,8.56-.39,21.07,21.07,0,0,1,8.32,3.32,19.16,19.16,0,0,1,7.19,7.82,20.41,20.41,0,0,1,1.89,9.06,25.9,25.9,0,0,1-1.9,9.1,37.18,37.18,0,0,1-4.27,7.86L729,161a18.6,18.6,0,0,0-2.59,5.25,13.16,13.16,0,0,0-.5,5.49,12.9,12.9,0,0,0,2,5.34,15.63,15.63,0,0,0,4.79,4.67,13.2,13.2,0,0,0,7.89,2.51,10.89,10.89,0,0,0,7.18-3.46L754.1,185Q748.52,190.65,742,191.09Zm14.91-26a13.52,13.52,0,0,0-10.81-15.48,12.43,12.43,0,0,0-5,.11,13.26,13.26,0,0,0-4.56,2,15.71,15.71,0,0,0-3.78,3.6l22.32,14.71A15.8,15.8,0,0,0,756.89,165.13Z"/><path d="M800.06,245.09a10.84,10.84,0,0,1-4.78-2.94,6.56,6.56,0,0,1-2.28-4.46c-.08-1.62.75-3.33,2.49-5.16a18.28,18.28,0,0,1-9.07-1.11,25.42,25.42,0,0,1-11.54-9.69,14.12,14.12,0,0,1-2-5,10.87,10.87,0,0,1,.39-5.16,13.41,13.41,0,0,1,3.25-5.18,13.7,13.7,0,0,1,5.44-3.76,11.91,11.91,0,0,1,5.4-.51,16.52,16.52,0,0,1,5.3,1.75,58.41,58.41,0,0,1,5.13,3q2.72,1.71,5,3.44a33.21,33.21,0,0,0,4.23,2.79,8.28,8.28,0,0,0,3.66,1.12,4.16,4.16,0,0,0,3.18-1.51,7.62,7.62,0,0,0,2.11-3.58,6.5,6.5,0,0,0-.15-3.37,9.79,9.79,0,0,0-1.67-3.08,24.45,24.45,0,0,0-2.45-2.71,16.16,16.16,0,0,0-7.14-4.25q-3.62-.9-7.35,2.63l-5.54-5.28a16.65,16.65,0,0,1,6.33-4,13.65,13.65,0,0,1,6.45-.51,18.23,18.23,0,0,1,6.3,2.33,32.56,32.56,0,0,1,5.93,4.53,44.06,44.06,0,0,1,4.22,4.64,16.51,16.51,0,0,1,2.81,5.22,10.81,10.81,0,0,1,.23,5.62,12.41,12.41,0,0,1-3.41,5.8L804,234a17,17,0,0,0-2.49,3.08c-.43.75-.21,1.54.66,2.36a9.44,9.44,0,0,0,1.94,1.36Zm7.45-25.84a9.49,9.49,0,0,1-3.82-1.47q-2-1.26-4.1-2.8t-4.24-3a19.53,19.53,0,0,0-4.29-2.29,8.36,8.36,0,0,0-4.2-.47,7.13,7.13,0,0,0-4.07,2.37,6.24,6.24,0,0,0-1.64,2.83,6.41,6.41,0,0,0,0,2.89,8.17,8.17,0,0,0,1.25,2.8,15.38,15.38,0,0,0,2.23,2.61,18.2,18.2,0,0,0,5.4,3.73,13.71,13.71,0,0,0,5,1.16,10.1,10.1,0,0,0,4.17-.73,8.59,8.59,0,0,0,3-1.93Z"/><path d="M815.09,247.21a8.23,8.23,0,0,0-.32,4,12.79,12.79,0,0,0,1.4,4,22.24,22.24,0,0,0,2.57,3.77,26.69,26.69,0,0,0,2.63,2.73,13.5,13.5,0,0,0,3.09,2.16,6.83,6.83,0,0,0,3.38.76,5.72,5.72,0,0,0,3.43-1.45,5.09,5.09,0,0,0,2-4.61,19.15,19.15,0,0,0-1.71-5.91q-1.44-3.19-3.39-6.73a38.15,38.15,0,0,1-3-7,15.14,15.14,0,0,1-.6-6.83,10.14,10.14,0,0,1,3.94-6.22,11.18,11.18,0,0,1,5.64-2.66,12.94,12.94,0,0,1,5.74.48,18.64,18.64,0,0,1,5.37,2.79,25.49,25.49,0,0,1,4.54,4.24,36.49,36.49,0,0,1,4.16,6,16.92,16.92,0,0,1,2,6,12.15,12.15,0,0,1-.83,6,17.2,17.2,0,0,1-4.27,5.91l-4.9-5.87a7.77,7.77,0,0,0,2.11-3.3,7.65,7.65,0,0,0,.22-3.46,11.54,11.54,0,0,0-1.16-3.42,17.25,17.25,0,0,0-2.09-3.13,21.82,21.82,0,0,0-2.42-2.49,11.91,11.91,0,0,0-2.78-1.85,6.54,6.54,0,0,0-2.88-.64,4.54,4.54,0,0,0-2.82,1.19,4.29,4.29,0,0,0-1.63,3.17,11.29,11.29,0,0,0,.62,4.12,32,32,0,0,0,2,4.65q1.29,2.45,2.53,4.92a57.13,57.13,0,0,1,2.43,5.3,18.3,18.3,0,0,1,1.29,5.26,11.62,11.62,0,0,1-.68,5,10.94,10.94,0,0,1-3.44,4.58,12.94,12.94,0,0,1-6.51,3.15,13.65,13.65,0,0,1-6.4-.64,19.22,19.22,0,0,1-5.93-3.37,38.36,38.36,0,0,1-5-5,32,32,0,0,1-4.11-6.19,18,18,0,0,1-2-6.46,13.58,13.58,0,0,1,1-6.44,17,17,0,0,1,4.48-6.08l4.9,5.87A8.71,8.71,0,0,0,815.09,247.21Z"/><path d="M864.94,338.46a10.83,10.83,0,0,1-3.74-4.18,6.57,6.57,0,0,1-.91-4.93c.38-1.56,1.67-3,3.85-4.23a18.39,18.39,0,0,1-8.37-3.65,24.26,24.26,0,0,1-5.94-7,24.57,24.57,0,0,1-2.35-5.55,14,14,0,0,1-.49-5.38,10.8,10.8,0,0,1,1.84-4.84,13.49,13.49,0,0,1,4.59-4,13.65,13.65,0,0,1,6.3-2,11.65,11.65,0,0,1,5.32,1,16.25,16.25,0,0,1,4.57,3.18q2.11,2.06,4.06,4.37c1.41,1.61,2.67,3.19,3.79,4.72a33.64,33.64,0,0,0,3.27,3.89,8.24,8.24,0,0,0,3.18,2.11,4.15,4.15,0,0,0,3.48-.54,7.51,7.51,0,0,0,3-2.83,6.42,6.42,0,0,0,.83-3.27,10.18,10.18,0,0,0-.72-3.43,25.58,25.58,0,0,0-1.58-3.29,16.17,16.17,0,0,0-5.63-6.11c-2.14-1.27-4.74-1.12-7.8.42l-3.8-6.64a16.55,16.55,0,0,1,7.22-2.06,13.64,13.64,0,0,1,6.33,1.35,18.13,18.13,0,0,1,5.36,4,32.49,32.49,0,0,1,4.4,6,44.44,44.44,0,0,1,2.72,5.65A16.4,16.4,0,0,1,899,307a10.73,10.73,0,0,1-1.38,5.45,12.45,12.45,0,0,1-4.92,4.59L871.93,329a17.43,17.43,0,0,0-3.27,2.24c-.62.6-.64,1.42,0,2.46a9.25,9.25,0,0,0,1.48,1.85Zm14.52-22.63a9.58,9.58,0,0,1-3.24-2.5q-1.59-1.79-3.14-3.86t-3.2-4.13a18.54,18.54,0,0,0-3.45-3.42,8.54,8.54,0,0,0-3.89-1.66,7.15,7.15,0,0,0-4.57,1.12,6.16,6.16,0,0,0-2.38,2.24,6.33,6.33,0,0,0-.84,2.77,8.21,8.21,0,0,0,.4,3,15.7,15.7,0,0,0,1.39,3.14,18.1,18.1,0,0,0,4.11,5.11,13.62,13.62,0,0,0,4.45,2.54,10.2,10.2,0,0,0,4.2.49,8.5,8.5,0,0,0,3.4-1Z"/><path d="M912.61,331.89l-6.8,2.88.07.17q9.64,1.1,13.69,10.62a20.22,20.22,0,0,1,1.82,7.54,12.57,12.57,0,0,1-1.3,5.92,13.1,13.1,0,0,1-3.89,4.54,29.6,29.6,0,0,1-6.05,3.39L882,378.88l-3-7.05,29-12.28a8.71,8.71,0,0,0,4.93-12.35,15.59,15.59,0,0,0-3.36-5.18,11.51,11.51,0,0,0-4.49-2.74,13.18,13.18,0,0,0-5.27-.55,18.87,18.87,0,0,0-5.67,1.47l-24.2,10.25-3-7,42.85-18.15Z"/><path d="M902.44,442.6q-5-4.23-6.76-12a23.86,23.86,0,0,1-.38-9.83,19,19,0,0,1,3.4-7.83,21.35,21.35,0,0,1,6.62-5.79,37.41,37.41,0,0,1,9.22-3.7,27.92,27.92,0,0,1,9.84-.56,23.26,23.26,0,0,1,8.47,2.74,20.75,20.75,0,0,1,6.44,5.65,21.13,21.13,0,0,1,3.69,8.16,19.1,19.1,0,0,1-.22,10.62,20.52,20.52,0,0,1-4.92,7.85,26,26,0,0,1-7.67,5.24,37.6,37.6,0,0,1-8.52,2.71l-7.69-34a18.39,18.39,0,0,0-5.5,2,13.14,13.14,0,0,0-4.17,3.62,12.73,12.73,0,0,0-2.27,5.22,15.78,15.78,0,0,0,.22,6.69,13.21,13.21,0,0,0,4,7.27,10.91,10.91,0,0,0,7.57,2.49l1.67,7.37Q907.47,446.81,902.44,442.6Zm28.74-8.4a13,13,0,0,0,5.12-13.66,13.36,13.36,0,0,0-2.19-5,12.24,12.24,0,0,0-3.67-3.37,13.42,13.42,0,0,0-4.68-1.71,15.7,15.7,0,0,0-5.21,0l5.89,26.07A15.85,15.85,0,0,0,931.18,434.2Z"/><path d="M947.83,448l1,9.76-15,12.83,17.44,9.81,1,9.13-23-13.64-23,20.57-1-9.75L923,471.81,902.42,461l-1-9.22,26.21,14.75Z"/><path d="M906,542.55a10.92,10.92,0,0,1-1.12-5.5,6.6,6.6,0,0,1,1.71-4.71q1.68-1.74,5.46-1.7a18.43,18.43,0,0,1-5.38-7.39,25.29,25.29,0,0,1-.8-15,13.85,13.85,0,0,1,2.29-4.88,10.83,10.83,0,0,1,4-3.25,15.78,15.78,0,0,1,12.46.25,11.85,11.85,0,0,1,4.06,3.59A16.2,16.2,0,0,1,931.1,509q.78,2.85,1.3,5.82c.4,2.1.69,4.1.89,6a32.71,32.71,0,0,0,.85,5,8.41,8.41,0,0,0,1.68,3.43,4.14,4.14,0,0,0,3.27,1.29,7.62,7.62,0,0,0,4.06-.9,6.56,6.56,0,0,0,2.36-2.41,9.93,9.93,0,0,0,1.11-3.32,24,24,0,0,0,.31-3.65,16.15,16.15,0,0,0-1.77-8.11c-1.21-2.17-3.53-3.37-6.95-3.58l.07-7.65a16.57,16.57,0,0,1,7.28,1.87,13.62,13.62,0,0,1,4.77,4.36,18.34,18.34,0,0,1,2.6,6.19,32.27,32.27,0,0,1,.74,7.44,45,45,0,0,1-.5,6.25,16.28,16.28,0,0,1-1.9,5.6,10.77,10.77,0,0,1-3.94,4,12.57,12.57,0,0,1-6.57,1.47l-23.89-.22a17.73,17.73,0,0,0-4,.28c-.84.2-1.27.9-1.28,2.1a9.76,9.76,0,0,0,.34,2.35Zm24-12.2a9.77,9.77,0,0,1-1.53-3.79c-.31-1.57-.57-3.21-.76-4.92s-.42-3.44-.67-5.18a19.25,19.25,0,0,0-1.25-4.69,8.52,8.52,0,0,0-2.53-3.4,7.06,7.06,0,0,0-4.51-1.34,6.09,6.09,0,0,0-3.18.73,6.47,6.47,0,0,0-2.13,2,8.51,8.51,0,0,0-1.19,2.83,15.56,15.56,0,0,0-.38,3.41,18,18,0,0,0,1,6.49,13.53,13.53,0,0,0,2.55,4.44,10.41,10.41,0,0,0,3.38,2.55,8.61,8.61,0,0,0,3.44.84Z"/><path d="M951,562.07,944.2,561l0,.18q7,6.42,5.39,16.11a17,17,0,0,1-3,7.44,10.13,10.13,0,0,1-6.84,3.9,16.14,16.14,0,0,1,4.78,7,17.33,17.33,0,0,1,.68,8.64,24,24,0,0,1-1.78,6.14,13.26,13.26,0,0,1-3.13,4.41,10.9,10.9,0,0,1-4.64,2.44,15.35,15.35,0,0,1-6.27.11l-33.66-5.51,1.23-7.55L927,609.22a22.22,22.22,0,0,0,4.06.3,8.42,8.42,0,0,0,3.46-.8,6.83,6.83,0,0,0,2.62-2.36,10.9,10.9,0,0,0,1.53-4.35q.92-5.6-1.76-9.32a11.66,11.66,0,0,0-8-4.59l-28.6-4.68,1.23-7.55,30.11,4.93a20.15,20.15,0,0,0,4.15.27,8.91,8.91,0,0,0,3.47-.85,6.54,6.54,0,0,0,2.56-2.27,10.52,10.52,0,0,0,1.45-4.1,11.5,11.5,0,0,0-.41-5.85,13,13,0,0,0-6.09-7.11,11,11,0,0,0-3.23-1.21L905,555l1.23-7.55L952.11,555Z"/><path d="M934.23,642.71l-6-2,0,.17a11.41,11.41,0,0,1,3.46,7.4,22.15,22.15,0,0,1-1.14,9,20.89,20.89,0,0,1-4.84,8.31,19,19,0,0,1-7.18,4.63,23.68,23.68,0,0,1-8.65,1.35,31.79,31.79,0,0,1-9.31-1.66,33,33,0,0,1-8.47-4.19,22.05,22.05,0,0,1-6.05-6.18,18.63,18.63,0,0,1-2.82-8,21.62,21.62,0,0,1,1.14-9.44,22.27,22.27,0,0,1,1.55-3.51,21.28,21.28,0,0,1,2.42-3.61,16.6,16.6,0,0,1,3.33-3,12.32,12.32,0,0,1,4.27-1.85L896,630l-22.72-7.54,2.41-7.26,61,20.23Zm-24.33,20.9a17.12,17.12,0,0,0,6.07-.74,12.86,12.86,0,0,0,5.1-3,13.85,13.85,0,0,0,3.39-5.65,12.67,12.67,0,0,0-1.8-12.17,16.77,16.77,0,0,0-4.56-4.12,27.1,27.1,0,0,0-12.36-4,16.3,16.3,0,0,0-6.14.66,13.15,13.15,0,0,0-5.15,3.08,14.21,14.21,0,0,0-3.53,5.94,12.9,12.9,0,0,0-.63,6.76,12.39,12.39,0,0,0,2.49,5.34,18,18,0,0,0,4.73,4,30.4,30.4,0,0,0,6.1,2.78A23.79,23.79,0,0,0,909.9,663.61Z"/><path d="M930.81,702.48l-59-25.55,3-7,59,25.55Z"/><path d="M854.83,717.19q-1-6.47,2.71-13.45a23.91,23.91,0,0,1,6.16-7.68,19.1,19.1,0,0,1,7.69-3.69,21.35,21.35,0,0,1,8.8,0,37.45,37.45,0,0,1,9.39,3.24,28.15,28.15,0,0,1,7.81,6,23.37,23.37,0,0,1,4.6,7.62,20.71,20.71,0,0,1,1.17,8.49,21.15,21.15,0,0,1-2.56,8.58,19.08,19.08,0,0,1-7.12,7.87,20.43,20.43,0,0,1-8.86,2.72,25.72,25.72,0,0,1-9.23-1.07,36.48,36.48,0,0,1-8.21-3.53l16.44-30.7a18.42,18.42,0,0,0-5.46-2.11,12.76,12.76,0,0,0-10.66,2.46,15.82,15.82,0,0,0-4.21,5.2,13.28,13.28,0,0,0-1.78,8.08,10.88,10.88,0,0,0,4.1,6.84L862,728.71Q855.86,723.66,854.83,717.19Zm27.22,12.48a13.19,13.19,0,0,0,5-.49,13,13,0,0,0,7.81-6.48,13.27,13.27,0,0,0,1.62-5.21,12.4,12.4,0,0,0-.57-5,13.67,13.67,0,0,0-2.41-4.36,16.07,16.07,0,0,0-3.93-3.43L877,728.32A15.8,15.8,0,0,0,882.05,729.67Z"/><path d="M846.7,742.94l-8.36-5.48,5.48-8.35,8.35,5.47Z"/></svg>