<svg xmlns="http://www.w3.org/2000/svg" viewBox="0 0 1000 1000"><path d="M111.86,724.38a14.22,14.22,0,0,0-1.45,4.53,14.76,14.76,0,0,0,1.94,9.62,16.44,16.44,0,0,0,5.72,6,15.31,15.31,0,0,0,7,2.12,21.86,21.86,0,0,0,7.62-1,35.24,35.24,0,0,0,7.52-3.37,32.93,32.93,0,0,0,6.29-4.83,21.18,21.18,0,0,0,4.39-6.1,15.4,15.4,0,0,0,1.46-7.15,16.47,16.47,0,0,0-2.54-7.91q-3.31-5.56-8.57-6.69a18.36,18.36,0,0,0-11.26,1.5l-7-11.77a33,33,0,0,1,10.79-3.16,26.22,26.22,0,0,1,10.16.89,25.12,25.12,0,0,1,8.89,4.77A31.44,31.44,0,0,1,160,710.3,32.85,32.85,0,0,1,164.52,723a28.39,28.39,0,0,1-1,12.16,31.3,31.3,0,0,1-5.93,10.74,38.67,38.67,0,0,1-10.16,8.53,40.22,40.22,0,0,1-12.6,5,32.24,32.24,0,0,1-12.41.14,28.41,28.41,0,0,1-11.27-4.88,34.44,34.44,0,0,1-12.82-19.5,27.08,27.08,0,0,1-.48-9.55,24,24,0,0,1,3.08-9,25.89,25.89,0,0,1,7-7.68l7,11.77A11.46,11.46,0,0,0,111.86,724.38Z"/><path d="M77.8,693.57l22.4-9.2-.11-.25a14.82,14.82,0,0,1-7.81-3.5,16.75,16.75,0,0,1-4.51-6.13,21.64,21.64,0,0,1-1.91-8.31,12.37,12.37,0,0,1,1.61-6.26A15.1,15.1,0,0,1,92,655.17a37.8,37.8,0,0,1,7-3.7l26.47-10.88,4.86,11.82-24.31,10q-5.33,2.19-7.26,4.93c-1.29,1.83-1.36,4.16-.19,7q2,4.83,5.74,5.81t10.34-1.72l22.56-9.27L142.1,681,82.66,705.39Z"/><path d="M92.06,642.08a14.82,14.82,0,0,1-7.8-.22,15.46,15.46,0,0,1-5.92-3.62,22.07,22.07,0,0,1-4.27-6A39.55,39.55,0,0,1,71.32,625a52.7,52.7,0,0,1-1.38-7,22,22,0,0,1,.16-6.85,12.94,12.94,0,0,1,2.6-5.73,11.1,11.1,0,0,1,6.06-3.6l23.37-6.32a49.32,49.32,0,0,0,5.73-1.92,11,11,0,0,0,3.84-2.34l3.38,12.51a18.33,18.33,0,0,1-2,1.14,19.31,19.31,0,0,1-2.14.9,16.53,16.53,0,0,1,6.14,5.8,29.16,29.16,0,0,1,3.43,7.84,22.78,22.78,0,0,1,.83,6.2,14.32,14.32,0,0,1-1.11,5.53,11.85,11.85,0,0,1-3.29,4.38,14.46,14.46,0,0,1-5.68,2.79,13.57,13.57,0,0,1-6.66.36,11.57,11.57,0,0,1-4.9-2.41,16.32,16.32,0,0,1-3.53-4.26,55.35,55.35,0,0,1-2.66-5.2q-1.19-2.67-2.18-5.29A33.57,33.57,0,0,0,89.29,617a8.8,8.8,0,0,0-2.41-2.89,3.48,3.48,0,0,0-3.22-.34,6.7,6.7,0,0,0-3,1.51,5,5,0,0,0-1.36,2.23,7.14,7.14,0,0,0-.19,2.76,22,22,0,0,0,.62,3.14,9.72,9.72,0,0,0,3.12,5.31c1.41,1.11,3.37,1.45,5.86,1Zm1.42-31a5.69,5.69,0,0,1,1.61,1.66,19.94,19.94,0,0,1,1.34,2.34c.41.85.81,1.76,1.19,2.71s.8,1.9,1.24,2.84a21.78,21.78,0,0,0,1.43,2.54,8.55,8.55,0,0,0,1.81,2,5.65,5.65,0,0,0,2.3,1.1,6.15,6.15,0,0,0,3-.16,6,6,0,0,0,2.62-1.36,4.8,4.8,0,0,0,1.33-2.13,7.31,7.31,0,0,0,.26-2.68,16.06,16.06,0,0,0-.52-2.94,11.24,11.24,0,0,0-2.74-5.32,8.55,8.55,0,0,0-3.71-2.17,9.64,9.64,0,0,0-3.75-.24,27.49,27.49,0,0,0-2.84.53Z"/><path d="M62.69,579.24l5.89-.79,0-.18a14.11,14.11,0,0,1-6.23-5.15,18.2,18.2,0,0,1-2.75-7.62,20.24,20.24,0,0,1,.78-9.65,19.55,19.55,0,0,1,4.57-7.24,23.11,23.11,0,0,1,7.37-4.9,35.23,35.23,0,0,1,9.24-2.52,31.79,31.79,0,0,1,9.09,0A22.81,22.81,0,0,1,98.71,544a19,19,0,0,1,6.12,5.63,19.24,19.24,0,0,1,3.16,8.61,18.08,18.08,0,0,1-.67,8.12A15.12,15.12,0,0,1,103,573l0,.18,21.85-2.95,1.71,12.66-62.25,8.4ZM97,557.85a10.3,10.3,0,0,0-3.71-3,13.48,13.48,0,0,0-4.93-1.19,27.49,27.49,0,0,0-5.51.19,25.71,25.71,0,0,0-5.37,1.32A14.52,14.52,0,0,0,73,557.78a10.85,10.85,0,0,0-2.93,3.89,9.72,9.72,0,0,0-.6,5.3,9.88,9.88,0,0,0,2,5,10.43,10.43,0,0,0,3.8,2.93,13.85,13.85,0,0,0,5,1.19,27.9,27.9,0,0,0,5.61-.21,25.14,25.14,0,0,0,5.36-1.31,14.29,14.29,0,0,0,4.43-2.5A10.92,10.92,0,0,0,97,557.85Z"/><path d="M57.11,507.84l8.55-.24.26,9.36,23-.65q3.24-.09,4.29-1.2t1-4.35c0-.72-.07-1.4-.15-2.06a17.06,17.06,0,0,0-.33-1.88l9.9-.28a31,31,0,0,1,.46,3.59c.1,1.31.16,2.6.2,3.86a38.16,38.16,0,0,1-.25,5.64,13.32,13.32,0,0,1-1.44,4.72,8.33,8.33,0,0,1-3.24,3.29A11.85,11.85,0,0,1,93.71,529l-27.43.77.21,7.74-8.54.24L57.73,530l-13.94.39-.36-12.77,13.94-.39Z"/><path d="M93.28,487.45c2-1.77,3.13-4.46,3.4-8.05a11.38,11.38,0,0,0-1.44-6.78,8.09,8.09,0,0,0-3.83-3.72l.83-11.22q8.15,3.31,11.32,9.15a24.35,24.35,0,0,1,2.6,13.73,26.6,26.6,0,0,1-2.48,9.74,20.62,20.62,0,0,1-5.54,7.08,22.55,22.55,0,0,1-8.07,4.14,28.32,28.32,0,0,1-10,.93A27.21,27.21,0,0,1,70.51,500a22.53,22.53,0,0,1-12-13.29,24.17,24.17,0,0,1-1.17-9.79,22,22,0,0,1,3.06-10.15A20.59,20.59,0,0,1,67.07,460a25.36,25.36,0,0,1,9.1-3.44,33.13,33.13,0,0,1,10.39-.13l-2.48,33.48Q90.29,490.13,93.28,487.45ZM69.94,471.24q-2.68,2.1-3,6.77a11.13,11.13,0,0,0,.66,5.15,9.78,9.78,0,0,0,2.31,3.42A9.45,9.45,0,0,0,73,488.52a13.76,13.76,0,0,0,3,.81l1.53-20.73A14.8,14.8,0,0,0,69.94,471.24Z"/><path d="M64.35,431.84l8.5,1.54,0-.17a15.88,15.88,0,0,1-3.5-3.11,15.71,15.71,0,0,1-2.47-4,17,17,0,0,1-1.24-4.52,15.35,15.35,0,0,1,.12-4.73,10.26,10.26,0,0,1,.95-2.67l11.69,2.12c-.23.57-.46,1.26-.7,2.07a22.55,22.55,0,0,0-.57,2.37,13.69,13.69,0,0,0,.09,6,10.35,10.35,0,0,0,2.45,4.43A12.75,12.75,0,0,0,84,434.12a25.84,25.84,0,0,0,5.64,1.67l20.64,3.74L108,452.1l-45.78-8.3Z"/><path d="M83.1,388.39,75,385.71l2.4-7.27L74,377.32a14,14,0,0,1-8.44-6.87q-2.55-4.92-.09-12.35.54-1.62,1.2-3.21t1.26-3.09l9.06,3a38.8,38.8,0,0,0-1.73,4.36,4.9,4.9,0,0,0,0,3.93c.53,1,1.71,1.75,3.53,2.35l2.65.88,2.77-8.38,8.11,2.68L89.51,369l36.06,11.91-4,12.13L85.5,381.12Z"/><path d="M80.46,347.85l-9.77-3.94,4.78-11.85L85.23,336Zm11.45-9.16,43.16,17.4-4.78,11.85-43.16-17.4Z"/><path d="M143.42,337.59l-48.71-6.76,6-12,32.78,5.57.09-.16-23.94-23.08,5.73-11.33,34.42,35Z"/><path d="M157.08,290.3Q161,289.46,164,285a11.39,11.39,0,0,0,2.08-6.61,8,8,0,0,0-1.52-5.12l6.23-9.37q5.47,6.88,5.39,13.53a24.49,24.49,0,0,1-4.48,13.23,26.63,26.63,0,0,1-6.95,7.27,20.72,20.72,0,0,1-8.29,3.46,22.52,22.52,0,0,1-9.07-.36,28.26,28.26,0,0,1-9.16-4.09,27.23,27.23,0,0,1-7.15-6.81,22.46,22.46,0,0,1-3.93-17.48,24.07,24.07,0,0,1,3.78-9.1,22.09,22.09,0,0,1,7.64-7.35,20.73,20.73,0,0,1,9.15-2.62,25.4,25.4,0,0,1,9.61,1.48,33.12,33.12,0,0,1,9.12,5l-18.59,27.95Q153.16,291.15,157.08,290.3ZM144.7,264.72q-3.36.51-6,4.41a11.22,11.22,0,0,0-2,4.81,9.76,9.76,0,0,0,.35,4.12,9.31,9.31,0,0,0,1.75,3.21,14.18,14.18,0,0,0,2.22,2.19l11.51-17.32A14.82,14.82,0,0,0,144.7,264.72Z"/><path d="M163.06,246.1l-10.77-8.71,8.88-11L172,235.12Zm22.88.33,10.78,8.72-8.88,11-10.78-8.72Z"/><path d="M212.57,161.84a19.92,19.92,0,0,0-11,5.11,20.8,20.8,0,0,0-6,8.12,19.27,19.27,0,0,0-1.25,8.82,25.16,25.16,0,0,0,2.54,8.84,37.66,37.66,0,0,0,5.46,8.14,41.33,41.33,0,0,0,7.8,7,24.81,24.81,0,0,0,8.58,3.85,19.45,19.45,0,0,0,8.94-.11,21.16,21.16,0,0,0,8.87-4.91,19,19,0,0,0,4.73-6A17.1,17.1,0,0,0,243,194a17.71,17.71,0,0,0-1.08-6.89,24.53,24.53,0,0,0-3.64-6.62l6.42-5.64q7.07,10,6.17,19.73t-10.17,17.9a31,31,0,0,1-11.5,6.67,25.65,25.65,0,0,1-11.63.8,30.17,30.17,0,0,1-11.16-4.34A45.11,45.11,0,0,1,196.31,207a42.88,42.88,0,0,1-7.21-11.22,31.89,31.89,0,0,1-2.72-11.92,27,27,0,0,1,2.4-11.73,30.62,30.62,0,0,1,8.09-10.63,32.93,32.93,0,0,1,8.07-5.27,25.55,25.55,0,0,1,8.63-2.31,22.39,22.39,0,0,1,8.7,1,23.76,23.76,0,0,1,8.26,4.79l-6.42,5.63Q218.52,161.19,212.57,161.84Z"/><path d="M238,131.27l13.44,20.57.16-.1a10.15,10.15,0,0,1,.11-4.43,14.46,14.46,0,0,1,1.72-4,19,19,0,0,1,2.78-3.48,20.89,20.89,0,0,1,3.33-2.72,20.24,20.24,0,0,1,7.09-3.13,12.72,12.72,0,0,1,6.07.23,13.16,13.16,0,0,1,5.15,3,28.65,28.65,0,0,1,4.41,5.34L299,168.17l-6.4,4.18L275.4,146a9.23,9.23,0,0,0-5.85-4.35,9.34,9.34,0,0,0-7.18,1.68,15.44,15.44,0,0,0-4.49,4.23,11.34,11.34,0,0,0-1.91,4.9,13.29,13.29,0,0,0,.39,5.29,18.82,18.82,0,0,0,2.46,5.32l14.38,22-6.4,4.18-35.16-53.78Z"/><path d="M344.39,145a10.84,10.84,0,0,1-4.41,3.49,6.64,6.64,0,0,1-5,.6q-2.31-.72-4-4.1a18.22,18.22,0,0,1-4.16,8.13,25.39,25.39,0,0,1-13.05,7.51,13.75,13.75,0,0,1-5.4.15,10.77,10.77,0,0,1-4.72-2.13,15.81,15.81,0,0,1-5.4-11.23,11.77,11.77,0,0,1,1.37-5.25,16.34,16.34,0,0,1,3.46-4.37c1.46-1.32,3-2.58,4.61-3.78s3.34-2.48,4.94-3.51a32.78,32.78,0,0,0,4.08-3,8.25,8.25,0,0,0,2.31-3,4.19,4.19,0,0,0-.33-3.51,7.64,7.64,0,0,0-2.64-3.21,6.6,6.6,0,0,0-3.22-1,10.09,10.09,0,0,0-3.46.51,25.27,25.27,0,0,0-3.39,1.37,16.23,16.23,0,0,0-6.44,5.25q-2.08,3.09-.05,7.8l-6.86,3.4a16.55,16.55,0,0,1-1.62-7.34,13.63,13.63,0,0,1,1.74-6.23,18.2,18.2,0,0,1,4.35-5.11,32.56,32.56,0,0,1,6.29-4,44.24,44.24,0,0,1,5.81-2.37,16.29,16.29,0,0,1,5.86-.84,10.81,10.81,0,0,1,5.36,1.71,12.51,12.51,0,0,1,4.28,5.19l10.59,21.42a17.55,17.55,0,0,0,2,3.4c.56.66,1.38.72,2.45.19a9.12,9.12,0,0,0,1.94-1.36Zm-21.71-15.87a9.55,9.55,0,0,1-2.69,3.08c-1.26,1-2.6,2-4,2.9s-2.88,1.92-4.32,2.94a19.19,19.19,0,0,0-3.62,3.23,8.45,8.45,0,0,0-1.9,3.79,7.11,7.11,0,0,0,.84,4.63,6.14,6.14,0,0,0,2.09,2.51,6.35,6.35,0,0,0,2.71,1,8.51,8.51,0,0,0,3.06-.21,16.2,16.2,0,0,0,3.22-1.2,18.16,18.16,0,0,0,5.35-3.79,13.81,13.81,0,0,0,2.81-4.29,10.37,10.37,0,0,0,.75-4.17,8.59,8.59,0,0,0-.81-3.45Z"/><path d="M338.86,97.89l3.65,9.11.17-.07a20.73,20.73,0,0,1,3.23-10.32,17.19,17.19,0,0,1,8.58-6.15l3,7.51a21.53,21.53,0,0,0-6.8,4.09,12.3,12.3,0,0,0-3.47,5.37,15.32,15.32,0,0,0-.48,6.54,32.5,32.5,0,0,0,2.13,7.73l7.71,19.21-7.1,2.85-17.32-43.19Z"/><path d="M416.26,122.06a10.77,10.77,0,0,1-5,2.59,6.62,6.62,0,0,1-5-.33q-2.13-1.14-3.15-4.78a18.17,18.17,0,0,1-5.6,7.21,24.25,24.25,0,0,1-8.27,4,24.71,24.71,0,0,1-6,.91,13.85,13.85,0,0,1-5.33-.86,10.85,10.85,0,0,1-4.24-3,15.84,15.84,0,0,1-3.21-12,11.79,11.79,0,0,1,2.33-4.9,16.28,16.28,0,0,1,4.22-3.64c1.67-1,3.42-2,5.23-2.86s3.75-1.81,5.51-2.51a33.17,33.17,0,0,0,4.57-2.21,8.24,8.24,0,0,0,2.84-2.56,4.17,4.17,0,0,0,.33-3.51,7.71,7.71,0,0,0-2-3.65,6.55,6.55,0,0,0-3-1.6,10.15,10.15,0,0,0-3.5-.15,25.78,25.78,0,0,0-3.58.72,16.14,16.14,0,0,0-7.31,4c-1.75,1.76-2.26,4.32-1.51,7.66l-7.37,2a16.49,16.49,0,0,1-.22-7.51,13.59,13.59,0,0,1,2.87-5.8,18,18,0,0,1,5.23-4.2,32.13,32.13,0,0,1,6.93-2.77,43.53,43.53,0,0,1,6.15-1.25,16.57,16.57,0,0,1,5.91.27A10.74,10.74,0,0,1,399.14,84a12.48,12.48,0,0,1,3.23,5.9l6.4,23a18.13,18.13,0,0,0,1.36,3.72c.43.75,1.22,1,2.38.65a9.39,9.39,0,0,0,2.16-1ZM397.9,102.41a9.62,9.62,0,0,1-3.22,2.52c-1.41.74-2.92,1.43-4.51,2.09s-3.19,1.35-4.79,2.08a19,19,0,0,0-4.16,2.5,8.47,8.47,0,0,0-2.57,3.36,7.16,7.16,0,0,0,0,4.71,6.24,6.24,0,0,0,1.59,2.86,6.33,6.33,0,0,0,2.47,1.5,8.37,8.37,0,0,0,3,.36,16,16,0,0,0,3.39-.57,18.32,18.32,0,0,0,6-2.73,13.52,13.52,0,0,0,3.56-3.68,10.21,10.21,0,0,0,1.51-4,8.43,8.43,0,0,0-.14-3.54Z"/><path d="M443.21,79.11a11.61,11.61,0,0,0-8-1.21,14.27,14.27,0,0,0-6.61,2.57,12.34,12.34,0,0,0-3.78,4.68,17.08,17.08,0,0,0-1.47,6.1,32.14,32.14,0,0,0,.32,6.83,26.75,26.75,0,0,0,1.72,6.11,16.84,16.84,0,0,0,3.19,5,12,12,0,0,0,4.77,3.14,12.66,12.66,0,0,0,6.36.47q5.6-.87,8.3-4.29a13.4,13.4,0,0,0,2.59-8.87l7.74-1.2q.07,8.73-4.32,14.15t-13.21,6.78a24.21,24.21,0,0,1-9.55-.25,18.24,18.24,0,0,1-7.51-3.76,21.06,21.06,0,0,1-5.24-6.79,31.46,31.46,0,0,1-2.84-9.26,34.11,34.11,0,0,1-.16-9.86A22.54,22.54,0,0,1,418.33,81a19.14,19.14,0,0,1,6-6.3,22.46,22.46,0,0,1,9.22-3.39,28.23,28.23,0,0,1,7.48-.2,18,18,0,0,1,6.5,2,15.77,15.77,0,0,1,5.07,4.27,18.31,18.31,0,0,1,3.23,6.74L448,85.3A11.69,11.69,0,0,0,443.21,79.11Z"/><path d="M485.12,67.47l.4,6.74-9.25.56L478,103.61a8.73,8.73,0,0,0,.36,2.14,2.23,2.23,0,0,0,.93,1.21,3.73,3.73,0,0,0,1.78.47,22.81,22.81,0,0,0,2.93,0l3.51-.21.4,6.74-5.84.35a26.91,26.91,0,0,1-5.1-.1,7.38,7.38,0,0,1-3.5-1.28,6.24,6.24,0,0,1-2.12-2.94,17.59,17.59,0,0,1-.94-5.17l-1.77-29.56-7.9.48-.4-6.74,7.9-.47-.83-13.93L475,54.1,475.87,68Z"/><path d="M528,111.67q-5.36,3.78-13.26,3.5a23.63,23.63,0,0,1-9.61-2.13,18.89,18.89,0,0,1-6.71-5.27,21.37,21.37,0,0,1-3.92-7.88A37.11,37.11,0,0,1,493.21,90a28,28,0,0,1,2-9.66,23.26,23.26,0,0,1,4.8-7.49,20.61,20.61,0,0,1,7.1-4.8,21.1,21.1,0,0,1,8.83-1.5,19.15,19.15,0,0,1,10.22,2.91,20.32,20.32,0,0,1,6.34,6.75A25.65,25.65,0,0,1,535.57,85a36.51,36.51,0,0,1,.46,8.93l-34.81-1.19a18.69,18.69,0,0,0,.52,5.83,13.17,13.17,0,0,0,2.45,4.94,12.83,12.83,0,0,0,4.47,3.53,15.78,15.78,0,0,0,6.52,1.49,13.24,13.24,0,0,0,8-2,10.86,10.86,0,0,0,4.32-6.7l7.56.26Q533.3,107.88,528,111.67Zm-.82-29.93a13.25,13.25,0,0,0-2.65-4.28,13.4,13.4,0,0,0-4-2.93,14.17,14.17,0,0,0-10.61-.36,12.36,12.36,0,0,0-4.19,2.69A13.57,13.57,0,0,0,502.8,81a15.78,15.78,0,0,0-1.35,5l26.72.91A15.76,15.76,0,0,0,527.13,81.74Z"/><path d="M554.62,70.79l-1.27,9.72.18,0a20.72,20.72,0,0,1,7.86-7.42A17.27,17.27,0,0,1,571.89,72l-1,8a21.85,21.85,0,0,0-7.93.24,12.31,12.31,0,0,0-5.65,3,15.25,15.25,0,0,0-3.62,5.47,31.7,31.7,0,0,0-1.93,7.79L549.05,117l-7.59-1,6-46.14Z"/><path d="M587.19,76.09l-8.8,45.69-7.51-1.45,8.8-45.68Zm-5.92-9.66L583,57.24l7.51,1.44-1.77,9.2Z"/><path d="M597.31,115.26a8,8,0,0,0,2,3.44,12.56,12.56,0,0,0,3.42,2.49,22.5,22.5,0,0,0,4.26,1.64,28.44,28.44,0,0,0,3.72.75,14,14,0,0,0,3.77,0,6.71,6.71,0,0,0,3.21-1.31,5.61,5.61,0,0,0,2-3.14,5.09,5.09,0,0,0-1-4.93,19,19,0,0,0-4.77-3.88q-3-1.81-6.61-3.6a38.1,38.1,0,0,1-6.5-4,15.15,15.15,0,0,1-4.38-5.27,10.15,10.15,0,0,1-.3-7.36,11.12,11.12,0,0,1,3.12-5.4,12.92,12.92,0,0,1,5-2.87,18.62,18.62,0,0,1,6-.77,25.78,25.78,0,0,1,6.14.9,37.48,37.48,0,0,1,6.85,2.59,16.85,16.85,0,0,1,5.06,3.83,12.09,12.09,0,0,1,2.75,5.43,17.15,17.15,0,0,1-.14,7.28l-7.38-2a7.7,7.7,0,0,0-.13-3.91,7.57,7.57,0,0,0-1.8-3,11.49,11.49,0,0,0-2.9-2.16,17.13,17.13,0,0,0-3.49-1.38,22.24,22.24,0,0,0-3.42-.66,11.53,11.53,0,0,0-3.33.06,6.46,6.46,0,0,0-2.73,1.11,4.52,4.52,0,0,0-1.65,2.58,4.34,4.34,0,0,0,.47,3.54,11.4,11.4,0,0,0,2.86,3,31.57,31.57,0,0,0,4.3,2.68c1.63.85,3.25,1.72,4.88,2.61a54.13,54.13,0,0,1,5,3,18.21,18.21,0,0,1,4.06,3.59,11.71,11.71,0,0,1,2.3,4.51,11,11,0,0,1-.23,5.73,12.93,12.93,0,0,1-3.56,6.29,13.57,13.57,0,0,1-5.62,3.12,19,19,0,0,1-6.79.6,38.12,38.12,0,0,1-7-1.23,32.45,32.45,0,0,1-6.9-2.74,18.21,18.21,0,0,1-5.28-4.21,13.47,13.47,0,0,1-2.87-5.84,16.79,16.79,0,0,1,.21-7.55l7.38,2A8.52,8.52,0,0,0,597.31,115.26Z"/><path d="M665.66,99.51l-2.37,6.32-8.68-3.25-10.13,27.06a8.53,8.53,0,0,0-.54,2.1,2.21,2.21,0,0,0,.36,1.48,3.57,3.57,0,0,0,1.44,1.16,26,26,0,0,0,2.69,1.16l3.29,1.23-2.37,6.32L643.87,141a28.88,28.88,0,0,1-4.62-2.16,7.51,7.51,0,0,1-2.68-2.59,6.29,6.29,0,0,1-.74-3.55,17.69,17.69,0,0,1,1.24-5.11L647.44,99.9,640,97.12l2.36-6.32,7.42,2.78,4.89-13.07,7.16,2.68L657,96.26Z"/><path d="M682.51,106.87l-18.82,42.55-7-3.1,18.82-42.55ZM678.9,96.12l3.79-8.57,7,3.1-3.78,8.56Z"/><path d="M716.29,133.14a11.59,11.59,0,0,0-5.63-5.84,14.22,14.22,0,0,0-6.82-2,12.34,12.34,0,0,0-5.85,1.42,17.19,17.19,0,0,0-4.87,4,31.65,31.65,0,0,0-3.88,5.62,26.13,26.13,0,0,0-2.35,5.9,17.25,17.25,0,0,0-.51,5.92,12.08,12.08,0,0,0,1.89,5.38,12.63,12.63,0,0,0,4.76,4.24q5,2.72,9.21,1.63a13.41,13.41,0,0,0,7.44-5.47l6.87,3.74q-5.24,7-12,8.62t-14.61-2.63a24.24,24.24,0,0,1-7.44-6,18.25,18.25,0,0,1-3.68-7.54,21.16,21.16,0,0,1,0-8.58,31.44,31.44,0,0,1,3.37-9.09,34,34,0,0,1,5.85-7.92,22.65,22.65,0,0,1,7.39-5,19.32,19.32,0,0,1,8.59-1.37,22.6,22.6,0,0,1,9.38,2.91,28.37,28.37,0,0,1,6.07,4.39,18.08,18.08,0,0,1,4,5.49,16.07,16.07,0,0,1,1.44,6.48,18.28,18.28,0,0,1-1.53,7.31L716.34,141A11.59,11.59,0,0,0,716.29,133.14Z"/><path d="M724.85,171.29a8.07,8.07,0,0,0,.71,3.91,12.7,12.7,0,0,0,2.39,3.49,23.18,23.18,0,0,0,3.46,3,28.8,28.8,0,0,0,3.25,2,14.18,14.18,0,0,0,3.56,1.29,6.87,6.87,0,0,0,3.46-.16,5.62,5.62,0,0,0,2.92-2.29,5.08,5.08,0,0,0,.75-5,19.32,19.32,0,0,0-3.18-5.26q-2.22-2.72-5-5.61a38.1,38.1,0,0,1-4.76-6A15.1,15.1,0,0,1,730,154.2a10.09,10.09,0,0,1,2.19-7,11,11,0,0,1,4.75-4,12.87,12.87,0,0,1,5.67-1,18.71,18.71,0,0,1,5.91,1.29,25.93,25.93,0,0,1,5.49,2.92,36,36,0,0,1,5.57,4.74,16.77,16.77,0,0,1,3.48,5.3,12,12,0,0,1,.77,6,17.08,17.08,0,0,1-2.58,6.81L755,164.81a7.33,7.33,0,0,0,.5-7.13,11.48,11.48,0,0,0-2-3,18,18,0,0,0-2.83-2.48,23.77,23.77,0,0,0-3-1.77,11.65,11.65,0,0,0-3.16-1.06,6.47,6.47,0,0,0-2.95.13,4.56,4.56,0,0,0-2.41,1.88,4.31,4.31,0,0,0-.75,3.49,11.07,11.07,0,0,0,1.67,3.81,31,31,0,0,0,3.15,4q1.88,2,3.72,4.1a58.24,58.24,0,0,1,3.73,4.48,18.42,18.42,0,0,1,2.61,4.75,11.71,11.71,0,0,1,.65,5,10.91,10.91,0,0,1-2.14,5.31,12.93,12.93,0,0,1-5.47,4.74,13.74,13.74,0,0,1-6.34,1.05,19.22,19.22,0,0,1-6.6-1.72,36.89,36.89,0,0,1-6.17-3.51,32.75,32.75,0,0,1-5.58-4.9,18.1,18.1,0,0,1-3.55-5.74,13.5,13.5,0,0,1-.75-6.46,17,17,0,0,1,2.74-7l6.26,4.4A8.63,8.63,0,0,0,724.85,171.29Z"/><path d="M790.1,193.43a21.7,21.7,0,0,1,8.54-2.38,20.56,20.56,0,0,1,8.68,1.41A26.09,26.09,0,0,1,821,206.31a20.69,20.69,0,0,1,1.29,8.67,21.72,21.72,0,0,1-2.47,8.51,31,31,0,0,1-5.79,7.77,30.63,30.63,0,0,1-7.8,5.68,21.76,21.76,0,0,1-8.51,2.35,20,20,0,0,1-8.61-1.42A26.67,26.67,0,0,1,775.43,224a19.83,19.83,0,0,1-1.35-8.67,21.59,21.59,0,0,1,2.43-8.48,30.55,30.55,0,0,1,5.76-7.74A31,31,0,0,1,790.1,193.43ZM783.42,211a15.73,15.73,0,0,0-1.72,6.07,13.45,13.45,0,0,0,.87,5.67,14,14,0,0,0,7.91,8,13.39,13.39,0,0,0,5.66.92,15.89,15.89,0,0,0,6.08-1.65,25.64,25.64,0,0,0,10.69-10.58,16.19,16.19,0,0,0,1.75-6.1,13.36,13.36,0,0,0-.83-5.7,14.1,14.1,0,0,0-7.92-8,13.15,13.15,0,0,0-5.69-.89,16.3,16.3,0,0,0-6.12,1.69A23.18,23.18,0,0,0,788,204.9,23.45,23.45,0,0,0,783.42,211Z"/><path d="M829.93,224.91l5.23-4.27,5,6.07,5.37-4.38c2.92-2.39,5.84-3.36,8.73-2.89s5.67,2.32,8.33,5.58a18.44,18.44,0,0,1,1.42,2,12.7,12.7,0,0,1,1.15,2.26L860,233.52a9.41,9.41,0,0,0-1-2c-.43-.66-.85-1.25-1.26-1.76a7.41,7.41,0,0,0-3.57-2.66c-1.2-.34-2.6.14-4.18,1.43l-5,4.1,5.69,7-5.23,4.27-5.69-7-30.82,25.15-4.84-5.93L834.88,231Z"/><path d="M891.17,267.09,870,279.5l.09.16a10.21,10.21,0,0,1,4.42.33,14.06,14.06,0,0,1,3.93,1.92,18.73,18.73,0,0,1,3.34,2.95,20.63,20.63,0,0,1,2.55,3.46,20.17,20.17,0,0,1,2.78,7.24,12.6,12.6,0,0,1-.53,6,13.05,13.05,0,0,1-3.28,5,29.24,29.24,0,0,1-5.56,4.14L851.3,326.19l-3.86-6.6,27.19-15.91a8.7,8.7,0,0,0,3.3-12.88,15.47,15.47,0,0,0-4-4.7,11.32,11.32,0,0,0-4.8-2.14,13.19,13.19,0,0,0-5.3.12,19,19,0,0,0-5.44,2.2l-22.68,13.27-3.86-6.6,55.46-32.46Z"/><path d="M857.29,354.21a48.87,48.87,0,0,1-6.34-.12,15.8,15.8,0,0,1-4.66-1.09,10,10,0,0,1-3.4-2.35,13.69,13.69,0,0,1-2.41-3.8,21,21,0,0,1-.92-2.55,12.61,12.61,0,0,1-.47-2.64l6.42-2.83a12.6,12.6,0,0,0,.23,2.41,8.93,8.93,0,0,0,.6,2.15,6.5,6.5,0,0,0,2.6,3.13,6.91,6.91,0,0,0,3.89.9l8.43-.27,34.92-35.52,3.48,7.91-29.38,27.77.07.16,40.11-3.38,3.26,7.42Z"/><path d="M919.53,368.66l-6,1.84,0,.17a11.44,11.44,0,0,1,7.11,4,22.24,22.24,0,0,1,4.29,8,21.07,21.07,0,0,1,.85,9.58,19.13,19.13,0,0,1-3.17,7.93,23.76,23.76,0,0,1-6.28,6.11,31.64,31.64,0,0,1-8.56,4,32.66,32.66,0,0,1-9.33,1.49A22,22,0,0,1,890,410.3a18.5,18.5,0,0,1-6.9-4.86,21.46,21.46,0,0,1-4.53-8.35,23.13,23.13,0,0,1-.77-3.77,20.9,20.9,0,0,1-.11-4.34,16.64,16.64,0,0,1,1-4.39,12.24,12.24,0,0,1,2.41-4l-.06-.17-22.89,7-2.24-7.31,61.46-18.78Zm-7.76,31.12a17,17,0,0,0,4.53-4.12,12.82,12.82,0,0,0,2.39-5.43,13.84,13.84,0,0,0-.5-6.58,12.67,12.67,0,0,0-8.51-8.88,16.59,16.59,0,0,0-6.1-.72,26.62,26.62,0,0,0-6.33,1.13,27,27,0,0,0-6.09,2.71,16.31,16.31,0,0,0-4.63,4.1,13,13,0,0,0-2.42,5.49,14.27,14.27,0,0,0,.55,6.89,13.15,13.15,0,0,0,3.4,5.88,12.31,12.31,0,0,0,5.12,2.9,17.71,17.71,0,0,0,6.19.56,30.82,30.82,0,0,0,6.58-1.26A23.63,23.63,0,0,0,911.77,399.78Z"/><path d="M895.64,456.07q-4.8-4.47-6.16-12.26a23.93,23.93,0,0,1,.11-9.84,19,19,0,0,1,3.78-7.65,21.37,21.37,0,0,1,6.9-5.46,37.57,37.57,0,0,1,9.4-3.24,28.15,28.15,0,0,1,9.85-.08,23.27,23.27,0,0,1,8.32,3.17,20.67,20.67,0,0,1,6.16,6,21.24,21.24,0,0,1,3.28,8.34,19.14,19.14,0,0,1-.75,10.59,20.57,20.57,0,0,1-5.3,7.6,25.91,25.91,0,0,1-7.92,4.85,37.16,37.16,0,0,1-8.65,2.29l-6-34.31a18.36,18.36,0,0,0-5.6,1.71,13.21,13.21,0,0,0-4.34,3.41,12.87,12.87,0,0,0-2.53,5.1,15.86,15.86,0,0,0-.11,6.69,13.22,13.22,0,0,0,3.59,7.46,10.84,10.84,0,0,0,7.44,2.85l1.3,7.45Q900.44,460.53,895.64,456.07Zm29.12-7a13.13,13.13,0,0,0,3.64-3.47,13.77,13.77,0,0,0,.21-15,12.34,12.34,0,0,0-3.5-3.55,13.74,13.74,0,0,0-4.58-1.94,16.16,16.16,0,0,0-5.21-.27l4.6,26.33A15.7,15.7,0,0,0,924.76,449.11Z"/><path d="M941.13,473.77l-9.78.75,0,.18a20.7,20.7,0,0,1,8.87,6.18,17.18,17.18,0,0,1,3.3,10l-8.08.63a21.56,21.56,0,0,0-1.85-7.71,12.37,12.37,0,0,0-4.09-4.92,15.1,15.1,0,0,0-6.1-2.42,31.42,31.42,0,0,0-8-.28l-20.63,1.59-.59-7.63,46.39-3.58Z"/><path d="M929.21,496.8a21.54,21.54,0,0,1,7.66,4.46,20.13,20.13,0,0,1,5,7.21,26.05,26.05,0,0,1-.36,19.48,20.62,20.62,0,0,1-5.31,7,21.79,21.79,0,0,1-7.82,4.17,30.94,30.94,0,0,1-9.61,1.26,30.28,30.28,0,0,1-9.51-1.62,21.67,21.67,0,0,1-7.61-4.46,19.94,19.94,0,0,1-5-7.16,26.63,26.63,0,0,1,.37-19.48,19.79,19.79,0,0,1,5.26-7,21.58,21.58,0,0,1,7.77-4.17,30.28,30.28,0,0,1,9.57-1.26A30.69,30.69,0,0,1,929.21,496.8ZM912,504.26a15.87,15.87,0,0,0-5.55,3,13.8,13.8,0,0,0-.38,20.52,15.89,15.89,0,0,0,5.43,3.21,25.77,25.77,0,0,0,15,.28,16.34,16.34,0,0,0,5.59-3,13.41,13.41,0,0,0,3.51-4.57,14.16,14.16,0,0,0,.21-11.25,13.29,13.29,0,0,0-3.34-4.7,16.15,16.15,0,0,0-5.47-3.21,25.77,25.77,0,0,0-15-.28Z"/><path d="M957.31,564.2l-23.77-3.52,0,.18a11.39,11.39,0,0,1,4.69,6.7,21.93,21.93,0,0,1,.43,9.07,21,21,0,0,1-3.33,9,19.15,19.15,0,0,1-6.27,5.8,23.54,23.54,0,0,1-8.29,2.83,31.93,31.93,0,0,1-9.46,0,32.8,32.8,0,0,1-9.07-2.66,22.07,22.07,0,0,1-7-5,18.67,18.67,0,0,1-4.14-7.35,21.51,21.51,0,0,1-.51-9.49,23.72,23.72,0,0,1,.92-3.73,20.6,20.6,0,0,1,1.77-4,16.34,16.34,0,0,1,2.75-3.55,12.19,12.19,0,0,1,3.89-2.56l0-.18-6.14-.91,1.12-7.57,63.57,9.41ZM919.4,586.38a17,17,0,0,0,5.86-1.77,12.78,12.78,0,0,0,4.49-3.89,13.63,13.63,0,0,0,2.37-6.15,12.68,12.68,0,0,0-3.87-11.67,16.77,16.77,0,0,0-5.2-3.27,27,27,0,0,0-6.21-1.7,26.69,26.69,0,0,0-6.67-.16,16.4,16.4,0,0,0-5.94,1.71,13.14,13.14,0,0,0-4.53,3.92,14.29,14.29,0,0,0-2.46,6.46,13.06,13.06,0,0,0,.54,6.77,12.3,12.3,0,0,0,3.38,4.82,17.54,17.54,0,0,0,5.36,3.16A31.18,31.18,0,0,0,913,586.3,24.07,24.07,0,0,0,919.4,586.38Z"/><path d="M870.44,599.63a11.39,11.39,0,0,1-.85-8.58,19.86,19.86,0,0,1,1.25-3.68l6.39,1.54c-.13.28-.23.51-.31.71a3.82,3.82,0,0,0-.2.65l-.38,1.57c-.39,1.63-.21,2.85.55,3.65s2.32,1.48,4.65,2l49.7,12-1.79,7.44-50.92-12.25Q872.49,603.23,870.44,599.63Zm68.94,11.82,9.1,2.18-1.79,7.44-9.1-2.19Z"/><path d="M874.38,648.62q-2.11-6.2.36-13.71a24,24,0,0,1,4.74-8.63,19.05,19.05,0,0,1,6.95-5,21.5,21.5,0,0,1,8.66-1.55,37.66,37.66,0,0,1,9.81,1.58,27.92,27.92,0,0,1,8.72,4.59,23.16,23.16,0,0,1,5.84,6.71,20.59,20.59,0,0,1,2.61,8.16,21,21,0,0,1-1,8.9,19,19,0,0,1-5.66,9,20.32,20.32,0,0,1-8.26,4.19,25.73,25.73,0,0,1-9.27.54,37,37,0,0,1-8.7-2.06l10.91-33.08a18.62,18.62,0,0,0-5.74-1.13,12.7,12.7,0,0,0-10.07,4.25,16,16,0,0,0-3.26,5.85,13.32,13.32,0,0,0-.36,8.27,10.92,10.92,0,0,0,5.21,6l-2.37,7.18Q876.52,654.82,874.38,648.62Zm29,7.61a13.09,13.09,0,0,0,4.85-1.33,13.44,13.44,0,0,0,3.94-3.06,14,14,0,0,0,3.33-10.09,12.46,12.46,0,0,0-1.41-4.77,13.48,13.48,0,0,0-3.13-3.88,16.06,16.06,0,0,0-4.46-2.7l-8.37,25.38A15.55,15.55,0,0,0,903.34,656.23Z"/><path d="M889.86,701.89a11.66,11.66,0,0,0,5.47-6,14.3,14.3,0,0,0,1.53-6.93,12.42,12.42,0,0,0-1.79-5.75,17,17,0,0,0-4.26-4.61,31.65,31.65,0,0,0-5.85-3.52,25.53,25.53,0,0,0-6-2A16.79,16.79,0,0,0,873,673a12.09,12.09,0,0,0-5.25,2.22,12.62,12.62,0,0,0-3.93,5q-2.38,5.14-1,9.29a13.47,13.47,0,0,0,5.94,7.09l-3.31,7.09q-7.29-4.79-9.35-11.45t1.69-14.74a24.39,24.39,0,0,1,5.52-7.81,18.28,18.28,0,0,1,7.3-4.15,21,21,0,0,1,8.56-.58,31.22,31.22,0,0,1,9.28,2.78,34.44,34.44,0,0,1,8.28,5.34,22.64,22.64,0,0,1,5.45,7.06,19.21,19.21,0,0,1,1.91,8.48,22.7,22.7,0,0,1-2.31,9.55,27.93,27.93,0,0,1-4,6.33,17.87,17.87,0,0,1-5.23,4.31,15.89,15.89,0,0,1-6.37,1.85,18.35,18.35,0,0,1-7.4-1.06l3.34-7.18A11.63,11.63,0,0,0,889.86,701.89Z"/><path d="M876.29,743.2l-5.83-3.4,4.67-8-25-14.56a8.43,8.43,0,0,0-2-.89,2.19,2.19,0,0,0-1.52.1,3.82,3.82,0,0,0-1.39,1.22,23.3,23.3,0,0,0-1.59,2.46l-1.77,3-5.83-3.4,2.95-5a27.85,27.85,0,0,1,2.91-4.19,7.5,7.5,0,0,1,3-2.21,6.45,6.45,0,0,1,3.62-.13,17.82,17.82,0,0,1,4.82,2.09L879,725.19l4-6.84,5.83,3.4-4,6.84,12.05,7L893,742.23l-12-7Z"/><path d="M837.54,736.63a8.1,8.1,0,0,0-3.92.7,12.59,12.59,0,0,0-3.5,2.37,22.79,22.79,0,0,0-3,3.45,28.2,28.2,0,0,0-2,3.23,13.77,13.77,0,0,0-1.3,3.55,6.86,6.86,0,0,0,.13,3.46,5.59,5.59,0,0,0,2.28,2.94,5.09,5.09,0,0,0,5,.77,19.25,19.25,0,0,0,5.27-3.16q2.73-2.21,5.64-5a38.44,38.44,0,0,1,6-4.73,15.12,15.12,0,0,1,6.45-2.32,10.18,10.18,0,0,1,7,2.22,11.17,11.17,0,0,1,4,4.78,12.89,12.89,0,0,1,1,5.67,18.24,18.24,0,0,1-1.32,5.91,25.85,25.85,0,0,1-2.94,5.47,37.07,37.07,0,0,1-4.77,5.55,17,17,0,0,1-5.32,3.46,12.15,12.15,0,0,1-6,.73,17.11,17.11,0,0,1-6.8-2.62l4.43-6.24a7.79,7.79,0,0,0,3.72,1.21,7.64,7.64,0,0,0,3.4-.68,11.45,11.45,0,0,0,3-2,17.58,17.58,0,0,0,2.49-2.82,22.61,22.61,0,0,0,1.79-3,11.4,11.4,0,0,0,1.07-3.15,6.48,6.48,0,0,0-.11-2.95,4.59,4.59,0,0,0-1.86-2.43,4.31,4.31,0,0,0-3.49-.76,11.13,11.13,0,0,0-3.82,1.65,30.86,30.86,0,0,0-4,3.13c-1.36,1.24-2.73,2.48-4.11,3.7a57.84,57.84,0,0,1-4.51,3.7,18.2,18.2,0,0,1-4.75,2.59,11.76,11.76,0,0,1-5,.62,11,11,0,0,1-5.3-2.16,13,13,0,0,1-4.71-5.49,13.8,13.8,0,0,1-1-6.35,19.19,19.19,0,0,1,1.76-6.59,37.6,37.6,0,0,1,3.53-6.16,33.56,33.56,0,0,1,4.93-5.55,18.19,18.19,0,0,1,5.76-3.52,13.42,13.42,0,0,1,6.47-.71,16.79,16.79,0,0,1,7,2.77l-4.42,6.24A8.69,8.69,0,0,0,837.54,736.63Z"/><path d="M806.54,776.35l-7.62-6.45,6.45-7.63,7.63,6.45Z"/></svg>