<svg id="Ebene_1" data-name="Ebene 1" xmlns="http://www.w3.org/2000/svg" viewBox="0 0 1000 1000"><defs><style>.cls-1{fill:none;stroke:#000;stroke-miterlimit:10;stroke-width:10px;}</style></defs><title>5</title><path d="M395.12,610.42q6.17,52.71,48.95,72.91,21.9,10.26,50.66,10.27,54.75,0,81.12-34.92t26.35-77.35q0-51.35-31.31-79.41t-75.14-28.07q-31.83,0-54.59,12.32a117,117,0,0,0-38.85,34.23l-53.4-3.08,37.33-263.9H640.88V313H432.43L411.55,449.21q17.11-13,32.52-19.52,27.38-11.29,63.32-11.29,67.43,0,114.32,43.47t46.9,110.21q0,69.49-43,122.54T488.57,747.68q-59.91,0-105.94-33.72T331.11,610.42Z"/><circle class="cls-1" cx="499" cy="500" r="443"/></svg>