<svg xmlns="http://www.w3.org/2000/svg" viewBox="0 0 1000 1000"><path d="M79.36,637.31a14.63,14.63,0,0,0-2.51,13.93,16.46,16.46,0,0,0,4.31,7.11,15.34,15.34,0,0,0,6.41,3.55,21.48,21.48,0,0,0,7.65.62,34.76,34.76,0,0,0,8.07-1.69,33.21,33.21,0,0,0,7.17-3.39,21.15,21.15,0,0,0,5.58-5,15.36,15.36,0,0,0,2.94-6.67,16.51,16.51,0,0,0-.81-8.27q-2.06-6.15-7-8.35a18.3,18.3,0,0,0-11.32-.92l-4.33-13a32.66,32.66,0,0,1,11.22-.8,26.12,26.12,0,0,1,9.73,3A25.27,25.27,0,0,1,124.2,624a31.59,31.59,0,0,1,5.15,9.76,32.84,32.84,0,0,1,1.77,13.4,28.48,28.48,0,0,1-3.55,11.67A31.26,31.26,0,0,1,119.5,668a38.78,38.78,0,0,1-11.74,6.19,40,40,0,0,1-13.36,2.18,32.09,32.09,0,0,1-12.17-2.48,28.5,28.5,0,0,1-10-7.16A34.57,34.57,0,0,1,63.85,645a27.17,27.17,0,0,1,1.55-9.43,23.94,23.94,0,0,1,4.92-8.14,25.8,25.8,0,0,1,8.43-6l4.33,13A11.66,11.66,0,0,0,79.36,637.31Z"/><path d="M52.6,600l23.84-4.26,0-.26a14.83,14.83,0,0,1-6.9-5.08,16.76,16.76,0,0,1-3.11-6.94,21.75,21.75,0,0,1-.11-8.53,12.48,12.48,0,0,1,2.9-5.77,15,15,0,0,1,5.47-3.68,37.71,37.71,0,0,1,7.62-2.14l28.17-5,2.25,12.58L86.81,575.5c-3.78.68-6.5,1.77-8.14,3.29s-2.21,3.77-1.67,6.79q.91,5.13,4.38,6.89t10.47.51l24-4.29,2.25,12.58-63.26,11.3Z"/><path d="M77.44,552.68a14.87,14.87,0,0,1-7.58-1.86,15.46,15.46,0,0,1-5-4.8,22,22,0,0,1-2.91-6.74,39,39,0,0,1-1.15-7.65,53.1,53.1,0,0,1,.13-7.12,21.68,21.68,0,0,1,1.6-6.66,12.86,12.86,0,0,1,3.76-5.06A11.12,11.12,0,0,1,73,510.56l24.17-1.23a48.86,48.86,0,0,0,6-.67,10.8,10.8,0,0,0,4.25-1.47l.66,12.94a17.86,17.86,0,0,1-2.18.7,20.69,20.69,0,0,1-2.27.43,16.67,16.67,0,0,1,4.77,7,28.7,28.7,0,0,1,1.68,8.39,22.6,22.6,0,0,1-.49,6.24A14,14,0,0,1,107.3,548a11.71,11.71,0,0,1-4.14,3.59A14.58,14.58,0,0,1,97,553.13a13.51,13.51,0,0,1-6.59-1.06,11.54,11.54,0,0,1-4.27-3.39,15.73,15.73,0,0,1-2.55-4.92,53.34,53.34,0,0,1-1.51-5.64c-.39-1.9-.73-3.78-1-5.63a35.2,35.2,0,0,0-1.06-4.9,8.68,8.68,0,0,0-1.75-3.34,3.45,3.45,0,0,0-3.07-1,6.81,6.81,0,0,0-3.25.84A5,5,0,0,0,70.18,526a7.18,7.18,0,0,0-.77,2.65,21.14,21.14,0,0,0-.06,3.21,9.76,9.76,0,0,0,1.92,5.85q1.73,2.07,5.52,2.24Zm7.94-30a5.69,5.69,0,0,1,1.22,2,19.39,19.39,0,0,1,.81,2.57c.23.92.43,1.89.6,2.9s.37,2,.6,3a23.23,23.23,0,0,0,.87,2.8,8.28,8.28,0,0,0,1.33,2.36,5.78,5.78,0,0,0,2,1.57,6.24,6.24,0,0,0,3,.48,6,6,0,0,0,2.84-.78,4.82,4.82,0,0,0,1.76-1.8,7.25,7.25,0,0,0,.81-2.57,14.63,14.63,0,0,0,.12-3,11.19,11.19,0,0,0-1.55-5.78,8.45,8.45,0,0,0-3.17-2.91,9.61,9.61,0,0,0-3.61-1,23.57,23.57,0,0,0-2.89-.08Z"/><path d="M62,485.05l5.92.47v-.18A14,14,0,0,1,63,479a18.45,18.45,0,0,1-1.08-8,20.21,20.21,0,0,1,2.81-9.26,19.7,19.7,0,0,1,6-6.12,23.31,23.31,0,0,1,8.24-3.22,35.37,35.37,0,0,1,9.57-.51,31.87,31.87,0,0,1,8.87,2,23,23,0,0,1,7.32,4.42,18.85,18.85,0,0,1,4.79,6.79,19.27,19.27,0,0,1,1.27,9.08,18.26,18.26,0,0,1-2.38,7.8,15.05,15.05,0,0,1-5.64,5.56v.18l22,1.74-1,12.75-62.62-5Zm38.1-13.63a10.26,10.26,0,0,0-3-3.67,13.55,13.55,0,0,0-4.56-2.21,27.61,27.61,0,0,0-5.43-1,26.77,26.77,0,0,0-5.52.15,14.5,14.5,0,0,0-5,1.55A10.78,10.78,0,0,0,73,469.44a9.66,9.66,0,0,0-1.71,5.06,9.87,9.87,0,0,0,.89,5.35,10.4,10.4,0,0,0,3.09,3.68,14.1,14.1,0,0,0,4.61,2.21,27.46,27.46,0,0,0,5.52,1,26.11,26.11,0,0,0,5.52-.14,14.35,14.35,0,0,0,4.86-1.51,10.15,10.15,0,0,0,3.55-3.2,11.52,11.52,0,0,0,.83-10.45Z"/><path d="M71.7,414.09l8.4,1.57-1.72,9.2L101,429.11c2.12.4,3.61.31,4.45-.27s1.46-1.92,1.85-4c.14-.7.23-1.39.3-2.05a17.78,17.78,0,0,0,.08-1.9l9.73,1.82a30.74,30.74,0,0,1-.31,3.6c-.18,1.31-.39,2.59-.62,3.82a38.12,38.12,0,0,1-1.44,5.46,13.12,13.12,0,0,1-2.41,4.31,8.32,8.32,0,0,1-3.86,2.53,11.93,11.93,0,0,1-5.79.1l-27-5.06L74.59,445l-8.4-1.57,1.43-7.61-13.71-2.57,2.35-12.56L70,423.29Z"/><path d="M111.37,401.82q3.5-2,5-7.15a11.38,11.38,0,0,0,0-6.93,8.1,8.1,0,0,0-3-4.45l3.19-10.78q7.26,5,9.13,11.33a24.29,24.29,0,0,1-.37,14,26.58,26.58,0,0,1-4.49,9,20.53,20.53,0,0,1-6.9,5.75,22.66,22.66,0,0,1-8.77,2.34,28.4,28.4,0,0,1-10-1.21,27.32,27.32,0,0,1-8.84-4.39,23.08,23.08,0,0,1-6.09-6.87,22.84,22.84,0,0,1-2.83-8.67,23.91,23.91,0,0,1,.93-9.82,22,22,0,0,1,5.13-9.27,20.6,20.6,0,0,1,8-5.2,25.12,25.12,0,0,1,9.61-1.43,32.92,32.92,0,0,1,10.19,2.07l-9.52,32.19Q107.89,403.79,111.37,401.82ZM92,381c-2,1-3.51,3-4.39,6a11.08,11.08,0,0,0-.45,5.17A9.83,9.83,0,0,0,88.68,396a9.39,9.39,0,0,0,2.63,2.56A15,15,0,0,0,94.08,400L100,380.06A14.84,14.84,0,0,0,92,381Z"/><path d="M94.86,341.34l8,3.31.06-.17a15.75,15.75,0,0,1-2.77-3.77,16.26,16.26,0,0,1-1.56-4.45,17.16,17.16,0,0,1-.25-4.69A15.2,15.2,0,0,1,99.45,327a10.19,10.19,0,0,1,1.49-2.41l11,4.55c-.34.51-.71,1.13-1.12,1.87s-.75,1.48-1.05,2.2a13.54,13.54,0,0,0-1.19,5.93A10.24,10.24,0,0,0,110,344a12.76,12.76,0,0,0,3.55,3.76,26.18,26.18,0,0,0,5.17,2.83l19.37,8-4.89,11.81-43-17.81Z"/><path d="M153,302.82a7.31,7.31,0,0,0,3.22-.6,9.29,9.29,0,0,0,2.82-1.9,14.69,14.69,0,0,0,2.31-2.86,14,14,0,0,0,1.22-2.58,9.27,9.27,0,0,0,.58-2.82,6.2,6.2,0,0,0-.46-2.66,4.76,4.76,0,0,0-2-2.19c-1.63-1-3.53-.68-5.68,1a77.45,77.45,0,0,0-8.07,7.55c-1.33,1.36-2.71,2.65-4.13,3.85a18.14,18.14,0,0,1-4.4,2.83,10.92,10.92,0,0,1-4.73,1,9.93,9.93,0,0,1-5.07-1.66,14.05,14.05,0,0,1-5.35-5.37,13,13,0,0,1-1.42-6.34,20.46,20.46,0,0,1,1.42-6.74,39.44,39.44,0,0,1,3.31-6.63,37.34,37.34,0,0,1,4.48-5.86,19.27,19.27,0,0,1,5.4-4.11,14.58,14.58,0,0,1,6.31-1.55A15.28,15.28,0,0,1,150,267l-6.4,10.33c-2.18-1.14-4.09-1.22-5.71-.25a12.68,12.68,0,0,0-4.24,4.36,22.76,22.76,0,0,0-1.12,2.06,8,8,0,0,0-.71,2.26A4.88,4.88,0,0,0,132,288a3.47,3.47,0,0,0,1.57,1.82,3.53,3.53,0,0,0,3,.4,9.92,9.92,0,0,0,3.22-1.87,39.74,39.74,0,0,0,3.47-3.31c1.22-1.28,2.49-2.58,3.79-3.89a55.45,55.45,0,0,1,4.17-3.83,17.9,17.9,0,0,1,4.51-2.76,11.57,11.57,0,0,1,4.89-.89,10.82,10.82,0,0,1,5.3,1.8,14.13,14.13,0,0,1,7.28,12.34A19.72,19.72,0,0,1,171.9,295a40.07,40.07,0,0,1-3.45,7,38.13,38.13,0,0,1-4.86,6.3,20.71,20.71,0,0,1-5.92,4.44,14.77,14.77,0,0,1-14.58-.73l6.39-10.33A7,7,0,0,0,153,302.82Z"/><path d="M139.78,246.17l-8.44-6.3L139,229.63l8.44,6.29Zm13.41-5.94,37.3,27.82-7.64,10.24-37.3-27.82Z"/><path d="M158.57,232.52l9.7-10.89,14.52,2-3.69-14.13,9.4-10.55,6.09,25.91,29.92,3.61-9.7,10.89-17.42-2.49,4.49,17-9.51,10.69-7.15-28.78Z"/><path d="M206.1,202.8l-9.5-10.1L206.9,183l9.49,10.1Zm22.62,3.43,9.5,10.1L227.92,226l-9.49-10.1Z"/><path d="M305.52,166.91,264.34,129l-.15.1,16.19,53.61-7.54,4.75-48.17-45.61,7.39-4.65,39.14,38.53.15-.1-16.29-52.91,7.85-4.94,40.51,37.67.15-.09-17.43-52.2,7.24-4.56,19.68,63.55Z"/><path d="M314.47,90.3,324,113l.17-.07a10,10,0,0,1,.91-4.34,14.19,14.19,0,0,1,2.41-3.65,18.8,18.8,0,0,1,3.36-2.93,21.24,21.24,0,0,1,3.77-2.07,20.19,20.19,0,0,1,7.54-1.81,12.58,12.58,0,0,1,5.92,1.31,13.11,13.11,0,0,1,4.52,3.91,28.67,28.67,0,0,1,3.38,6l11.87,28.2-7.05,3-12.22-29a9.26,9.26,0,0,0-5-5.33,9.39,9.39,0,0,0-7.36.37,15.57,15.57,0,0,0-5.18,3.35,11.26,11.26,0,0,0-2.75,4.48,13.21,13.21,0,0,0-.57,5.27,18.71,18.71,0,0,0,1.47,5.68l10.19,24.22-7,3L307.42,93.27Z"/><path d="M416.62,122.87a10.77,10.77,0,0,1-5,2.64,6.63,6.63,0,0,1-5-.3c-1.43-.75-2.49-2.33-3.19-4.76a18.18,18.18,0,0,1-5.55,7.25,24.21,24.21,0,0,1-8.24,4.09,23.71,23.71,0,0,1-5.95,1,13.94,13.94,0,0,1-5.34-.81,10.83,10.83,0,0,1-4.26-3,15.79,15.79,0,0,1-3.29-12,11.74,11.74,0,0,1,2.29-4.92,16.07,16.07,0,0,1,4.19-3.67,59.54,59.54,0,0,1,5.21-2.9c1.9-1,3.74-1.83,5.49-2.55a33.47,33.47,0,0,0,4.56-2.24,8.29,8.29,0,0,0,2.82-2.58,4.21,4.21,0,0,0,.31-3.51,7.7,7.7,0,0,0-2-3.63,6.33,6.33,0,0,0-3-1.58,10,10,0,0,0-3.5-.13,27,27,0,0,0-3.58.74,16.22,16.22,0,0,0-7.28,4q-2.61,2.66-1.46,7.67l-7.36,2.1a16.65,16.65,0,0,1-.27-7.5,13.66,13.66,0,0,1,2.83-5.82,18.06,18.06,0,0,1,5.2-4.25,33,33,0,0,1,6.92-2.82,44.22,44.22,0,0,1,6.13-1.29,16.43,16.43,0,0,1,5.92.23,10.75,10.75,0,0,1,5,2.64,12.39,12.39,0,0,1,3.28,5.88l6.56,23a18,18,0,0,0,1.39,3.71c.43.75,1.23,1,2.38.63a9.06,9.06,0,0,0,2.15-1Zm-18.5-19.51a9.64,9.64,0,0,1-3.2,2.54c-1.42.75-2.91,1.46-4.5,2.13s-3.18,1.37-4.78,2.11a18.86,18.86,0,0,0-4.14,2.53,8.39,8.39,0,0,0-2.54,3.38,7.11,7.11,0,0,0,0,4.71,6.18,6.18,0,0,0,1.61,2.85,6.48,6.48,0,0,0,2.49,1.48,8.32,8.32,0,0,0,3,.34,16,16,0,0,0,3.39-.6,18.37,18.37,0,0,0,5.95-2.77,13.56,13.56,0,0,0,3.52-3.71,10.22,10.22,0,0,0,1.49-4,8.54,8.54,0,0,0-.17-3.54Z"/><path d="M433.33,73l1.25,6.63-9.11,1.72,5.34,28.39a8,8,0,0,0,.62,2.08,2.25,2.25,0,0,0,1.07,1.08,3.75,3.75,0,0,0,1.83.25,25.8,25.8,0,0,0,2.9-.41l3.45-.65,1.25,6.64-5.75,1.08a26.65,26.65,0,0,1-5.07.54,7.39,7.39,0,0,1-3.64-.83,6.3,6.3,0,0,1-2.46-2.65,17.59,17.59,0,0,1-1.59-5L418,82.74l-7.78,1.46-1.25-6.63,7.78-1.46L414.13,62.4,421.64,61l2.58,13.71Z"/><path d="M506.66,113.71l-.18-6.3h-.18a11.17,11.17,0,0,1-5.78,5.74,22.59,22.59,0,0,1-8.86,2,21,21,0,0,1-9.45-1.72,19.4,19.4,0,0,1-6.81-5.13,23.23,23.23,0,0,1-4.22-7.62,32.16,32.16,0,0,1-1.6-9.32,32.78,32.78,0,0,1,1-9.39,22,22,0,0,1,3.75-7.81,19.32,19.32,0,0,1,6.51-5.4,21.28,21.28,0,0,1,9.26-2.19,22.24,22.24,0,0,1,3.88.26,19.49,19.49,0,0,1,4.17,1.1,17.43,17.43,0,0,1,4,2.14,12.31,12.31,0,0,1,3.2,3.38h.18l-.66-23.93,7.65-.21,1.77,64.23ZM478.72,98a17.08,17.08,0,0,0,2.76,5.47,12.89,12.89,0,0,0,4.61,3.74,13.6,13.6,0,0,0,6.47,1.26,12.64,12.64,0,0,0,10.82-5.83,16.81,16.81,0,0,0,2.32-5.69,27.15,27.15,0,0,0,.59-6.41,26.57,26.57,0,0,0-1-6.59,16.49,16.49,0,0,0-2.72-5.56,13.31,13.31,0,0,0-4.65-3.79,14.23,14.23,0,0,0-6.79-1.29A13.13,13.13,0,0,0,484.61,75a12.21,12.21,0,0,0-4.2,4.16A17.54,17.54,0,0,0,478.23,85a30.16,30.16,0,0,0-.54,6.67A23.66,23.66,0,0,0,478.72,98Z"/><path d="M526.37,81.14a21.72,21.72,0,0,1,5.08-7.27A20.42,20.42,0,0,1,539,69.44a26,26,0,0,1,19.39,2,20.54,20.54,0,0,1,6.51,5.86,21.79,21.79,0,0,1,3.52,8.14,31.28,31.28,0,0,1,.47,9.68,30.81,30.81,0,0,1-2.39,9.35,21.89,21.89,0,0,1-5.07,7.22,20.08,20.08,0,0,1-7.55,4.39,26.6,26.6,0,0,1-19.38-2,19.86,19.86,0,0,1-6.56-5.82,21.79,21.79,0,0,1-3.53-8.09,30.4,30.4,0,0,1-.47-9.64A31,31,0,0,1,526.37,81.14Zm6,17.79a15.74,15.74,0,0,0,2.54,5.78,13.44,13.44,0,0,0,4.27,3.82,14.09,14.09,0,0,0,11.19,1.13,13.48,13.48,0,0,0,5-2.89,15.68,15.68,0,0,0,3.64-5.15,25.57,25.57,0,0,0,1.51-15A16.1,16.1,0,0,0,558,80.85,13.14,13.14,0,0,0,553.7,77a14.09,14.09,0,0,0-11.19-1.13,13.31,13.31,0,0,0-5,2.94A16.35,16.35,0,0,0,533.91,84a25.74,25.74,0,0,0-1.51,15Z"/><path d="M606.4,124q-6,2.72-13.69,1a23.94,23.94,0,0,1-9-3.89,19.24,19.24,0,0,1-5.6-6.44,21.45,21.45,0,0,1-2.36-8.48,36.82,36.82,0,0,1,.63-9.91,27.83,27.83,0,0,1,3.73-9.12,23.22,23.22,0,0,1,6.12-6.46,20.73,20.73,0,0,1,7.88-3.38,21.18,21.18,0,0,1,8.95.18,19.1,19.1,0,0,1,9.48,4.78,20.45,20.45,0,0,1,5,7.82,25.81,25.81,0,0,1,1.42,9.18,36.73,36.73,0,0,1-1.22,8.86l-34-7.7a18.53,18.53,0,0,0-.58,5.82,13.08,13.08,0,0,0,1.47,5.32,12.85,12.85,0,0,0,3.73,4.3,15.76,15.76,0,0,0,6.13,2.69,13.23,13.23,0,0,0,8.26-.44,10.89,10.89,0,0,0,5.51-5.76l7.37,1.67Q612.37,121.25,606.4,124Zm4.81-29.54a13,13,0,0,0-1.79-4.7A13.57,13.57,0,0,0,606,86.08a13.13,13.13,0,0,0-4.91-2.17,13.31,13.31,0,0,0-5.45-.18A12.29,12.29,0,0,0,591,85.59a13.42,13.42,0,0,0-3.56,3.49,15.88,15.88,0,0,0-2.27,4.7l26.07,5.91A15.79,15.79,0,0,0,611.21,94.42Z"/><path d="M627.87,122.64a8.09,8.09,0,0,0,1.75,3.57,12.58,12.58,0,0,0,3.25,2.71,22.37,22.37,0,0,0,4.14,1.93,27.77,27.77,0,0,0,3.66,1,14,14,0,0,0,3.77.27,6.84,6.84,0,0,0,3.28-1.09,5.65,5.65,0,0,0,2.2-3,5.1,5.1,0,0,0-.64-5,18.9,18.9,0,0,0-4.49-4.2c-1.91-1.33-4-2.68-6.35-4a38,38,0,0,1-6.21-4.47,15.14,15.14,0,0,1-4-5.55,10.19,10.19,0,0,1,.2-7.37,11.24,11.24,0,0,1,3.48-5.17,12.93,12.93,0,0,1,5.18-2.53,18.83,18.83,0,0,1,6-.36,25.34,25.34,0,0,1,6.07,1.32,36.65,36.65,0,0,1,6.66,3,17.07,17.07,0,0,1,4.79,4.16,12.23,12.23,0,0,1,2.37,5.6,17.06,17.06,0,0,1-.63,7.26l-7.22-2.52a7.87,7.87,0,0,0,.13-3.92,7.75,7.75,0,0,0-1.59-3.08,11.68,11.68,0,0,0-2.76-2.35,17.59,17.59,0,0,0-3.39-1.62,23.63,23.63,0,0,0-3.36-.89,11.77,11.77,0,0,0-3.32-.16,6.62,6.62,0,0,0-2.81.92,4.61,4.61,0,0,0-1.82,2.47,4.33,4.33,0,0,0,.23,3.56,11.1,11.1,0,0,0,2.65,3.21,30.29,30.29,0,0,0,4.11,3q2.35,1.44,4.69,2.93a58.13,58.13,0,0,1,4.8,3.3,18.47,18.47,0,0,1,3.8,3.86,11.66,11.66,0,0,1,2,4.66,11,11,0,0,1-.61,5.7,12.94,12.94,0,0,1-4,6,13.64,13.64,0,0,1-5.82,2.73,19.13,19.13,0,0,1-6.81.14,38.24,38.24,0,0,1-6.9-1.7,32.31,32.31,0,0,1-6.69-3.21,18.26,18.26,0,0,1-5-4.55,13.63,13.63,0,0,1-2.47-6,16.91,16.91,0,0,1,.73-7.52l7.22,2.53A8.63,8.63,0,0,0,627.87,122.64Z"/><path d="M721,124.05l-3.16,6-8.19-4.34-13.52,25.53a8.43,8.43,0,0,0-.81,2,2.16,2.16,0,0,0,.17,1.51,3.76,3.76,0,0,0,1.27,1.34,25.51,25.51,0,0,0,2.53,1.49l3.1,1.64-3.16,6L694,162.44a27.69,27.69,0,0,1-4.31-2.74,7.55,7.55,0,0,1-2.32-2.91,6.25,6.25,0,0,1-.28-3.61,17.51,17.51,0,0,1,1.88-4.91l13.86-26.17-7-3.7,3.15-6,7,3.71,6.53-12.33,6.76,3.58-6.52,12.32Z"/><path d="M747.15,119l-13.5,20.53.15.1a10.14,10.14,0,0,1,4.11-1.66,14,14,0,0,1,4.38,0,18.63,18.63,0,0,1,4.3,1.16,21.79,21.79,0,0,1,3.82,2,20.27,20.27,0,0,1,5.7,5.26,12.57,12.57,0,0,1,2.2,5.65,13,13,0,0,1-.72,5.93,29.07,29.07,0,0,1-3.14,6.18L737.63,189.6l-6.39-4.2,17.31-26.32a8.7,8.7,0,0,0-2.76-13,15.52,15.52,0,0,0-5.66-2.44,11.34,11.34,0,0,0-5.26.21,13.32,13.32,0,0,0-4.69,2.46,18.9,18.9,0,0,0-3.9,4.38l-14.44,22-6.39-4.2,35.3-53.69Z"/><path d="M780.69,164.52,751.93,201.1l-6-4.73,28.76-36.58Zm-.85-11.31,5.79-7.36,6,4.73-5.78,7.36Z"/><path d="M771.75,204a8.12,8.12,0,0,0,.19,4,12.54,12.54,0,0,0,1.91,3.77,22.09,22.09,0,0,0,3,3.41,27.07,27.07,0,0,0,3,2.37,13.74,13.74,0,0,0,3.35,1.74,6.9,6.9,0,0,0,3.45.31,5.62,5.62,0,0,0,3.2-1.88,5.12,5.12,0,0,0,1.4-4.84,19.13,19.13,0,0,0-2.46-5.63q-1.85-3-4.23-6.23a37.33,37.33,0,0,1-3.93-6.56,15,15,0,0,1-1.48-6.69,10.18,10.18,0,0,1,3.1-6.69,11.1,11.1,0,0,1,5.25-3.36,12.86,12.86,0,0,1,5.75-.27,19,19,0,0,1,5.69,2.06,25.83,25.83,0,0,1,5,3.62,36.75,36.75,0,0,1,4.9,5.44,16.84,16.84,0,0,1,2.75,5.72,12.16,12.16,0,0,1,0,6.08,17,17,0,0,1-3.47,6.41l-5.62-5.18a7.82,7.82,0,0,0,1.67-3.54,7.63,7.63,0,0,0-.23-3.46,11.7,11.7,0,0,0-1.6-3.25,18,18,0,0,0-2.47-2.83,23.29,23.29,0,0,0-2.73-2.15,11.67,11.67,0,0,0-3-1.47,6.36,6.36,0,0,0-2.94-.26,4.56,4.56,0,0,0-2.65,1.54,4.34,4.34,0,0,0-1.2,3.36,11.14,11.14,0,0,0,1.15,4,31.32,31.32,0,0,0,2.6,4.35c1.06,1.51,2.1,3,3.14,4.55a57.26,57.26,0,0,1,3.1,4.94,18.37,18.37,0,0,1,2,5,11.67,11.67,0,0,1,0,5.06,11,11,0,0,1-2.82,5,13,13,0,0,1-6.05,4,13.83,13.83,0,0,1-6.43.2,19.27,19.27,0,0,1-6.31-2.58,38.34,38.34,0,0,1-5.65-4.29,32.6,32.6,0,0,1-4.88-5.6,18.21,18.21,0,0,1-2.77-6.16,13.55,13.55,0,0,1,.12-6.51,16.91,16.91,0,0,1,3.65-6.61l5.63,5.19A8.52,8.52,0,0,0,771.75,204Z"/><path d="M850.46,233.28l-5.58,4,.11.15q9.48-.33,15.16,7.67a16.94,16.94,0,0,1,3.06,7.43,10.08,10.08,0,0,1-2.12,7.58,16.25,16.25,0,0,1,8.34,1.64,17.4,17.4,0,0,1,6.55,5.66,24.21,24.21,0,0,1,3,5.62,13.13,13.13,0,0,1,.87,5.34,10.8,10.8,0,0,1-1.59,5,15.39,15.39,0,0,1-4.37,4.49l-27.82,19.74-4.43-6.24,24.88-17.65a22.23,22.23,0,0,0,3.1-2.64,8.32,8.32,0,0,0,1.89-3,6.64,6.64,0,0,0,.21-3.51,10.68,10.68,0,0,0-2-4.17q-3.27-4.63-7.8-5.39a11.65,11.65,0,0,0-8.92,2.35l-23.63,16.78L825,277.83l24.88-17.66a19.92,19.92,0,0,0,3.14-2.73,8.71,8.71,0,0,0,1.88-3,6.52,6.52,0,0,0,.22-3.41,10.31,10.31,0,0,0-1.85-3.93,11.53,11.53,0,0,0-4.41-3.88A13.12,13.12,0,0,0,844,241.9a12.88,12.88,0,0,0-4.45.51,11.09,11.09,0,0,0-3.14,1.4l-23.63,16.77-4.43-6.23,37.94-26.94Z"/><path d="M867.37,344.18q-5.88-2.9-9.42-10a23.84,23.84,0,0,1-2.73-9.45,19.07,19.07,0,0,1,1.43-8.42,21.28,21.28,0,0,1,5-7.2,37.57,37.57,0,0,1,8.07-5.81,28,28,0,0,1,9.41-2.9,23.18,23.18,0,0,1,8.88.64,20.58,20.58,0,0,1,7.61,3.94,21.15,21.15,0,0,1,5.54,7,19.07,19.07,0,0,1,2.32,10.36,20.46,20.46,0,0,1-2.89,8.8,25.83,25.83,0,0,1-6.2,6.92,37.21,37.21,0,0,1-7.62,4.68l-15.6-31.15a18.67,18.67,0,0,0-4.87,3.25,13.07,13.07,0,0,0-3.17,4.51,12.63,12.63,0,0,0-1,5.61,15.77,15.77,0,0,0,1.81,6.44,13.23,13.23,0,0,0,5.58,6.12,10.88,10.88,0,0,0,7.95.59l3.39,6.76Q873.24,347.08,867.37,344.18Zm25.89-15a13,13,0,0,0,1.7-14.49,13.31,13.31,0,0,0-3.32-4.33,12.42,12.42,0,0,0-4.37-2.39,13.63,13.63,0,0,0-4.95-.54,15.81,15.81,0,0,0-5.07,1.23l12,23.9A15.71,15.71,0,0,0,893.26,329.15Z"/><path d="M884.43,396.63a10.83,10.83,0,0,1-3-4.77,6.63,6.63,0,0,1,0-5q1-2.21,4.53-3.5a18.29,18.29,0,0,1-7.61-5.05,25.43,25.43,0,0,1-6-13.82,13.7,13.7,0,0,1,.46-5.37,10.71,10.71,0,0,1,2.65-4.45,15.72,15.72,0,0,1,11.77-4.1,11.65,11.65,0,0,1,5.06,1.95,16.19,16.19,0,0,1,4,3.93q1.72,2.4,3.24,5t2.92,5.31a34.35,34.35,0,0,0,2.54,4.39,8.45,8.45,0,0,0,2.77,2.64,4.19,4.19,0,0,0,3.52.07,7.65,7.65,0,0,0,3.49-2.26,6.65,6.65,0,0,0,1.38-3.08A9.88,9.88,0,0,0,916,365a24.62,24.62,0,0,0-1-3.52,16.22,16.22,0,0,0-4.48-7q-2.84-2.42-7.76-.93l-2.59-7.2a16.51,16.51,0,0,1,7.47-.78,13.72,13.72,0,0,1,6,2.43,18.13,18.13,0,0,1,4.59,4.9,32.45,32.45,0,0,1,3.28,6.71,44.08,44.08,0,0,1,1.7,6,16.43,16.43,0,0,1,.18,5.91,10.77,10.77,0,0,1-2.31,5.14,12.42,12.42,0,0,1-5.64,3.66L893,388.48a18,18,0,0,0-3.61,1.64c-.71.48-.87,1.29-.46,2.42a9.27,9.27,0,0,0,1.13,2.08Zm18.23-19.77a9.55,9.55,0,0,1-2.76-3q-1.26-2-2.42-4.34t-2.43-4.62a18.71,18.71,0,0,0-2.81-4,8.41,8.41,0,0,0-3.55-2.31,7,7,0,0,0-4.69.3,6,6,0,0,0-4,4.38,8.36,8.36,0,0,0-.14,3.06,15.54,15.54,0,0,0,.83,3.34,18.19,18.19,0,0,0,3.16,5.74,13.74,13.74,0,0,0,3.94,3.27,10.33,10.33,0,0,0,4.06,1.22,8.54,8.54,0,0,0,3.52-.41Z"/><path d="M932.51,398.39l-7.2,1.66.05.17q9.3,2.76,11.64,12.84a20.31,20.31,0,0,1,.49,7.73,12.72,12.72,0,0,1-2.31,5.62,13.2,13.2,0,0,1-4.62,3.79,29.34,29.34,0,0,1-6.54,2.29l-29.82,6.87-1.72-7.45,30.7-7.08a9.25,9.25,0,0,0,6.1-4,9.37,9.37,0,0,0,.9-7.32,15.83,15.83,0,0,0-2.42-5.68,11.42,11.42,0,0,0-3.94-3.47,13,13,0,0,0-5.1-1.46,18.77,18.77,0,0,0-5.84.47l-25.61,5.9-1.72-7.45,45.34-10.45Z"/><path d="M937.78,465.71l6.73-.5.59,7.81,6.91-.52q5.65-.42,8.81,2.63t3.63,9.34a18.58,18.58,0,0,1,0,2.49,12.72,12.72,0,0,1-.36,2.5l-6.64.5a10,10,0,0,0,.34-2.19,19,19,0,0,0,0-2.16,7.44,7.44,0,0,0-1.4-4.23c-.79-1-2.21-1.37-4.24-1.22l-6.46.48.67,9-6.73.5-.68-9-39.66,3-.57-7.63,39.66-3Z"/><path d="M933.28,498.05a21.63,21.63,0,0,1,7.65,4.48,20.36,20.36,0,0,1,5,7.21,26.05,26.05,0,0,1-.4,19.48,20.58,20.58,0,0,1-5.32,7,21.82,21.82,0,0,1-7.83,4.16,31,31,0,0,1-9.61,1.24,30.57,30.57,0,0,1-9.51-1.63,21.67,21.67,0,0,1-7.6-4.48,19.92,19.92,0,0,1-5-7.16,26.72,26.72,0,0,1,.4-19.49,19.86,19.86,0,0,1,5.27-7,21.89,21.89,0,0,1,7.79-4.16,30.47,30.47,0,0,1,9.56-1.25A31,31,0,0,1,933.28,498.05ZM916,505.48a15.62,15.62,0,0,0-5.55,3A13.28,13.28,0,0,0,907,513a13.7,13.7,0,0,0-1.28,5.6,13.88,13.88,0,0,0,1,5.65,13.5,13.5,0,0,0,3.28,4.7,15.75,15.75,0,0,0,5.43,3.22,25.53,25.53,0,0,0,15,.3,16.11,16.11,0,0,0,5.6-3,13.25,13.25,0,0,0,3.51-4.56,14.05,14.05,0,0,0,.23-11.25,13.14,13.14,0,0,0-3.32-4.7,16.26,16.26,0,0,0-5.47-3.22,25.67,25.67,0,0,0-15-.31Z"/><path d="M943.76,561,934,559.82l0,.18a20.67,20.67,0,0,1,7.49,7.79,17.26,17.26,0,0,1,1.27,10.49l-8-1a21.7,21.7,0,0,0-.32-7.93,12.27,12.27,0,0,0-3-5.62,15.19,15.19,0,0,0-5.51-3.57,31.91,31.91,0,0,0-7.8-1.85l-20.55-2.48.92-7.59,46.19,5.58Z"/><path d="M881.56,630.55l7.09,2,.05-.17a15.68,15.68,0,0,1-4.39-7.72,18.65,18.65,0,0,1,.51-9.12,21.05,21.05,0,0,1,3.28-7,12.1,12.1,0,0,1,4.7-3.8,13,13,0,0,1,5.87-1.08,28.91,28.91,0,0,1,6.83,1.16l29.42,8.44-2.11,7.35-30.28-8.68a9.18,9.18,0,0,0-7.27.54,9.35,9.35,0,0,0-4.33,6,15.54,15.54,0,0,0-.64,6.14,11.44,11.44,0,0,0,1.76,4.95,13.39,13.39,0,0,0,3.75,3.75,18.94,18.94,0,0,0,5.34,2.42L926.41,643l-2.11,7.35-44.73-12.83Z"/><path d="M883.53,656.05a8.13,8.13,0,0,0-3.66,1.55,12.59,12.59,0,0,0-2.9,3.08,22.74,22.74,0,0,0-2.16,4,26.49,26.49,0,0,0-1.21,3.59,13.81,13.81,0,0,0-.49,3.75,6.83,6.83,0,0,0,.9,3.35,5.6,5.6,0,0,0,2.86,2.36,5.1,5.1,0,0,0,5-.34,19.44,19.44,0,0,0,4.45-4.24c1.45-1.84,2.92-3.87,4.4-6.11a38,38,0,0,1,4.82-5.94,15,15,0,0,1,5.78-3.68,10.17,10.17,0,0,1,7.34.62,11.14,11.14,0,0,1,5,3.77,12.81,12.81,0,0,1,2.22,5.32,18.58,18.58,0,0,1,0,6.05,26.26,26.26,0,0,1-1.67,6,36.92,36.92,0,0,1-3.43,6.46,16.83,16.83,0,0,1-4.43,4.54,12.06,12.06,0,0,1-5.73,2,17.12,17.12,0,0,1-7.21-1.06l2.94-7.06a7.31,7.31,0,0,0,7.07-1,11.31,11.31,0,0,0,2.5-2.61,16.74,16.74,0,0,0,1.81-3.29,22,22,0,0,0,1.09-3.3,12.1,12.1,0,0,0,.36-3.32,6.48,6.48,0,0,0-.76-2.85,4.6,4.6,0,0,0-2.36-2,4.29,4.29,0,0,0-3.56,0,11,11,0,0,0-3.37,2.45,31.93,31.93,0,0,0-3.2,3.93q-1.57,2.26-3.2,4.51a58.26,58.26,0,0,1-3.57,4.61,18.5,18.5,0,0,1-4.08,3.56,11.52,11.52,0,0,1-4.76,1.72,10.94,10.94,0,0,1-5.65-.94,13,13,0,0,1-5.81-4.32,13.77,13.77,0,0,1-2.38-6,19,19,0,0,1,.26-6.82,37.31,37.31,0,0,1,2.09-6.78,33,33,0,0,1,3.59-6.5,18.15,18.15,0,0,1,4.84-4.71,13.49,13.49,0,0,1,6.15-2.11,16.75,16.75,0,0,1,7.47,1.16l-3,7.06A8.68,8.68,0,0,0,883.53,656.05Z"/><path d="M856.21,712.11l-8.72-4.88,4.89-8.72,8.71,4.88Zm48.71.51a20.35,20.35,0,0,1,4.05,6.86,17.88,17.88,0,0,1,.84,7.8,21,21,0,0,1-2.72,8.17,23.07,23.07,0,0,1-4.81,6.12,17.38,17.38,0,0,1-6,3.51,15.72,15.72,0,0,1-6.82.66,19.56,19.56,0,0,1-7.36-2.52,17.12,17.12,0,0,1-4-3,17.9,17.9,0,0,1-2.63-3.48,20.36,20.36,0,0,1-1.7-3.79c-.44-1.31-.84-2.62-1.21-3.93s-.65-2.55-1-3.81a22.79,22.79,0,0,0-1.36-3.65,14.28,14.28,0,0,0-2.1-3.24,12.06,12.06,0,0,0-3.32-2.63l-3.07-1.72,3.74-6.68,3.69,2.07a17.56,17.56,0,0,1,4.94,4.36,21.19,21.19,0,0,1,2.67,4.9,41,41,0,0,1,1.53,5.09,41.49,41.49,0,0,0,1.46,4.94,16.39,16.39,0,0,0,2.44,4.41,12.6,12.6,0,0,0,4.55,3.48,11.61,11.61,0,0,0,8.31,1,10.5,10.5,0,0,0,6.2-5.35,12.38,12.38,0,0,0,1.7-5.44,11.64,11.64,0,0,0-.83-5,12.48,12.48,0,0,0-3-4.29,22.62,22.62,0,0,0-4.75-3.49l3.74-6.67A24.06,24.06,0,0,1,904.92,712.62Z"/></svg>