<svg id="Ebene_1" data-name="Ebene 1" xmlns="http://www.w3.org/2000/svg" viewBox="0 0 1000 1000"><defs><style>.cls-1{fill:none;stroke:#000;stroke-miterlimit:10;stroke-width:10px;}</style></defs><title>6</title><path d="M622.05,290.76q32.34,42.62,32.34,87.8H593.47Q588,349.48,576,333q-22.26-30.81-67.43-30.81-51.69,0-82.15,47.75T392.54,486.72q21.22-31.14,53.4-46.55,29.43-13.68,65.72-13.69,61.6,0,107.48,39.36T665,583.25q0,66.74-43.47,118.26T497.63,753q-68.81,0-118.78-52.2t-50-175.76q0-91.39,22.25-155.06,42.78-121.85,156.42-121.85Q589.71,248.15,622.05,290.76ZM575.84,665.57Q600,632.89,600,588.38q0-37.65-21.56-71.71T500,482.61q-39.7,0-69.65,26.36t-29.95,79.41q0,46.56,27.21,78.21t75.47,31.66Q551.7,698.25,575.84,665.57Z"/><circle class="cls-1" cx="499" cy="500" r="443"/></svg>