<svg id="Ebene_1" data-name="Ebene 1" xmlns="http://www.w3.org/2000/svg" viewBox="0 0 1000 1000"><defs><style>.cls-1{fill:#ff4500;}</style></defs><path class="cls-1" d="M44.46,407.48l26.94,6.13,7.52-33L52,374.48l1.9-8.34,62.66,14.28-1.9,8.33-28.7-6.53-7.51,33,28.69,6.54-1.89,8.33L42.56,415.81Z"/><path class="cls-1" d="M68.82,351.82l-8.86-3,2.46-7.24,8.86,3Zm10.39-4.55,44,15-2.46,7.24-44.05-15Z"/><path class="cls-1" d="M137,320.8q1.55,6.36-1.64,13.62a24,24,0,0,1-5.52,8.15,19.17,19.17,0,0,1-7.38,4.28,21.24,21.24,0,0,1-8.77.73,36.85,36.85,0,0,1-9.62-2.49,28,28,0,0,1-8.25-5.37,23.27,23.27,0,0,1-5.19-7.24,20.57,20.57,0,0,1-1.84-8.36,21.12,21.12,0,0,1,1.87-8.77,19.13,19.13,0,0,1,6.48-8.41,20.39,20.39,0,0,1,8.61-3.4,25.74,25.74,0,0,1,9.29.33,37,37,0,0,1,8.47,2.87l-14,31.91a18.67,18.67,0,0,0,5.61,1.67,13,13,0,0,0,5.5-.45,12.76,12.76,0,0,0,4.93-2.85,15.78,15.78,0,0,0,3.79-5.51,13.19,13.19,0,0,0,1.13-8.2,10.92,10.92,0,0,0-4.62-6.5l3-6.92Q135.47,314.44,137,320.8Zm-28.11-10.29a13,13,0,0,0-12.23,8,13.5,13.5,0,0,0-1.2,5.32,12.47,12.47,0,0,0,1,4.89,13.47,13.47,0,0,0,2.75,4.15,15.71,15.71,0,0,0,4.19,3.11l10.72-24.49A15.79,15.79,0,0,0,108.89,310.51Z"/><path class="cls-1" d="M108.87,280.94l8.57,4.78.09-.16a20.65,20.65,0,0,1-4-10.05,17.19,17.19,0,0,1,2.8-10.19l7.07,3.95a21.61,21.61,0,0,0-2.71,7.45,12.38,12.38,0,0,0,.67,6.36,15.46,15.46,0,0,0,3.75,5.38,31.62,31.62,0,0,0,6.52,4.67l18.07,10.08L146,309.89l-40.64-22.67Z"/><path class="cls-1" d="M205.35,245.54q1.2,7.62-5.74,16.36a31.58,31.58,0,0,1-4.67,4.73A20.08,20.08,0,0,1,189.3,270a14.16,14.16,0,0,1-6.14.94,12,12,0,0,1-6.23-2.43l4.75-6a5.66,5.66,0,0,0,3.56,1.16,9.62,9.62,0,0,0,3.68-.87,14.36,14.36,0,0,0,3.4-2.19,20.09,20.09,0,0,0,2.78-2.85,14.09,14.09,0,0,0,3-5.82,12,12,0,0,0-.14-5.62,15,15,0,0,0-2.79-5.38,31.13,31.13,0,0,0-5.1-5l-2.4-1.91-.11.14a12.87,12.87,0,0,1,1.25,8.64,18.51,18.51,0,0,1-3.7,7.92,20.47,20.47,0,0,1-7.13,5.95,19.14,19.14,0,0,1-8,1.91,21.59,21.59,0,0,1-8.28-1.57,30.9,30.9,0,0,1-7.9-4.6,35.3,35.3,0,0,1-6-6.14,23.15,23.15,0,0,1-4-7.74,19.71,19.71,0,0,1-.44-8.85,20.67,20.67,0,0,1,4.52-9.4,17.26,17.26,0,0,1,6.55-5.14,13.69,13.69,0,0,1,8.13-.9l.05-.07L157.38,210l4.47-5.64,33.35,26.46Q204.15,237.93,205.35,245.54Zm-22.46-5.35a12.53,12.53,0,0,0-.59-5.93,18.89,18.89,0,0,0-3.06-5.47,28.39,28.39,0,0,0-4.6-4.63,25.22,25.22,0,0,0-5.17-3.18,16.83,16.83,0,0,0-5.63-1.53,11.87,11.87,0,0,0-5.54.83,12.19,12.19,0,0,0-4.93,3.9,13.17,13.17,0,0,0-2.82,5.8,12.32,12.32,0,0,0,.27,5.67,15.74,15.74,0,0,0,2.72,5.26,26.09,26.09,0,0,0,4.53,4.57,31,31,0,0,0,5.33,3.42,17.65,17.65,0,0,0,5.82,1.86,12,12,0,0,0,5.76-.6,11.73,11.73,0,0,0,5.15-3.95A12.49,12.49,0,0,0,182.89,240.19Z"/><path class="cls-1" d="M226.22,200.93q-.94,6.48-6.58,12a23.89,23.89,0,0,1-8.16,5.51,19,19,0,0,1-8.44,1.24,21.37,21.37,0,0,1-8.41-2.57,37.7,37.7,0,0,1-8-5.88,28.16,28.16,0,0,1-5.67-8.06,23.25,23.25,0,0,1-2.13-8.64,20.59,20.59,0,0,1,1.4-8.46,21.18,21.18,0,0,1,5-7.44,19.19,19.19,0,0,1,9.14-5.41,20.53,20.53,0,0,1,9.26,0,25.85,25.85,0,0,1,8.5,3.75,37,37,0,0,1,6.8,5.81l-24.81,24.45a18.27,18.27,0,0,0,4.59,3.63,13.05,13.05,0,0,0,5.27,1.63,12.88,12.88,0,0,0,5.64-.82,15.7,15.7,0,0,0,5.56-3.71,13.25,13.25,0,0,0,4.1-7.19,10.88,10.88,0,0,0-1.89-7.75l5.39-5.31Q227.16,194.45,226.22,200.93Zm-22.29-20a13.06,13.06,0,0,0-14.31,2.85,13.35,13.35,0,0,0-3.09,4.5,12.34,12.34,0,0,0-.92,4.89,13.44,13.44,0,0,0,1,4.88,15.83,15.83,0,0,0,2.74,4.44l19-18.76A15.62,15.62,0,0,0,203.93,180.94Z"/><path class="cls-1" d="M205.08,138.38l15,19.44.15-.11a10.13,10.13,0,0,1-.24-4.43,14.43,14.43,0,0,1,1.4-4.15,19,19,0,0,1,2.49-3.69,20.61,20.61,0,0,1,3.11-3,20.16,20.16,0,0,1,6.82-3.69,12.68,12.68,0,0,1,6.06-.25,13.14,13.14,0,0,1,5.38,2.61,29.42,29.42,0,0,1,4.82,5l18.71,24.21L262.76,175l-19.27-24.92a9.23,9.23,0,0,0-6.17-3.87,9.38,9.38,0,0,0-7,2.25,15.48,15.48,0,0,0-4.14,4.57,11.2,11.2,0,0,0-1.51,5,13.11,13.11,0,0,0,.8,5.24,18.88,18.88,0,0,0,2.88,5.11l16.08,20.79-6.06,4.68L199,143.06Z"/><path class="cls-1" d="M269.36,115l3.6,5.71-7.84,5,15.42,24.43a8.33,8.33,0,0,0,1.34,1.71,2.25,2.25,0,0,0,1.39.61,3.72,3.72,0,0,0,1.8-.45,25.32,25.32,0,0,0,2.55-1.44l3-1.88,3.61,5.71-4.95,3.13a28.56,28.56,0,0,1-4.52,2.37,7.43,7.43,0,0,1-3.68.56,6.32,6.32,0,0,1-3.27-1.55,17.5,17.5,0,0,1-3.32-4.08l-15.8-25L252,134l-3.6-5.7,6.7-4.23-7.44-11.8,6.47-4.08,7.44,11.8Z"/><path class="cls-1" d="M300.7,138.73a8.12,8.12,0,0,0,3.79,1.19,12.81,12.81,0,0,0,4.2-.48,22.44,22.44,0,0,0,4.25-1.67,28.37,28.37,0,0,0,3.24-2,13.76,13.76,0,0,0,2.8-2.54,6.87,6.87,0,0,0,1.48-3.13,5.73,5.73,0,0,0-.66-3.66,5.13,5.13,0,0,0-4.06-3,19.38,19.38,0,0,0-6.13.36c-2.29.47-4.73,1.07-7.31,1.82a38.24,38.24,0,0,1-7.51,1.43,15.15,15.15,0,0,1-6.79-.93,10.15,10.15,0,0,1-5.21-5.22,11.17,11.17,0,0,1-1.34-6.08,12.69,12.69,0,0,1,1.73-5.49,18.6,18.6,0,0,1,3.9-4.63,25.76,25.76,0,0,1,5.14-3.49,36.23,36.23,0,0,1,6.8-2.72,16.64,16.64,0,0,1,6.31-.61,12.11,12.11,0,0,1,5.7,2.14,17.15,17.15,0,0,1,4.82,5.47L309,109a7.83,7.83,0,0,0-2.74-2.8,7.68,7.68,0,0,0-3.33-1,11.42,11.42,0,0,0-3.6.38,16.94,16.94,0,0,0-3.51,1.34,22.87,22.87,0,0,0-3,1.82,11.28,11.28,0,0,0-2.41,2.3,6.26,6.26,0,0,0-1.27,2.67,4.59,4.59,0,0,0,.53,3,4.36,4.36,0,0,0,2.74,2.29,11.15,11.15,0,0,0,4.15.3,30.2,30.2,0,0,0,5-.94c1.79-.47,3.57-.93,5.37-1.38a57.82,57.82,0,0,1,5.7-1.2,18.27,18.27,0,0,1,5.41-.09,11.79,11.79,0,0,1,4.75,1.76,10.94,10.94,0,0,1,3.7,4.38,12.86,12.86,0,0,1,1.64,7,13.68,13.68,0,0,1-2,6.1,19.16,19.16,0,0,1-4.6,5,38.48,38.48,0,0,1-6,3.82,32.26,32.26,0,0,1-6.94,2.64,18.12,18.12,0,0,1-6.74.47,13.48,13.48,0,0,1-6.06-2.36,16.79,16.79,0,0,1-4.94-5.7l6.81-3.49A8.45,8.45,0,0,0,300.7,138.73Z"/><path class="cls-1" d="M372.78,77.35l-25.07,7.86-2-6.44L380.21,68l1.56,5L365,114.41l28.34-8.88,2,6.44-37.44,11.74-1.75-5.58Z"/><path class="cls-1" d="M431.94,104.64l-1.38-7.25-.18,0a15.59,15.59,0,0,1-4.91,7.39,18.67,18.67,0,0,1-8.37,3.67,21,21,0,0,1-7.74.24,12.16,12.16,0,0,1-5.52-2.48,13.05,13.05,0,0,1-3.61-4.76,28.51,28.51,0,0,1-2-6.61l-5.75-30.06L400,63.38l5.91,30.94a9.24,9.24,0,0,0,3.76,6.25,9.39,9.39,0,0,0,7.28,1.17,15.51,15.51,0,0,0,5.76-2.2,11.36,11.36,0,0,0,3.63-3.81,13.27,13.27,0,0,0,1.65-5,19.19,19.19,0,0,0-.25-5.86L422.76,59l7.52-1.43,8.73,45.7Z"/><path class="cls-1" d="M451.72,55.42l.88,9.77h.18a20.75,20.75,0,0,1,6.06-9,17.22,17.22,0,0,1,10-3.43l.73,8.07a21.47,21.47,0,0,0-7.68,2A12.33,12.33,0,0,0,457,67a15.33,15.33,0,0,0-2.34,6.13,31.85,31.85,0,0,0-.18,8l1.87,20.61-7.62.69-4.19-46.34Z"/><path class="cls-1" d="M508.67,100.07l.06-7.38h-.18a15.61,15.61,0,0,1-6.26,6.3,18.54,18.54,0,0,1-8.92,2,20.9,20.9,0,0,1-7.64-1.27,12.24,12.24,0,0,1-4.93-3.51,13.09,13.09,0,0,1-2.61-5.37,29,29,0,0,1-.71-6.89l.24-30.6,7.65.06-.25,31.5a9.25,9.25,0,0,0,2.47,6.86,9.35,9.35,0,0,0,6.91,2.57,15.46,15.46,0,0,0,6.08-1,11.42,11.42,0,0,0,4.3-3,13.14,13.14,0,0,0,2.6-4.61,18.51,18.51,0,0,0,.9-5.8l.21-26.28,7.65.06-.37,46.53Zm-16-62.77-.07,9.37-8.1-.07.07-9.36Zm16.92.14-.07,9.36-8.1-.06.07-9.36Z"/><path class="cls-1" d="M558.18,66.35a11.58,11.58,0,0,0-7.34-3.45,14.28,14.28,0,0,0-7.07.58,12.33,12.33,0,0,0-5,3.41,16.86,16.86,0,0,0-3.15,5.43A31.83,31.83,0,0,0,534,79a26,26,0,0,0-.09,6.35A17.08,17.08,0,0,0,535.56,91a12.13,12.13,0,0,0,3.68,4.36,12.66,12.66,0,0,0,6,2.26q5.61.77,9.18-1.74a13.4,13.4,0,0,0,5-7.77l7.76,1.06q-2.42,8.4-8.18,12.33t-14.59,2.73a24.06,24.06,0,0,1-9.08-3,18.25,18.25,0,0,1-6.12-5.74,21.07,21.07,0,0,1-3.09-8,31.27,31.27,0,0,1-.09-9.68,34.3,34.3,0,0,1,2.66-9.5,22.5,22.5,0,0,1,5.13-7.29,19.32,19.32,0,0,1,7.54-4.33,22.51,22.51,0,0,1,9.8-.62,28.43,28.43,0,0,1,7.23,1.94A18,18,0,0,1,564,61.79a16.07,16.07,0,0,1,3.65,5.54,18.3,18.3,0,0,1,1.17,7.38L561,73.64A11.67,11.67,0,0,0,558.18,66.35Z"/><path class="cls-1" d="M595,46.9l-9.13,37,25.5-14.65,10,2.46-22,12,12.11,33.5L602,114.83l-9.64-27.41-8.58,4.74-4.24,17.13-7.42-1.84,15.41-62.38Z"/><path class="cls-1" d="M676.21,100.25,652.16,89.67l2.72-6.18L688,98.06l-2.1,4.78L645.94,123l27.18,12-2.72,6.18-35.91-15.81,2.35-5.35Z"/><path class="cls-1" d="M702.77,159.73l3.73-6.37-.16-.1a15.66,15.66,0,0,1-8.56,2.35,18.59,18.59,0,0,1-8.71-2.76,20.76,20.76,0,0,1-6-4.91,12.22,12.22,0,0,1-2.52-5.49,13,13,0,0,1,.41-6,28,28,0,0,1,2.82-6.33l15.45-26.41,6.6,3.86L689.93,134.8a9.26,9.26,0,0,0-1.28,7.17,9.37,9.37,0,0,0,4.71,5.68,15.78,15.78,0,0,0,5.79,2.14,11.35,11.35,0,0,0,5.24-.49,13.14,13.14,0,0,0,4.55-2.7,18.8,18.8,0,0,0,3.67-4.58l13.28-22.68,6.6,3.86L709,163.36Z"/><path class="cls-1" d="M752.14,136.28l-4.33,5.3.14.11q9.06-2.82,16.65,3.38a17,17,0,0,1,4.93,6.35,10.09,10.09,0,0,1,0,7.87,16.32,16.32,0,0,1,8.47-.63,17.52,17.52,0,0,1,7.83,3.72,24.42,24.42,0,0,1,4.43,4.61,13.12,13.12,0,0,1,2.25,4.92,10.75,10.75,0,0,1-.2,5.24,15.54,15.54,0,0,1-3,5.48l-21.59,26.42-5.92-4.84L781,180.58a21.15,21.15,0,0,0,2.29-3.37,8.25,8.25,0,0,0,1-3.39,6.77,6.77,0,0,0-.73-3.45,11,11,0,0,0-3-3.5q-4.38-3.59-9-3.13a11.67,11.67,0,0,0-8,4.64l-18.34,22.44L739.43,186l19.3-23.62a19.72,19.72,0,0,0,2.31-3.47,8.73,8.73,0,0,0,1-3.42,6.63,6.63,0,0,0-.69-3.35,10.28,10.28,0,0,0-2.83-3.3,11.39,11.39,0,0,0-5.28-2.57,12.94,12.94,0,0,0-5,.06A13.13,13.13,0,0,0,744,148a11,11,0,0,0-2.65,2.19L723.05,172.6l-5.93-4.84,29.45-36Z"/><path class="cls-1" d="M854.38,211.2l-26.79,38.22.11.15L871.76,235,883.5,251,831.64,289l-7.81-10.68,36.75-26.89-.1-.15-46.06,14.18L808,256.62l27.09-39.33-.1-.15-36.39,26.63-7.82-10.68,51.87-37.94Z"/><path class="cls-1" d="M851.38,304.08q-1.18,3.82,1.26,8.65a11.32,11.32,0,0,0,4.73,5.06,8,8,0,0,0,5.2,1.2l5.09,10q-8.68,1.38-14.42-2a24.39,24.39,0,0,1-9.32-10.41A26.72,26.72,0,0,1,841,307a20.72,20.72,0,0,1,1.08-8.92,22.51,22.51,0,0,1,4.77-7.72,28.46,28.46,0,0,1,8.08-6,27.19,27.19,0,0,1,9.44-2.87,22.56,22.56,0,0,1,17.16,5.18,24.24,24.24,0,0,1,6.05,7.78,22.07,22.07,0,0,1,2.64,10.27A20.64,20.64,0,0,1,888,314a25.32,25.32,0,0,1-6,7.65,33.16,33.16,0,0,1-8.83,5.48L858,297.2Q852.56,300.26,851.38,304.08Zm28.37,1.82c.8-2.12.5-4.58-.91-7.36a11,11,0,0,0-3.22-4.07,9.75,9.75,0,0,0-3.75-1.73,9.43,9.43,0,0,0-3.66-.06,14.82,14.82,0,0,0-3,.86l9.4,18.54A14.74,14.74,0,0,0,879.75,305.9Z"/><path class="cls-1" d="M905.25,337.4l-6.11,2.17.09.25a14.72,14.72,0,0,1,7.66,4,18.15,18.15,0,0,1,4.38,6.85,21.84,21.84,0,0,1,1.5,8.4,12.59,12.59,0,0,1-1.92,6.17,15,15,0,0,1-4.8,4.51,37,37,0,0,1-7.17,3.35l-27,9.56-4.26-12.05,24.77-8.77q5.43-1.92,7.5-4.57t.54-7q-1.74-4.92-5.45-6.09t-10.41,1.21l-23,8.14-4.27-12L901.19,326Z"/><path class="cls-1" d="M880.54,420.9l6.34-1.35-.06-.26a14.44,14.44,0,0,1-7-5,18.57,18.57,0,0,1-3.4-7.38,22.47,22.47,0,0,1-.43-8.51,12.16,12.16,0,0,1,2.67-5.85,14.92,14.92,0,0,1,5.35-3.85,37,37,0,0,1,7.55-2.38l28-5.94,2.65,12.5-25.7,5.45q-5.64,1.2-8,3.55T887,408.77q1.08,5.1,4.61,6.75t10.48.17l23.86-5.06,2.65,12.5-45.52,9.65ZM940.73,395l-10.3,2.18-2.52-11.88,10.3-2.19Zm3.85,18.13-10.3,2.19-2.52-11.89,10.3-2.18Z"/><path class="cls-1" d="M899.12,454.06l-13.78,1.55-1.58-14L897.54,440Z"/></svg>