<svg xmlns="http://www.w3.org/2000/svg" viewBox="0 0 1000 1000"><path d="M236.05,116.78c1.13-.78,2.37-1.6,3.7-2.48s2.68-1.69,4.05-2.45a38.57,38.57,0,0,1,4-1.91,11.16,11.16,0,0,1,3.62-.84,16.72,16.72,0,0,1,7.37,1.28,14.51,14.51,0,0,1,6.45,5.51,15.74,15.74,0,0,1,3,8.71,14.67,14.67,0,0,1-2.7,8.56l.1.15a14.76,14.76,0,0,1,10.55-.68,16.1,16.1,0,0,1,8.29,6.53,19,19,0,0,1,2.83,6.36,17.06,17.06,0,0,1,.25,7,18.55,18.55,0,0,1-2.71,6.87,21.11,21.11,0,0,1-6.05,6.06L253.14,183l-36.32-53Zm17.54,21.47q6-4.11,7.2-8t-1.71-8.15a11.45,11.45,0,0,0-3.94-3.85,7.69,7.69,0,0,0-4.18-.84,11.85,11.85,0,0,0-4.39,1.31,41.66,41.66,0,0,0-4.52,2.72l-14.11,9.66,11.55,16.86Zm20.2,21.84q4.68-3.21,5.58-7.53t-2.14-8.79a10.43,10.43,0,0,0-3.92-3.64,9,9,0,0,0-4.42-1,13,13,0,0,0-4.64,1.11,26.87,26.87,0,0,0-4.58,2.54l-16.11,11,12.56,18.34Z"/><path d="M338.59,132.1a10.88,10.88,0,0,1-4.37,3.53,6.57,6.57,0,0,1-5,.64q-2.33-.69-4-4.06a18.3,18.3,0,0,1-4.08,8.17,25.33,25.33,0,0,1-13,7.63,14,14,0,0,1-5.39.21,10.93,10.93,0,0,1-4.74-2.09,13.59,13.59,0,0,1-3.79-4.79,13.77,13.77,0,0,1-1.72-6.4,11.8,11.8,0,0,1,1.33-5.25,16.1,16.1,0,0,1,3.42-4.41,58.84,58.84,0,0,1,4.57-3.82q2.52-2,4.91-3.55a33.29,33.29,0,0,0,4.05-3.06,8.3,8.3,0,0,0,2.28-3.07,4.18,4.18,0,0,0-.36-3.5,7.69,7.69,0,0,0-2.67-3.19,6.59,6.59,0,0,0-3.23-1,10.11,10.11,0,0,0-3.46.54,26,26,0,0,0-3.37,1.41,16.15,16.15,0,0,0-6.39,5.3c-1.38,2.08-1.37,4.68,0,7.81l-6.82,3.46a16.48,16.48,0,0,1-1.69-7.32,13.65,13.65,0,0,1,1.68-6.25,18.15,18.15,0,0,1,4.3-5.15,33,33,0,0,1,6.26-4.08,45.68,45.68,0,0,1,5.79-2.42,16.3,16.3,0,0,1,5.85-.9,10.71,10.71,0,0,1,5.37,1.66,12.35,12.35,0,0,1,4.33,5.16l10.79,21.31a18.06,18.06,0,0,0,2.06,3.38c.57.66,1.39.71,2.46.17a9.22,9.22,0,0,0,1.92-1.38Zm-21.86-15.67a9.5,9.5,0,0,1-2.66,3.11c-1.24,1-2.58,2-4,2.93s-2.87,2-4.3,3a19.1,19.1,0,0,0-3.59,3.27,8.44,8.44,0,0,0-1.85,3.8,7.13,7.13,0,0,0,.87,4.63,6.14,6.14,0,0,0,2.12,2.49,6.34,6.34,0,0,0,2.72,1,8.06,8.06,0,0,0,3.05-.24,15.18,15.18,0,0,0,3.22-1.23,18,18,0,0,0,5.31-3.84,13.6,13.6,0,0,0,2.77-4.31,10.36,10.36,0,0,0,.71-4.17,8.51,8.51,0,0,0-.84-3.45Z"/><path d="M356.55,84.69a11.61,11.61,0,0,0-8.11.39,14.18,14.18,0,0,0-6,3.82,12.29,12.29,0,0,0-2.79,5.34,17.19,17.19,0,0,0-.24,6.27,31.9,31.9,0,0,0,1.67,6.63,25.73,25.73,0,0,0,2.89,5.65,16.85,16.85,0,0,0,4.11,4.29,12.13,12.13,0,0,0,5.29,2.13,12.66,12.66,0,0,0,6.33-.79q5.32-2,7.3-5.84a13.46,13.46,0,0,0,.79-9.21l7.35-2.7q1.79,8.55-1.45,14.72t-11.61,9.25a24.22,24.22,0,0,1-9.42,1.64,18.16,18.16,0,0,1-8.1-2.21,20.93,20.93,0,0,1-6.47-5.62,31.5,31.5,0,0,1-4.62-8.52,34.52,34.52,0,0,1-2.09-9.63,22.64,22.64,0,0,1,1.11-8.85,19.35,19.35,0,0,1,4.63-7.36A22.55,22.55,0,0,1,345.53,79a27.85,27.85,0,0,1,7.29-1.67,18,18,0,0,1,6.76.63,15.9,15.9,0,0,1,5.81,3.19,18.32,18.32,0,0,1,4.5,6l-7.44,2.73A11.65,11.65,0,0,0,356.55,84.69Z"/><path d="M380.44,50.51l8.9,37,15.9-24.74,10-2.4-14,20.77,26.17,24.16L418,107.58l-21.17-19.9-5.44,8.16L395.46,113,388,114.78,373,52.3Z"/><path d="M471.66,53.91l.55,6.72L463,61.4l2.39,28.79a7.83,7.83,0,0,0,.4,2.13,2.2,2.2,0,0,0,1,1.19,3.83,3.83,0,0,0,1.79.44,27.37,27.37,0,0,0,2.93-.11l3.5-.29.55,6.73-5.83.48a28,28,0,0,1-5.1,0,7.54,7.54,0,0,1-3.53-1.2,6.43,6.43,0,0,1-2.18-2.89,17.66,17.66,0,0,1-1.06-5.15L455.35,62l-7.89.66L446.9,56l7.89-.66-1.15-13.9,7.62-.63,1.16,13.9Z"/><path d="M481.88,66.8a21.7,21.7,0,0,1,4.43-7.67,20.37,20.37,0,0,1,7.19-5.07,26,26,0,0,1,19.48.29,20.46,20.46,0,0,1,7,5.28,21.76,21.76,0,0,1,4.2,7.8,30.94,30.94,0,0,1,1.3,9.61,30.57,30.57,0,0,1-1.58,9.51,21.85,21.85,0,0,1-4.43,7.63,20,20,0,0,1-7.15,5,26.63,26.63,0,0,1-19.48-.29,19.87,19.87,0,0,1-7-5.24,21.73,21.73,0,0,1-4.21-7.75,30.83,30.83,0,0,1-1.3-9.56A31.16,31.16,0,0,1,481.88,66.8ZM489.41,84a15.56,15.56,0,0,0,3,5.53A13.62,13.62,0,0,0,497,93a13.92,13.92,0,0,0,5.61,1.25,13.67,13.67,0,0,0,5.64-1.09,13.43,13.43,0,0,0,4.69-3.3,15.72,15.72,0,0,0,3.18-5.45,22.81,22.81,0,0,0,1.24-7.49,23.5,23.5,0,0,0-1-7.54,16.24,16.24,0,0,0-3-5.58,13.14,13.14,0,0,0-4.58-3.48,14.05,14.05,0,0,0-11.25-.17,13.15,13.15,0,0,0-4.68,3.35A16,16,0,0,0,489.63,69a23.46,23.46,0,0,0-1.24,7.5A23.11,23.11,0,0,0,489.41,84Z"/><path d="M578,60.24l-1.47,6.13.17,0a18.23,18.23,0,0,1,7.22-4,16.5,16.5,0,0,1,8.38,0A18.75,18.75,0,0,1,599.69,66a11.3,11.3,0,0,1,4,7.16,19.72,19.72,0,0,1,6.74-3.93,15,15,0,0,1,8.73-.3,25.09,25.09,0,0,1,6.43,2.48,13.68,13.68,0,0,1,4.57,4.07,13.21,13.21,0,0,1,2.2,5.85,21,21,0,0,1-.58,7.78l-7.31,30.27-12.43-3,6.2-25.64c.36-1.51.65-3,.86-4.32a9.45,9.45,0,0,0-.12-3.74,6.06,6.06,0,0,0-1.75-2.92,8.68,8.68,0,0,0-3.94-1.88,8.22,8.22,0,0,0-4.49,0,7.49,7.49,0,0,0-3.17,2,10.89,10.89,0,0,0-2.11,3.38,29.36,29.36,0,0,0-1.31,4.08l-6.09,25.2-12.42-3,6.13-25.37c.32-1.34.61-2.68.87-4a11.46,11.46,0,0,0,.14-3.81,5.75,5.75,0,0,0-1.55-3.2A8.4,8.4,0,0,0,585,71a9.57,9.57,0,0,0-2.41-.17,7.91,7.91,0,0,0-3.16.81,8.86,8.86,0,0,0-3.08,2.59,13.13,13.13,0,0,0-2.26,5.15l-6.34,26.24-12.43-3,10.93-45.23Z"/><path d="M648.31,117.87q1.58,3.69,6.56,5.78a11.37,11.37,0,0,0,6.89.8A8,8,0,0,0,666.5,122l10.37,4.36q-5.75,6.67-12.28,7.83a24.36,24.36,0,0,1-13.84-1.92,26.5,26.5,0,0,1-8.44-5.45,20.53,20.53,0,0,1-4.95-7.5,22.36,22.36,0,0,1-1.36-9,28.49,28.49,0,0,1,2.3-9.77,27.12,27.12,0,0,1,5.35-8.3,22.49,22.49,0,0,1,16.43-7.15,24.22,24.22,0,0,1,9.65,2,22.2,22.2,0,0,1,8.65,6.13,20.6,20.6,0,0,1,4.29,8.49,25.48,25.48,0,0,1,.36,9.72,33,33,0,0,1-3.19,9.89l-30.94-13Q646.74,114.19,648.31,117.87Zm22.81-17q-1.14-3.21-5.45-5a11.2,11.2,0,0,0-5.09-1,9.51,9.51,0,0,0-6.82,3.43,14.87,14.87,0,0,0-1.72,2.6L671.2,109A14.73,14.73,0,0,0,671.12,100.9Z"/><path d="M710.92,108.39l-3.25,5.6.23.14a14.63,14.63,0,0,1,8.41-1.94,18.3,18.3,0,0,1,7.78,2.37,21.83,21.83,0,0,1,6.58,5.43,12.51,12.51,0,0,1,2.54,5.94,15,15,0,0,1-.73,6.55,37.82,37.82,0,0,1-3.29,7.2l-14.35,24.76L703.78,158,717,135.29q2.88-5,2.75-8.34c-.09-2.23-1.46-4.12-4.1-5.65q-4.51-2.62-8.1-1.11t-7.15,7.67L688.13,149l-11.06-6.41,23.34-40.26Z"/><path d="M746.26,188l4-5.14-.22-.16a14.41,14.41,0,0,1-8.56.8,18.75,18.75,0,0,1-7.37-3.4,22.17,22.17,0,0,1-5.85-6.2,12.21,12.21,0,0,1-1.78-6.19,15.05,15.05,0,0,1,1.57-6.4,37.52,37.52,0,0,1,4.2-6.71l17.44-22.69,10.13,7.79-16,20.84q-3.51,4.56-3.81,7.91c-.2,2.23.92,4.27,3.34,6.14q4.14,3.18,7.89,2.14t8.08-6.67l14.86-19.34,10.14,7.79-28.36,36.89Z"/><path d="M781.92,201.08l-9.46,10.13-10.32-9.64,9.46-10.13Z"/></svg>