<svg id="Ebene_1" data-name="Ebene 1" xmlns="http://www.w3.org/2000/svg" viewBox="0 0 1000 1000"><path d="M128.16,597,68.83,629.31l-2.67-14.24,41.77-22.39,0-.18-47.08-5.91-2.69-14.34,67.09,9.13Z"/><path d="M68.64,563.73l-10.49,1L57,552l10.48-1Zm6-13.38L121,546.1l1.16,12.73-46.33,4.24Z"/><path d="M108.77,523.77q2.79-2.88,2.79-8.28a11.36,11.36,0,0,0-1.93-6.66,8,8,0,0,0-4.09-3.42V494.16q8.37,2.7,12,8.29A24.37,24.37,0,0,1,121.1,516a26.58,26.58,0,0,1-1.76,9.9,20.6,20.6,0,0,1-5,7.47,22.42,22.42,0,0,1-7.75,4.72,28.56,28.56,0,0,1-9.9,1.65A26.93,26.93,0,0,1,87,538a22.47,22.47,0,0,1-13-12.38,24.33,24.33,0,0,1-1.88-9.68,22.25,22.25,0,0,1,2.31-10.35,20.65,20.65,0,0,1,6.17-7.24,25.32,25.32,0,0,1,8.82-4.09,33.15,33.15,0,0,1,10.35-.89l0,33.57Q106,526.66,108.77,523.77ZM84.3,509.3q-2.52,2.29-2.53,7a11.23,11.23,0,0,0,1,5.08,9.84,9.84,0,0,0,2.57,3.25,9.27,9.27,0,0,0,3.23,1.71,14.71,14.71,0,0,0,3.06.59l0-20.79A14.77,14.77,0,0,0,84.3,509.3Z"/><path d="M75.88,470.37l8.59.93,0-.18A16,16,0,0,1,78,464.44,17.36,17.36,0,0,1,76.46,460a15.26,15.26,0,0,1-.21-4.73,10,10,0,0,1,.75-2.73l11.81,1.28c-.19.59-.37,1.29-.55,2.11a21.91,21.91,0,0,0-.39,2.41,13.53,13.53,0,0,0,.52,6,10.33,10.33,0,0,0,2.75,4.23,13,13,0,0,0,4.48,2.62,26,26,0,0,0,5.74,1.25l20.85,2.26-1.37,12.7-46.26-5Z"/><path d="M84,420.1l8.4,1.61-1.77,9.2,22.63,4.34c2.12.41,3.6.33,4.45-.24s1.46-1.92,1.87-4a19.9,19.9,0,0,0,.3-2.05A15.72,15.72,0,0,0,120,427l9.73,1.87a31.24,31.24,0,0,1-.33,3.6c-.19,1.31-.4,2.58-.64,3.82a37,37,0,0,1-1.46,5.45,13.24,13.24,0,0,1-2.43,4.29,8.38,8.38,0,0,1-3.87,2.52,11.85,11.85,0,0,1-5.79.07l-27-5.17-1.46,7.6-8.39-1.62,1.46-7.6-13.7-2.63,2.41-12.55,13.7,2.63Z"/><path d="M123.73,408q3.51-2,5.06-7.12a11.43,11.43,0,0,0,.06-6.94,8,8,0,0,0-2.94-4.45l3.24-10.78q7.24,5,9.08,11.38a24.33,24.33,0,0,1-.44,14,26.44,26.44,0,0,1-4.53,9,20.66,20.66,0,0,1-6.93,5.72,22.54,22.54,0,0,1-8.77,2.29,28.41,28.41,0,0,1-10-1.25,27.21,27.21,0,0,1-8.82-4.44,22.44,22.44,0,0,1-8.85-15.58,24.07,24.07,0,0,1,1-9.81,22.11,22.11,0,0,1,5.17-9.25,20.67,20.67,0,0,1,8-5.17,25.63,25.63,0,0,1,9.63-1.38,32.89,32.89,0,0,1,10.17,2.12l-9.66,32.15Q120.23,410,123.73,408Zm-19.28-20.88c-2,1-3.53,3-4.42,6a11.09,11.09,0,0,0-.48,5.16,9.7,9.7,0,0,0,1.53,3.85,9.37,9.37,0,0,0,2.61,2.57,14.73,14.73,0,0,0,2.76,1.44l6-19.91A14.75,14.75,0,0,0,104.45,387.13Z"/><path d="M139.11,362.31a7.4,7.4,0,0,0,3.11-1,9.51,9.51,0,0,0,2.53-2.28,14.66,14.66,0,0,0,1.88-3.16,14,14,0,0,0,.85-2.72,9.39,9.39,0,0,0,.18-2.87,6.22,6.22,0,0,0-.83-2.58,4.73,4.73,0,0,0-2.27-1.88c-1.76-.77-3.59-.19-5.5,1.76a76.76,76.76,0,0,0-6.92,8.61c-1.14,1.53-2.32,3-3.55,4.39a18.76,18.76,0,0,1-4,3.42,10.84,10.84,0,0,1-4.55,1.63,9.77,9.77,0,0,1-5.24-.93,14,14,0,0,1-6-4.57,12.87,12.87,0,0,1-2.3-6.07,20.53,20.53,0,0,1,.46-6.88,40,40,0,0,1,2.36-7,36.82,36.82,0,0,1,3.6-6.43,19.43,19.43,0,0,1,4.78-4.83,14.53,14.53,0,0,1,6-2.42,15.35,15.35,0,0,1,7.44.86l-4.89,11.13c-2.33-.83-4.22-.65-5.7.54a12.86,12.86,0,0,0-3.58,4.91c-.29.66-.56,1.4-.82,2.2a8,8,0,0,0-.39,2.34,4.75,4.75,0,0,0,.49,2.13,3.45,3.45,0,0,0,1.81,1.58,3.49,3.49,0,0,0,3.06,0,9.7,9.7,0,0,0,2.93-2.3,40.86,40.86,0,0,0,3-3.76c1-1.44,2.1-2.91,3.21-4.39a54.52,54.52,0,0,1,3.59-4.37,18,18,0,0,1,4.08-3.36,11.53,11.53,0,0,1,4.72-1.57,10.91,10.91,0,0,1,5.49,1,14.14,14.14,0,0,1,8.94,11.2,19.65,19.65,0,0,1-.3,7.29,39.93,39.93,0,0,1-2.43,7.44,38.79,38.79,0,0,1-3.93,6.92,20.93,20.93,0,0,1-5.24,5.22A15.49,15.49,0,0,1,138.6,374a15.7,15.7,0,0,1-8-1.19l4.89-11.13A7,7,0,0,0,139.11,362.31Z"/><path d="M132.14,263.74l21.79,15.32-7.35-35.86,10.15-14.43,6.32,35.14,47.64-.17L200.5,278.25l-34.77-.8,2,11.34L184.7,300.7l-8.12,11.56-52.57-37Z"/><path d="M188.93,240.87a14.78,14.78,0,0,1-3.89-6.76,15.21,15.21,0,0,1,0-6.94,21.77,21.77,0,0,1,2.85-6.77,39.19,39.19,0,0,1,4.72-6.13,52.49,52.49,0,0,1,5.23-4.83,21.75,21.75,0,0,1,5.92-3.46,12.9,12.9,0,0,1,6.24-.79,11.21,11.21,0,0,1,6.25,3.28l17.62,16.6a48.78,48.78,0,0,0,4.64,3.87,10.87,10.87,0,0,0,4,2l-8.89,9.44a16.82,16.82,0,0,1-2-1.09,18.55,18.55,0,0,1-1.89-1.34,16.65,16.65,0,0,1-1.73,8.26,29,29,0,0,1-4.88,7,23,23,0,0,1-4.85,4,14,14,0,0,1-5.29,1.94,11.7,11.7,0,0,1-5.45-.5,14.6,14.6,0,0,1-5.36-3.37,13.5,13.5,0,0,1-3.79-5.49,11.71,11.71,0,0,1-.52-5.43,16.06,16.06,0,0,1,1.79-5.24,52.76,52.76,0,0,1,3-5q1.65-2.4,3.37-4.62a34.91,34.91,0,0,0,2.8-4.16,8.76,8.76,0,0,0,1.2-3.57,3.47,3.47,0,0,0-1.4-2.92,6.82,6.82,0,0,0-2.85-1.76,5,5,0,0,0-2.61,0,7,7,0,0,0-2.44,1.28,21.24,21.24,0,0,0-2.36,2.17,9.7,9.7,0,0,0-2.89,5.44q-.3,2.68,2.2,5.53Zm27.12-15a5.66,5.66,0,0,1-.57,2.24,19.89,19.89,0,0,1-1.3,2.36c-.51.81-1.06,1.62-1.68,2.44s-1.2,1.67-1.77,2.54a23.55,23.55,0,0,0-1.42,2.56,8.29,8.29,0,0,0-.78,2.6,5.81,5.81,0,0,0,.27,2.54,6.23,6.23,0,0,0,1.73,2.49,6,6,0,0,0,2.53,1.52,4.86,4.86,0,0,0,2.51,0A7.26,7.26,0,0,0,218,246a15.29,15.29,0,0,0,2.23-2,11.32,11.32,0,0,0,3.1-5.12,8.45,8.45,0,0,0-.1-4.29,9.72,9.72,0,0,0-1.76-3.33,24.44,24.44,0,0,0-1.94-2.13Z"/><path d="M227.1,182.93l3.76,4.61.14-.12a14,14,0,0,1,1.13-8,18.23,18.23,0,0,1,5.05-6.33,20.26,20.26,0,0,1,8.63-4.37,19.5,19.5,0,0,1,8.57.1,23.45,23.45,0,0,1,8,3.72,35.69,35.69,0,0,1,7,6.56,32.14,32.14,0,0,1,4.71,7.77,23,23,0,0,1,1.88,8.35,18.61,18.61,0,0,1-7.28,15.35,18.18,18.18,0,0,1-7.28,3.67,15.08,15.08,0,0,1-7.91-.22l-.14.11,13.94,17.09-9.9,8.08-39.72-48.67ZM263.3,201a10.23,10.23,0,0,0,.57-4.7,13.5,13.5,0,0,0-1.56-4.83,28.22,28.22,0,0,0-3.05-4.6,26.21,26.21,0,0,0-3.93-3.88,14.69,14.69,0,0,0-4.54-2.51A10.91,10.91,0,0,0,246,180a11.11,11.11,0,0,0-8.09,6.61,10.35,10.35,0,0,0-.52,4.77,14.12,14.12,0,0,0,1.59,4.87A28.22,28.22,0,0,0,242,201a25.23,25.23,0,0,0,3.92,3.88,14.21,14.21,0,0,0,4.45,2.47,10.06,10.06,0,0,0,4.76.35A11.54,11.54,0,0,0,263.3,201Z"/><path d="M259.77,148.85l-5.84-8.76L264.56,133l5.84,8.76Zm14.62-1.1,25.82,38.72-10.64,7.09-25.81-38.72Z"/><path d="M306.85,128.5l4.25,7.42L303,140.57l11.46,20q1.6,2.82,3.08,3.21t4.29-1.21c.62-.36,1.21-.72,1.75-1.1a16.63,16.63,0,0,0,1.5-1.18l4.93,8.59A29.41,29.41,0,0,1,327,171c-1.12.71-2.22,1.38-3.31,2a37.2,37.2,0,0,1-5.08,2.44,13.12,13.12,0,0,1-4.85,1,8.27,8.27,0,0,1-4.42-1.3,11.89,11.89,0,0,1-3.84-4.34l-13.65-23.82-6.71,3.85-4.25-7.42,6.71-3.84-6.93-12.11,11.09-6.35,6.93,12.1Z"/><path d="M341.89,150.76c2.51.92,5.41.66,8.7-.81a11.27,11.27,0,0,0,5.3-4.47,8,8,0,0,0,1.47-5.13l10.28-4.56q.93,8.75-2.71,14.3a24.45,24.45,0,0,1-10.88,8.77,26.58,26.58,0,0,1-9.76,2.41,20.57,20.57,0,0,1-8.85-1.54,22.38,22.38,0,0,1-7.46-5.15,28.32,28.32,0,0,1-5.54-8.37,27.1,27.1,0,0,1-2.38-9.58,22.48,22.48,0,0,1,6.05-16.87,24,24,0,0,1,8.08-5.65A22.13,22.13,0,0,1,344.58,112a20.74,20.74,0,0,1,9.12,2.7,25.49,25.49,0,0,1,7.32,6.4,32.88,32.88,0,0,1,5,9.09l-30.68,13.63Q338.14,149.39,341.89,150.76Zm3.27-28.23c-2.08-.92-4.54-.74-7.4.53a11.09,11.09,0,0,0-4.22,3,9.53,9.53,0,0,0-1.92,3.66,9.39,9.39,0,0,0-.25,3.66,14,14,0,0,0,.71,3l19-8.43A14.78,14.78,0,0,0,345.16,122.53Z"/><path d="M372.05,82l20.62,60.86-12.1,4.1L360,86.1Z"/><path d="M393.67,109.2l-3.62-13.39,13.65-3.68,3.61,13.38ZM412,122.89l3.61,13.38L402,140l-3.62-13.38Z"/><path d="M469.77,61.73,501.55,123l-9.4,1-9-18.5-27,2.88-5.11,20-8.68.92,18.07-66.55Zm9.9,36.87L465.85,69.93l-.18,0-7.65,31Z"/><path d="M524.92,77.41v6.75h-9.27v28.89a8,8,0,0,0,.22,2.16,2.22,2.22,0,0,0,.85,1.26,3.8,3.8,0,0,0,1.76.58,25.25,25.25,0,0,0,2.92.14h3.51v6.75h-5.85a27.49,27.49,0,0,1-5.09-.41,7.39,7.39,0,0,1-3.41-1.49,6.35,6.35,0,0,1-1.94-3.06,17.39,17.39,0,0,1-.62-5.22V84.15h-7.92V77.4H508v-14h7.65V77.41Z"/><path d="M534.08,91.12a21.71,21.71,0,0,1,5.06-7.28,20.3,20.3,0,0,1,7.59-4.44,26,26,0,0,1,19.39,1.93,20.54,20.54,0,0,1,6.52,5.85,21.76,21.76,0,0,1,3.53,8.13,31,31,0,0,1,.48,9.68,30.52,30.52,0,0,1-2.38,9.35,21.66,21.66,0,0,1-5.06,7.23,20,20,0,0,1-7.54,4.4A26.63,26.63,0,0,1,542.28,124a19.82,19.82,0,0,1-6.56-5.81,21.6,21.6,0,0,1-3.54-8.08,32.36,32.36,0,0,1,1.9-19Zm6,17.78a15.78,15.78,0,0,0,2.54,5.77,13.46,13.46,0,0,0,4.28,3.82,14.16,14.16,0,0,0,11.2,1.12,13.54,13.54,0,0,0,4.94-2.9,15.77,15.77,0,0,0,3.64-5.16,25.73,25.73,0,0,0,1.49-15,16.1,16.1,0,0,0-2.55-5.82,13.22,13.22,0,0,0-4.27-3.86,14.14,14.14,0,0,0-11.19-1.12,13.09,13.09,0,0,0-5,3,16,16,0,0,0-3.64,5.2,25.52,25.52,0,0,0-1.49,15Z"/><path d="M599.84,85.33,598.1,92l.18,0q7.05-6.33,16.55-3.84a17,17,0,0,1,7.11,3.73,10.11,10.11,0,0,1,3.24,7.18A16.24,16.24,0,0,1,632.62,95a17.35,17.35,0,0,1,8.67.14,24.37,24.37,0,0,1,5.94,2.35,13.31,13.31,0,0,1,4.1,3.54,10.85,10.85,0,0,1,2,4.85,15.31,15.31,0,0,1-.48,6.25l-8.67,33-7.4-2,7.75-29.5a21.62,21.62,0,0,0,.69-4,8.28,8.28,0,0,0-.48-3.52,6.73,6.73,0,0,0-2.09-2.83,10.83,10.83,0,0,0-4.19-1.94q-5.48-1.44-9.44.87a11.69,11.69,0,0,0-5.33,7.53l-7.37,28-7.4-2,7.76-29.5a19.9,19.9,0,0,0,.66-4.11,8.77,8.77,0,0,0-.51-3.53,6.65,6.65,0,0,0-2-2.77,10.4,10.4,0,0,0-3.94-1.82,11.32,11.32,0,0,0-5.87-.15,12.91,12.91,0,0,0-7.65,5.39,10.8,10.8,0,0,0-1.51,3.09l-7.37,28-7.4-1.95,11.83-45Z"/><path d="M678.94,109.21,676,115.39l.16.08q8.13-4.91,17-.69a17,17,0,0,1,6.3,5,10.11,10.11,0,0,1,1.83,7.65,16.3,16.3,0,0,1,8.08-2.63,17.45,17.45,0,0,1,8.49,1.75,24.75,24.75,0,0,1,5.4,3.42,13.07,13.07,0,0,1,3.36,4.24,10.76,10.76,0,0,1,1,5.14,15.41,15.41,0,0,1-1.64,6l-14.66,30.79-6.91-3.29,13.12-27.54a21.15,21.15,0,0,0,1.41-3.81,8.31,8.31,0,0,0,.2-3.55,6.83,6.83,0,0,0-1.53-3.17,11,11,0,0,0-3.76-2.69q-5.11-2.43-9.43-.9a11.68,11.68,0,0,0-6.65,6.4L685.34,163.8l-6.9-3.29L691.56,133a19.93,19.93,0,0,0,1.41-3.91,8.65,8.65,0,0,0,.15-3.56,6.48,6.48,0,0,0-1.46-3.1,10.3,10.3,0,0,0-3.54-2.52,11.32,11.32,0,0,0-5.73-1.24,13,13,0,0,0-8.53,3.86,11.5,11.5,0,0,0-2.06,2.76l-12.46,26.17-6.9-3.3,20-42Z"/><path d="M744.7,199.32l4.15-6.09-.14-.1a15.76,15.76,0,0,1-8.71,1.74,18.62,18.62,0,0,1-8.5-3.35,21,21,0,0,1-5.64-5.32,12.22,12.22,0,0,1-2.13-5.65,13,13,0,0,1,.82-5.92,28.93,28.93,0,0,1,3.25-6.12l17.25-25.27,6.32,4.31-17.76,26a8.71,8.71,0,0,0,2.53,13.05,15.67,15.67,0,0,0,5.63,2.54A11.37,11.37,0,0,0,747,189a13.28,13.28,0,0,0,4.73-2.38,18.87,18.87,0,0,0,4-4.32l14.81-21.71,6.32,4.32-26.23,38.43Zm21.7-61L761.12,146l-6.69-4.57,5.28-7.73Zm14,9.54-5.27,7.73L768.41,151l5.27-7.73Z"/><path d="M805.33,165.33l-40.62,49.79-5.92-4.83,40.61-49.8Z"/><path d="M822.19,180l-43,47.76-5.68-5.12,43-47.75Z"/><path d="M830.43,283.67a10.79,10.79,0,0,1-4.41-3.48,6.65,6.65,0,0,1-1.74-4.7q.16-2.42,3.08-4.83a18.33,18.33,0,0,1-8.88-2.17,25.28,25.28,0,0,1-10.32-11,13.76,13.76,0,0,1-1.4-5.21,10.79,10.79,0,0,1,1-5.09,13.6,13.6,0,0,1,3.83-4.76,13.79,13.79,0,0,1,5.85-3.09,11.78,11.78,0,0,1,5.42.12,16.22,16.22,0,0,1,5.06,2.35c1.62,1.11,3.2,2.32,4.74,3.61s3.18,2.68,4.55,4a32.59,32.59,0,0,0,3.88,3.27,8.24,8.24,0,0,0,3.5,1.54,4.17,4.17,0,0,0,3.34-1.12,7.66,7.66,0,0,0,2.51-3.32,6.45,6.45,0,0,0,.25-3.36,10,10,0,0,0-1.29-3.25,24.23,24.23,0,0,0-2.13-3,16.07,16.07,0,0,0-6.59-5.06c-2.32-.88-4.86-.29-7.61,1.75L828.17,231a16.54,16.54,0,0,1,6.76-3.26,13.54,13.54,0,0,1,6.46.25,18,18,0,0,1,6,3.05,32.34,32.34,0,0,1,5.37,5.2,42.54,42.54,0,0,1,3.64,5.1,16.23,16.23,0,0,1,2.18,5.5,10.73,10.73,0,0,1-.42,5.61,12.51,12.51,0,0,1-4.07,5.37l-18.39,15.25a17.48,17.48,0,0,0-2.84,2.76q-.76,1,.39,2.43a9.15,9.15,0,0,0,1.77,1.57Zm10.42-24.79a9.59,9.59,0,0,1-3.62-1.91q-1.87-1.49-3.75-3.26c-1.25-1.18-2.54-2.36-3.86-3.52a18.8,18.8,0,0,0-4-2.78,8.6,8.6,0,0,0-4.12-1,7.11,7.11,0,0,0-4.31,1.89,6.1,6.1,0,0,0-2,2.62,6.25,6.25,0,0,0-.36,2.86,8.34,8.34,0,0,0,.91,2.93,16.38,16.38,0,0,0,1.91,2.86,18.23,18.23,0,0,0,4.93,4.33,13.58,13.58,0,0,0,4.82,1.74,10.14,10.14,0,0,0,4.22-.24,8.61,8.61,0,0,0,3.18-1.57Z"/><path d="M890.57,258.84l-52.74,36.72-4.37-6.28,52.74-36.72Z"/><path d="M855.92,304.06a8,8,0,0,0-1,3.85,12.69,12.69,0,0,0,.71,4.17,22.47,22.47,0,0,0,1.9,4.16,28.5,28.5,0,0,0,2.14,3.12,13.73,13.73,0,0,0,2.69,2.65,6.75,6.75,0,0,0,3.21,1.31,5.65,5.65,0,0,0,3.62-.86,5.1,5.1,0,0,0,2.75-4.21,19.32,19.32,0,0,0-.7-6.11q-.88-3.39-2.22-7.19a38,38,0,0,1-1.83-7.43,15.12,15.12,0,0,1,.55-6.83,10.2,10.2,0,0,1,4.93-5.48,11.14,11.14,0,0,1,6-1.68,12.84,12.84,0,0,1,5.58,1.44,18.38,18.38,0,0,1,4.83,3.64,25.27,25.27,0,0,1,3.77,4.94,36.83,36.83,0,0,1,3.09,6.63,16.84,16.84,0,0,1,.95,6.27,12.15,12.15,0,0,1-1.82,5.81,17,17,0,0,1-5.2,5.11l-3.85-6.6a7.76,7.76,0,0,0,2.63-2.9,7.48,7.48,0,0,0,.79-3.37,11.2,11.2,0,0,0-.57-3.58,17.86,17.86,0,0,0-1.53-3.43,25.23,25.23,0,0,0-2-2.86,12.06,12.06,0,0,0-2.43-2.28,6.43,6.43,0,0,0-2.73-1.11,4.55,4.55,0,0,0-3,.69,4.32,4.32,0,0,0-2.14,2.86A11.07,11.07,0,0,0,875,299a30.57,30.57,0,0,0,1.2,4.93q.85,2.63,1.68,5.27.9,2.81,1.51,5.63a18.67,18.67,0,0,1,.39,5.4A11.71,11.71,0,0,1,878.3,325a10.88,10.88,0,0,1-4.16,3.94,13,13,0,0,1-6.94,2,13.62,13.62,0,0,1-6.2-1.7,19.16,19.16,0,0,1-5.29-4.32,38.07,38.07,0,0,1-4.14-5.76,33.23,33.23,0,0,1-3-6.78,18.05,18.05,0,0,1-.83-6.7,13.45,13.45,0,0,1,2-6.18,16.7,16.7,0,0,1,5.43-5.25L859,300.9A8.56,8.56,0,0,0,855.92,304.06Z"/><path d="M944.43,365.39c.45,1.3.93,2.71,1.43,4.22s.93,3,1.3,4.55a36.2,36.2,0,0,1,.8,4.34,11.06,11.06,0,0,1-.13,3.72,16.79,16.79,0,0,1-3.16,6.78,14.49,14.49,0,0,1-7,4.78,15.73,15.73,0,0,1-9.19.59,14.64,14.64,0,0,1-7.56-4.84l-.17.05A14.79,14.79,0,0,1,918.66,400a16.23,16.23,0,0,1-8.48,6.3,19.23,19.23,0,0,1-6.87,1.06,17.18,17.18,0,0,1-6.8-1.58,18.54,18.54,0,0,1-5.93-4.41,21.08,21.08,0,0,1-4.26-7.43l-10.24-29.31,60.66-21.2ZM892.76,390.5q1.88,5.36,5.81,7.36t9,.22a10.5,10.5,0,0,0,4.55-2.82,9.11,9.11,0,0,0,2.07-4,13,13,0,0,0,.15-4.77,27.23,27.23,0,0,0-1.26-5.09L906.68,363l-21,7.33Zm26.36-13.79q2.4,6.89,5.88,9.06t8.32.47a11.29,11.29,0,0,0,4.74-2.8,7.67,7.67,0,0,0,1.91-3.81,11.68,11.68,0,0,0-.13-4.58A39.74,39.74,0,0,0,938.4,370l-5.64-16.14-19.28,6.74Z"/><path d="M903.88,451.71q-4.93-4.32-6.53-12.07a24,24,0,0,1-.19-9.84,18.88,18.88,0,0,1,3.55-7.76,21.27,21.27,0,0,1,6.73-5.66,37.51,37.51,0,0,1,9.29-3.53,28,28,0,0,1,9.85-.37,23.27,23.27,0,0,1,8.41,2.9,20.66,20.66,0,0,1,6.33,5.77,21.06,21.06,0,0,1,3.54,8.23,19.17,19.17,0,0,1-.43,10.61,20.41,20.41,0,0,1-5.07,7.76,26,26,0,0,1-7.77,5.09,36.77,36.77,0,0,1-8.57,2.55l-7-34.11a18.57,18.57,0,0,0-5.54,1.87,13.14,13.14,0,0,0-4.24,3.54,12.92,12.92,0,0,0-2.38,5.18,16,16,0,0,0,.1,6.69,13.17,13.17,0,0,0,3.81,7.34,10.88,10.88,0,0,0,7.53,2.63l1.52,7.41Q908.81,456,903.88,451.71Zm28.89-7.84a13.52,13.52,0,0,0,3.29-18.6,12.52,12.52,0,0,0-3.6-3.44,13.82,13.82,0,0,0-4.65-1.8,16.21,16.21,0,0,0-5.21-.12l5.4,26.18A15.65,15.65,0,0,0,932.77,443.87Z"/><path d="M950,468.77l-46.2,5.56-.92-7.59,46.2-5.57Zm7.39-8.6,9.29-1.12.92,7.59-9.3,1.12Z"/><path d="M915.78,490.35a8,8,0,0,0-2.68,2.94,12.85,12.85,0,0,0-1.32,4,22.19,22.19,0,0,0-.27,4.56,27,27,0,0,0,.42,3.76,13.86,13.86,0,0,0,1.13,3.61,6.85,6.85,0,0,0,2.23,2.65,5.55,5.55,0,0,0,3.59.94,5.1,5.1,0,0,0,4.41-2.43,19.08,19.08,0,0,0,2.25-5.72c.54-2.27,1-4.74,1.41-7.39a37.82,37.82,0,0,1,1.87-7.42,15.13,15.13,0,0,1,3.68-5.77,10.17,10.17,0,0,1,6.93-2.53,11.11,11.11,0,0,1,6.09,1.33,13,13,0,0,1,4.25,3.88,18.79,18.79,0,0,1,2.56,5.48,25.82,25.82,0,0,1,1,6.13,36.58,36.58,0,0,1-.38,7.32,16.86,16.86,0,0,1-2.1,6,12.17,12.17,0,0,1-4.34,4.27,17.05,17.05,0,0,1-7,2.08l-.31-7.64a7.33,7.33,0,0,0,6-3.93,11.78,11.78,0,0,0,1.17-3.43,17.44,17.44,0,0,0,.25-3.75,21.63,21.63,0,0,0-.41-3.45,11.35,11.35,0,0,0-1.07-3.15,6.52,6.52,0,0,0-1.89-2.27,4.52,4.52,0,0,0-3-.78,4.33,4.33,0,0,0-3.23,1.52,11.22,11.22,0,0,0-2,3.64,31.48,31.48,0,0,0-1.25,4.92c-.31,1.81-.65,3.62-1,5.44s-.78,3.83-1.31,5.68a18.28,18.28,0,0,1-2.19,4.95,11.65,11.65,0,0,1-3.59,3.57,11,11,0,0,1-5.53,1.53,12.93,12.93,0,0,1-7.08-1.48,13.6,13.6,0,0,1-4.68-4.4,19.26,19.26,0,0,1-2.64-6.29,38.8,38.8,0,0,1-1-7,32.66,32.66,0,0,1,.52-7.4,18.05,18.05,0,0,1,2.4-6.31,13.53,13.53,0,0,1,4.69-4.51,16.72,16.72,0,0,1,7.26-2.09L920,489A8.47,8.47,0,0,0,915.78,490.35Z"/><path d="M952.28,539.75l-6.28-.51,0,.18a11.45,11.45,0,0,1,5.13,6.38,22.32,22.32,0,0,1,1,9,21,21,0,0,1-2.74,9.21,19,19,0,0,1-5.88,6.2,23.28,23.28,0,0,1-8.08,3.36,31.68,31.68,0,0,1-9.44.59,33.08,33.08,0,0,1-9.22-2.06,22,22,0,0,1-7.35-4.58,18.62,18.62,0,0,1-4.62-7.06,21.66,21.66,0,0,1-1.12-9.43,22.18,22.18,0,0,1,.67-3.79,21,21,0,0,1,1.5-4.07,16.27,16.27,0,0,1,2.52-3.72,12.25,12.25,0,0,1,3.71-2.82v-.18l-23.86-1.94.62-7.63,64,5.23Zm-18.7,26.06a17,17,0,0,0,5.73-2.15,12.64,12.64,0,0,0,4.22-4.17,13.61,13.61,0,0,0,2-6.29,12.63,12.63,0,0,0-4.62-11.4,16.89,16.89,0,0,0-5.41-2.92,27.07,27.07,0,0,0-13-1,16.56,16.56,0,0,0-5.82,2.1,13.13,13.13,0,0,0-4.27,4.22,14.2,14.2,0,0,0-2,6.6,13.17,13.17,0,0,0,1,6.72,12.27,12.27,0,0,0,3.69,4.59,17.67,17.67,0,0,0,5.55,2.8,31,31,0,0,0,6.58,1.26A24,24,0,0,0,933.58,565.81Z"/><path d="M945.58,595.68l-45.85-7.95,1.31-7.54,45.84,7.95Zm9.55-6.11,9.22,1.6L963,598.71l-9.22-1.6Z"/><path d="M892.63,630.81q-2.5-6-.51-13.71a23.94,23.94,0,0,1,4.19-8.91,19,19,0,0,1,6.62-5.39,21.36,21.36,0,0,1,8.54-2.09,37.3,37.3,0,0,1,9.89.95,28.14,28.14,0,0,1,9,4,23.07,23.07,0,0,1,6.25,6.33,20.44,20.44,0,0,1,3.12,8,21.14,21.14,0,0,1-.47,8.94,19.05,19.05,0,0,1-5.09,9.32,20.35,20.35,0,0,1-8,4.71A25.75,25.75,0,0,1,917,644.1a37.6,37.6,0,0,1-8.82-1.51l8.8-33.7a18.29,18.29,0,0,0-5.8-.77,13.25,13.25,0,0,0-5.36,1.29,12.85,12.85,0,0,0-4.42,3.59,15.66,15.66,0,0,0-2.88,6,13.2,13.2,0,0,0,.16,8.27,10.89,10.89,0,0,0,5.59,5.7l-1.91,7.31Q895.14,636.86,892.63,630.81ZM922,636.58a13,13,0,0,0,10.83-9.78,13.25,13.25,0,0,0,.35-5.44,12.08,12.08,0,0,0-1.71-4.68,13.46,13.46,0,0,0-3.36-3.67,15.83,15.83,0,0,0-4.63-2.42l-6.75,25.86A15.83,15.83,0,0,0,922,636.58Z"/><path d="M943.12,672.45l-60.6-21.37,2.54-7.22,60.6,21.37Z"/><path d="M883.37,676.05l-9.23-3.83L878,663l9.22,3.84Z"/></svg>