<svg id="Ebene_1" data-name="Ebene 1" xmlns="http://www.w3.org/2000/svg" viewBox="0 0 1000 1000"><path d="M177.56,821.84l8.22-8.58,22.42,21.48L218.47,824,199,805.4l7.59-7.93,19.44,18.62,18.36-19.18,10.21,9.78-44.46,46.4Z"/><path d="M145.47,782.93l8.22-6.59,7.6,9.48-8.22,6.59Zm53.68-35.78-5.06,4.05.17.21a14.45,14.45,0,0,1,8.51,1.26,18.4,18.4,0,0,1,6.35,5.05,22.28,22.28,0,0,1,4.22,7.41,12.11,12.11,0,0,1,.25,6.43,15,15,0,0,1-3,5.84,37.85,37.85,0,0,1-5.67,5.53l-22.32,17.9-8-10,20.5-16.45q4.5-3.6,5.58-6.78c.73-2.12.13-4.37-1.78-6.76q-3.27-4.07-7.16-4t-9.43,4.56l-19,15.26-8-10,36.29-29.11Zm-42.08,50.24,8.22-6.58,7.6,9.48-8.22,6.58Z"/><path d="M141,745l5.54-3.36-.13-.23a14.62,14.62,0,0,1-8.31-2.33,18.22,18.22,0,0,1-5.68-5.82,21.83,21.83,0,0,1-3.17-7.92,12.54,12.54,0,0,1,.64-6.43,14.9,14.9,0,0,1,3.78-5.4,37.22,37.22,0,0,1,6.34-4.73L164.5,694l6.62,10.93-22.48,13.61q-4.94,3-6.42,6c-1,2-.7,4.32.88,6.94q2.72,4.45,6.58,4.85t9.94-3.28l20.87-12.64,6.62,10.94L147.3,755.42Z"/><path d="M128.9,707.12l-7.73,3.66-3.27-6.92-3.25,1.54a14,14,0,0,1-10.85.85q-5.23-1.8-8.58-8.88c-.49-1-.94-2.08-1.34-3.15s-.82-2.11-1.22-3.11l8.62-4.08a38.12,38.12,0,0,0,1.76,4.35,4.93,4.93,0,0,0,2.69,2.86,6,6,0,0,0,4.18-.74l2.53-1.19-3.77-8,7.73-3.66,3.77,8,34.33-16.23L160,684l-34.33,16.24Z"/><path d="M96.52,653.13l8-3.06,3.35,8.74,21.51-8.24q3-1.17,3.65-2.56t-.54-4.42c-.26-.67-.53-1.3-.82-1.9a16.5,16.5,0,0,0-.93-1.67l9.24-3.54a29.36,29.36,0,0,1,1.63,3.23c.53,1.21,1,2.4,1.47,3.58a37,37,0,0,1,1.63,5.4,13.39,13.39,0,0,1,.21,4.93,8.39,8.39,0,0,1-2,4.18,11.92,11.92,0,0,1-4.87,3.12l-25.63,9.83L115.2,678l-8,3.06-2.77-7.22-13,5-4.58-11.93,13-5Z"/><path d="M123.88,621.91q2-3.51.53-8.72a11.32,11.32,0,0,0-3.6-5.92A8,8,0,0,0,116,605L113,594.17q8.79.42,13.72,4.87a24.42,24.42,0,0,1,7,12.09,26.55,26.55,0,0,1,.89,10,20.57,20.57,0,0,1-2.87,8.51,22.26,22.26,0,0,1-6.24,6.58,28.12,28.12,0,0,1-9.12,4.2,27.25,27.25,0,0,1-9.83.88,22.76,22.76,0,0,1-8.78-2.65,23,23,0,0,1-7-5.91,24,24,0,0,1-4.35-8.84A22.17,22.17,0,0,1,86,613.33a20.65,20.65,0,0,1,4.06-8.61,25.26,25.26,0,0,1,7.45-6.25,32.3,32.3,0,0,1,9.75-3.57L116,627.3Q121.95,625.42,123.88,621.91Zm-27.4-7.55c-1.22,1.91-1.43,4.38-.61,7.39a11.12,11.12,0,0,0,2.33,4.64,9.66,9.66,0,0,0,3.32,2.46,9.46,9.46,0,0,0,3.57.8,15.29,15.29,0,0,0,3.11-.23l-5.43-20.07A14.69,14.69,0,0,0,96.48,614.36Z"/><path d="M112.81,575a7.32,7.32,0,0,0,2.09-2.52,9.39,9.39,0,0,0,.94-3.28,14.14,14.14,0,0,0-.07-3.67,13.69,13.69,0,0,0-.71-2.76,9.72,9.72,0,0,0-1.36-2.53,6.23,6.23,0,0,0-2.07-1.75,4.73,4.73,0,0,0-2.92-.4c-1.91.27-3.15,1.74-3.74,4.4a77.15,77.15,0,0,0-1.34,11c-.15,1.9-.38,3.76-.69,5.6a18.68,18.68,0,0,1-1.56,5,10.83,10.83,0,0,1-3,3.8,10,10,0,0,1-4.95,2,14.1,14.1,0,0,1-7.55-.69,12.91,12.91,0,0,1-5.16-4,20.17,20.17,0,0,1-3.23-6.08,39.69,39.69,0,0,1-1.72-7.21,36.57,36.57,0,0,1-.33-7.36A19.62,19.62,0,0,1,77,557.88a14.52,14.52,0,0,1,3.84-5.23,15.37,15.37,0,0,1,6.77-3.2l1.72,12c-2.4.53-3.92,1.69-4.54,3.47a12.6,12.6,0,0,0-.45,6.07,21.08,21.08,0,0,0,.46,2.29,7.71,7.71,0,0,0,.91,2.19,4.66,4.66,0,0,0,1.54,1.55,3.38,3.38,0,0,0,2.37.39,3.49,3.49,0,0,0,2.58-1.64,9.68,9.68,0,0,0,1.28-3.5,42.21,42.21,0,0,0,.54-4.76c.11-1.78.25-3.58.41-5.43a53.88,53.88,0,0,1,.74-5.6,17.68,17.68,0,0,1,1.69-5,11.5,11.5,0,0,1,3.18-3.82,10.83,10.83,0,0,1,5.21-2,14.18,14.18,0,0,1,13.51,4.79,20,20,0,0,1,3.59,6.35,40,40,0,0,1,1.86,7.6,38.71,38.71,0,0,1,.32,8,20.89,20.89,0,0,1-1.69,7.19,14.85,14.85,0,0,1-11.65,8.81l-1.73-12A6.9,6.9,0,0,0,112.81,575Z"/><path d="M54.83,495l26.6,1.51L56.25,469.91l1-17.61,23.92,26.51,40.37-25.3-1,17.7L90.6,488.9l7.72,8.55L119,498.61l-.8,14.11L54,509.09Z"/><path d="M91,445.57a14.89,14.89,0,0,1-6.87-3.68A15.32,15.32,0,0,1,80.43,436a21.83,21.83,0,0,1-1.15-7.25,39.66,39.66,0,0,1,.77-7.7,53.3,53.3,0,0,1,1.9-6.87,21.56,21.56,0,0,1,3.19-6.06,13.09,13.09,0,0,1,4.89-4,11.24,11.24,0,0,1,7-.5l23.73,4.79a46.92,46.92,0,0,0,6,.84,10.76,10.76,0,0,0,4.48-.38l-2.56,12.71a19.36,19.36,0,0,1-2.28.13,19.89,19.89,0,0,1-2.31-.14,16.6,16.6,0,0,1,2.89,7.93,28.79,28.79,0,0,1-.44,8.54,22.89,22.89,0,0,1-2,5.93,14.23,14.23,0,0,1-3.47,4.44,11.75,11.75,0,0,1-4.9,2.45,14.54,14.54,0,0,1-6.33,0,13.52,13.52,0,0,1-6.12-2.66,11.64,11.64,0,0,1-3.3-4.34,15.94,15.94,0,0,1-1.25-5.39,54.4,54.4,0,0,1-.06-5.85q.14-2.91.42-5.7a33.92,33.92,0,0,0,.18-5,8.51,8.51,0,0,0-.86-3.66,3.49,3.49,0,0,0-2.73-1.75,6.82,6.82,0,0,0-3.35,0,5.12,5.12,0,0,0-2.21,1.39,7.07,7.07,0,0,0-1.4,2.38,21.3,21.3,0,0,0-.85,3.09,9.74,9.74,0,0,0,.41,6.15q1.16,2.43,4.8,3.53Zm15.11-27.06a5.54,5.54,0,0,1,.7,2.2,19.45,19.45,0,0,1,.15,2.7c0,.95-.06,1.93-.14,2.95s-.14,2.06-.16,3.09a21.88,21.88,0,0,0,.14,2.92,8.55,8.55,0,0,0,.71,2.63,5.76,5.76,0,0,0,1.57,2,6.21,6.21,0,0,0,2.78,1.21,6,6,0,0,0,3-.05,5,5,0,0,0,2.15-1.31,7.24,7.24,0,0,0,1.42-2.28,16.63,16.63,0,0,0,.86-2.86,11.41,11.41,0,0,0-.08-6,8.43,8.43,0,0,0-2.35-3.59,9.81,9.81,0,0,0-3.24-1.9,25.4,25.4,0,0,0-2.78-.79Z"/><path d="M92.84,376.19l5.62,1.93.06-.17a14,14,0,0,1-3.27-7.4,18.17,18.17,0,0,1,1-8.05,20.08,20.08,0,0,1,5-8.26,19.36,19.36,0,0,1,7.33-4.43,23.07,23.07,0,0,1,8.79-1.08,35.52,35.52,0,0,1,9.39,1.89,32.19,32.19,0,0,1,8.1,4.12,22.82,22.82,0,0,1,6,6.1,18.89,18.89,0,0,1,2.95,7.77,19.23,19.23,0,0,1-1,9.11,18.16,18.16,0,0,1-4.25,7,15,15,0,0,1-6.84,4l-.06.17L152.46,396l-4.15,12.09L88.89,387.69Zm40.29-3.72a10.19,10.19,0,0,0-2-4.3,13.36,13.36,0,0,0-3.87-3.28,27.75,27.75,0,0,0-5-2.3,25.79,25.79,0,0,0-5.39-1.22,14.59,14.59,0,0,0-5.18.26,10.92,10.92,0,0,0-4.36,2.17,9.64,9.64,0,0,0-2.91,4.47,9.83,9.83,0,0,0-.48,5.4A10.57,10.57,0,0,0,106,378a14,14,0,0,0,3.92,3.3,28.16,28.16,0,0,0,5.1,2.32,26.37,26.37,0,0,0,5.38,1.23,14.39,14.39,0,0,0,5.08-.25,10.26,10.26,0,0,0,4.24-2.22,11.54,11.54,0,0,0,3.4-9.91Z"/><path d="M102.62,330,93,325.62,98.33,314l9.59,4.36Zm11.85-8.65,42.35,19.28-5.3,11.63L109.17,333Z"/><path d="M131.88,287.87l7.53,4.06L135,300.17l20.28,10.94q2.85,1.53,4.31,1.1c1-.3,2-1.39,3-3.29.34-.64.64-1.26.9-1.87a17,17,0,0,0,.66-1.79l8.71,4.7a30,30,0,0,1-1.39,3.34c-.57,1.19-1.16,2.34-1.76,3.45a37.32,37.32,0,0,1-3,4.76,13.25,13.25,0,0,1-3.6,3.37,8.3,8.3,0,0,1-4.45,1.23,11.94,11.94,0,0,1-5.55-1.66l-24.16-13-3.67,6.82-7.52-4.06,3.67-6.81-12.28-6.63,6.07-11.25,12.28,6.63Z"/><path d="M173.38,288.31q3.92-.81,7-5.28a11.39,11.39,0,0,0,2.14-6.6A8,8,0,0,0,181,271.3l6.32-9.3q5.41,6.93,5.25,13.57A24.28,24.28,0,0,1,188,288.76a26.54,26.54,0,0,1-7,7.21,20.61,20.61,0,0,1-8.33,3.37,22.52,22.52,0,0,1-9.06-.44,28.29,28.29,0,0,1-9.12-4.19,27,27,0,0,1-7.08-6.87,22.51,22.51,0,0,1-3.77-17.52,24.26,24.26,0,0,1,3.87-9.07,22.19,22.19,0,0,1,7.72-7.27,20.76,20.76,0,0,1,9.17-2.53A25.46,25.46,0,0,1,174,253a32.84,32.84,0,0,1,9.06,5.07l-18.86,27.77Q169.46,289.13,173.38,288.31Zm-12.14-25.7q-3.37.48-6,4.35a11.14,11.14,0,0,0-2,4.79,9.61,9.61,0,0,0,.3,4.12,9.31,9.31,0,0,0,1.72,3.24,14.69,14.69,0,0,0,2.2,2.2l11.68-17.2A14.82,14.82,0,0,0,161.24,262.61Z"/><path d="M162.73,213.93l49.57,40.89-8.13,9.86L154.6,223.79Z"/><path d="M195.36,225.72l-10.19-9.4,9.59-10.39,10.18,9.4Zm22.81,1.82,10.18,9.4-9.58,10.39-10.19-9.41Z"/><path d="M248.52,134.46l4.44,5.66L224.8,162.25l12.62,16.07,26.26-20.63,4.44,5.66L241.87,184l13.74,17.48L284,179.16l4.45,5.66L253.34,212.4l-39.71-50.52Z"/><path d="M265.83,134.73l-5.08-7.86,6.43-4.15,5.08,7.86Zm11,2.88,25.25,39.09-6.43,4.15-25.24-39.09Z"/><path d="M347.77,166.11q-2,7.45-11.85,12.66a32.49,32.49,0,0,1-6.18,2.45,20.51,20.51,0,0,1-6.51.78,14.2,14.2,0,0,1-6-1.62,12,12,0,0,1-4.73-4.73l6.76-3.57a5.65,5.65,0,0,0,2.79,2.5,9.49,9.49,0,0,0,3.72.68,14.07,14.07,0,0,0,4-.63,20.45,20.45,0,0,0,3.69-1.49,14.08,14.08,0,0,0,5-4.13,12,12,0,0,0,2.14-5.2,14.87,14.87,0,0,0-.39-6.05,31.47,31.47,0,0,0-2.64-6.65l-1.43-2.7-.16.08a12.82,12.82,0,0,1-2.33,8.4,18.71,18.71,0,0,1-6.58,5.76,20.42,20.42,0,0,1-8.92,2.57,19.09,19.09,0,0,1-8.11-1.47,21.6,21.6,0,0,1-6.94-4.78,31,31,0,0,1-5.38-7.4,35.12,35.12,0,0,1-3-8,23.24,23.24,0,0,1-.51-8.69,19.68,19.68,0,0,1,3.16-8.28,20.68,20.68,0,0,1,7.93-6.77,17.23,17.23,0,0,1,8.06-2.07,13.61,13.61,0,0,1,7.81,2.45l.08,0-3.11-5.89,6.37-3.36,19.86,37.66Q349.73,158.66,347.77,166.11Zm-18.4-14a12.67,12.67,0,0,0,1.85-5.66,18.78,18.78,0,0,0-.6-6.25,28.27,28.27,0,0,0-2.35-6.08,25,25,0,0,0-3.45-5,16.86,16.86,0,0,0-4.52-3.67,12,12,0,0,0-5.41-1.47,12.14,12.14,0,0,0-6.09,1.58,13.34,13.34,0,0,0-4.92,4.17,12.42,12.42,0,0,0-2,5.3,15.93,15.93,0,0,0,.37,5.91,26,26,0,0,0,2.31,6,32,32,0,0,0,3.49,5.28,18,18,0,0,0,4.58,4.05,12.3,12.3,0,0,0,5.51,1.77,11.7,11.7,0,0,0,6.31-1.55A12.41,12.41,0,0,0,329.37,152.16Z"/><path d="M384.88,133.71q-3.48,5.55-10.88,8.36a24,24,0,0,1-9.69,1.74,19,19,0,0,1-8.22-2.27,21.48,21.48,0,0,1-6.66-5.75,37.6,37.6,0,0,1-4.95-8.62,28,28,0,0,1-1.93-9.66,23.21,23.21,0,0,1,1.54-8.76,20.55,20.55,0,0,1,4.69-7.17,21.13,21.13,0,0,1,7.57-4.8,19.05,19.05,0,0,1,10.54-1.25,20.42,20.42,0,0,1,8.46,3.77,25.55,25.55,0,0,1,6.26,6.87,37,37,0,0,1,3.87,8l-32.56,12.35a18.41,18.41,0,0,0,2.73,5.18,13.2,13.2,0,0,0,4.16,3.62,12.82,12.82,0,0,0,5.49,1.52,15.65,15.65,0,0,0,6.59-1.15,13.26,13.26,0,0,0,6.65-4.92A11,11,0,0,0,380,123l7.06-2.68Q388.36,128.15,384.88,133.71Zm-12.32-27.29a12.94,12.94,0,0,0-4.09-2.92,13.13,13.13,0,0,0-10.15-.25,13.42,13.42,0,0,0-4.64,2.87,12.44,12.44,0,0,0-2.82,4.1,13.53,13.53,0,0,0-1.05,4.87,16.18,16.18,0,0,0,.71,5.17l25-9.47A15.68,15.68,0,0,0,372.56,106.42Z"/><path d="M394.61,85.28l1.77,7.16.18,0q2.6-9.36,12.65-11.84a20,20,0,0,1,7.73-.61,12.41,12.41,0,0,1,5.64,2.22,12.9,12.9,0,0,1,3.87,4.56,28.64,28.64,0,0,1,2.39,6.5l7.34,29.7-7.42,1.84L421.2,94.19a9.26,9.26,0,0,0-4.09-6,9.42,9.42,0,0,0-7.33-.78,15.6,15.6,0,0,0-5.64,2.51,11.41,11.41,0,0,0-3.42,4A13.05,13.05,0,0,0,399.35,99a18.63,18.63,0,0,0,.56,5.84l6.3,25.51-7.42,1.84L387.62,87Z"/><path d="M450.31,110.24a8.13,8.13,0,0,0,3.16,2.41,12.89,12.89,0,0,0,4.12,1,22.57,22.57,0,0,0,4.56-.13,28.75,28.75,0,0,0,3.72-.74,14.37,14.37,0,0,0,3.49-1.44,6.77,6.77,0,0,0,2.45-2.45,5.61,5.61,0,0,0,.63-3.66,5.1,5.1,0,0,0-2.8-4.18,19.47,19.47,0,0,0-5.9-1.75c-2.31-.34-4.8-.59-7.49-.77a37.82,37.82,0,0,1-7.55-1.21,15.16,15.16,0,0,1-6.07-3.18,10.16,10.16,0,0,1-3.12-6.68,11.19,11.19,0,0,1,.8-6.18,12.91,12.91,0,0,1,3.5-4.57,18.74,18.74,0,0,1,5.24-3,25.73,25.73,0,0,1,6-1.53,36,36,0,0,1,7.32-.25,16.79,16.79,0,0,1,6.14,1.57,12.1,12.1,0,0,1,4.63,4,17.08,17.08,0,0,1,2.68,6.78l-7.59,1a7.33,7.33,0,0,0-4.43-5.61,11.88,11.88,0,0,0-3.52-.87,17.42,17.42,0,0,0-3.75.07,22.85,22.85,0,0,0-3.4.71,11.28,11.28,0,0,0-3,1.34,6.33,6.33,0,0,0-2.1,2.08,4.54,4.54,0,0,0-.52,3,4.28,4.28,0,0,0,1.8,3.09,11.16,11.16,0,0,0,3.8,1.69,30.34,30.34,0,0,0,5,.82q2.75.24,5.51.52a54.5,54.5,0,0,1,5.77.81,18.29,18.29,0,0,1,5.12,1.75,11.72,11.72,0,0,1,3.87,3.27,11,11,0,0,1,2,5.37,13,13,0,0,1-.86,7.19,13.67,13.67,0,0,1-4,5,19.33,19.33,0,0,1-6,3.18,38.76,38.76,0,0,1-6.92,1.56,32.55,32.55,0,0,1-7.43.12,17.92,17.92,0,0,1-6.49-1.85,13.44,13.44,0,0,1-4.9-4.27,16.76,16.76,0,0,1-2.71-7l7.59-1A8.54,8.54,0,0,0,450.31,110.24Z"/><path d="M516.11,77.5a11.58,11.58,0,0,0-7.78-2.33,14.08,14.08,0,0,0-6.9,1.62,12.35,12.35,0,0,0-4.41,4.1,17.21,17.21,0,0,0-2.31,5.84,31.76,31.76,0,0,0-.63,6.8,25.78,25.78,0,0,0,.85,6.29,16.76,16.76,0,0,0,2.45,5.42,12.18,12.18,0,0,0,4.28,3.77,12.76,12.76,0,0,0,6.23,1.36q5.67-.08,8.83-3.09a13.41,13.41,0,0,0,3.8-8.42l7.83-.1q-1.15,8.65-6.26,13.4t-14,4.86a24.25,24.25,0,0,1-9.43-1.58,18.25,18.25,0,0,1-6.9-4.78,21,21,0,0,1-4.24-7.45A31.46,31.46,0,0,1,486,93.64a34,34,0,0,1,1.23-9.78,22.68,22.68,0,0,1,4-8A19.17,19.17,0,0,1,498,70.49a22.36,22.36,0,0,1,9.61-2.06,27.85,27.85,0,0,1,7.43.84,18.24,18.24,0,0,1,6.16,2.85,16,16,0,0,1,4.43,4.94,18.36,18.36,0,0,1,2.25,7.12l-7.92.11A11.6,11.6,0,0,0,516.11,77.5Z"/><path d="M549.78,53.14l-2.63,24.43.18,0a10.19,10.19,0,0,1,2.9-3.36,14.19,14.19,0,0,1,3.88-2,18.43,18.43,0,0,1,4.36-.94,21.28,21.28,0,0,1,4.3,0,20.32,20.32,0,0,1,7.47,2.07,12.46,12.46,0,0,1,4.54,4A12.91,12.91,0,0,1,576.85,83a29,29,0,0,1,0,6.92l-3.28,30.43-7.6-.82,3.37-31.32A8.71,8.71,0,0,0,561,77.88a15.49,15.49,0,0,0-6.16.42,11.46,11.46,0,0,0-4.57,2.58,13.29,13.29,0,0,0-3,4.34,19.18,19.18,0,0,0-1.47,5.68L542.91,117l-7.61-.82,6.88-63.89Z"/><path d="M623.36,131.13a10.81,10.81,0,0,1-5.61-.1,6.58,6.58,0,0,1-4.23-2.69q-1.34-2-.48-5.7a18.33,18.33,0,0,1-8.38,3.65,25.25,25.25,0,0,1-14.85-2.48,13.76,13.76,0,0,1-4.27-3.3,10.74,10.74,0,0,1-2.3-4.64,13.53,13.53,0,0,1,.17-6.1,13.67,13.67,0,0,1,2.78-6,11.85,11.85,0,0,1,4.39-3.19A16.3,16.3,0,0,1,596,99.39q2.94-.15,6,0c2.13.07,4.15.21,6,.43a31.75,31.75,0,0,0,5.07.25,8.29,8.29,0,0,0,3.72-.89,4.2,4.2,0,0,0,2-2.92,7.72,7.72,0,0,0,0-4.15,6.46,6.46,0,0,0-1.84-2.83,10,10,0,0,0-3-1.81,25.47,25.47,0,0,0-3.49-1.08,16.21,16.21,0,0,0-8.31,0q-3.57,1.07-5,6l-7.45-1.73a16.36,16.36,0,0,1,3.4-6.69,13.51,13.51,0,0,1,5.29-3.72A18.06,18.06,0,0,1,605,79a32.52,32.52,0,0,1,7.41.88,45.76,45.76,0,0,1,6,1.85,16.4,16.4,0,0,1,5.06,3.07,10.7,10.7,0,0,1,3.06,4.72,12.41,12.41,0,0,1,0,6.73l-5.39,23.27a18,18,0,0,0-.59,3.92c0,.87.61,1.43,1.78,1.7a9.23,9.23,0,0,0,2.36.18Zm-6.71-26a9.64,9.64,0,0,1-4,.67c-1.6,0-3.25-.14-5-.32s-3.45-.34-5.2-.47a19.2,19.2,0,0,0-4.86.21,8.49,8.49,0,0,0-3.86,1.72,7.1,7.1,0,0,0-2.29,4.11,6.11,6.11,0,0,0,0,3.27,6.28,6.28,0,0,0,1.46,2.5,8.35,8.35,0,0,0,2.5,1.78,16.15,16.15,0,0,0,3.25,1.12,18.2,18.2,0,0,0,6.54.46,13.66,13.66,0,0,0,4.89-1.54,10.26,10.26,0,0,0,3.22-2.74,8.72,8.72,0,0,0,1.57-3.18Z"/><path d="M636.72,94.3l2.13-6.41,7.43,2.47,2.18-6.58q1.78-5.39,5.83-7.12t10,.24a18,18,0,0,1,2.3.95,12.67,12.67,0,0,1,2.18,1.29l-2.1,6.32a9.24,9.24,0,0,0-1.89-1.15,21.14,21.14,0,0,0-2-.81,7.39,7.39,0,0,0-4.44-.33q-1.8.54-2.76,3.45l-2,6.15,8.54,2.83L660,102l-8.54-2.83L638.9,136.93l-7.26-2.41,12.52-37.76Z"/><path d="M688.86,106.35l-2.56,6.25-8.58-3.51-10.93,26.75a8.47,8.47,0,0,0-.61,2.08,2.23,2.23,0,0,0,.32,1.49,3.73,3.73,0,0,0,1.4,1.21,28.81,28.81,0,0,0,2.66,1.23l3.24,1.33-2.55,6.24-5.41-2.21a26.72,26.72,0,0,1-4.56-2.3,7.4,7.4,0,0,1-2.6-2.67,6.35,6.35,0,0,1-.64-3.56,18,18,0,0,1,1.4-5.07l11.2-27.41-7.33-3L665.86,97l7.33,3L678.47,87l7.08,2.89-5.27,12.92Z"/><path d="M708.31,164.74q-6.46,1.08-13.47-2.59a23.9,23.9,0,0,1-7.74-6.08,19.07,19.07,0,0,1-3.76-7.66,21.31,21.31,0,0,1-.12-8.8,37.2,37.2,0,0,1,3.16-9.42,27.7,27.7,0,0,1,6-7.86,23.28,23.28,0,0,1,7.57-4.67,20.72,20.72,0,0,1,8.48-1.25,21.19,21.19,0,0,1,8.61,2.48,19.07,19.07,0,0,1,7.93,7,20.43,20.43,0,0,1,2.8,8.83,25.9,25.9,0,0,1-1,9.24,36.72,36.72,0,0,1-3.46,8.25L692.43,136.1a18.5,18.5,0,0,0-2.06,5.48,13.11,13.11,0,0,0,.06,5.51,12.8,12.8,0,0,0,2.5,5.12,15.85,15.85,0,0,0,5.23,4.17,13.26,13.26,0,0,0,8.1,1.7,10.89,10.89,0,0,0,6.8-4.16l6.7,3.51Q714.78,163.66,708.31,164.74Zm12.23-27.33a13,13,0,0,0-.53-5,13.07,13.07,0,0,0-6.55-7.75,13.41,13.41,0,0,0-5.23-1.57,12.52,12.52,0,0,0-4.94.61,13.66,13.66,0,0,0-4.33,2.46,15.7,15.7,0,0,0-3.4,4l23.68,12.4A15.59,15.59,0,0,0,720.54,137.41Z"/><path d="M751,139.9,746.83,146l.15.1q8.71-4.26,17.25,1.6a20.36,20.36,0,0,1,5.59,5.38,12.66,12.66,0,0,1,2.08,5.7,12.88,12.88,0,0,1-.85,5.91,28.55,28.55,0,0,1-3.27,6.11L750.43,196l-6.3-4.33,17.86-26a9.27,9.27,0,0,0,1.8-7.07,9.38,9.38,0,0,0-4.28-6,15.45,15.45,0,0,0-5.61-2.55,11.37,11.37,0,0,0-5.26.09,13.05,13.05,0,0,0-4.74,2.37,18.56,18.56,0,0,0-4,4.29L725,178.48l-6.3-4.34,26.38-38.33Z"/><path d="M785.5,226.68l20.35-45.27,6.09,6L794,224.2l.13.13,36.27-18.72,5.71,5.63-44.78,21.19Z"/><path d="M831.88,227a21.78,21.78,0,0,1,8.74-1.45,20.24,20.24,0,0,1,8.48,2.33,26,26,0,0,1,12.16,15.22,20.45,20.45,0,0,1,.37,8.75,21.75,21.75,0,0,1-3.36,8.21,31,31,0,0,1-6.59,7.1,30.35,30.35,0,0,1-8.35,4.83,21.76,21.76,0,0,1-8.71,1.43,20.1,20.1,0,0,1-8.42-2.32A26.71,26.71,0,0,1,814,255.88a19.72,19.72,0,0,1-.42-8.75,21.64,21.64,0,0,1,3.31-8.18,30.49,30.49,0,0,1,6.56-7.08A31.26,31.26,0,0,1,831.88,227Zm-8.51,16.76a15.82,15.82,0,0,0-2.35,5.85,13.48,13.48,0,0,0,.26,5.73,13.71,13.71,0,0,0,2.59,5.12,13.9,13.9,0,0,0,4.42,3.67,13.39,13.39,0,0,0,5.54,1.51,15.43,15.43,0,0,0,6.22-1,22.76,22.76,0,0,0,6.58-3.81,23.38,23.38,0,0,0,5.17-5.56,16.21,16.21,0,0,0,2.38-5.88,13.14,13.14,0,0,0-.22-5.76,13.68,13.68,0,0,0-2.59-5.13,14,14,0,0,0-4.42-3.66,13.27,13.27,0,0,0-5.57-1.49,16.31,16.31,0,0,0-6.26,1,25.62,25.62,0,0,0-11.75,9.38Z"/><path d="M880.91,269.5l-6.3,3.84.1.16q9.7-.35,15.1,8.49a20.3,20.3,0,0,1,2.91,7.18,12.6,12.6,0,0,1-.41,6.06,13.24,13.24,0,0,1-3.19,5.06,28.93,28.93,0,0,1-5.48,4.24l-26.11,16-4-6.53,26.88-16.42a9.26,9.26,0,0,0,4.53-5.72,9.35,9.35,0,0,0-1.47-7.22,15.48,15.48,0,0,0-4.09-4.63,11.42,11.42,0,0,0-4.84-2,13.19,13.19,0,0,0-5.29.23,18.83,18.83,0,0,0-5.39,2.3l-22.43,13.7-4-6.53,39.7-24.26Z"/><path d="M936.48,337.84l-26,9.36L921.94,379l26-9.36,2.9,8.05-60.46,21.76-2.9-8,27.69-10-11.46-31.84-27.69,10-2.9-8,60.46-21.77Z"/><path d="M890.52,429.14a49.51,49.51,0,0,1-6.19-1.38,16,16,0,0,1-4.34-2,9.73,9.73,0,0,1-2.85-3,13.39,13.39,0,0,1-1.59-4.21,19.89,19.89,0,0,1-.39-2.68,13.31,13.31,0,0,1,.06-2.68l6.87-1.47a12.82,12.82,0,0,0-.27,2.4,9.59,9.59,0,0,0,.16,2.22,6.52,6.52,0,0,0,1.92,3.59,6.88,6.88,0,0,0,3.62,1.67l8.32,1.43,41.36-27.74,1.81,8.45L904.64,425l0,.18,40,4.77,1.7,7.92Z"/><path d="M948.56,455.91l-6.27.58v.18a11.48,11.48,0,0,1,6.15,5.4,22.23,22.23,0,0,1,2.56,8.71,21,21,0,0,1-1.11,9.55,19.21,19.21,0,0,1-4.73,7.12,23.64,23.64,0,0,1-7.38,4.7,31.94,31.94,0,0,1-9.2,2.2,33.16,33.16,0,0,1-9.44-.44,22.06,22.06,0,0,1-8-3.24,18.74,18.74,0,0,1-5.77-6.16,21.57,21.57,0,0,1-2.73-9.11,23.45,23.45,0,0,1,0-3.84,21.33,21.33,0,0,1,.78-4.27,16,16,0,0,1,1.84-4.1,12.17,12.17,0,0,1,3.16-3.41v-.18l-23.84,2.19-.7-7.62,64-5.88ZM934.63,484.8a17.14,17.14,0,0,0,5.27-3.1,12.83,12.83,0,0,0,3.44-4.84,13.71,13.71,0,0,0,.85-6.54,12.67,12.67,0,0,0-6.52-10.43,16.94,16.94,0,0,0-5.83-1.95,27.37,27.37,0,0,0-12.94,1.24,16.28,16.28,0,0,0-5.37,3.07,13.08,13.08,0,0,0-3.48,4.88,14.17,14.17,0,0,0-.86,6.86,13.05,13.05,0,0,0,2.13,6.45,12.29,12.29,0,0,0,4.42,3.88,17.68,17.68,0,0,0,6,1.81,30.56,30.56,0,0,0,6.7.1A23.39,23.39,0,0,0,934.63,484.8Z"/><path d="M907.37,536.64q-3.79-5.34-3.54-13.26a24,24,0,0,1,2.11-9.61,19.1,19.1,0,0,1,5.26-6.72,21.52,21.52,0,0,1,7.87-3.94,37.23,37.23,0,0,1,9.86-1.25,28,28,0,0,1,9.66,1.93,23,23,0,0,1,7.5,4.79,20.5,20.5,0,0,1,4.81,7.09,21.1,21.1,0,0,1,1.52,8.83,19.11,19.11,0,0,1-2.89,10.21,20.35,20.35,0,0,1-6.74,6.36,25.9,25.9,0,0,1-8.75,3.14,37,37,0,0,1-8.92.48l1.12-34.81a18.4,18.4,0,0,0-5.83.53,13.1,13.1,0,0,0-4.94,2.45,12.75,12.75,0,0,0-3.52,4.48,15.78,15.78,0,0,0-1.47,6.52,13.24,13.24,0,0,0,2,8,10.91,10.91,0,0,0,6.71,4.31l-.25,7.56Q911.16,542,907.37,536.64Zm29.92-.88a13.1,13.1,0,0,0,4.27-2.65,13.37,13.37,0,0,0,2.92-4.05,13.09,13.09,0,0,0,1.21-5.23,13.55,13.55,0,0,0-.86-5.39,12.44,12.44,0,0,0-2.7-4.18,13.59,13.59,0,0,0-4.1-2.83,15.78,15.78,0,0,0-5-1.34l-.87,26.72A15.52,15.52,0,0,0,937.29,535.76Z"/><path d="M948.29,563.21,938.57,562l0,.17A20.76,20.76,0,0,1,946,570a17.15,17.15,0,0,1,1.19,10.49l-8-1a21.62,21.62,0,0,0-.25-7.93,12.35,12.35,0,0,0-3-5.64,15.1,15.1,0,0,0-5.48-3.61,31.53,31.53,0,0,0-7.78-1.91l-20.53-2.64,1-7.59,46.14,5.94Z"/><path d="M931.94,583.35a21.67,21.67,0,0,1,6.58,5.94,20.39,20.39,0,0,1,3.47,8.08,26.06,26.06,0,0,1-4.34,19A20.4,20.4,0,0,1,931,622.1a21.54,21.54,0,0,1-8.51,2.49,30.82,30.82,0,0,1-9.66-.72,30.45,30.45,0,0,1-9-3.53,21.73,21.73,0,0,1-6.55-5.92,20,20,0,0,1-3.43-8,26.64,26.64,0,0,1,4.33-19,20,20,0,0,1,6.59-5.79,21.8,21.8,0,0,1,8.46-2.5,30.63,30.63,0,0,1,9.62.72A31.21,31.21,0,0,1,931.94,583.35Zm-18.41,3.79a15.67,15.67,0,0,0-6,1.81,13.3,13.3,0,0,0-4.32,3.77,13.8,13.8,0,0,0-.24,16.24,15.75,15.75,0,0,0,4.66,4.24,23.21,23.21,0,0,0,7.08,2.77,22.87,22.87,0,0,0,7.57.57,16.19,16.19,0,0,0,6.09-1.79A13.37,13.37,0,0,0,932.7,611a14.13,14.13,0,0,0,2.5-11,13.26,13.26,0,0,0-2.31-5.28,16.35,16.35,0,0,0-4.7-4.26,23.21,23.21,0,0,0-7.08-2.77A23.47,23.47,0,0,0,913.53,587.14Z"/><path d="M945.66,655.12l-22.54-8.32-.06.17a11.49,11.49,0,0,1,3.22,7.52,22.27,22.27,0,0,1-1.44,9,21.11,21.11,0,0,1-5.12,8.13,19,19,0,0,1-7.33,4.4,23.75,23.75,0,0,1-8.69,1.06,31.37,31.37,0,0,1-9.24-2,32.68,32.68,0,0,1-8.33-4.46,21.91,21.91,0,0,1-5.85-6.38,18.74,18.74,0,0,1-2.55-8,21.64,21.64,0,0,1,1.45-9.39,23.87,23.87,0,0,1,1.66-3.47,22,22,0,0,1,2.55-3.52,16.31,16.31,0,0,1,3.42-2.91,12.35,12.35,0,0,1,4.33-1.71l.06-.17-5.82-2.15,2.65-7.18,60.28,22.25ZM904,669.06a17.3,17.3,0,0,0,6.09-.53,12.73,12.73,0,0,0,5.19-2.89,13.68,13.68,0,0,0,3.58-5.53,12.63,12.63,0,0,0-1.39-12.22,16.83,16.83,0,0,0-4.42-4.27,27.18,27.18,0,0,0-5.73-2.93,26.73,26.73,0,0,0-6.49-1.53,16.29,16.29,0,0,0-6.16.46,12.89,12.89,0,0,0-5.25,2.91,14.18,14.18,0,0,0-3.73,5.81,13.08,13.08,0,0,0-.86,6.74,12.38,12.38,0,0,0,2.32,5.41,17.72,17.72,0,0,0,4.6,4.19,30.51,30.51,0,0,0,6,3A23.59,23.59,0,0,0,904,669.06Z"/><path d="M853.37,671.94a11.39,11.39,0,0,1,.93-8.58,20.61,20.61,0,0,1,2-3.34l5.93,2.82-.45.64c-.11.18-.22.37-.33.59l-.69,1.46q-1.08,2.28-.21,3.69c.58.94,2,1.92,4.12,3l46.17,22L907.54,701l-47.3-22.5C856.5,676.77,854.21,674.56,853.37,671.94Zm65,25.79,8.46,4-3.29,6.91-8.45-4Z"/><path d="M847.06,720.69q-.78-6.51,3.2-13.35a24.11,24.11,0,0,1,6.43-7.45,19,19,0,0,1,7.83-3.4,21.33,21.33,0,0,1,8.79.28,37.4,37.4,0,0,1,9.27,3.58,28.4,28.4,0,0,1,7.58,6.3,23.23,23.23,0,0,1,4.31,7.78,20.66,20.66,0,0,1,.87,8.53,21.16,21.16,0,0,1-2.87,8.48,19.07,19.07,0,0,1-7.41,7.61,20.37,20.37,0,0,1-8.94,2.39,25.84,25.84,0,0,1-9.19-1.4,36.82,36.82,0,0,1-8.08-3.83l17.55-30.09a18.71,18.71,0,0,0-5.38-2.3,13.16,13.16,0,0,0-5.51-.19,12.92,12.92,0,0,0-5.23,2.26,15.92,15.92,0,0,0-4.4,5,13.29,13.29,0,0,0-2.07,8,10.87,10.87,0,0,0,3.85,7l-3.81,6.53Q847.85,727.2,847.06,720.69Zm26.74,13.46a13.2,13.2,0,0,0,5-.3,13.33,13.33,0,0,0,4.49-2.17,14.12,14.12,0,0,0,5.35-9.17,12.34,12.34,0,0,0-.38-5A13.73,13.73,0,0,0,886,713.1a16,16,0,0,0-3.8-3.57l-13.47,23.09A15.79,15.79,0,0,0,873.8,734.15Z"/><path d="M883.64,775.68l-30.45-22.84L856.71,782l-6.15,8.21-2.46-24.91-35.57-1.94,5.83-7.77,29,1.84-1-9.75-14.11-10.59,4.59-6.12,51.41,38.56Z"/><path d="M830.45,812.28l-5-4.52,6.21-6.89-21.44-19.35a8.54,8.54,0,0,0-1.76-1.28,2.23,2.23,0,0,0-1.51-.21,3.76,3.76,0,0,0-1.61.91,27.15,27.15,0,0,0-2.06,2.08l-2.35,2.61-5-4.52,3.92-4.35a26.41,26.41,0,0,1,3.71-3.5,7.46,7.46,0,0,1,3.39-1.55,6.32,6.32,0,0,1,3.57.62,17.47,17.47,0,0,1,4.29,3l22,19.83,5.3-5.88,5,4.53-5.3,5.88,10.36,9.34L847,814.74l-10.36-9.35Z"/><path d="M768.92,810.83q1.17-6.45,7-11.81a23.82,23.82,0,0,1,8.34-5.22,19.17,19.17,0,0,1,8.48-.95,21.53,21.53,0,0,1,8.32,2.87,37,37,0,0,1,7.8,6.16,28.11,28.11,0,0,1,5.38,8.25,23.42,23.42,0,0,1,1.83,8.71,20.61,20.61,0,0,1-1.69,8.4,21.25,21.25,0,0,1-5.25,7.26,19.08,19.08,0,0,1-9.32,5.09,20.63,20.63,0,0,1-9.26-.36,25.81,25.81,0,0,1-8.36-4.05,37.11,37.11,0,0,1-6.59-6l25.65-23.56a18.73,18.73,0,0,0-4.46-3.79,13.24,13.24,0,0,0-5.21-1.81,12.81,12.81,0,0,0-5.66.62,15.72,15.72,0,0,0-5.69,3.52,13.23,13.23,0,0,0-4.35,7A10.86,10.86,0,0,0,777.5,819l-5.57,5.11Q767.76,817.27,768.92,810.83Zm21.58,20.75a13,13,0,0,0,4.88,1.2,13.75,13.75,0,0,0,12.76-7.94,12.45,12.45,0,0,0,1.1-4.85,13.69,13.69,0,0,0-.85-4.91,15.73,15.73,0,0,0-2.58-4.54l-19.68,18.08A15.62,15.62,0,0,0,790.5,831.58Z"/><path d="M777.84,859.42l-4.3-6-.15.11q1.05,9.65-7.36,15.68a20.17,20.17,0,0,1-6.95,3.44,12.72,12.72,0,0,1-6.07,0,13.11,13.11,0,0,1-5.28-2.81,29,29,0,0,1-4.63-5.15l-17.83-24.87,6.22-4.45L749.84,861a9.26,9.26,0,0,0,6,4.09,9.41,9.41,0,0,0,7.1-2,15.69,15.69,0,0,0,4.3-4.42,11.43,11.43,0,0,0,1.7-5,13.27,13.27,0,0,0-.62-5.26,18.63,18.63,0,0,0-2.69-5.21l-15.31-21.36,6.22-4.46,27.11,37.82Z"/><path d="M711.43,859.4l-5-8.63,8.62-5,5,8.62Z"/></svg>