<svg id="Ebene_1" data-name="Ebene 1" xmlns="http://www.w3.org/2000/svg" viewBox="0 0 1000 1000"><path d="M173.8,824.79a33.12,33.12,0,0,1-6.34-9.87,25.11,25.11,0,0,1-1.87-10.85,27.41,27.41,0,0,1,3.18-11.19,40.1,40.1,0,0,1,8.8-11,44.69,44.69,0,0,1,10.78-7.41,28.45,28.45,0,0,1,11.25-2.91,25.62,25.62,0,0,1,11.15,2.12,30.92,30.92,0,0,1,10.48,7.8l18.7,20.45-47.42,43.37Zm39.33-34.62a18.32,18.32,0,0,0-4.74-3.71,13.18,13.18,0,0,0-5.89-1.57,16.72,16.72,0,0,0-6.85,1.38,26.54,26.54,0,0,0-7.55,5.08,37.4,37.4,0,0,0-5.83,6.62,17.4,17.4,0,0,0-2.86,6.82,13.87,13.87,0,0,0,.7,7.1,22.82,22.82,0,0,0,4.83,7.48l6.8,7.43,29.89-27.33Z"/><path d="M153.22,771.05l7.06-5-.11-.15a15.19,15.19,0,0,1-4.67.33,16,16,0,0,1-4.6-1,17.36,17.36,0,0,1-4.1-2.29,15.41,15.41,0,0,1-3.29-3.4,10,10,0,0,1-1.24-2.54l9.7-6.86a21.21,21.21,0,0,0,1,1.94,22.84,22.84,0,0,0,1.29,2.07,13.5,13.5,0,0,0,4.39,4.17,10.3,10.3,0,0,0,4.87,1.35,12.86,12.86,0,0,0,5.07-1,25.72,25.72,0,0,0,5.14-2.87l17.12-12.11,7.38,10.43-38,26.88Z"/><path d="M132.93,753.65l-9,5.45-6.62-10.93,9-5.46ZM132.47,739l39.81-24.09,6.62,10.94-39.81,24.08Z"/><path d="M114.66,705.71l7.6-3.92,4.29,8.32L147,699.54q2.88-1.49,3.34-2.94t-1-4.33c-.33-.64-.67-1.24-1-1.8a15.78,15.78,0,0,0-1.11-1.55l8.8-4.54a28.49,28.49,0,0,1,2,3c.66,1.14,1.28,2.28,1.86,3.4a39.17,39.17,0,0,1,2.22,5.18,13.19,13.19,0,0,1,.74,4.88,8.31,8.31,0,0,1-1.49,4.37,11.83,11.83,0,0,1-4.51,3.64l-24.39,12.59,3.55,6.87-7.6,3.93-3.55-6.88-12.39,6.4-5.86-11.36L119,714Z"/><path d="M101.24,674.33l7.88-3.31,3.64,8.62L134,670.71q3-1.26,3.56-2.68c.39-.94.16-2.41-.67-4.4-.28-.66-.58-1.28-.89-1.87s-.64-1.13-1-1.64l9.12-3.84a30.77,30.77,0,0,1,1.73,3.18c.57,1.2,1.1,2.37,1.58,3.53a36.29,36.29,0,0,1,1.81,5.35,13.3,13.3,0,0,1,.37,4.92,8.43,8.43,0,0,1-1.83,4.24,11.93,11.93,0,0,1-4.78,3.27l-25.3,10.65,3,7.14-7.89,3.31-3-7.13L97,700.15l-5-11.78L104.88,683Z"/><path d="M127.6,642.26q1.83-3.57.25-8.73a11.34,11.34,0,0,0-3.79-5.81,8.06,8.06,0,0,0-4.92-2.08l-3.28-10.76q8.79.15,13.87,4.43a24.38,24.38,0,0,1,7.38,11.86,26.56,26.56,0,0,1,1.21,10,20.62,20.62,0,0,1-2.6,8.61,22.44,22.44,0,0,1-6,6.77,28.27,28.27,0,0,1-9,4.48,26.88,26.88,0,0,1-9.79,1.2,22.43,22.43,0,0,1-16-8.05,24.11,24.11,0,0,1-4.63-8.7,22,22,0,0,1-.82-10.57,20.53,20.53,0,0,1,3.78-8.73,25.32,25.32,0,0,1,7.24-6.49,32.66,32.66,0,0,1,9.64-3.88l9.79,32.11Q125.78,645.83,127.6,642.26ZM100,635.59q-1.74,2.92-.37,7.4a11.1,11.1,0,0,0,2.47,4.56,9.52,9.52,0,0,0,7,3.05,14.43,14.43,0,0,0,3.09-.34l-6.06-19.88A14.7,14.7,0,0,0,100,635.59Z"/><path d="M115,595.71a7.57,7.57,0,0,0,2-2.6,9.43,9.43,0,0,0,.83-3.3,14.72,14.72,0,0,0-.19-3.67,13.26,13.26,0,0,0-.8-2.73,9.5,9.5,0,0,0-1.44-2.49,6.08,6.08,0,0,0-2.12-1.68,4.75,4.75,0,0,0-2.94-.31c-1.89.33-3.08,1.84-3.59,4.52a77.36,77.36,0,0,0-1,11c-.09,1.9-.26,3.78-.52,5.62a18.32,18.32,0,0,1-1.4,5A10.78,10.78,0,0,1,101,609a10,10,0,0,1-4.88,2.14,14,14,0,0,1-7.57-.45,13,13,0,0,1-5.28-3.78,20.22,20.22,0,0,1-3.42-6,40.07,40.07,0,0,1-2-7.15,37.51,37.51,0,0,1-.56-7.35,19.59,19.59,0,0,1,1.3-6.67,14.53,14.53,0,0,1,3.67-5.35A15.2,15.2,0,0,1,89,571l2.1,12c-2.39.61-3.87,1.81-4.43,3.62a12.61,12.61,0,0,0-.26,6.07,19.51,19.51,0,0,0,.54,2.28,7.36,7.36,0,0,0,1,2.16,4.88,4.88,0,0,0,1.59,1.51,3.84,3.84,0,0,0,4.91-1.42,9.59,9.59,0,0,0,1.16-3.53,42.43,42.43,0,0,0,.4-4.78c0-1.78.13-3.59.23-5.43a54.75,54.75,0,0,1,.56-5.63,18.28,18.28,0,0,1,1.53-5.07,11.71,11.71,0,0,1,3.06-3.92,10.85,10.85,0,0,1,5.15-2.18A14.1,14.1,0,0,1,120.16,571a19.73,19.73,0,0,1,3.79,6.23,40.29,40.29,0,0,1,2.1,7.54,38.77,38.77,0,0,1,.58,7.94,21.08,21.08,0,0,1-1.47,7.25,15.45,15.45,0,0,1-4.06,5.74,15.67,15.67,0,0,1-7.31,3.43l-2.1-12A7,7,0,0,0,115,595.71Z"/><path d="M54.56,517.55l26.64.66-26-25.76.44-17.63,24.75,25.73L119.93,474l-.44,17.73L90.12,510.33l8,8.31,20.69.51-.35,14.13-64.24-1.6Z"/><path d="M89.13,467a14.86,14.86,0,0,1-7-3.46,15.24,15.24,0,0,1-3.86-5.77,21.8,21.8,0,0,1-1.39-7.21,39.06,39.06,0,0,1,.53-7.72,53.63,53.63,0,0,1,1.67-6.93,21.73,21.73,0,0,1,3-6.15,13,13,0,0,1,4.76-4.13,11.18,11.18,0,0,1,7-.73l23.87,4a48,48,0,0,0,6,.65,11,11,0,0,0,4.47-.52l-2.16,12.78a19,19,0,0,1-2.27.2,17.94,17.94,0,0,1-2.31-.07,16.74,16.74,0,0,1,3.15,7.84,28.83,28.83,0,0,1-.17,8.55,23,23,0,0,1-1.83,6,14.15,14.15,0,0,1-3.33,4.55,11.66,11.66,0,0,1-4.82,2.61,14.72,14.72,0,0,1-6.32.16,13.55,13.55,0,0,1-6.2-2.46A11.65,11.65,0,0,1,98.51,465a16.25,16.25,0,0,1-1.43-5.35,54.42,54.42,0,0,1-.24-5.84c0-1.94.1-3.85.23-5.71a35.27,35.27,0,0,0,0-5,8.67,8.67,0,0,0-1-3.63,3.43,3.43,0,0,0-2.78-1.66,6.76,6.76,0,0,0-3.35.12,5,5,0,0,0-2.16,1.46,7.05,7.05,0,0,0-1.32,2.42,21.93,21.93,0,0,0-.76,3.12,9.72,9.72,0,0,0,.61,6.12c.83,1.6,2.46,2.73,4.91,3.39Zm14.23-27.54a5.64,5.64,0,0,1,.77,2.19,20.38,20.38,0,0,1,.24,2.68c0,.95,0,1.94-.05,3s-.07,2.06-.06,3.1a23.62,23.62,0,0,0,.24,2.91,8.24,8.24,0,0,0,.79,2.6,5.69,5.69,0,0,0,1.63,2,6.17,6.17,0,0,0,2.82,1.12,6.08,6.08,0,0,0,3-.14,4.89,4.89,0,0,0,2.1-1.38,7,7,0,0,0,1.35-2.33,16,16,0,0,0,.76-2.88,11.4,11.4,0,0,0-.26-6,8.46,8.46,0,0,0-2.47-3.52,9.54,9.54,0,0,0-3.3-1.79,24,24,0,0,0-2.8-.7Z"/><path d="M88.74,397.65l5.68,1.74,0-.17a14.09,14.09,0,0,1-3.5-7.29,18.36,18.36,0,0,1,.69-8.07,20.18,20.18,0,0,1,4.76-8.43,19.55,19.55,0,0,1,7.18-4.67,23.37,23.37,0,0,1,8.75-1.36,35.43,35.43,0,0,1,9.44,1.59,31.72,31.72,0,0,1,8.24,3.85,22.78,22.78,0,0,1,6.18,5.9,18.91,18.91,0,0,1,3.2,7.67,19.31,19.31,0,0,1-.73,9.14,18.23,18.23,0,0,1-4,7.1,15.13,15.13,0,0,1-6.71,4.2l0,.17L149,415.5l-3.76,12.21-60-18.45Zm40.15-5a10.33,10.33,0,0,0-2.13-4.23,13.48,13.48,0,0,0-4-3.15,26.83,26.83,0,0,0-5.09-2.13,25.77,25.77,0,0,0-5.41-1.06,14.72,14.72,0,0,0-5.18.44,10.81,10.81,0,0,0-4.28,2.31,9.63,9.63,0,0,0-2.77,4.56,9.82,9.82,0,0,0-.3,5.42A10.62,10.62,0,0,0,102,399a13.92,13.92,0,0,0,4,3.16,28.28,28.28,0,0,0,5.17,2.16,26,26,0,0,0,5.42,1,14,14,0,0,0,5.08-.42,9.92,9.92,0,0,0,4.15-2.35,11.49,11.49,0,0,0,3.08-10Z"/><path d="M97,351.17l-9.72-4.05,4.91-11.8,9.72,4.05Zm11.56-9,43,17.88-4.91,11.8-43-17.89Z"/><path d="M124.89,308.1l7.65,3.81-4.17,8.38L149,330.56q2.89,1.45,4.35,1c1-.32,1.93-1.45,2.89-3.38.32-.65.6-1.28.85-1.9a17.41,17.41,0,0,0,.6-1.81l8.86,4.42a30.06,30.06,0,0,1-1.29,3.38c-.53,1.21-1.08,2.38-1.64,3.5a37.06,37.06,0,0,1-2.87,4.86,13.48,13.48,0,0,1-3.5,3.49,8.38,8.38,0,0,1-4.41,1.37,11.86,11.86,0,0,1-5.59-1.48l-24.57-12.24-3.45,6.92-7.66-3.81,3.46-6.93-12.49-6.22,5.7-11.44,12.49,6.22Z"/><path d="M166.39,307.18q3.9-.93,6.79-5.5a11.36,11.36,0,0,0,1.93-6.66,8,8,0,0,0-1.63-5.08l6-9.5q5.63,6.75,5.68,13.4A24.38,24.38,0,0,1,181,307.17a26.66,26.66,0,0,1-6.78,7.42,20.69,20.69,0,0,1-8.22,3.64,22.77,22.77,0,0,1-9.07-.15,28.28,28.28,0,0,1-9.25-3.9,27.32,27.32,0,0,1-7.3-6.64,22.55,22.55,0,0,1-4.32-17.4,24.12,24.12,0,0,1,3.58-9.18,22.09,22.09,0,0,1,7.48-7.51,20.55,20.55,0,0,1,9.09-2.82,25.18,25.18,0,0,1,9.64,1.26,33,33,0,0,1,9.22,4.78L157.1,305Q162.5,308.12,166.39,307.18Zm-12.94-25.3c-2.24.39-4.2,1.91-5.87,4.54a11.11,11.11,0,0,0-1.84,4.85,9.65,9.65,0,0,0,.43,4.11,9.38,9.38,0,0,0,1.82,3.18,14.55,14.55,0,0,0,2.27,2.13l11.13-17.56A14.68,14.68,0,0,0,153.45,281.88Z"/><path d="M153.36,233.22l50.91,39.21-7.8,10.12-50.91-39.21Z"/><path d="M186.21,244.25l-10.54-9,9.18-10.75,10.54,9Zm22.86.95,10.53,9L210.42,265l-10.53-9Z"/><path d="M281.62,198.14l-44.82-33.5-.14.11,21.57,51.69-7,5.49-52.56-40.48,6.88-5.38,42.85,34.35.15-.11-21.59-51,7.3-5.71L278.37,187l.14-.11-22.65-50.15,6.74-5.27,26,61.21Z"/><path d="M340.09,162.51a10.84,10.84,0,0,1-4.22,3.7,6.57,6.57,0,0,1-4.94.85q-2.34-.59-4.19-3.89A18.22,18.22,0,0,1,323,171.5a24.13,24.13,0,0,1-7.08,5.86,23.72,23.72,0,0,1-5.58,2.29,13.68,13.68,0,0,1-5.37.43,10.8,10.8,0,0,1-4.83-1.89,13.54,13.54,0,0,1-4-4.63,13.85,13.85,0,0,1-2-6.32,11.88,11.88,0,0,1,1.11-5.31,16.53,16.53,0,0,1,3.23-4.54q2.08-2.08,4.41-4,2.44-2.08,4.77-3.74a35,35,0,0,0,3.92-3.22,8.35,8.35,0,0,0,2.15-3.17,4.17,4.17,0,0,0-.5-3.48,7.63,7.63,0,0,0-2.8-3.07,6.55,6.55,0,0,0-3.26-.86,9.92,9.92,0,0,0-3.44.68,25.66,25.66,0,0,0-3.31,1.54,16.17,16.17,0,0,0-6.17,5.56q-1.93,3.19.34,7.81l-6.68,3.73a16.53,16.53,0,0,1-2-7.24,13.68,13.68,0,0,1,1.42-6.31,18.27,18.27,0,0,1,4.09-5.33,32.33,32.33,0,0,1,6.09-4.33,44.44,44.44,0,0,1,5.68-2.66,16.55,16.55,0,0,1,5.81-1.13,10.82,10.82,0,0,1,5.44,1.43,12.48,12.48,0,0,1,4.53,5l11.65,20.85a18.18,18.18,0,0,0,2.2,3.3c.6.63,1.42.65,2.46.07a9.5,9.5,0,0,0,1.87-1.46Zm-22.48-14.76a9.43,9.43,0,0,1-2.53,3.21q-1.8,1.57-3.89,3.1T307,157.21a18.64,18.64,0,0,0-3.45,3.42,8.39,8.39,0,0,0-1.7,3.87,7.15,7.15,0,0,0,1.06,4.59,6,6,0,0,0,5,3.27,8.37,8.37,0,0,0,3-.37,15.65,15.65,0,0,0,3.16-1.35,18.43,18.43,0,0,0,5.16-4.06,13.85,13.85,0,0,0,2.58-4.42,10.45,10.45,0,0,0,.54-4.2,8.59,8.59,0,0,0-1-3.41Z"/><path d="M327.78,98.2l9.3,22.74.17-.07a10.27,10.27,0,0,1,.95-4.33,14.48,14.48,0,0,1,2.46-3.62A19.11,19.11,0,0,1,344,110a21.48,21.48,0,0,1,3.79-2,20.05,20.05,0,0,1,7.56-1.73,12.56,12.56,0,0,1,5.91,1.37,13,13,0,0,1,4.48,4,28.68,28.68,0,0,1,3.32,6.09L380.69,146l-7.08,2.89-11.93-29.15a9.22,9.22,0,0,0-4.93-5.38,9.35,9.35,0,0,0-7.36.29,15.7,15.7,0,0,0-5.22,3.3,11.52,11.52,0,0,0-2.8,4.45,13.19,13.19,0,0,0-.61,5.27,18.87,18.87,0,0,0,1.4,5.69l9.95,24.33L345,160.57,320.7,101.1Z"/><path d="M383.62,96.55l2.81,9.4.17,0a20.74,20.74,0,0,1,4.16-10,17.17,17.17,0,0,1,9.11-5.35l2.32,7.76a22,22,0,0,0-7.15,3.45,12.38,12.38,0,0,0-3.94,5,15.23,15.23,0,0,0-1.07,6.47,31.82,31.82,0,0,0,1.41,7.89L397.37,141,390,143.19,376.72,98.61Z"/><path d="M417.46,87.54l1.38,7.25.18,0q3.09-9.19,13.26-11.14a20.37,20.37,0,0,1,7.76-.2,12.66,12.66,0,0,1,5.51,2.52,13.09,13.09,0,0,1,3.62,4.77,29,29,0,0,1,2,6.61L457,127.37l-7.52,1.44-5.9-30.95a9.26,9.26,0,0,0-3.76-6.24,9.35,9.35,0,0,0-7.28-1.18,15.63,15.63,0,0,0-5.77,2.2,11.43,11.43,0,0,0-3.62,3.81,12.93,12.93,0,0,0-1.65,5,18.65,18.65,0,0,0,.25,5.87l4.92,25.81-7.51,1.43-8.73-45.7Z"/><path d="M499.26,121q-4.93,4.3-12.84,4.85a23.78,23.78,0,0,1-9.77-1.13,19.19,19.19,0,0,1-7.22-4.55,21.44,21.44,0,0,1-4.7-7.44,36.89,36.89,0,0,1-2.25-9.68,27.91,27.91,0,0,1,.95-9.8,23.1,23.1,0,0,1,4-8,20.5,20.5,0,0,1,6.56-5.5,21.2,21.2,0,0,1,8.63-2.4,19,19,0,0,1,10.46,1.85,20.46,20.46,0,0,1,7,6.06,25.84,25.84,0,0,1,4,8.38,37.56,37.56,0,0,1,1.38,8.84l-34.75,2.39a18.24,18.24,0,0,0,1.12,5.74,13.08,13.08,0,0,0,2.93,4.67,12.83,12.83,0,0,0,4.82,3,15.87,15.87,0,0,0,6.64.81,13.23,13.23,0,0,0,7.79-2.79,10.9,10.9,0,0,0,3.61-7.11l7.54-.52Q504.2,116.64,499.26,121Zm-3.89-29.68a13.16,13.16,0,0,0-3.08-4,13.41,13.41,0,0,0-4.32-2.5,13.27,13.27,0,0,0-5.32-.67,13.49,13.49,0,0,0-5.27,1.4,12.41,12.41,0,0,0-3.89,3.11A13.55,13.55,0,0,0,471.08,93a16.07,16.07,0,0,0-.82,5.16l26.67-1.84A15.44,15.44,0,0,0,495.37,91.27Z"/><path d="M524,59.72l-1.25,24.54h.18a10.07,10.07,0,0,1,2.7-3.51,14.19,14.19,0,0,1,3.77-2.24,18.69,18.69,0,0,1,4.29-1.18,21,21,0,0,1,4.29-.23,20.13,20.13,0,0,1,7.58,1.64,12.68,12.68,0,0,1,4.76,3.76A12.87,12.87,0,0,1,552.66,88a29.35,29.35,0,0,1,.42,6.91l-1.56,30.56-7.64-.39,1.6-31.46a9.26,9.26,0,0,0-2.17-7,9.36,9.36,0,0,0-6.79-2.87,15.58,15.58,0,0,0-6.12.77A11.38,11.38,0,0,0,526,87.4a13.1,13.1,0,0,0-2.79,4.5A18.59,18.59,0,0,0,522,97.65l-1.34,26.25-7.65-.39,3.28-64.18Z"/><path d="M577.34,81.54l-1.4,6.7.18,0q6.72-6.69,16.33-4.68a17,17,0,0,1,7.3,3.36,10.11,10.11,0,0,1,3.59,7,16.28,16.28,0,0,1,7.23-4.46,17.45,17.45,0,0,1,8.66-.31,24.36,24.36,0,0,1,6.06,2,13.05,13.05,0,0,1,4.27,3.33,10.73,10.73,0,0,1,2.22,4.74,15.19,15.19,0,0,1-.16,6.26l-7,33.39-7.49-1.56,6.24-29.87a21.76,21.76,0,0,0,.48-4,8.42,8.42,0,0,0-.65-3.49A6.87,6.87,0,0,0,621,97.28a10.83,10.83,0,0,0-4.28-1.72q-5.55-1.16-9.39,1.35a11.7,11.7,0,0,0-4.94,7.8l-5.92,28.36L589,131.51l6.24-29.87a19.88,19.88,0,0,0,.45-4.13A8.74,8.74,0,0,0,595,94a6.47,6.47,0,0,0-2.15-2.66,10.22,10.22,0,0,0-4-1.62,11.32,11.32,0,0,0-5.87.15,13,13,0,0,0-7.37,5.77,11.51,11.51,0,0,0-1.35,3.17l-5.92,28.36-7.49-1.56,9.51-45.55Z"/><path d="M662.53,153.64l2.61-6.9-.17-.07a15.63,15.63,0,0,1-8.05,3.74,18.6,18.6,0,0,1-9-1.26,20.92,20.92,0,0,1-6.73-3.85,12.21,12.21,0,0,1-3.4-5,13,13,0,0,1-.59-5.95,28.64,28.64,0,0,1,1.73-6.71L649.71,99l7.15,2.71L645.71,131.2a9.27,9.27,0,0,0-.07,7.29,9.39,9.39,0,0,0,5.59,4.81,15.54,15.54,0,0,0,6.07,1.14,11.43,11.43,0,0,0,5.08-1.35,13.24,13.24,0,0,0,4-3.42,18.92,18.92,0,0,0,2.85-5.13L678.58,110l7.15,2.71-16.47,43.52Z"/><path d="M706.12,122.35l-3.44,6.53.16.08q8.16-5.25,17.32-.42a19.92,19.92,0,0,1,6.18,4.68,12.54,12.54,0,0,1,2.74,5.41,12.91,12.91,0,0,1-.15,6,28.77,28.77,0,0,1-2.53,6.44l-14.28,27.07-6.77-3.57,14.7-27.86a8.71,8.71,0,0,0-4-12.69,15.61,15.61,0,0,0-5.88-1.88,11.47,11.47,0,0,0-5.21.71,13.3,13.3,0,0,0-4.43,2.91,18.71,18.71,0,0,0-3.46,4.73l-12.26,23.25-6.77-3.57L699.76,119Z"/><path d="M741.48,213.89q-7.53,1.67-16.68-4.74a32.43,32.43,0,0,1-5-4.38,20.43,20.43,0,0,1-3.67-5.42,14.36,14.36,0,0,1-1.3-6.08,12,12,0,0,1,2-6.37l6.27,4.39a5.61,5.61,0,0,0-.94,3.62,9.53,9.53,0,0,0,1.09,3.62,14.14,14.14,0,0,0,2.39,3.26,20.42,20.42,0,0,0,3,2.6,14.19,14.19,0,0,0,6,2.6,12.08,12.08,0,0,0,5.61-.48,14.87,14.87,0,0,0,5.2-3.12,31,31,0,0,0,4.7-5.38l1.75-2.51-.14-.1a12.93,12.93,0,0,1-8.55,1.77A18.68,18.68,0,0,1,735.1,194a20.44,20.44,0,0,1-6.36-6.76,19.14,19.14,0,0,1-2.4-7.88,21.55,21.55,0,0,1,1.08-8.36,30.39,30.39,0,0,1,4.11-8.16,35.19,35.19,0,0,1,5.76-6.35,23,23,0,0,1,7.49-4.43,19.68,19.68,0,0,1,8.81-1,20.7,20.7,0,0,1,9.65,3.95,17.14,17.14,0,0,1,5.53,6.23,13.64,13.64,0,0,1,1.39,8.06l.07,0,3.82-5.46L780,168l-24.4,34.89Q749,212.23,741.48,213.89Zm4-22.74a12.6,12.6,0,0,0,5.87-.94,18.92,18.92,0,0,0,5.28-3.4,27.34,27.34,0,0,0,4.34-4.87,25.29,25.29,0,0,0,2.87-5.35,16.86,16.86,0,0,0,1.19-5.71,11.56,11.56,0,0,0-5.36-10.16,13.11,13.11,0,0,0-6-2.47,12.19,12.19,0,0,0-5.64.61,15.76,15.76,0,0,0-5.09,3,26.44,26.44,0,0,0-4.29,4.8,32.3,32.3,0,0,0-3.09,5.52,18.14,18.14,0,0,0-1.51,5.92,12.16,12.16,0,0,0,.95,5.72,11.6,11.6,0,0,0,4.26,4.9A12.51,12.51,0,0,0,745.47,191.15Z"/><path d="M788,237.18l20.78-45.07,6,6.06-18.29,36.62.13.12,36.44-18.37,5.65,5.68-45,20.77Z"/><path d="M834.36,237.92a21.67,21.67,0,0,1,8.76-1.37,20.37,20.37,0,0,1,8.46,2.4,26.07,26.07,0,0,1,12,15.33,20.63,20.63,0,0,1,.29,8.76,21.67,21.67,0,0,1-3.43,8.17,31.08,31.08,0,0,1-6.65,7.05,30.54,30.54,0,0,1-8.4,4.75,21.75,21.75,0,0,1-8.72,1.35,19.94,19.94,0,0,1-8.4-2.4,23.8,23.8,0,0,1-7.47-6.54,24.06,24.06,0,0,1-4.55-8.79,19.89,19.89,0,0,1-.35-8.76,21.85,21.85,0,0,1,3.39-8.15,30.56,30.56,0,0,1,6.62-7A31,31,0,0,1,834.36,237.92Zm-8.65,16.68a15.84,15.84,0,0,0-2.41,5.83,13.48,13.48,0,0,0,.21,5.73,14.08,14.08,0,0,0,6.94,8.85,13.43,13.43,0,0,0,5.51,1.57,15.61,15.61,0,0,0,6.24-.95A25.65,25.65,0,0,0,854,266.36a16.26,16.26,0,0,0,2.44-5.86,13.3,13.3,0,0,0-.17-5.76,14.15,14.15,0,0,0-6.94-8.85,13.38,13.38,0,0,0-5.55-1.54,16.09,16.09,0,0,0-6.27,1,25.65,25.65,0,0,0-11.83,9.27Z"/><path d="M883,280.82l-6.34,3.8.1.15q9.71-.25,15,8.62a19.93,19.93,0,0,1,2.85,7.22,12.68,12.68,0,0,1-.46,6.05,13.17,13.17,0,0,1-3.23,5,29,29,0,0,1-5.52,4.19L859.18,331.6,855.25,325l27-16.19a9.23,9.23,0,0,0,4.58-5.67,9.35,9.35,0,0,0-1.4-7.24,15.53,15.53,0,0,0-4.05-4.66,11.23,11.23,0,0,0-4.82-2.09,13,13,0,0,0-5.29.18,18.7,18.7,0,0,0-5.42,2.25l-22.55,13.5-3.93-6.56,39.92-23.91Z"/><path d="M938,349.71l-26.08,9.12,11.17,31.94,26.08-9.12,2.82,8.07-60.65,21.21-2.83-8.07,27.79-9.71L905.1,361.21l-27.78,9.71-2.82-8.07,60.66-21.21Z"/><path d="M891.19,440.59a49.2,49.2,0,0,1-6.18-1.45,15.76,15.76,0,0,1-4.32-2.05,9.73,9.73,0,0,1-2.82-3,13.5,13.5,0,0,1-1.56-4.23,19.85,19.85,0,0,1-.36-2.68,12,12,0,0,1,.09-2.68l6.88-1.41a12.93,12.93,0,0,0-.29,2.4,9.84,9.84,0,0,0,.13,2.23,6.55,6.55,0,0,0,1.89,3.61,7,7,0,0,0,3.61,1.69l8.3,1.52,41.62-27.36,1.73,8.47-34.57,20.95,0,.17,39.91,5.15,1.63,7.94Z"/><path d="M949,467.93l-6.28.51,0,.18a11.48,11.48,0,0,1,6.09,5.46,22.24,22.24,0,0,1,2.48,8.74,21.14,21.14,0,0,1-1.2,9.53,19.27,19.27,0,0,1-4.79,7.08,23.7,23.7,0,0,1-7.44,4.63,31.61,31.61,0,0,1-9.21,2.11,33.09,33.09,0,0,1-9.44-.53,22,22,0,0,1-8-3.32,18.51,18.51,0,0,1-5.7-6.21,21.54,21.54,0,0,1-2.65-9.13,22.62,22.62,0,0,1,0-3.84,22,22,0,0,1,.82-4.27,16.34,16.34,0,0,1,1.88-4.08,12.37,12.37,0,0,1,3.2-3.38v-.18l-23.86,2-.63-7.63,64-5.27Zm-14.21,28.75a17.15,17.15,0,0,0,5.31-3.05,12.66,12.66,0,0,0,3.48-4.81,13.64,13.64,0,0,0,.91-6.53A12.61,12.61,0,0,0,938,471.8a16.56,16.56,0,0,0-5.8-2,26.7,26.7,0,0,0-6.44-.24,27.08,27.08,0,0,0-6.52,1.35,16.33,16.33,0,0,0-5.4,3,13.12,13.12,0,0,0-3.53,4.85,14.21,14.21,0,0,0-.92,6.85,13,13,0,0,0,2.07,6.47,12.28,12.28,0,0,0,4.38,3.92,17.54,17.54,0,0,0,5.93,1.86,30.55,30.55,0,0,0,6.7.17A23.37,23.37,0,0,0,934.76,496.68Z"/><path d="M907,548.23c-2.49-3.58-3.63-8-3.41-13.29a24,24,0,0,1,2.2-9.59,19.12,19.12,0,0,1,5.33-6.67,21.26,21.26,0,0,1,7.91-3.86,37.3,37.3,0,0,1,9.86-1.16,27.92,27.92,0,0,1,9.65,2,23.22,23.22,0,0,1,7.45,4.86,20.69,20.69,0,0,1,4.75,7.13,21.2,21.2,0,0,1,1.43,8.85,19.12,19.12,0,0,1-3,10.19,20.42,20.42,0,0,1-6.8,6.29,25.71,25.71,0,0,1-8.77,3,36.87,36.87,0,0,1-8.93.4l1.45-34.8a18.41,18.41,0,0,0-5.83.47,13.3,13.3,0,0,0-5,2.41,12.85,12.85,0,0,0-3.56,4.45,15.69,15.69,0,0,0-1.53,6.51,13.23,13.23,0,0,0,1.91,8,10.91,10.91,0,0,0,6.67,4.38l-.32,7.55Q910.76,553.61,907,548.23Zm29.93-.59a13.28,13.28,0,0,0,4.3-2.62,13.11,13.11,0,0,0,4.22-9.23,13.28,13.28,0,0,0-.82-5.4,12.32,12.32,0,0,0-2.66-4.21,13.62,13.62,0,0,0-4.07-2.87,15.7,15.7,0,0,0-5-1.38l-1.11,26.71A15.78,15.78,0,0,0,936.94,547.64Z"/><path d="M947.69,575.21,938,573.86l0,.18a20.8,20.8,0,0,1,7.36,7.92,17.27,17.27,0,0,1,1.09,10.51l-8-1.11a22,22,0,0,0-.18-7.93,12.42,12.42,0,0,0-2.94-5.67,15.29,15.29,0,0,0-5.45-3.66,31.67,31.67,0,0,0-7.77-2l-20.5-2.83,1.05-7.58,46.09,6.36Z"/><path d="M931.15,595.18a21.76,21.76,0,0,1,6.53,6,20.28,20.28,0,0,1,3.39,8.12,26.08,26.08,0,0,1-4.5,19,20.4,20.4,0,0,1-6.67,5.68,21.66,21.66,0,0,1-8.53,2.41,30.94,30.94,0,0,1-9.66-.81,30.38,30.38,0,0,1-9-3.61,21.65,21.65,0,0,1-6.48-6,19.87,19.87,0,0,1-3.36-8.06,26.67,26.67,0,0,1,4.5-19,20,20,0,0,1,6.63-5.73,21.79,21.79,0,0,1,8.49-2.42,30.46,30.46,0,0,1,9.62.8A31.09,31.09,0,0,1,931.15,595.18Zm-18.44,3.62a15.79,15.79,0,0,0-6.06,1.75,13.52,13.52,0,0,0-4.35,3.73,14.09,14.09,0,0,0-2.6,11,13.31,13.31,0,0,0,2.21,5.29,15.72,15.72,0,0,0,4.62,4.29,25.65,25.65,0,0,0,14.63,3.47,16.15,16.15,0,0,0,6.1-1.74,13.34,13.34,0,0,0,4.4-3.72,14.08,14.08,0,0,0,2.6-10.94,13.1,13.1,0,0,0-2.26-5.3,15.94,15.94,0,0,0-4.67-4.3,25.54,25.54,0,0,0-14.62-3.48Z"/><path d="M944.23,667l-22.47-8.52-.06.17a11.37,11.37,0,0,1,3.15,7.54,22.29,22.29,0,0,1-1.51,9,21.1,21.1,0,0,1-5.19,8.09,19.16,19.16,0,0,1-7.37,4.33,23.82,23.82,0,0,1-8.7,1,31.78,31.78,0,0,1-9.23-2.05,33.11,33.11,0,0,1-8.29-4.54,22.11,22.11,0,0,1-5.79-6.43,18.79,18.79,0,0,1-2.48-8.06,21.55,21.55,0,0,1,1.54-9.38,22.64,22.64,0,0,1,1.69-3.45,21.61,21.61,0,0,1,2.58-3.5,16.11,16.11,0,0,1,3.45-2.88,12.43,12.43,0,0,1,4.34-1.68l.07-.16-5.81-2.21,2.71-7.15L947,659.88Zm-41.77,13.57a17.18,17.18,0,0,0,6.11-.48,12.82,12.82,0,0,0,5.21-2.84,13.58,13.58,0,0,0,3.63-5.5,12.59,12.59,0,0,0-1.29-12.23,16.35,16.35,0,0,0-4.38-4.31,27.26,27.26,0,0,0-12.17-4.57,16.37,16.37,0,0,0-6.17.4,13.16,13.16,0,0,0-5.27,2.86,14.22,14.22,0,0,0-3.79,5.79,13.1,13.1,0,0,0-.91,6.73,12.31,12.31,0,0,0,2.27,5.43,17.68,17.68,0,0,0,4.56,4.23,31,31,0,0,0,6,3A24.43,24.43,0,0,0,902.46,680.61Z"/><path d="M851.79,683.05a11.33,11.33,0,0,1,1-8.56,19.5,19.5,0,0,1,2-3.33l5.9,2.88q-.27.36-.45.63a5.22,5.22,0,0,0-.34.58l-.71,1.46q-1.1,2.26-.24,3.69c.58.94,1.94,1.94,4.1,3l46,22.37-3.34,6.88-47.1-22.92C854.88,687.91,852.6,685.68,851.79,683.05Zm64.78,26.37,8.42,4.1-3.35,6.88-8.42-4.1Z"/><path d="M845.07,731.71q-.74-6.51,3.32-13.32a23.87,23.87,0,0,1,6.49-7.39,19.09,19.09,0,0,1,7.86-3.34,21.4,21.4,0,0,1,8.79.37,37,37,0,0,1,9.23,3.66,28.16,28.16,0,0,1,7.53,6.36,23.21,23.21,0,0,1,4.24,7.82,20.71,20.71,0,0,1,.79,8.54,21.42,21.42,0,0,1-2.94,8.46,19.12,19.12,0,0,1-7.48,7.54,20.47,20.47,0,0,1-9,2.31,25.83,25.83,0,0,1-9.17-1.49,36.69,36.69,0,0,1-8-3.9l17.82-29.92a18.26,18.26,0,0,0-5.36-2.35,12.7,12.7,0,0,0-10.76,2,15.85,15.85,0,0,0-4.44,5,13.21,13.21,0,0,0-2.14,8,10.87,10.87,0,0,0,3.78,7l-3.87,6.5Q845.8,738.22,845.07,731.71Zm26.62,13.7A13.06,13.06,0,0,0,884.81,739a13.34,13.34,0,0,0,1.85-5.13,12.52,12.52,0,0,0-.34-5,13.52,13.52,0,0,0-2.22-4.46,15.81,15.81,0,0,0-3.77-3.61l-13.68,23A16,16,0,0,0,871.69,745.41Z"/><path d="M881.12,787.06l-30.23-23.14,3.24,29.23-6.23,8.15-2.23-24.94-35.54-2.27,5.9-7.72,29,2.12-.91-9.77-14-10.72,4.65-6.07,51,39.05Z"/><path d="M827.55,823.16l-5-4.57,6.28-6.82L807.6,792.2a8.34,8.34,0,0,0-1.74-1.29,2.24,2.24,0,0,0-1.51-.23,3.92,3.92,0,0,0-1.62.9,27.87,27.87,0,0,0-2.08,2.06l-2.37,2.58-5-4.57,4-4.3a27.17,27.17,0,0,1,3.74-3.47,7.41,7.41,0,0,1,3.41-1.51A6.23,6.23,0,0,1,808,783a17.28,17.28,0,0,1,4.27,3.07l21.79,20,5.36-5.83,5,4.57L839,810.71l10.26,9.44-5.18,5.63-10.26-9.44Z"/><path d="M766.05,821.12q1.23-6.43,7.11-11.74a23.83,23.83,0,0,1,8.39-5.15,19,19,0,0,1,8.48-.86,21.43,21.43,0,0,1,8.3,2.94,36.78,36.78,0,0,1,7.73,6.23,27.78,27.78,0,0,1,5.31,8.3,23.24,23.24,0,0,1,1.75,8.73,20.57,20.57,0,0,1-1.77,8.38,21.21,21.21,0,0,1-5.31,7.22,19.14,19.14,0,0,1-9.37,5,20.44,20.44,0,0,1-9.25-.44,25.87,25.87,0,0,1-8.33-4.13,37.25,37.25,0,0,1-6.53-6.1l25.86-23.33a18.32,18.32,0,0,0-4.42-3.83,13.09,13.09,0,0,0-5.19-1.86,13,13,0,0,0-5.67.57,15.78,15.78,0,0,0-5.72,3.46,13.22,13.22,0,0,0-4.41,7,10.83,10.83,0,0,0,1.54,7.82l-5.62,5.06Q764.84,827.55,766.05,821.12Zm21.38,21a12.95,12.95,0,0,0,9.82.54,13,13,0,0,0,4.6-2.76,13.36,13.36,0,0,0,3.29-4.35,12.51,12.51,0,0,0,1.14-4.85,13.72,13.72,0,0,0-.8-4.92,15.82,15.82,0,0,0-2.54-4.56l-19.85,17.91A16,16,0,0,0,787.43,842.07Z"/><path d="M774.54,869.78l-4.24-6-.15.1q1,9.66-7.5,15.62a20.24,20.24,0,0,1-7,3.37,12.57,12.57,0,0,1-6.07,0,13,13,0,0,1-5.25-2.85,28.86,28.86,0,0,1-4.59-5.2l-17.61-25,6.26-4.4,18.13,25.76a9.24,9.24,0,0,0,6,4.14,9.36,9.36,0,0,0,7.12-1.92A15.82,15.82,0,0,0,764,869a11.4,11.4,0,0,0,1.73-5,12.89,12.89,0,0,0-.57-5.26,18.71,18.71,0,0,0-2.64-5.24L747.4,832l6.26-4.4,26.77,38.06Z"/><path d="M708.12,869.18l-5-8.67,8.66-5,5,8.67Z"/></svg>