<svg id="Ebene_1" data-name="Ebene 1" xmlns="http://www.w3.org/2000/svg" viewBox="0 0 1000 1000"><path d="M235.06,848.05l25.66,18.73-7,9.6-40.85-29.83,6.58-9,52.15-13L243,803.71l7-9.59,43.75,32-6.58,9Z"/><path d="M218.19,762.92l-16.42,27.83.13.12,27.79-16.29L239,784l-22.76,43.18-9.48-9.61,16.49-28.27-.13-.13-27.92,16.68L186.45,797l16.87-27.76-.13-.12-28.43,16-9.22-9.36L209,753.56Z"/><path d="M180.49,735.42q.58-4-2.58-8.34a11.42,11.42,0,0,0-5.46-4.28,8.06,8.06,0,0,0-5.32-.38l-6.58-9.12q8.37-2.7,14.55-.28a24.39,24.39,0,0,1,10.82,8.84,26.76,26.76,0,0,1,4.36,9.06,20.57,20.57,0,0,1,.32,9,22.44,22.44,0,0,1-3.52,8.36A28.43,28.43,0,0,1,180,755.4a27.21,27.21,0,0,1-8.88,4.3,22.55,22.55,0,0,1-17.75-2.47,24.1,24.1,0,0,1-7.19-6.74,22.09,22.09,0,0,1-4.19-9.74,20.72,20.72,0,0,1,.76-9.48,25.48,25.48,0,0,1,4.76-8.48A33,33,0,0,1,155.4,716L175,743.24Q179.92,739.39,180.49,735.42Zm-28.3,2.6q-.7,3.33,2,7.13a11.1,11.1,0,0,0,3.81,3.52,9.73,9.73,0,0,0,4,1.13,9.41,9.41,0,0,0,3.63-.51,14.34,14.34,0,0,0,2.82-1.31L156.3,731.11A14.76,14.76,0,0,0,152.19,738Z"/><path d="M122.54,725.61,113.47,731l-6.49-11,9.07-5.34Zm-.29-14.67,40.09-23.62,6.49,11L128.74,722Z"/><path d="M104.82,677.47l7.64-3.83,4.2,8.36,20.59-10.34q2.9-1.44,3.38-2.9c.32-1,0-2.41-1-4.34a20.43,20.43,0,0,0-1-1.81,18,18,0,0,0-1.09-1.57l8.84-4.44a28.37,28.37,0,0,1,1.94,3c.65,1.16,1.25,2.29,1.82,3.42a38.16,38.16,0,0,1,2.16,5.21,13.34,13.34,0,0,1,.69,4.89,8.31,8.31,0,0,1-1.54,4.35,12,12,0,0,1-4.54,3.59l-24.54,12.31,3.48,6.92-7.64,3.84-3.48-6.92-12.46,6.26L96.55,692.1,109,685.84Z"/><path d="M129,643.71q1.58-3.68-.34-8.73a11.43,11.43,0,0,0-4.17-5.53,8,8,0,0,0-5-1.74l-4-10.52q8.79-.45,14.13,3.49A24.35,24.35,0,0,1,137.71,632a26.59,26.59,0,0,1,1.88,9.88,20.7,20.7,0,0,1-2,8.76,22.71,22.71,0,0,1-5.56,7.17,28.34,28.34,0,0,1-8.66,5.07,27,27,0,0,1-9.69,1.86,22.45,22.45,0,0,1-16.52-7,24.11,24.11,0,0,1-5.2-8.37,22.17,22.17,0,0,1-1.54-10.49,20.7,20.7,0,0,1,3.19-9,25.49,25.49,0,0,1,6.78-7,33.28,33.28,0,0,1,9.36-4.52l11.94,31.38Q127.38,647.4,129,643.71Zm-28-4.79q-1.53,3,.13,7.41a11.13,11.13,0,0,0,2.77,4.39,9.61,9.61,0,0,0,3.55,2.11,9.26,9.26,0,0,0,3.64.45,15.3,15.3,0,0,0,3.07-.54l-7.4-19.43A14.79,14.79,0,0,0,101,638.92Z"/><path d="M113.29,598.1a7.35,7.35,0,0,0,1.83-2.72,9.41,9.41,0,0,0,.61-3.35,14.28,14.28,0,0,0-.43-3.65,13.28,13.28,0,0,0-1-2.68,9.63,9.63,0,0,0-1.6-2.38,6.2,6.2,0,0,0-2.24-1.54,4.76,4.76,0,0,0-2.94-.11c-1.87.46-3,2.05-3.28,4.75a76.72,76.72,0,0,0-.24,11.05c0,1.9,0,3.78-.14,5.64a18.47,18.47,0,0,1-1.06,5.13,10.86,10.86,0,0,1-2.61,4.07,9.94,9.94,0,0,1-4.72,2.46,13.92,13.92,0,0,1-7.58.06,12.86,12.86,0,0,1-5.53-3.41,20.35,20.35,0,0,1-3.82-5.73,39.89,39.89,0,0,1-2.42-7,36.34,36.34,0,0,1-1.06-7.3,19.48,19.48,0,0,1,.84-6.74,14.57,14.57,0,0,1,3.3-5.59,15.3,15.3,0,0,1,6.42-3.85L88.54,587c-2.34.76-3.74,2.06-4.18,3.9a12.74,12.74,0,0,0,.16,6.08,20.75,20.75,0,0,0,.69,2.24,8,8,0,0,0,1.11,2.09A4.73,4.73,0,0,0,88,602.71a3.44,3.44,0,0,0,2.4.15A3.49,3.49,0,0,0,92.82,601a9.8,9.8,0,0,0,.92-3.61,43.59,43.59,0,0,0,.07-4.79c-.07-1.78-.11-3.59-.14-5.44a55.75,55.75,0,0,1,.18-5.65A18,18,0,0,1,95,576.32a11.6,11.6,0,0,1,2.78-4.12,10.85,10.85,0,0,1,5-2.52,14.09,14.09,0,0,1,13.91,3.42,19.73,19.73,0,0,1,4.21,6,39.77,39.77,0,0,1,2.6,7.37,38.07,38.07,0,0,1,1.11,7.88,20.85,20.85,0,0,1-1,7.34A14.76,14.76,0,0,1,113,611.57L110,599.78A7,7,0,0,0,113.29,598.1Z"/><path d="M47.66,524.23l26.62-1.14-27.69-24-.75-17.62,26.42,24,37.67-29.17.76,17.71-28,20.56,8.53,7.75,20.68-.88.6,14.11-64.2,2.74Z"/><path d="M78.74,471.46a14.84,14.84,0,0,1-7.2-3A15.3,15.3,0,0,1,67.29,463a21.91,21.91,0,0,1-1.86-7.11,39.15,39.15,0,0,1,0-7.73,53,53,0,0,1,1.21-7,21.87,21.87,0,0,1,2.58-6.34,13.06,13.06,0,0,1,4.47-4.43,11.24,11.24,0,0,1,7-1.2l24.09,2.43a48,48,0,0,0,6,.24,10.78,10.78,0,0,0,4.42-.82l-1.3,12.9a21.08,21.08,0,0,1-2.25.36,19.66,19.66,0,0,1-2.31.08,16.72,16.72,0,0,1,3.66,7.61,28.79,28.79,0,0,1,.41,8.54,22.79,22.79,0,0,1-1.43,6.1,14.27,14.27,0,0,1-3,4.76,11.73,11.73,0,0,1-4.64,2.92,14.47,14.47,0,0,1-6.3.59,13.46,13.46,0,0,1-6.35-2,11.76,11.76,0,0,1-3.72-4,16.19,16.19,0,0,1-1.77-5.25,54,54,0,0,1-.64-5.81c-.11-1.94-.16-3.84-.15-5.71a34.31,34.31,0,0,0-.31-5,8.62,8.62,0,0,0-1.22-3.56A3.47,3.47,0,0,0,81,442a6.7,6.7,0,0,0-3.33.34,4.9,4.9,0,0,0-2.06,1.6,7.17,7.17,0,0,0-1.16,2.51,20.64,20.64,0,0,0-.54,3.15,9.69,9.69,0,0,0,1,6.08q1.39,2.31,5.12,3ZM91.1,443a5.62,5.62,0,0,1,.92,2.12,21.06,21.06,0,0,1,.41,2.67c.09.94.14,1.93.15,2.95s.07,2.06.15,3.09a21.81,21.81,0,0,0,.43,2.9,8.28,8.28,0,0,0,1,2.54,6,6,0,0,0,1.76,1.85,6.32,6.32,0,0,0,2.89.92,5.94,5.94,0,0,0,2.93-.34,4.83,4.83,0,0,0,2-1.51,7.2,7.2,0,0,0,1.19-2.42,15.35,15.35,0,0,0,.57-2.93,11.28,11.28,0,0,0-.67-5.94,8.46,8.46,0,0,0-2.69-3.35A9.73,9.73,0,0,0,98.69,444a26.3,26.3,0,0,0-2.84-.52Z"/><path d="M73.73,402.28l5.78,1.36,0-.17a14,14,0,0,1-4-7.05,18.21,18.21,0,0,1,.15-8.1,20.19,20.19,0,0,1,4.19-8.72,19.52,19.52,0,0,1,6.85-5.13,23.16,23.16,0,0,1,8.64-1.94,35.37,35.37,0,0,1,9.53,1,31.67,31.67,0,0,1,8.47,3.29,23,23,0,0,1,6.57,5.48,19,19,0,0,1,3.7,7.44,19.41,19.41,0,0,1-.13,9.17,18.24,18.24,0,0,1-3.54,7.35,15.08,15.08,0,0,1-6.41,4.63l0,.18L135,416.1l-2.94,12.43L70.94,414.1Zm39.73-7.69a10.41,10.41,0,0,0-2.41-4.08,13.5,13.5,0,0,0-4.18-2.88,28.46,28.46,0,0,0-5.22-1.79,26.68,26.68,0,0,0-5.47-.69,14.69,14.69,0,0,0-5.13.78,10.78,10.78,0,0,0-4.13,2.58,9.76,9.76,0,0,0-2.46,4.74,9.89,9.89,0,0,0,.06,5.42,10.45,10.45,0,0,0,2.5,4.11,14.08,14.08,0,0,0,4.22,2.89,28.62,28.62,0,0,0,5.31,1.81,25.37,25.37,0,0,0,5.47.69,14.46,14.46,0,0,0,5-.75,10.9,10.9,0,0,0,6.4-12.83Z"/><path d="M78.9,355.33l-10-3.39,4.12-12.1,10,3.39Zm10.94-9.78,44,15-4.12,12.09-44-15Z"/><path d="M103.86,310.53l7.88,3.3-3.6,8.63,21.26,8.88q3,1.26,4.4.67c.94-.39,1.83-1.57,2.66-3.57.28-.66.52-1.31.72-1.94a17.43,17.43,0,0,0,.48-1.85l9.13,3.81a30.77,30.77,0,0,1-1,3.47q-.69,1.86-1.41,3.6a38.23,38.23,0,0,1-2.54,5,13.47,13.47,0,0,1-3.26,3.71,8.35,8.35,0,0,1-4.31,1.66,11.83,11.83,0,0,1-5.68-1.1l-25.33-10.58-3,7.14-7.89-3.3,3-7.14-12.87-5.38,4.93-11.79,12.87,5.38Z"/><path d="M145.2,306.85q3.83-1.2,6.4-6a11.38,11.38,0,0,0,1.47-6.78,8,8,0,0,0-2-5l5.37-9.88q6.06,6.36,6.57,13a24.38,24.38,0,0,1-3.27,13.58,26.71,26.71,0,0,1-6.27,7.87,20.48,20.48,0,0,1-7.95,4.18,22.46,22.46,0,0,1-9.06.47A28.59,28.59,0,0,1,127,315.1a27.14,27.14,0,0,1-7.73-6.14,22.43,22.43,0,0,1-5.49-17.06,24,24,0,0,1,3-9.4,22.2,22.2,0,0,1,7-8,20.64,20.64,0,0,1,8.87-3.42,25.23,25.23,0,0,1,9.7.6,32.85,32.85,0,0,1,9.53,4.15l-16,29.5C139.51,307.14,142.64,307.65,145.2,306.85Zm-14.63-24.37q-3.31.81-5.54,4.93a11,11,0,0,0-1.52,5,9.66,9.66,0,0,0,.71,4.07,9.41,9.41,0,0,0,2,3.05,15.06,15.06,0,0,0,2.41,2l9.92-18.27A14.69,14.69,0,0,0,130.57,282.48Z"/><path d="M127.13,234l53.49,35.61-7.08,10.64L120,244.6Z"/><path d="M160.85,242.36,149.78,234l8.51-11.29,11.07,8.35Zm22.88-.45,11.06,8.35-8.5,11.28-11.07-8.34Z"/><path d="M189,161.41q10.83-10.17,21.84-10.15t21.62,11.3A52.43,52.43,0,0,1,241,174.25a26.91,26.91,0,0,1,3.15,11.49,24.31,24.31,0,0,1-2.55,11.35A38.5,38.5,0,0,1,233,208.23l-16.06,15.1-44-46.81Zm39.62,41.08c.7-.66,1.52-1.54,2.46-2.63a20.32,20.32,0,0,0,2.61-3.93,21.18,21.18,0,0,0,1.81-5.1,16.14,16.14,0,0,0,.09-6.14,24.55,24.55,0,0,0-2.51-7.22,36.76,36.76,0,0,0-6.05-8.2,42.86,42.86,0,0,0-7.88-6.74,19.82,19.82,0,0,0-8-3.11,16.22,16.22,0,0,0-8.15,1,26.4,26.4,0,0,0-8.42,5.63l-10.49,9.87,34.16,36.32Z"/><path d="M286.58,161.61q-2,6.25-8.43,10.84a23.86,23.86,0,0,1-8.93,4.12,19,19,0,0,1-8.53-.12,21.54,21.54,0,0,1-7.9-3.9,37.22,37.22,0,0,1-7-7.09,28.09,28.09,0,0,1-4.3-8.86,23.25,23.25,0,0,1-.72-8.87,20.65,20.65,0,0,1,2.74-8.12,21,21,0,0,1,6.12-6.54,19,19,0,0,1,9.88-3.87,20.43,20.43,0,0,1,9.14,1.51,26.11,26.11,0,0,1,7.79,5.08,36.88,36.88,0,0,1,5.78,6.82l-28.41,20.15a18.38,18.38,0,0,0,3.94,4.32,13.09,13.09,0,0,0,4.94,2.45,12.85,12.85,0,0,0,5.7.1,16,16,0,0,0,6.09-2.77,13.28,13.28,0,0,0,5.19-6.45,10.89,10.89,0,0,0-.61-7.95l6.16-4.37Q288.54,155.37,286.58,161.61Zm-18.79-23.3a13,13,0,0,0-14.59.52,13.5,13.5,0,0,0-3.77,3.94,12.46,12.46,0,0,0-1.69,4.69,13.27,13.27,0,0,0,.22,5,15.6,15.6,0,0,0,2,4.82l21.8-15.46A15.73,15.73,0,0,0,267.79,138.31Z"/><path d="M283,112.93l4.88,8.51.16-.09a20.64,20.64,0,0,1,1.77-10.66,17.09,17.09,0,0,1,7.64-7.29l4,7a21.83,21.83,0,0,0-6.17,5,12.35,12.35,0,0,0-2.69,5.8,15.24,15.24,0,0,0,.43,6.55,31.92,31.92,0,0,0,3.18,7.35l10.3,18L300,156.88,276.8,116.51Z"/><path d="M337.68,66.53l36.53,44.62,1.91-57.67,11.08-3.76,20.65,60.85-7.67,2.6L383,62.55l-.17.06L381,119.68,374.1,122,337.91,77.85l-.17.06,17.19,50.62-7.67,2.61L326.6,70.29Z"/><path d="M450.37,100.35q-4.46,4.8-12.26,6.16a23.77,23.77,0,0,1-9.84-.11,19,19,0,0,1-7.65-3.78,21.27,21.27,0,0,1-5.45-6.9,36.85,36.85,0,0,1-3.24-9.39,28,28,0,0,1-.08-9.86A23,23,0,0,1,415,68.16,20.35,20.35,0,0,1,421,62a21.21,21.21,0,0,1,8.33-3.29,19.14,19.14,0,0,1,10.59.75,20.49,20.49,0,0,1,7.6,5.3,25.93,25.93,0,0,1,4.86,7.92,37.62,37.62,0,0,1,2.28,8.65l-34.31,6A18.3,18.3,0,0,0,422,92.92a13.11,13.11,0,0,0,3.41,4.34,12.74,12.74,0,0,0,5.1,2.53,15.71,15.71,0,0,0,6.69.11,13.22,13.22,0,0,0,7.46-3.58,10.89,10.89,0,0,0,2.85-7.45l7.45-1.3C454.88,92.89,453.35,97.15,450.37,100.35Zm-7-29.12a13,13,0,0,0-3.47-3.64,13.77,13.77,0,0,0-15-.21,12.18,12.18,0,0,0-3.54,3.5,13.39,13.39,0,0,0-1.94,4.59,15.87,15.87,0,0,0-.28,5.21l26.33-4.6A15.65,15.65,0,0,0,443.41,71.23Z"/><path d="M469.07,54.61l.39,7.37h.18q4.32-8.7,14.65-9.25a20.24,20.24,0,0,1,7.71.86,12.61,12.61,0,0,1,5.13,3.24A12.9,12.9,0,0,1,500.06,62a28.58,28.58,0,0,1,1.13,6.83l1.63,30.56-7.64.4-1.67-31.45a9.3,9.3,0,0,0-2.88-6.7,9.4,9.4,0,0,0-7.06-2.15,15.55,15.55,0,0,0-6,1.4,11.55,11.55,0,0,0-4.1,3.28A13.26,13.26,0,0,0,471.14,69a18.74,18.74,0,0,0-.54,5.84L472,101.05l-7.64.41L461.88,55Z"/><path d="M519.06,89.61a8.12,8.12,0,0,0,2.65,3,12.46,12.46,0,0,0,3.86,1.73,22.24,22.24,0,0,0,4.51.74,26.78,26.78,0,0,0,3.79,0,13.66,13.66,0,0,0,3.7-.75,6.94,6.94,0,0,0,2.87-1.94,5.6,5.6,0,0,0,1.3-3.48,5.07,5.07,0,0,0-2-4.63,18.94,18.94,0,0,0-5.45-2.83c-2.21-.77-4.62-1.5-7.22-2.17a38.49,38.49,0,0,1-7.18-2.62,15.08,15.08,0,0,1-5.37-4.27,10.16,10.16,0,0,1-1.8-7.14,11.11,11.11,0,0,1,2-5.92,12.73,12.73,0,0,1,4.3-3.83,18.19,18.19,0,0,1,5.72-2,25.51,25.51,0,0,1,6.2-.38,37,37,0,0,1,7.23,1.14,16.69,16.69,0,0,1,5.73,2.71,12.07,12.07,0,0,1,3.81,4.75,17.2,17.2,0,0,1,1.34,7.16l-7.63-.48a7.92,7.92,0,0,0-.93-3.81A7.75,7.75,0,0,0,538.12,62a11.33,11.33,0,0,0-3.28-1.52,17.28,17.28,0,0,0-3.7-.64,22.54,22.54,0,0,0-3.48,0,11.45,11.45,0,0,0-3.25.74A6.55,6.55,0,0,0,522,62.29a4.58,4.58,0,0,0-1.08,2.86,4.31,4.31,0,0,0,1.19,3.37,11.23,11.23,0,0,0,3.41,2.38,30.49,30.49,0,0,0,4.76,1.74q2.65.77,5.31,1.56a57.56,57.56,0,0,1,5.51,1.88,18,18,0,0,1,4.7,2.69,11.59,11.59,0,0,1,3.18,3.94,11,11,0,0,1,.95,5.65,12.93,12.93,0,0,1-2.2,6.9,13.68,13.68,0,0,1-4.86,4.2,19,19,0,0,1-6.53,2,37.56,37.56,0,0,1-7.09.23,32.37,32.37,0,0,1-7.32-1.28,18,18,0,0,1-6-3,13.52,13.52,0,0,1-4-5.12,16.76,16.76,0,0,1-1.33-7.44l7.63.49A8.53,8.53,0,0,0,519.06,89.61Z"/><path d="M589.89,69.93a11.65,11.65,0,0,0-7.19-3.77,14.29,14.29,0,0,0-7.09.28,12.47,12.47,0,0,0-5.1,3.19,17.13,17.13,0,0,0-3.38,5.3,31.26,31.26,0,0,0-1.91,6.56,25.48,25.48,0,0,0-.37,6.33,16.85,16.85,0,0,0,1.38,5.78,12.07,12.07,0,0,0,3.49,4.52,12.72,12.72,0,0,0,5.85,2.52q5.58,1,9.26-1.35a13.47,13.47,0,0,0,5.33-7.55l7.71,1.39q-2.77,8.28-8.7,12t-14.69,2.11a24.36,24.36,0,0,1-9-3.35,18.26,18.26,0,0,1-5.87-6,21,21,0,0,1-2.74-8.13,31.24,31.24,0,0,1,.33-9.68,33.91,33.91,0,0,1,3-9.37,22.74,22.74,0,0,1,5.44-7.07,19.33,19.33,0,0,1,7.72-4,22.51,22.51,0,0,1,9.82-.19,27.75,27.75,0,0,1,7.14,2.25,18.15,18.15,0,0,1,5.5,4,15.84,15.84,0,0,1,3.41,5.69,18.36,18.36,0,0,1,.86,7.42l-7.8-1.4A11.6,11.6,0,0,0,589.89,69.93Z"/><path d="M627.63,52.45l-7.25,23.47.17.06A10.18,10.18,0,0,1,624,73.24a14.37,14.37,0,0,1,4.2-1.25,18.91,18.91,0,0,1,4.45-.08,20.76,20.76,0,0,1,4.22.83,20.2,20.2,0,0,1,6.93,3.46,12.62,12.62,0,0,1,3.7,4.82,13,13,0,0,1,1,5.9,28.36,28.36,0,0,1-1.3,6.8l-9,29.24-7.31-2.26,9.3-30.1a9.24,9.24,0,0,0-.39-7.28,9.38,9.38,0,0,0-5.88-4.45,15.63,15.63,0,0,0-6.12-.76,11.41,11.41,0,0,0-5,1.66A13.31,13.31,0,0,0,619,83.44a18.73,18.73,0,0,0-2.53,5.3l-7.75,25.11-7.31-2.26,19-61.4Z"/><path d="M706,154.85a10.84,10.84,0,0,1-5.41-1.51,6.58,6.58,0,0,1-3.42-3.66q-.78-2.3,1-5.64a18.32,18.32,0,0,1-9,1.43,24.27,24.27,0,0,1-8.78-2.71,24.58,24.58,0,0,1-5-3.41,14,14,0,0,1-3.3-4.27A10.74,10.74,0,0,1,671,130a13.59,13.59,0,0,1,1.69-5.87,13.74,13.74,0,0,1,4.2-5.11,11.72,11.72,0,0,1,5.05-2,16.45,16.45,0,0,1,5.57.22c1.93.4,3.85.89,5.77,1.49s4,1.25,5.74,1.94a32.87,32.87,0,0,0,4.85,1.51,8.41,8.41,0,0,0,3.82.07,4.19,4.19,0,0,0,2.64-2.33,7.68,7.68,0,0,0,1-4,6.54,6.54,0,0,0-1.08-3.2,9.83,9.83,0,0,0-2.45-2.5,24,24,0,0,0-3.1-1.92,16.19,16.19,0,0,0-8-2.12q-3.72.14-6.34,4.56l-6.78-3.54a16.5,16.5,0,0,1,5-5.63,13.68,13.68,0,0,1,6.06-2.27,18.32,18.32,0,0,1,6.7.5,32.74,32.74,0,0,1,6.95,2.72,44.31,44.31,0,0,1,5.34,3.3,16.39,16.39,0,0,1,4.13,4.23,10.79,10.79,0,0,1,1.78,5.34,12.44,12.44,0,0,1-1.68,6.52l-11.06,21.18a17.74,17.74,0,0,0-1.55,3.64c-.2.84.23,1.54,1.3,2.1a9.26,9.26,0,0,0,2.24.76Zm0-26.89a9.46,9.46,0,0,1-4.08-.37c-1.53-.43-3.1-.94-4.72-1.55s-3.25-1.2-4.92-1.76a19,19,0,0,0-4.75-1,8.44,8.44,0,0,0-4.17.7,7.11,7.11,0,0,0-3.25,3.41,6.05,6.05,0,0,0-.79,3.17,6.33,6.33,0,0,0,.78,2.78,8.42,8.42,0,0,0,2,2.35,16.06,16.06,0,0,0,2.87,1.9,18.14,18.14,0,0,0,6.22,2.08,13.51,13.51,0,0,0,5.11-.26,10.27,10.27,0,0,0,3.81-1.85,8.63,8.63,0,0,0,2.31-2.68Z"/><path d="M751.78,108.58l-34.33,54.33L711,158.82l34.33-54.32Z"/><path d="M737.45,163.73a8.24,8.24,0,0,0,.6,3.93,12.64,12.64,0,0,0,2.28,3.56,22.07,22.07,0,0,0,3.37,3.08,26.52,26.52,0,0,0,3.19,2,14,14,0,0,0,3.51,1.4,6.87,6.87,0,0,0,3.46-.05,5.7,5.7,0,0,0,3-2.2,5.11,5.11,0,0,0,.89-4.95,19.14,19.14,0,0,0-3-5.35q-2.13-2.79-4.85-5.77a37.72,37.72,0,0,1-4.57-6.12,15.12,15.12,0,0,1-2.16-6.51,10.15,10.15,0,0,1,2.4-7,11.24,11.24,0,0,1,4.88-3.88,12.75,12.75,0,0,1,5.69-.85,18.42,18.42,0,0,1,5.87,1.47,25.74,25.74,0,0,1,5.4,3.08,37,37,0,0,1,5.43,4.91,17,17,0,0,1,3.32,5.4,12.24,12.24,0,0,1,.58,6.06,17.2,17.2,0,0,1-2.79,6.73l-6.13-4.58a7.36,7.36,0,0,0,.72-7.11,11.53,11.53,0,0,0-1.93-3.07,17.5,17.5,0,0,0-2.74-2.56,23.63,23.63,0,0,0-2.94-1.86,11.77,11.77,0,0,0-3.12-1.16,6.55,6.55,0,0,0-3,0,4.56,4.56,0,0,0-2.47,1.8,4.34,4.34,0,0,0-.85,3.47,11.13,11.13,0,0,0,1.55,3.86,30.69,30.69,0,0,0,3,4.06q1.81,2.1,3.6,4.21a57.43,57.43,0,0,1,3.58,4.6,18,18,0,0,1,2.46,4.82,11.48,11.48,0,0,1,.5,5,11,11,0,0,1-2.29,5.25,13,13,0,0,1-5.62,4.57A13.68,13.68,0,0,1,752,185a19.16,19.16,0,0,1-6.54-1.92,37.67,37.67,0,0,1-6.06-3.69,33,33,0,0,1-5.43-5.07,18.32,18.32,0,0,1-3.38-5.85A13.58,13.58,0,0,1,730,162a16.81,16.81,0,0,1,3-6.95l6.12,4.58A8.65,8.65,0,0,0,737.45,163.73Z"/><path d="M836.15,177.83l-27.5,50.69,54.11-20,7.67,8.83-48.52,42.13-5.31-6.12,40.37-35-.12-.14L803.32,238l-4.78-5.5,27.22-50.2-.12-.14-40.37,35.05L780,211.12,828.48,169Z"/><path d="M870.44,250l-38.57,26-4.28-6.34,38.57-26Zm2.65-11,7.76-5.23,4.28,6.34-7.75,5.24Z"/><path d="M888,278.61l-5.81,3.44-4.72-8-24.86,14.72a8.51,8.51,0,0,0-1.75,1.29,2.23,2.23,0,0,0-.65,1.38,3.92,3.92,0,0,0,.39,1.81,27.06,27.06,0,0,0,1.38,2.58l1.79,3L848,302.31l-3-5a27.19,27.19,0,0,1-2.24-4.59,7.5,7.5,0,0,1-.47-3.7,6.39,6.39,0,0,1,1.65-3.22,17.7,17.7,0,0,1,4.17-3.2l25.48-15.08-4-6.82,5.81-3.44,4,6.82,12-7.1,3.89,6.58-12,7.1Z"/><path d="M901.93,305.76l-6,3-4.16-8.29-25.82,13a8.44,8.44,0,0,0-1.83,1.16,2.21,2.21,0,0,0-.74,1.33,3.77,3.77,0,0,0,.26,1.84,25.77,25.77,0,0,0,1.19,2.67l1.58,3.14-6,3-2.62-5.22a27.64,27.64,0,0,1-1.92-4.73,7.52,7.52,0,0,1-.21-3.72,6.41,6.41,0,0,1,1.87-3.11,17.88,17.88,0,0,1,4.38-2.9l26.47-13.28-3.55-7.08,6-3,3.55,7.08,12.47-6.26,3.43,6.84-12.46,6.25Z"/><path d="M878.22,362.54q-5.6-3.44-8.46-10.81a24.06,24.06,0,0,1-1.84-9.67,19,19,0,0,1,2.2-8.24,21.45,21.45,0,0,1,5.69-6.71,37.42,37.42,0,0,1,8.57-5,28.14,28.14,0,0,1,9.65-2,23.32,23.32,0,0,1,8.78,1.46,20.64,20.64,0,0,1,7.21,4.63,21.05,21.05,0,0,1,4.86,7.52,19.16,19.16,0,0,1,1.35,10.54,20.53,20.53,0,0,1-3.69,8.49,26,26,0,0,1-6.82,6.32,37.22,37.22,0,0,1-8,4l-12.64-32.46a18.35,18.35,0,0,0-5.15,2.78,13.16,13.16,0,0,0-3.58,4.19,12.92,12.92,0,0,0-1.48,5.51,15.84,15.84,0,0,0,1.21,6.57,13.25,13.25,0,0,0,5,6.61,10.88,10.88,0,0,0,7.86,1.33l2.74,7.05Q883.81,366,878.22,362.54ZM905.39,350a13.19,13.19,0,0,0,2.89-4.11,13.48,13.48,0,0,0,1.1-4.88,14.13,14.13,0,0,0-3.86-9.89,12.47,12.47,0,0,0-4.13-2.79,13.75,13.75,0,0,0-4.88-1,16.18,16.18,0,0,0-5.16.76l9.7,24.91A15.87,15.87,0,0,0,905.39,350Z"/><path d="M943.53,366.61l-61.61,18.27-2.18-7.34,61.61-18.26Z"/><path d="M932.38,393.5l-6.18,1.24,0,.18a11.42,11.42,0,0,1,6.68,4.71A22.19,22.19,0,0,1,936.4,408a21,21,0,0,1-.08,9.61,19.25,19.25,0,0,1-3.93,7.59,23.86,23.86,0,0,1-6.84,5.46,32,32,0,0,1-8.91,3.17,33,33,0,0,1-9.44.57,22,22,0,0,1-8.32-2.36,18.58,18.58,0,0,1-6.39-5.51,21.47,21.47,0,0,1-3.69-8.76,23,23,0,0,1-.41-3.82,22,22,0,0,1,.32-4.33,16.41,16.41,0,0,1,1.39-4.27,12.37,12.37,0,0,1,2.78-3.73l0-.18-23.47,4.73-1.51-7.5,63-12.69Zm-10.76,30.21a17.24,17.24,0,0,0,4.91-3.65,12.89,12.89,0,0,0,2.9-5.17,13.64,13.64,0,0,0,.14-6.6,12.64,12.64,0,0,0-7.59-9.67,16.74,16.74,0,0,0-6-1.31,27.18,27.18,0,0,0-12.73,2.61,16.16,16.16,0,0,0-5,3.63,13,13,0,0,0-2.94,5.23,14.12,14.12,0,0,0-.13,6.91,13.22,13.22,0,0,0,2.81,6.18,12.39,12.39,0,0,0,4.82,3.39,17.65,17.65,0,0,0,6.1,1.16,30.34,30.34,0,0,0,6.68-.62A23.58,23.58,0,0,0,921.62,423.71Z"/><path d="M896.94,476.73l7.36-.54V476a15.56,15.56,0,0,1-6.78-5.73,18.6,18.6,0,0,1-2.67-8.74,20.93,20.93,0,0,1,.66-7.72,12.29,12.29,0,0,1,3.09-5.19,13,13,0,0,1,5.15-3,29.14,29.14,0,0,1,6.81-1.27l30.52-2.22.56,7.63L910.21,452a9.24,9.24,0,0,0-6.64,3,9.39,9.39,0,0,0-2,7.09,15.59,15.59,0,0,0,1.52,6,11.32,11.32,0,0,0,3.37,4.05,13.14,13.14,0,0,0,4.8,2.22,19,19,0,0,0,5.86.43l26.21-1.91.55,7.63-46.4,3.38Z"/><path d="M943.7,503.09l-7.38-.37v.18q8.22,5.19,7.7,15.53a20.32,20.32,0,0,1-1.63,7.57,12.63,12.63,0,0,1-3.76,4.77,13,13,0,0,1-5.48,2.39,28.83,28.83,0,0,1-6.91.42l-30.56-1.52.37-7.64L927.51,526a9.22,9.22,0,0,0,7-2.17,9.4,9.4,0,0,0,2.87-6.8,15.76,15.76,0,0,0-.78-6.12,11.46,11.46,0,0,0-2.84-4.42,13.09,13.09,0,0,0-4.51-2.79,19,19,0,0,0-5.75-1.15l-26.25-1.3.38-7.64,46.47,2.31Z"/><path d="M956.5,560.49,919,554.1l16.48,24.35-1.72,10.12-13.58-21-32.52,14.54,1.63-9.58,26.63-11.62-5.35-8.22-17.39-3,1.28-7.54L957.78,553Z"/><path d="M925.84,617.43l-6.52-1.75,2.39-8.95-27.91-7.47a8.68,8.68,0,0,0-2.14-.34,2.25,2.25,0,0,0-1.44.5,3.73,3.73,0,0,0-1,1.55,25.39,25.39,0,0,0-.89,2.79l-.9,3.39-6.52-1.75,1.51-5.65a28.14,28.14,0,0,1,1.7-4.81,7.58,7.58,0,0,1,2.32-2.92,6.34,6.34,0,0,1,3.46-1.07,17.4,17.4,0,0,1,5.2.74l28.61,7.65,2-7.65,6.52,1.74-2,7.65,13.47,3.61-2,7.39-13.48-3.61Z"/><path d="M857.24,665.82l5.75,2.59.07-.17a11.24,11.24,0,0,1-2.65-7.71,22.7,22.7,0,0,1,2.1-8.82,21,21,0,0,1,5.67-7.76,19.24,19.24,0,0,1,7.58-3.89,23.1,23.1,0,0,1,8.7-.48,31.8,31.8,0,0,1,9.09,2.62,32.79,32.79,0,0,1,8,5,22.12,22.12,0,0,1,5.39,6.77,19.18,19.18,0,0,1,2,8.22,21.25,21.25,0,0,1-2.06,9.29,22.27,22.27,0,0,1-1.92,3.38,19.49,19.49,0,0,1-2.81,3.27,17.38,17.38,0,0,1-3.66,2.65,12.31,12.31,0,0,1-4.43,1.41l-.08.16,21.83,9.84-3.14,7-58.59-26.4Zm26.35-18.29a17.11,17.11,0,0,0-6.11.11,12.83,12.83,0,0,0-5.38,2.51,13.72,13.72,0,0,0-4,5.28,12.63,12.63,0,0,0,.54,12.28,16.57,16.57,0,0,0,4.11,4.57,27.26,27.26,0,0,0,11.88,5.3,16.24,16.24,0,0,0,6.18,0,13.14,13.14,0,0,0,5.44-2.53,14.22,14.22,0,0,0,4.12-5.55,13.1,13.1,0,0,0,1.3-6.61,12.16,12.16,0,0,0-1.91-5.61,17.85,17.85,0,0,0-4.29-4.5,31.3,31.3,0,0,0-5.78-3.39A23.6,23.6,0,0,0,883.59,647.53Z"/><path d="M834.75,711.1q-.64-6.51,3.5-13.27a24,24,0,0,1,6.59-7.3,19,19,0,0,1,7.9-3.23,21.3,21.3,0,0,1,8.79.48,37.05,37.05,0,0,1,9.18,3.79,27.88,27.88,0,0,1,7.44,6.46,23.18,23.18,0,0,1,4.14,7.88,20.51,20.51,0,0,1,.67,8.54,21.15,21.15,0,0,1-3.05,8.42,19.07,19.07,0,0,1-7.58,7.44,20.45,20.45,0,0,1-9,2.19,25.81,25.81,0,0,1-9.15-1.61,36.62,36.62,0,0,1-8-4L864.4,697.2a18.15,18.15,0,0,0-5.32-2.42,13,13,0,0,0-5.51-.32,12.77,12.77,0,0,0-5.28,2.15,15.88,15.88,0,0,0-4.51,4.94,13.21,13.21,0,0,0-2.24,8,10.85,10.85,0,0,0,3.68,7.07l-4,6.44Q835.39,717.62,834.75,711.1Zm26.43,14.06a13,13,0,0,0,5-.19,13.4,13.4,0,0,0,4.54-2.07,13.17,13.17,0,0,0,3.64-3.94,13.6,13.6,0,0,0,1.92-5.11,12.34,12.34,0,0,0-.28-5,13.38,13.38,0,0,0-2.15-4.49,15.78,15.78,0,0,0-3.72-3.66l-14,22.78A15.57,15.57,0,0,0,861.18,725.16Z"/><path d="M857.35,754.46l-7.86-5.86-.1.14A20.81,20.81,0,0,1,852,759.23a17.14,17.14,0,0,1-4.12,9.73l-6.49-4.85a21.61,21.61,0,0,0,3.68-7,12.31,12.31,0,0,0,.16-6.39,15.33,15.33,0,0,0-3-5.83,32.12,32.12,0,0,0-5.84-5.49L819.8,727l4.58-6.13,37.28,27.84Z"/><path d="M802.9,840l-5-5.2L823.8,810l-14.13-14.76-24.12,23.09-5-5.2,24.12-23.09L789.32,774l-26.07,25-5-5.2,32.24-30.87L835,809.32Z"/><path d="M775.08,839.11l-6-7.76-.14.11a20.81,20.81,0,0,1-.28,10.81,17.3,17.3,0,0,1-6.57,8.27l-5-6.41a21.63,21.63,0,0,0,5.42-5.79,12.33,12.33,0,0,0,1.87-6.11,15.41,15.41,0,0,0-1.33-6.42,31.93,31.93,0,0,0-4.17-6.85l-12.67-16.37,6-4.68,28.48,36.79Z"/><path d="M702.2,832.67l3.35,5.33.15-.09a11.3,11.3,0,0,1,2.07-7.89,22.57,22.57,0,0,1,6.64-6.18,21,21,0,0,1,9-3.32,19.36,19.36,0,0,1,8.46,1,23.07,23.07,0,0,1,7.51,4.43,31.65,31.65,0,0,1,6.11,7.21,32.4,32.4,0,0,1,3.87,8.62,22,22,0,0,1,.74,8.62,19.1,19.1,0,0,1-2.87,8,21.2,21.2,0,0,1-6.86,6.59,22.92,22.92,0,0,1-3.47,1.75,19.69,19.69,0,0,1-4.15,1.17,17.92,17.92,0,0,1-4.52.18,12.16,12.16,0,0,1-4.47-1.29l-.15.1,12.72,20.28-6.48,4.07-34.15-54.44Zm32.07-.63a17.1,17.1,0,0,0-5.15-3.3,12.66,12.66,0,0,0-5.87-.88,13.66,13.66,0,0,0-6.22,2.19,12.65,12.65,0,0,0-6.36,10.53,16.61,16.61,0,0,0,.9,6.08,27.09,27.09,0,0,0,6.94,11,16.26,16.26,0,0,0,5.17,3.4,13.24,13.24,0,0,0,5.93.91,14.22,14.22,0,0,0,6.5-2.34,13.16,13.16,0,0,0,4.76-4.78,12.18,12.18,0,0,0,1.5-5.73,17.2,17.2,0,0,0-1.08-6.12,30.46,30.46,0,0,0-2.92-6A23.94,23.94,0,0,0,734.27,832Z"/><path d="M658.32,858q3.06-5.81,10.24-9.14a23.82,23.82,0,0,1,9.53-2.45,19.05,19.05,0,0,1,8.37,1.66,21.31,21.31,0,0,1,7.06,5.25,37.57,37.57,0,0,1,5.57,8.23,28.08,28.08,0,0,1,2.63,9.5,23.17,23.17,0,0,1-.89,8.85,20.56,20.56,0,0,1-4.16,7.49,21,21,0,0,1-7.19,5.34,19.06,19.06,0,0,1-10.43,2,20.39,20.39,0,0,1-8.71-3.14,25.93,25.93,0,0,1-6.75-6.39,37.4,37.4,0,0,1-4.45-7.75l31.58-14.7a18.28,18.28,0,0,0-3.11-5,13.14,13.14,0,0,0-4.41-3.31,13,13,0,0,0-5.59-1.12,15.88,15.88,0,0,0-6.49,1.63,13.33,13.33,0,0,0-6.27,5.4,10.87,10.87,0,0,0-.82,7.93l-6.86,3.19Q655.27,863.74,658.32,858Zm14.28,26.31a13.24,13.24,0,0,0,4.3,2.61,13.1,13.1,0,0,0,10.14-.5,13.35,13.35,0,0,0,4.41-3.2,12.21,12.21,0,0,0,2.52-4.3,13.54,13.54,0,0,0,.68-4.93,15.84,15.84,0,0,0-1.08-5.1l-24.24,11.28A15.75,15.75,0,0,0,672.6,884.26Z"/><path d="M636.37,873.63,633,864.24l9.4-3.39,3.39,9.39Z"/></svg>