<svg id="Ebene_1" data-name="Ebene 1" xmlns="http://www.w3.org/2000/svg" viewBox="0 0 1000 1000"><path d="M160.14,725.69a10.21,10.21,0,0,0,1.57-4.52,13.06,13.06,0,0,0-.51-5,21.3,21.3,0,0,0-2.14-5,28.53,28.53,0,0,0-2.32-3.34,14.31,14.31,0,0,0-3.1-2.88,8.77,8.77,0,0,0-3.72-1.46,6.18,6.18,0,0,0-4.1.93A5.67,5.67,0,0,0,143,708a13.19,13.19,0,0,0-.12,5.13,44.46,44.46,0,0,0,1.46,6.23c.69,2.25,1.34,4.54,2,6.89a62.58,62.58,0,0,1,1.65,7.18,24.16,24.16,0,0,1,.18,7,15.93,15.93,0,0,1-2.26,6.38,15.75,15.75,0,0,1-5.65,5.24,16.75,16.75,0,0,1-8.48,2.52,19.17,19.17,0,0,1-8-1.71,24.2,24.2,0,0,1-7-4.86,33.13,33.13,0,0,1-5.38-6.86,41,41,0,0,1-3.91-8.92,24,24,0,0,1-1-9A18.44,18.44,0,0,1,109,715.1a19.6,19.6,0,0,1,7.12-6.62l6.91,11.8a11.42,11.42,0,0,0-3.5,3.46,8,8,0,0,0-1.18,3.87,11.8,11.8,0,0,0,.66,4.15,24.44,24.44,0,0,0,2,4.38,16.61,16.61,0,0,0,2,2.77,9.05,9.05,0,0,0,2.65,2,8,8,0,0,0,3.1.85,6.13,6.13,0,0,0,3.41-.95,5.78,5.78,0,0,0,2.28-2.17,6.47,6.47,0,0,0,.43-3.54,35.81,35.81,0,0,0-1.25-6q-1-3.72-2.76-9.7c-.4-1.16-.87-2.81-1.4-5a24,24,0,0,1-.6-7,19.11,19.11,0,0,1,2-7.49,15.72,15.72,0,0,1,6.49-6.46,19.6,19.6,0,0,1,7.93-2.67,17.87,17.87,0,0,1,8.2,1.09,24.44,24.44,0,0,1,7.92,5.07,39.61,39.61,0,0,1,7.17,9.2,40.6,40.6,0,0,1,4.08,9.55,25.89,25.89,0,0,1,.92,9.68,20.21,20.21,0,0,1-3.06,8.84,21.3,21.3,0,0,1-7.76,7L156,729.47A11.73,11.73,0,0,0,160.14,725.69Z"/><path d="M136.54,670.82q1.47-3.74-.61-8.72a11.36,11.36,0,0,0-4.35-5.4,8,8,0,0,0-5.09-1.58l-4.33-10.39q8.76-.72,14.23,3a24.38,24.38,0,0,1,8.52,11.08,26.73,26.73,0,0,1,2.19,9.81,20.57,20.57,0,0,1-1.74,8.82,22.6,22.6,0,0,1-5.33,7.34,28.22,28.22,0,0,1-8.5,5.34,27,27,0,0,1-9.63,2.16,22.48,22.48,0,0,1-16.72-6.44,24.06,24.06,0,0,1-5.47-8.2,22.21,22.21,0,0,1-1.86-10.44,20.6,20.6,0,0,1,2.91-9.06,25.31,25.31,0,0,1,6.56-7.17,33.07,33.07,0,0,1,9.21-4.81l12.91,31Q135.07,674.55,136.54,670.82Zm-28.16-3.92q-1.44,3.09.36,7.41a11.24,11.24,0,0,0,2.91,4.29,9.77,9.77,0,0,0,3.62,2,9.54,9.54,0,0,0,3.64.33,14.4,14.4,0,0,0,3-.64l-8-19.19A14.84,14.84,0,0,0,108.38,666.9Z"/><path d="M90.76,621.7a9,9,0,0,0,2.7,4.58,11.1,11.1,0,0,0,4.36,2.3,15.6,15.6,0,0,0,5.18.5,26.35,26.35,0,0,0,5.22-.87,25.38,25.38,0,0,0,4.8-1.88,16,16,0,0,0,4.1-2.94,10.05,10.05,0,0,0,2.47-4.08,9.09,9.09,0,0,0,0-5.22q-1.22-4.43-4.34-6.14a12.1,12.1,0,0,0-7.46-1.17l-3.26-11.9q9.28-1.23,15.53,3.22t8.71,13.38a25.46,25.46,0,0,1,.84,9.71,21.39,21.39,0,0,1-2.77,8.46,22.24,22.24,0,0,1-6,6.58,26.12,26.12,0,0,1-8.79,4.18,31,31,0,0,1-10.1,1.13,22.51,22.51,0,0,1-9-2.35,21.16,21.16,0,0,1-7-5.81,25.25,25.25,0,0,1-4.48-9.23,29.12,29.12,0,0,1-1.07-8,21.44,21.44,0,0,1,1.36-7.47A17,17,0,0,1,92.68,598.4L96,610.47Q88.6,613.8,90.76,621.7Z"/><path d="M55.33,581.21l24-3.34,0-.27a14.84,14.84,0,0,1-6.7-5.33,16.83,16.83,0,0,1-2.84-7.06,21.74,21.74,0,0,1,.22-8.53A12.55,12.55,0,0,1,73.08,551a15.14,15.14,0,0,1,5.61-3.46,37.87,37.87,0,0,1,7.69-1.84l28.35-3.94,1.76,12.66-26,3.62c-3.8.53-6.56,1.52-8.26,3s-2.35,3.69-1.93,6.72q.72,5.18,4.11,7.06t10.44.91L119,572.36,120.74,585l-63.65,8.84Z"/><path d="M102.58,523.32a7.48,7.48,0,0,0,2.4-2.24,9.57,9.57,0,0,0,1.36-3.12,15.27,15.27,0,0,0,.4-3.66,13.8,13.8,0,0,0-.36-2.83,9.56,9.56,0,0,0-1-2.68,6.15,6.15,0,0,0-1.83-2,4.71,4.71,0,0,0-2.85-.77c-1.92,0-3.34,1.32-4.26,3.88a75.83,75.83,0,0,0-2.74,10.7q-.59,2.8-1.41,5.47a18.5,18.5,0,0,1-2.19,4.75,10.84,10.84,0,0,1-3.46,3.38,10,10,0,0,1-5.16,1.33,14,14,0,0,1-7.4-1.65,13,13,0,0,1-4.61-4.58A20.32,20.32,0,0,1,67,522.85a39.78,39.78,0,0,1-.77-7.37,36.26,36.26,0,0,1,.62-7.34,19.58,19.58,0,0,1,2.34-6.38,14.63,14.63,0,0,1,4.48-4.69,15.15,15.15,0,0,1,7.13-2.3L81,506.91c-2.45.22-4.11,1.17-5,2.86a12.74,12.74,0,0,0-1.23,6,22.61,22.61,0,0,0,.17,2.34,8,8,0,0,0,.61,2.28,4.87,4.87,0,0,0,1.33,1.74,3.84,3.84,0,0,0,5.08-.61,9.63,9.63,0,0,0,1.71-3.31,39.51,39.51,0,0,0,1.15-4.65c.34-1.74.71-3.52,1.1-5.32a54.24,54.24,0,0,1,1.46-5.47A17.86,17.86,0,0,1,89.73,498a11.65,11.65,0,0,1,3.64-3.38,10.85,10.85,0,0,1,5.43-1.33,14.13,14.13,0,0,1,12.78,6.49,19.71,19.71,0,0,1,2.75,6.76,40.2,40.2,0,0,1,.87,7.77,38.68,38.68,0,0,1-.71,7.93,20.84,20.84,0,0,1-2.6,6.92,14.81,14.81,0,0,1-12.68,7.24L99,524.22A7,7,0,0,0,102.58,523.32Z"/><path d="M70.24,457.75l8.52.71L78,467.79l23,1.93c2.16.18,3.62-.05,4.4-.71s1.26-2.06,1.44-4.22c.06-.71.09-1.4.08-2.07a16.6,16.6,0,0,0-.11-1.9l9.87.83a30.34,30.34,0,0,1,0,3.61c0,1.33-.13,2.61-.23,3.87a37.51,37.51,0,0,1-.88,5.57,13.13,13.13,0,0,1-2,4.53,8.35,8.35,0,0,1-3.58,2.91,12.06,12.06,0,0,1-5.75.69l-27.36-2.3-.64,7.71-8.52-.72.64-7.71-13.9-1.17,1.07-12.73,13.91,1.16Z"/><path d="M108.45,441.55q3.28-2.32,4.27-7.63a11.4,11.4,0,0,0-.67-6.9,8,8,0,0,0-3.4-4.11l2.08-11.06q7.72,4.2,10.24,10.34a24.43,24.43,0,0,1,1,13.93,26.68,26.68,0,0,1-3.55,9.41,20.53,20.53,0,0,1-6.29,6.42,22.44,22.44,0,0,1-8.48,3.22,28.15,28.15,0,0,1-10-.19,27.23,27.23,0,0,1-9.23-3.47A22.47,22.47,0,0,1,74,437a24.19,24.19,0,0,1-.08-9.86,22.11,22.11,0,0,1,4.17-9.75,20.67,20.67,0,0,1,7.39-6,25.29,25.29,0,0,1,9.43-2.4,32.71,32.71,0,0,1,10.33,1L99,443Q105.18,443.86,108.45,441.55ZM87.06,422.84c-1.94,1.19-3.19,3.32-3.77,6.39a11.2,11.2,0,0,0,.08,5.19,9.69,9.69,0,0,0,1.93,3.66,9.32,9.32,0,0,0,2.87,2.27,13.93,13.93,0,0,0,2.9,1.14l3.83-20.43A14.66,14.66,0,0,0,87.06,422.84Z"/><path d="M118.88,394.47a7.53,7.53,0,0,0,3-1.37,9.47,9.47,0,0,0,2.27-2.54,14.51,14.51,0,0,0,1.53-3.34,13.78,13.78,0,0,0,.56-2.79,9.8,9.8,0,0,0-.13-2.88,6.08,6.08,0,0,0-1.11-2.47,4.71,4.71,0,0,0-2.45-1.63q-2.75-.87-5.28,2.34a78.26,78.26,0,0,0-6,9.29q-1.44,2.48-3.06,4.74a18.54,18.54,0,0,1-3.57,3.83,11,11,0,0,1-4.35,2.11A10,10,0,0,1,95,399.4a14,14,0,0,1-6.5-3.91,12.86,12.86,0,0,1-2.93-5.79,20.15,20.15,0,0,1-.27-6.88,39.4,39.4,0,0,1,1.58-7.24,36.65,36.65,0,0,1,2.91-6.78A19.36,19.36,0,0,1,94,363.49a14.51,14.51,0,0,1,5.74-3,15.27,15.27,0,0,1,7.48.06l-3.67,11.58q-3.6-.85-5.61,1.15a12.82,12.82,0,0,0-3,5.27,21.45,21.45,0,0,0-.57,2.27,7.65,7.65,0,0,0-.14,2.36,4.87,4.87,0,0,0,.71,2.07,3.84,3.84,0,0,0,5,1,9.73,9.73,0,0,0,2.67-2.6,40.53,40.53,0,0,0,2.56-4.05q1.31-2.32,2.72-4.71c1-1.64,2-3.22,3.1-4.73a18,18,0,0,1,3.71-3.78,11.69,11.69,0,0,1,4.52-2.06,10.93,10.93,0,0,1,5.57.45,14.09,14.09,0,0,1,10.08,10.18,19.48,19.48,0,0,1,.48,7.28,40.66,40.66,0,0,1-1.62,7.66,39,39,0,0,1-3.17,7.3,21,21,0,0,1-4.66,5.75,14.84,14.84,0,0,1-14.31,2.87l3.67-11.58A7.14,7.14,0,0,0,118.88,394.47Z"/><path d="M101.49,297.14l23.28,12.94-11.08-34.89,8.57-15.41,10,34.27,47.37-5.18L171,304.37l-34.65,2.87,3.22,11.06,18.1,10.06-6.87,12.35L94.62,309.49Z"/><path d="M155.56,268.42a14.93,14.93,0,0,1-4.58-6.31,15.42,15.42,0,0,1-.74-6.9,22.2,22.2,0,0,1,2.14-7,39.23,39.23,0,0,1,4.05-6.59,53.4,53.4,0,0,1,4.7-5.35,22,22,0,0,1,5.52-4.06,13.06,13.06,0,0,1,6.13-1.44,11.21,11.21,0,0,1,6.55,2.62L198.59,248a50.64,50.64,0,0,0,5,3.37,10.81,10.81,0,0,0,4.2,1.61L200,263.32a16.14,16.14,0,0,1-2.11-.87,17.63,17.63,0,0,1-2-1.14,16.63,16.63,0,0,1-.86,8.4,28.66,28.66,0,0,1-4.12,7.49,22.7,22.7,0,0,1-4.41,4.45,14.12,14.12,0,0,1-5.06,2.48,11.65,11.65,0,0,1-5.48.07,14.49,14.49,0,0,1-5.67-2.8,13.49,13.49,0,0,1-4.35-5.06A11.7,11.7,0,0,1,164.8,271a16.11,16.11,0,0,1,1.23-5.4,52.2,52.2,0,0,1,2.5-5.29q1.4-2.55,2.86-4.94a34.22,34.22,0,0,0,2.36-4.43,8.75,8.75,0,0,0,.82-3.68,3.47,3.47,0,0,0-1.69-2.75,6.77,6.77,0,0,0-3-1.46,5,5,0,0,0-2.6.29,7,7,0,0,0-2.3,1.53,23.15,23.15,0,0,0-2.11,2.4,9.68,9.68,0,0,0-2.31,5.71q0,2.7,2.77,5.28ZM181,250.67a5.92,5.92,0,0,1-.33,2.29,21.46,21.46,0,0,1-1,2.49c-.42.85-.89,1.71-1.41,2.59s-1,1.79-1.5,2.71a22.59,22.59,0,0,0-1.14,2.69,8.27,8.27,0,0,0-.51,2.67,5.77,5.77,0,0,0,.53,2.5,6.22,6.22,0,0,0,2,2.3,6.08,6.08,0,0,0,2.67,1.25,5,5,0,0,0,2.51-.25,7.22,7.22,0,0,0,2.28-1.43,16.32,16.32,0,0,0,2-2.2,11.18,11.18,0,0,0,2.54-5.41,8.45,8.45,0,0,0-.54-4.27,9.76,9.76,0,0,0-2.09-3.12,25.8,25.8,0,0,0-2.16-1.92Z"/><path d="M187.52,206.81l4.21,4.19.13-.12a14.09,14.09,0,0,1,.29-8.09,18.2,18.2,0,0,1,4.37-6.82,20.1,20.1,0,0,1,8.13-5.24,19.42,19.42,0,0,1,8.53-.79,23.11,23.11,0,0,1,8.37,2.87,35.31,35.31,0,0,1,7.63,5.8,32,32,0,0,1,5.49,7.24,22.86,22.86,0,0,1,2.73,8.1,19,19,0,0,1-.74,8.28,19.22,19.22,0,0,1-4.91,7.74,17.87,17.87,0,0,1-6.86,4.41,15.07,15.07,0,0,1-7.89.6l-.12.13,15.64,15.54-9,9.07L179,215.43Zm37.87,14.24a10.13,10.13,0,0,0,.08-4.74,13.36,13.36,0,0,0-2.05-4.64,27.81,27.81,0,0,0-3.51-4.25,25.88,25.88,0,0,0-4.3-3.46,14.88,14.88,0,0,0-4.78-2A10.68,10.68,0,0,0,206,202a11.06,11.06,0,0,0-7.36,7.4,10.42,10.42,0,0,0,0,4.81,14.2,14.2,0,0,0,2.08,4.67,28.93,28.93,0,0,0,3.58,4.31,25.06,25.06,0,0,0,4.31,3.46,14.32,14.32,0,0,0,4.68,2,10.89,10.89,0,0,0,12.16-7.58Z"/><path d="M216.46,169.53l-6.73-8.1,9.83-8.17,6.73,8.1Zm14.43-2.63,29.72,35.81-9.84,8.16-29.72-35.8Z"/><path d="M260.17,144.75l5.12,6.84-7.49,5.61,13.8,18.44q1.95,2.6,3.46,2.81c1,.15,2.37-.43,4.1-1.72.58-.43,1.11-.87,1.61-1.31s.94-.89,1.35-1.35l5.93,7.92a29.88,29.88,0,0,1-2.67,2.45c-1,.84-2,1.64-3,2.39a37.16,37.16,0,0,1-4.75,3,13.18,13.18,0,0,1-4.69,1.54,8.25,8.25,0,0,1-4.55-.75,11.74,11.74,0,0,1-4.33-3.84l-16.45-22-6.2,4.64-5.12-6.85,6.19-4.64-8.36-11.16,10.23-7.66,8.36,11.16Z"/><path d="M298.27,162.76q3.9,1,8.56-1.75a11.35,11.35,0,0,0,4.79-5,8.11,8.11,0,0,0,.91-5.26l9.72-5.65q1.88,8.59-1.15,14.51a24.29,24.29,0,0,1-9.87,9.89,26.39,26.39,0,0,1-9.44,3.45,20.41,20.41,0,0,1-9-.57,22.3,22.3,0,0,1-8-4.32,28.27,28.27,0,0,1-6.41-7.73,27.08,27.08,0,0,1-3.4-9.27,22.53,22.53,0,0,1,4.2-17.42,24.25,24.25,0,0,1,7.42-6.49,22.14,22.14,0,0,1,10.1-3.2,20.59,20.59,0,0,1,9.36,1.69,25.16,25.16,0,0,1,8,5.58,32.78,32.78,0,0,1,6,8.5l-29,16.84Q294.38,161.78,298.27,162.76Zm.21-28.43q-3.25-1-7.3,1.32a11.26,11.26,0,0,0-3.88,3.45,9.76,9.76,0,0,0-1.51,3.85,9.5,9.5,0,0,0,.14,3.66,14.93,14.93,0,0,0,1,2.94l18-10.44A14.83,14.83,0,0,0,298.48,134.33Z"/><path d="M320.88,91.14l27,58.3-11.6,5.38-27-58.31Z"/><path d="M345.27,115.91,340.2,103l13.15-5.17,5.07,12.9ZM365,127.49l5.07,12.9-13.15,5.17-5.07-12.9Z"/><path d="M450.88,119.61,426.81,69.1l-.18,0-5,55.78-8.77,1.59L385.22,66.21l8.59-1.56L415.74,115l.18,0,4.63-55.18,9.12-1.65,23.53,50.07.18,0,3.3-54.93,8.42-1.52L459.64,118Z"/><path d="M519.2,115.26a10.86,10.86,0,0,1-5.46,1.32A6.6,6.6,0,0,1,509,115q-1.8-1.62-1.9-5.4a18.35,18.35,0,0,1-7.19,5.63,25.39,25.39,0,0,1-15,1.34,13.93,13.93,0,0,1-5-2.12,10.7,10.7,0,0,1-3.39-3.92,15.79,15.79,0,0,1-.19-12.46,11.69,11.69,0,0,1,3.44-4.19,16.33,16.33,0,0,1,5-2.52c1.87-.58,3.8-1.09,5.77-1.5s4.07-.84,6-1.1a33.24,33.24,0,0,0,5-1,8.3,8.3,0,0,0,3.37-1.8A4.15,4.15,0,0,0,506,82.66a7.61,7.61,0,0,0-1.05-4,6.37,6.37,0,0,0-2.49-2.27,9.77,9.77,0,0,0-3.35-1,26.67,26.67,0,0,0-3.66-.17,16.06,16.06,0,0,0-8,2.06c-2.13,1.28-3.24,3.64-3.33,7.06l-7.65.2a16.53,16.53,0,0,1,1.61-7.33,13.75,13.75,0,0,1,4.19-4.93,18.08,18.08,0,0,1,6.1-2.82,32.57,32.57,0,0,1,7.4-1,43.54,43.54,0,0,1,6.26.29,16.29,16.29,0,0,1,5.67,1.69,10.77,10.77,0,0,1,4.16,3.8,12.51,12.51,0,0,1,1.7,6.51l.62,23.88a18,18,0,0,0,.42,3.94c.23.84.95,1.24,2.14,1.21a9.06,9.06,0,0,0,2.33-.43Zm-13-23.51a9.59,9.59,0,0,1-3.74,1.66c-1.55.37-3.17.68-4.88.94s-3.42.53-5.15.85a19.08,19.08,0,0,0-4.65,1.42,8.45,8.45,0,0,0-3.3,2.64,7.06,7.06,0,0,0-1.19,4.55,6.05,6.05,0,0,0,.85,3.16,6.31,6.31,0,0,0,2,2,8.28,8.28,0,0,0,2.87,1.09,15.81,15.81,0,0,0,3.42.27,18,18,0,0,0,6.46-1.2,13.59,13.59,0,0,0,4.33-2.71,10.15,10.15,0,0,0,2.44-3.47,8.8,8.8,0,0,0,.72-3.46Z"/><path d="M531.31,106.11a8.23,8.23,0,0,0,2.58,3,12.88,12.88,0,0,0,3.82,1.83,22.7,22.7,0,0,0,4.49.84,26.28,26.28,0,0,0,3.79.06,13.71,13.71,0,0,0,3.71-.66,6.78,6.78,0,0,0,2.92-1.87,5.64,5.64,0,0,0,1.39-3.45,5.1,5.1,0,0,0-1.85-4.68,19.18,19.18,0,0,0-5.38-2.95q-3.28-1.24-7.16-2.35a38.24,38.24,0,0,1-7.12-2.79,15.24,15.24,0,0,1-5.26-4.4,10.16,10.16,0,0,1-1.63-7.19,11.19,11.19,0,0,1,2.1-5.86,12.8,12.8,0,0,1,4.39-3.73,18.77,18.77,0,0,1,5.77-1.84,25.39,25.39,0,0,1,6.2-.22,36.17,36.17,0,0,1,7.21,1.31A17,17,0,0,1,557,74a12.19,12.19,0,0,1,3.68,4.84,17.27,17.27,0,0,1,1.18,7.2l-7.63-.67A7.29,7.29,0,0,0,551,79a11.4,11.4,0,0,0-3.24-1.6,17.86,17.86,0,0,0-3.69-.73,23.59,23.59,0,0,0-3.47,0,12,12,0,0,0-3.27.66,6.58,6.58,0,0,0-2.49,1.59,4.54,4.54,0,0,0-1.15,2.84,4.29,4.29,0,0,0,1.1,3.39,11.08,11.08,0,0,0,3.35,2.46,30.15,30.15,0,0,0,4.72,1.86q2.64.83,5.27,1.69a57.35,57.35,0,0,1,5.47,2,18.24,18.24,0,0,1,4.63,2.8,11.66,11.66,0,0,1,3.08,4,11,11,0,0,1,.82,5.68,13,13,0,0,1-2.37,6.84,13.73,13.73,0,0,1-5,4.08,19.25,19.25,0,0,1-6.58,1.81,38.22,38.22,0,0,1-7.09.06,33.17,33.17,0,0,1-7.29-1.45,18.36,18.36,0,0,1-6-3.19,13.71,13.71,0,0,1-3.88-5.22,16.9,16.9,0,0,1-1.15-7.47l7.62.67A8.63,8.63,0,0,0,531.31,106.11Z"/><path d="M616,64.64l-6.37,23.17.18,0A11.45,11.45,0,0,1,617,84a22.16,22.16,0,0,1,9,.67,21.19,21.19,0,0,1,8.55,4.4,19.25,19.25,0,0,1,5,6.93,23.72,23.72,0,0,1,1.8,8.57,32.2,32.2,0,0,1-1.18,9.38,33.1,33.1,0,0,1-3.74,8.68,22.06,22.06,0,0,1-5.86,6.37,18.65,18.65,0,0,1-7.8,3.23,21.54,21.54,0,0,1-9.48-.65,23,23,0,0,1-3.59-1.36A21.32,21.32,0,0,1,606,128a16.17,16.17,0,0,1-3.19-3.16,12.17,12.17,0,0,1-2.07-4.17l-.18,0-1.64,6-7.38-2,17-62ZM633.4,105a17.1,17.1,0,0,0-1-6A12.9,12.9,0,0,0,629,94a13.87,13.87,0,0,0-5.83-3.1,12.65,12.65,0,0,0-12.05,2.43,16.75,16.75,0,0,0-3.88,4.77,26.65,26.65,0,0,0-2.43,6,26.26,26.26,0,0,0-1,6.59,16.19,16.19,0,0,0,1,6.1,13.15,13.15,0,0,0,3.34,5,14.16,14.16,0,0,0,6.12,3.22,13,13,0,0,0,6.78.28,12.31,12.31,0,0,0,5.2-2.77,17.83,17.83,0,0,0,3.78-4.93,31.32,31.32,0,0,0,2.46-6.23A24,24,0,0,0,633.4,105Z"/><path d="M672.3,148.74q-6.34,1.66-13.65-1.37a23.85,23.85,0,0,1-8.26-5.37,19,19,0,0,1-4.43-7.29,21.39,21.39,0,0,1-.9-8.75,36.94,36.94,0,0,1,2.29-9.66,28.14,28.14,0,0,1,5.22-8.36,23.09,23.09,0,0,1,7.13-5.33,20.62,20.62,0,0,1,8.33-2,21.21,21.21,0,0,1,8.79,1.69,19.09,19.09,0,0,1,8.54,6.32,20.41,20.41,0,0,1,3.58,8.54,25.92,25.92,0,0,1-.15,9.29,36.82,36.82,0,0,1-2.7,8.52l-32.18-13.32a18.3,18.3,0,0,0-1.56,5.64,13.15,13.15,0,0,0,.55,5.49,13,13,0,0,0,3,4.87,15.87,15.87,0,0,0,5.59,3.68,13.28,13.28,0,0,0,8.22,1,10.84,10.84,0,0,0,6.4-4.76l7,2.9Q678.64,147.08,672.3,148.74ZM682,120.42a13.21,13.21,0,0,0-1-4.93,13,13,0,0,0-2.76-4.16,12.86,12.86,0,0,0-4.47-3,13.26,13.26,0,0,0-5.34-1.09,12.44,12.44,0,0,0-4.87,1,13.53,13.53,0,0,0-4.09,2.83,16.08,16.08,0,0,0-3,4.25l24.7,10.23A16.1,16.1,0,0,0,682,120.42Z"/><path d="M712.94,173.82l3.11-5.47-.15-.09a11.26,11.26,0,0,1-7.93,1.91,22.84,22.84,0,0,1-8.59-2.92,21,21,0,0,1-7.19-6.37A19.22,19.22,0,0,1,689,153a23,23,0,0,1,.34-8.71,31.84,31.84,0,0,1,3.46-8.8,32.61,32.61,0,0,1,5.76-7.49,22,22,0,0,1,7.25-4.73,19.08,19.08,0,0,1,8.37-1.25,21.21,21.21,0,0,1,9,2.93,23.4,23.4,0,0,1,3.19,2.22,20.16,20.16,0,0,1,3,3.11,17.9,17.9,0,0,1,2.28,3.89,12.36,12.36,0,0,1,1,4.55l.16.09L744.72,118l6.65,3.78-31.78,55.86Zm-15.73-27.95a17,17,0,0,0-.47,6.1,12.77,12.77,0,0,0,2,5.59,13.64,13.64,0,0,0,4.89,4.43,13,13,0,0,0,6.46,1.92,13.25,13.25,0,0,0,5.82-1.29,17,17,0,0,0,4.93-3.67,27.41,27.41,0,0,0,6.39-11.33,16.36,16.36,0,0,0,.55-6.16,13,13,0,0,0-2-5.65,14.28,14.28,0,0,0-5.13-4.62,13.09,13.09,0,0,0-6.47-1.92,12.07,12.07,0,0,0-5.76,1.38,17.75,17.75,0,0,0-4.88,3.85,30.55,30.55,0,0,0-3.92,5.43A23.47,23.47,0,0,0,697.21,145.87Z"/><path d="M755.94,200.51q-6.54,0-12.89-4.7a23.74,23.74,0,0,1-6.66-7.24,19,19,0,0,1-2.49-8.16,21.38,21.38,0,0,1,1.28-8.71,37.78,37.78,0,0,1,4.62-8.79,27.73,27.73,0,0,1,7.13-6.81,23.06,23.06,0,0,1,8.22-3.4,20.63,20.63,0,0,1,8.57.12,21.29,21.29,0,0,1,8.1,3.81,19.19,19.19,0,0,1,6.71,8.23,20.44,20.44,0,0,1,1.35,9.17,25.83,25.83,0,0,1-2.44,9,36.79,36.79,0,0,1-4.73,7.59l-27.88-20.87a18.25,18.25,0,0,0-2.9,5.08,13.13,13.13,0,0,0-.83,5.45,12.84,12.84,0,0,0,1.66,5.45,15.71,15.71,0,0,0,4.5,4.95,13.24,13.24,0,0,0,7.72,3,10.89,10.89,0,0,0,7.38-3l6,4.53Q762.5,200.48,755.94,200.51Zm16.44-25a13.39,13.39,0,0,0,.27-5,13.78,13.78,0,0,0-10.14-11.08,12.35,12.35,0,0,0-5-.19,13.77,13.77,0,0,0-4.67,1.73,15.89,15.89,0,0,0-4,3.37l21.39,16A15.72,15.72,0,0,0,772.38,175.49Z"/><path d="M787.31,233.12l5.11-5.33-.13-.13a15.6,15.6,0,0,1-8.87.29,18.66,18.66,0,0,1-7.84-4.7,20.91,20.91,0,0,1-4.68-6.17,12.1,12.1,0,0,1-1.18-5.93,13,13,0,0,1,1.79-5.7,28.3,28.3,0,0,1,4.21-5.5l21.16-22.1,5.53,5.29-21.79,22.75a8.7,8.7,0,0,0,.35,13.29,15.73,15.73,0,0,0,5.13,3.43,11.38,11.38,0,0,0,5.21.74,13.06,13.06,0,0,0,5.06-1.57,18.9,18.9,0,0,0,4.63-3.6l18.18-19,5.52,5.3-32.19,33.6Z"/><path d="M847.3,230.47l-5.12,4.4-6-7-21.9,18.85a8.33,8.33,0,0,0-1.49,1.58,2.22,2.22,0,0,0-.39,1.47,3.69,3.69,0,0,0,.7,1.71,23.92,23.92,0,0,0,1.81,2.31l2.29,2.66-5.12,4.4-3.82-4.43a28.16,28.16,0,0,1-3-4.12,7.47,7.47,0,0,1-1.1-3.56,6.31,6.31,0,0,1,1-3.46,17.75,17.75,0,0,1,3.55-3.89l22.43-19.32-5.16-6,5.11-4.4,5.17,6,10.57-9.11,5,5.8-10.57,9.1Z"/><path d="M838,291.27q-6.24-2-10.77-8.5a23.89,23.89,0,0,1-4.07-9,19,19,0,0,1,.19-8.53,21.25,21.25,0,0,1,3.94-7.86,37.09,37.09,0,0,1,7.14-6.92,27.92,27.92,0,0,1,8.89-4.24,23.26,23.26,0,0,1,8.88-.66,20.69,20.69,0,0,1,8.1,2.79,21.23,21.23,0,0,1,6.5,6.16,19.11,19.11,0,0,1,3.8,9.92,20.22,20.22,0,0,1-1.58,9.12,25.79,25.79,0,0,1-5.12,7.76,37.73,37.73,0,0,1-6.86,5.73l-20-28.55a18.46,18.46,0,0,0-4.35,3.92,13.14,13.14,0,0,0-2.49,4.93,12.93,12.93,0,0,0-.13,5.69,15.87,15.87,0,0,0,2.73,6.11,13.29,13.29,0,0,0,6.41,5.24,10.93,10.93,0,0,0,7.95-.57l4.33,6.2Q844.22,293.27,838,291.27Zm23.43-18.63a13.08,13.08,0,0,0,1.84-4.69,13.54,13.54,0,0,0-.09-5,14.1,14.1,0,0,0-6.09-8.7,12.16,12.16,0,0,0-4.67-1.73,13.46,13.46,0,0,0-5,.18,15.75,15.75,0,0,0-4.84,2l15.32,21.9A15.75,15.75,0,0,0,861.41,272.64Z"/><path d="M893.28,298.77l-5.84,3.39-4.65-8-25,14.49a8.44,8.44,0,0,0-1.75,1.28,2.24,2.24,0,0,0-.66,1.37,3.73,3.73,0,0,0,.37,1.81,25.8,25.8,0,0,0,1.35,2.6l1.76,3L853,322.11l-2.93-5.06a27.13,27.13,0,0,1-2.2-4.6,7.46,7.46,0,0,1-.43-3.7,6.25,6.25,0,0,1,1.67-3.21,17.42,17.42,0,0,1,4.2-3.16L879,287.52l-4-6.85,5.84-3.38,4,6.85,12.07-7,3.84,6.62-12.07,7Z"/><path d="M879.14,381.53l5.89-2.24-.07-.17a11.22,11.22,0,0,1-7.32-3.57,22.59,22.59,0,0,1-4.77-7.72,20.91,20.91,0,0,1-1.49-9.49,19.26,19.26,0,0,1,2.59-8.12,23,23,0,0,1,5.81-6.49,31.56,31.56,0,0,1,8.27-4.59,32.45,32.45,0,0,1,9.21-2.11,22,22,0,0,1,8.6,1,19.16,19.16,0,0,1,7.25,4.37,21.28,21.28,0,0,1,5.12,8,22.72,22.72,0,0,1,1,3.74,19.62,19.62,0,0,1,.34,4.31,17.74,17.74,0,0,1-.72,4.46,12.32,12.32,0,0,1-2.13,4.13l.06.17,22.38-8.52,2.72,7.15-60.06,22.86ZM884.8,350a17,17,0,0,0-4.25,4.4,12.8,12.8,0,0,0-2,5.59,13.53,13.53,0,0,0,.94,6.52,12.6,12.6,0,0,0,9.08,8.3,16.9,16.9,0,0,0,6.13.31,27.23,27.23,0,0,0,12.14-4.67,16.37,16.37,0,0,0,4.35-4.4,13,13,0,0,0,2-5.64,14.19,14.19,0,0,0-1-6.83,13.07,13.07,0,0,0-3.77-5.6,12.27,12.27,0,0,0-5.32-2.6,17.45,17.45,0,0,0-6.22-.13,30.05,30.05,0,0,0-6.48,1.69A23.93,23.93,0,0,0,884.8,350Z"/><path d="M894.56,438.2a10.82,10.82,0,0,1-2.43-5.06,6.59,6.59,0,0,1,.5-5q1.2-2.08,4.88-3a18.14,18.14,0,0,1-7-5.84A25.47,25.47,0,0,1,886,404.94a14,14,0,0,1,1-5.3,10.92,10.92,0,0,1,3.12-4.14,13.54,13.54,0,0,1,5.53-2.59,13.83,13.83,0,0,1,6.62-.22,11.76,11.76,0,0,1,4.81,2.49,16.23,16.23,0,0,1,3.51,4.34q1.46,2.57,2.68,5.32c.9,1.94,1.68,3.81,2.33,5.59a33.29,33.29,0,0,0,2.06,4.65,8.36,8.36,0,0,0,2.46,2.92,4.17,4.17,0,0,0,3.49.45,7.68,7.68,0,0,0,3.72-1.88,6.46,6.46,0,0,0,1.7-2.91,9.81,9.81,0,0,0,.26-3.49,25,25,0,0,0-.6-3.61,16.1,16.1,0,0,0-3.7-7.43c-1.71-1.81-4.24-2.4-7.61-1.77l-1.8-7.43a16.32,16.32,0,0,1,7.51,0,13.61,13.61,0,0,1,5.7,3.06,18.2,18.2,0,0,1,4,5.36,32.41,32.41,0,0,1,2.54,7,44.79,44.79,0,0,1,1,6.18,16.43,16.43,0,0,1-.47,5.9,10.74,10.74,0,0,1-2.84,4.86,12.36,12.36,0,0,1-6,3L903.92,431a17.2,17.2,0,0,0-3.77,1.24c-.76.4-1,1.18-.72,2.35a9.77,9.77,0,0,0,.9,2.19Zm20.25-17.7a9.43,9.43,0,0,1-2.42-3.3q-1-2.16-1.94-4.58t-1.91-4.86a19.61,19.61,0,0,0-2.37-4.24,8.59,8.59,0,0,0-3.28-2.68,7.15,7.15,0,0,0-4.7-.2,6.19,6.19,0,0,0-2.91,1.49,6.35,6.35,0,0,0-1.58,2.43,8.39,8.39,0,0,0-.46,3,15.76,15.76,0,0,0,.46,3.4,18.2,18.2,0,0,0,2.53,6.06,13.74,13.74,0,0,0,3.56,3.67,10.42,10.42,0,0,0,3.9,1.65,8.77,8.77,0,0,0,3.55,0Z"/><path d="M906,448.09a8.15,8.15,0,0,0-2.42,3.16,12.84,12.84,0,0,0-1,4.11,22.63,22.63,0,0,0,.12,4.57,26.66,26.66,0,0,0,.73,3.71,13.89,13.89,0,0,0,1.43,3.5,6.77,6.77,0,0,0,2.44,2.46,5.61,5.61,0,0,0,3.66.64,5.13,5.13,0,0,0,4.19-2.79,19.12,19.12,0,0,0,1.76-5.89c.35-2.31.61-4.8.79-7.49a37.69,37.69,0,0,1,1.25-7.54,15.18,15.18,0,0,1,3.19-6.07,10.19,10.19,0,0,1,6.69-3.09,11.1,11.1,0,0,1,6.18.82,12.88,12.88,0,0,1,4.56,3.51,18.75,18.75,0,0,1,3,5.25,26.15,26.15,0,0,1,1.52,6,36.5,36.5,0,0,1,.22,7.31,16.8,16.8,0,0,1-1.59,6.14,12.18,12.18,0,0,1-4,4.62,17.27,17.27,0,0,1-6.79,2.66l-.95-7.6a7.3,7.3,0,0,0,5.62-4.41,11.32,11.32,0,0,0,.88-3.51,17.5,17.5,0,0,0-.05-3.76,24.45,24.45,0,0,0-.7-3.4A11.8,11.8,0,0,0,935.5,448a6.52,6.52,0,0,0-2.08-2.1,4.53,4.53,0,0,0-3-.53,4.31,4.31,0,0,0-3.09,1.79,10.93,10.93,0,0,0-1.7,3.79,30.48,30.48,0,0,0-.83,5c-.17,1.84-.35,3.67-.54,5.51s-.46,3.88-.83,5.77a18.31,18.31,0,0,1-1.77,5.12,11.68,11.68,0,0,1-3.28,3.85,11,11,0,0,1-5.38,2,12.93,12.93,0,0,1-7.18-.87,13.81,13.81,0,0,1-5-4,19.14,19.14,0,0,1-3.16-6,38,38,0,0,1-1.54-6.93,32.43,32.43,0,0,1-.1-7.42,17.94,17.94,0,0,1,1.87-6.49,13.47,13.47,0,0,1,4.29-4.89,16.88,16.88,0,0,1,7.06-2.69l.94,7.59A8.63,8.63,0,0,0,906,448.09Z"/><path d="M940,507.39l6.75.17-.2,7.83,6.93.17q5.67.15,8.51,3.5t2.68,9.66a20.64,20.64,0,0,1-.24,2.47,13.43,13.43,0,0,1-.6,2.46l-6.66-.17a9.8,9.8,0,0,0,.55-2.15,19.4,19.4,0,0,0,.19-2.15,7.44,7.44,0,0,0-1-4.35c-.7-1-2.06-1.58-4.1-1.63l-6.48-.17-.23,9-6.75-.17.23-9-39.77-1,.2-7.64,39.77,1Z"/><path d="M895.84,567.38l7.33.87,0-.18a15.59,15.59,0,0,1-5.56-6.91,18.6,18.6,0,0,1-1-9.09,20.65,20.65,0,0,1,2.12-7.45,12.11,12.11,0,0,1,4-4.51,13.09,13.09,0,0,1,5.63-2,29.31,29.31,0,0,1,6.93,0l30.39,3.63-.91,7.6-31.28-3.73a9.2,9.2,0,0,0-7.09,1.69,9.33,9.33,0,0,0-3.32,6.58,15.59,15.59,0,0,0,.35,6.16A11.47,11.47,0,0,0,906,564.7a13.26,13.26,0,0,0,4.3,3.09,18.78,18.78,0,0,0,5.66,1.54l26.1,3.11-.91,7.6L895,574.53ZM958,575.25l-9.3-1.11,1-8,9.3,1.11Zm2-16.8-9.29-1.11,1-8.05L961,550.4Z"/><path d="M936.79,601.12,927.21,599l0,.18a20.75,20.75,0,0,1,6.71,8.48,17.22,17.22,0,0,1,.26,10.56l-7.91-1.74a21.7,21.7,0,0,0,.44-7.92,12.27,12.27,0,0,0-2.48-5.89,15.2,15.2,0,0,0-5.14-4.08,31.8,31.8,0,0,0-7.59-2.58l-20.21-4.44,1.64-7.48,45.44,10Z"/><path d="M868.24,664.38l6.87,2.7.07-.16a15.7,15.7,0,0,1-3.64-8.1,18.7,18.7,0,0,1,1.38-9,20.8,20.8,0,0,1,3.93-6.67,12.08,12.08,0,0,1,5-3.34,13,13,0,0,1,6-.51,28.63,28.63,0,0,1,6.69,1.81L923,652.27l-2.8,7.12-29.32-11.53a9.19,9.19,0,0,0-7.28-.16,9.36,9.36,0,0,0-4.89,5.52,15.82,15.82,0,0,0-1.22,6,11.46,11.46,0,0,0,1.29,5.1,13.11,13.11,0,0,0,3.37,4.09,19.2,19.2,0,0,0,5.09,2.92L911.71,681l-2.8,7.12-43.3-17Z"/><path d="M899,708.41l-6.48-3.52-.09.15q5.16,8.24.22,17.33a20.17,20.17,0,0,1-4.76,6.12,12.59,12.59,0,0,1-5.44,2.67,13.08,13.08,0,0,1-6-.22,28.84,28.84,0,0,1-6.41-2.61l-26.89-14.61,3.65-6.72,27.68,15a9.27,9.27,0,0,0,7.21,1.05,9.38,9.38,0,0,0,5.52-4.89,15.5,15.5,0,0,0,1.95-5.86,11.36,11.36,0,0,0-.64-5.21,13.38,13.38,0,0,0-2.85-4.47,18.7,18.7,0,0,0-4.69-3.52l-23.1-12.54,3.65-6.73,40.89,22.21Z"/><path d="M843,732.69a8.22,8.22,0,0,0-3.92.71,12.81,12.81,0,0,0-3.49,2.38,22.59,22.59,0,0,0-3,3.45,27.15,27.15,0,0,0-2,3.25,13.6,13.6,0,0,0-1.29,3.55,6.87,6.87,0,0,0,.14,3.46,5.71,5.71,0,0,0,2.28,2.93,5.13,5.13,0,0,0,5,.76A19.27,19.27,0,0,0,842,750c1.81-1.48,3.69-3.14,5.63-5a38,38,0,0,1,6-4.74,14.94,14.94,0,0,1,6.44-2.34,10.16,10.16,0,0,1,7,2.21,11.16,11.16,0,0,1,4,4.76,12.9,12.9,0,0,1,1,5.67,18.75,18.75,0,0,1-1.31,5.91,25.89,25.89,0,0,1-2.93,5.48,37.1,37.1,0,0,1-4.75,5.56,16.81,16.81,0,0,1-5.32,3.47,12,12,0,0,1-6,.75,17.09,17.09,0,0,1-6.81-2.6l4.41-6.25a7.91,7.91,0,0,0,3.73,1.2,7.68,7.68,0,0,0,3.4-.69,11.6,11.6,0,0,0,3-2,17,17,0,0,0,2.48-2.82,22.68,22.68,0,0,0,1.78-3,11.4,11.4,0,0,0,1.07-3.15,6.33,6.33,0,0,0-.12-2.95,4.52,4.52,0,0,0-1.87-2.42,4.27,4.27,0,0,0-3.49-.76,11,11,0,0,0-3.81,1.66,31.13,31.13,0,0,0-4,3.14c-1.36,1.25-2.73,2.48-4.11,3.71a57.85,57.85,0,0,1-4.49,3.72,18.66,18.66,0,0,1-4.75,2.59,11.75,11.75,0,0,1-5,.64,10.94,10.94,0,0,1-5.31-2.15,13,13,0,0,1-4.72-5.48,13.66,13.66,0,0,1-1-6.35,19.15,19.15,0,0,1,1.74-6.59A37.55,37.55,0,0,1,827.4,735a32.35,32.35,0,0,1,4.91-5.57,18.15,18.15,0,0,1,5.76-3.54,13.62,13.62,0,0,1,6.46-.73,16.93,16.93,0,0,1,7,2.76l-4.41,6.25A8.67,8.67,0,0,0,843,732.69Z"/><path d="M804.09,781.4l-7.43-6.67,6.67-7.44,7.43,6.68Zm47.41,11.19a20.49,20.49,0,0,1,2.45,7.58,18,18,0,0,1-.89,7.79,21.16,21.16,0,0,1-4.45,7.38,23,23,0,0,1-6.05,4.91,17.22,17.22,0,0,1-6.61,2.11,15.69,15.69,0,0,1-6.8-.85,19.52,19.52,0,0,1-6.62-4.07,17,17,0,0,1-3.27-3.84,18,18,0,0,1-1.8-4,20.57,20.57,0,0,1-.83-4.07c-.13-1.37-.24-2.74-.31-4.09s-.08-2.63-.15-3.94a23.3,23.3,0,0,0-.53-3.86A13.69,13.69,0,0,0,814.3,790a12.26,12.26,0,0,0-2.66-3.3L809,784.39l5.11-5.69,3.15,2.82a17.3,17.3,0,0,1,3.85,5.34,19.9,19.9,0,0,1,1.53,5.37,38.33,38.33,0,0,1,.38,5.3,43.64,43.64,0,0,0,.34,5.14,16.18,16.18,0,0,0,1.41,4.83,12.67,12.67,0,0,0,3.68,4.39,11.6,11.6,0,0,0,7.89,2.8,10.49,10.49,0,0,0,7.22-3.86,12.51,12.51,0,0,0,2.86-4.93,11.56,11.56,0,0,0,.27-5,12.6,12.6,0,0,0-2-4.84,22.65,22.65,0,0,0-3.87-4.44l5.11-5.69A23.94,23.94,0,0,1,851.5,792.59Z"/></svg>