<svg id="Ebene_1" data-name="Ebene 1" xmlns="http://www.w3.org/2000/svg" viewBox="0 0 1000 1000"><path d="M47.52,577.21l11.58-2.65,7.58,33.07,13.42-3.08-7-30.35,10.7-2.45,7,30.35,15.35-3.52-7.74-33.77L110,562.15l10.9,47.55L58.26,624.06Z"/><path d="M62.06,548.76l8.59-1,0-.18a15.47,15.47,0,0,1-4.25-2,16,16,0,0,1-3.52-3.14,17.24,17.24,0,0,1-2.48-4A15.3,15.3,0,0,1,59.15,534a9.55,9.55,0,0,1,.14-2.82l11.8-1.32c0,.61-.07,1.34-.07,2.18a23.46,23.46,0,0,0,.13,2.43A13.73,13.73,0,0,0,73,540.21a10.44,10.44,0,0,0,3.61,3.54,12.82,12.82,0,0,0,4.93,1.57,25.25,25.25,0,0,0,5.89,0L108.24,543l1.41,12.7-46.24,5.15Z"/><path d="M94.37,511.74a7.35,7.35,0,0,0,2.41-2.22,9.29,9.29,0,0,0,1.37-3.12,14.2,14.2,0,0,0,.42-3.65,13,13,0,0,0-.33-2.83,9.62,9.62,0,0,0-1-2.69,6,6,0,0,0-1.81-2,4.76,4.76,0,0,0-2.84-.79q-2.88,0-4.29,3.86A77.17,77.17,0,0,0,85.48,509q-.6,2.79-1.44,5.46a18.46,18.46,0,0,1-2.21,4.74,10.94,10.94,0,0,1-3.48,3.36,9.87,9.87,0,0,1-5.16,1.3,14,14,0,0,1-7.4-1.69,13,13,0,0,1-4.58-4.6,20.27,20.27,0,0,1-2.39-6.46,40,40,0,0,1-.74-7.38,37,37,0,0,1,.66-7.34A19.51,19.51,0,0,1,61.12,490a14.46,14.46,0,0,1,4.51-4.67,15.25,15.25,0,0,1,7.13-2.27l.1,12.15c-2.46.2-4.11,1.15-5,2.83A12.85,12.85,0,0,0,66.63,504a22.45,22.45,0,0,0,.16,2.34,7.7,7.7,0,0,0,.6,2.29,4.86,4.86,0,0,0,1.32,1.75,3.47,3.47,0,0,0,2.3.7,3.52,3.52,0,0,0,2.78-1.28,9.87,9.87,0,0,0,1.73-3.3,41.79,41.79,0,0,0,1.18-4.65c.34-1.74.72-3.51,1.12-5.32a54,54,0,0,1,1.49-5.45,18,18,0,0,1,2.34-4.75A11.56,11.56,0,0,1,85.32,483a10.75,10.75,0,0,1,5.43-1.3,14.15,14.15,0,0,1,12.75,6.55,19.85,19.85,0,0,1,2.71,6.78,39.5,39.5,0,0,1,.82,7.78,37.85,37.85,0,0,1-.74,7.92,21,21,0,0,1-2.64,6.91,14.83,14.83,0,0,1-12.73,7.17l-.1-12.15A7,7,0,0,0,94.37,511.74Z"/><path d="M62.43,445.93l8.52.77L70.1,456,93,458.1c2.16.2,3.62,0,4.41-.68s1.27-2.05,1.46-4.21c.07-.71.1-1.4.1-2.07a16.64,16.64,0,0,0-.1-1.9l9.86.89a30.74,30.74,0,0,1,0,3.62c-.06,1.32-.14,2.61-.26,3.86a37.44,37.44,0,0,1-.91,5.57,13.31,13.31,0,0,1-2,4.52,8.38,8.38,0,0,1-3.61,2.88,12,12,0,0,1-5.75.65l-27.34-2.48-.7,7.71-8.51-.77.7-7.71-13.89-1.26L47.69,454l13.89,1.26Z"/><path d="M100.76,430q3.3-2.29,4.33-7.6a11.4,11.4,0,0,0-.63-6.9,8,8,0,0,0-3.36-4.14l2.16-11.05q7.69,4.26,10.16,10.42a24.36,24.36,0,0,1,.94,13.95,26.47,26.47,0,0,1-3.62,9.38,20.58,20.58,0,0,1-6.33,6.37,22.4,22.4,0,0,1-8.5,3.15,28.22,28.22,0,0,1-10-.26,27.35,27.35,0,0,1-9.21-3.54,22.49,22.49,0,0,1-10.35-14.63,24.06,24.06,0,0,1,0-9.86,22.06,22.06,0,0,1,4.24-9.72A20.59,20.59,0,0,1,78,399.65a25.27,25.27,0,0,1,9.44-2.32,32.49,32.49,0,0,1,10.33,1.1l-6.44,32.94Q97.47,432.3,100.76,430ZM79.5,411.14q-2.91,1.77-3.81,6.36a11.25,11.25,0,0,0,0,5.19,9.76,9.76,0,0,0,1.9,3.67,9.48,9.48,0,0,0,2.85,2.3,14.87,14.87,0,0,0,2.89,1.16l4-20.4A14.72,14.72,0,0,0,79.5,411.14Z"/><path d="M111.55,383a7.43,7.43,0,0,0,3-1.34,9.44,9.44,0,0,0,2.29-2.52,14.49,14.49,0,0,0,1.55-3.33A13,13,0,0,0,119,373a9.42,9.42,0,0,0-.1-2.87,6.31,6.31,0,0,0-1.08-2.49,4.81,4.81,0,0,0-2.45-1.65c-1.82-.59-3.59.18-5.29,2.3a77.31,77.31,0,0,0-6,9.25q-1.45,2.46-3.09,4.71a18.5,18.5,0,0,1-3.61,3.8,11,11,0,0,1-4.37,2.08,10,10,0,0,1-5.31-.41,14,14,0,0,1-6.47-4A12.91,12.91,0,0,1,78.26,378a20.25,20.25,0,0,1-.21-6.89,39.42,39.42,0,0,1,1.65-7.22,36.57,36.57,0,0,1,3-6.75,19.24,19.24,0,0,1,4.28-5.28,14.45,14.45,0,0,1,5.76-3,15.34,15.34,0,0,1,7.48.12l-3.76,11.55q-3.6-.89-5.62,1.11a12.86,12.86,0,0,0-3.08,5.24,21.27,21.27,0,0,0-.59,2.27,7.66,7.66,0,0,0-.16,2.36,4.6,4.6,0,0,0,.7,2.07,3.4,3.4,0,0,0,2,1.4,3.53,3.53,0,0,0,3-.33A9.81,9.81,0,0,0,95.34,372a43,43,0,0,0,2.6-4q1.32-2.33,2.76-4.69a52.63,52.63,0,0,1,3.14-4.7,18,18,0,0,1,3.73-3.76,11.7,11.7,0,0,1,4.54-2,10.87,10.87,0,0,1,5.57.49,14.15,14.15,0,0,1,10,10.27,19.93,19.93,0,0,1,.42,7.28,39.71,39.71,0,0,1-1.69,7.64,38.11,38.11,0,0,1-3.23,7.28,20.79,20.79,0,0,1-4.7,5.71,15.48,15.48,0,0,1-6.28,3.16,15.64,15.64,0,0,1-8.06-.41l3.77-11.55A6.92,6.92,0,0,0,111.55,383Z"/><path d="M94.89,285.59l23.2,13.1-10.85-35,8.67-15.36,9.75,34.34,47.4-4.86-8.72,15.44-34.67,2.64L132.82,307l18,10.18L143.9,329.5l-56-31.6Z"/><path d="M149.13,257.26a14.89,14.89,0,0,1-4.55-6.34,15.4,15.4,0,0,1-.7-6.9,21.89,21.89,0,0,1,2.17-7,39,39,0,0,1,4.09-6.57,52.31,52.31,0,0,1,4.73-5.33,21.53,21.53,0,0,1,5.54-4,12.8,12.8,0,0,1,6.14-1.41,11.2,11.2,0,0,1,6.54,2.65l19.18,14.77a48.91,48.91,0,0,0,5,3.39,10.79,10.79,0,0,0,4.2,1.64l-7.91,10.27a18.43,18.43,0,0,1-2.11-.88,20.32,20.32,0,0,1-2-1.15,16.61,16.61,0,0,1-.9,8.39,28.8,28.8,0,0,1-4.16,7.47,22.66,22.66,0,0,1-4.43,4.43,14.35,14.35,0,0,1-5.07,2.46,11.79,11.79,0,0,1-5.48,0,14.69,14.69,0,0,1-5.67-2.82,13.49,13.49,0,0,1-4.31-5.09,11.61,11.61,0,0,1-1-5.35,16.29,16.29,0,0,1,1.25-5.39,56.75,56.75,0,0,1,2.53-5.27c.93-1.71,1.9-3.35,2.89-4.93a35.77,35.77,0,0,0,2.38-4.42,8.73,8.73,0,0,0,.84-3.67,3.49,3.49,0,0,0-1.68-2.77,6.83,6.83,0,0,0-3-1.47,5,5,0,0,0-2.6.28,7.09,7.09,0,0,0-2.3,1.51,21.11,21.11,0,0,0-2.13,2.4,9.66,9.66,0,0,0-2.34,5.69c0,1.8.89,3.57,2.74,5.29Zm25.5-17.62a5.77,5.77,0,0,1-.35,2.29,22.1,22.1,0,0,1-1.05,2.48c-.43.85-.9,1.71-1.43,2.59s-1,1.78-1.51,2.7a21.38,21.38,0,0,0-1.16,2.69,8.19,8.19,0,0,0-.52,2.66,5.75,5.75,0,0,0,.51,2.5,6.28,6.28,0,0,0,2,2.31,6,6,0,0,0,2.67,1.26,4.74,4.74,0,0,0,2.51-.23,7.18,7.18,0,0,0,2.28-1.42,15.72,15.72,0,0,0,2-2.19,11.25,11.25,0,0,0,2.57-5.4,8.4,8.4,0,0,0-.52-4.26,9.83,9.83,0,0,0-2.08-3.14,24.72,24.72,0,0,0-2.14-1.93Z"/><path d="M181.38,195.83l4.19,4.21.13-.13a14,14,0,0,1,.33-8.08,18.13,18.13,0,0,1,4.4-6.8,20.14,20.14,0,0,1,8.15-5.21,19.42,19.42,0,0,1,8.53-.75,23.14,23.14,0,0,1,8.37,2.91,35.25,35.25,0,0,1,7.59,5.83,31.74,31.74,0,0,1,5.47,7.27,23.09,23.09,0,0,1,2.69,8.11,18.59,18.59,0,0,1-5.72,16,18.25,18.25,0,0,1-6.88,4.38,15.11,15.11,0,0,1-7.9.56l-.12.13,15.56,15.61-9,9-44.35-44.49Zm37.81,14.41a10.27,10.27,0,0,0,.1-4.74,13.53,13.53,0,0,0-2-4.65,27.83,27.83,0,0,0-3.49-4.27,25.93,25.93,0,0,0-4.29-3.48,14.8,14.8,0,0,0-4.77-2,11,11,0,0,0-4.87,0,11,11,0,0,0-7.39,7.38,10.38,10.38,0,0,0,0,4.8,13.78,13.78,0,0,0,2.06,4.68,28.26,28.26,0,0,0,3.55,4.33,26.35,26.35,0,0,0,4.29,3.48,14.17,14.17,0,0,0,4.68,2,10.9,10.9,0,0,0,12.2-7.52Z"/><path d="M210.49,158.68l-6.69-8.14,9.88-8.11,6.68,8.14Zm14.44-2.55,29.53,36-9.87,8.11-29.53-36Z"/><path d="M255.33,133.74l5,7-7.62,5.43,13.38,18.76q1.89,2.64,3.39,2.89t4.15-1.63c.58-.42,1.13-.85,1.63-1.28a17.44,17.44,0,0,0,1.38-1.32l5.75,8.06a31,31,0,0,1-2.72,2.39c-1,.81-2.07,1.58-3.1,2.32a36.68,36.68,0,0,1-4.81,2.93,13.25,13.25,0,0,1-4.73,1.44,8.3,8.3,0,0,1-4.53-.85,11.89,11.89,0,0,1-4.25-3.94l-15.94-22.34-6.3,4.49-5-7,6.3-4.5-8.1-11.36,10.4-7.42,8.1,11.35Z"/><path d="M292.43,152.4q3.87,1,8.57-1.67a11.4,11.4,0,0,0,4.84-5,8,8,0,0,0,.94-5.25l9.78-5.56q1.8,8.61-1.28,14.5a24.34,24.34,0,0,1-9.95,9.8,26.62,26.62,0,0,1-9.48,3.37,20.66,20.66,0,0,1-9-.65,22.65,22.65,0,0,1-7.93-4.39,28.34,28.34,0,0,1-6.34-7.79,27.06,27.06,0,0,1-3.32-9.29,22.46,22.46,0,0,1,4.35-17.39,24.12,24.12,0,0,1,7.47-6.42,22.08,22.08,0,0,1,10.14-3.12,20.54,20.54,0,0,1,9.34,1.78,25.21,25.21,0,0,1,7.92,5.64,32.76,32.76,0,0,1,5.9,8.55l-29.18,16.59Q288.54,151.39,292.43,152.4Zm.45-28.42q-3.24-1-7.31,1.26a11.2,11.2,0,0,0-3.91,3.41,9.75,9.75,0,0,0-1.54,3.83,9.32,9.32,0,0,0,.11,3.66,14.9,14.9,0,0,0,1,3l18.08-10.27A14.8,14.8,0,0,0,292.88,124Z"/><path d="M315.64,81l26.52,58.53-11.64,5.27L304,86.27Z"/><path d="M339.79,106l-5-12.94L348,88l5,12.94Zm19.65,11.74,5,12.94-13.19,5.06-5-12.93Z"/><path d="M445.4,110.3,421.57,59.67l-.18,0-5.24,55.75L407.38,117,380,56.59l8.6-1.51,21.7,50.45.17,0,4.89-55.15,9.13-1.61,23.3,50.18.17,0L451.51,44l8.42-1.49-5.76,66.27Z"/><path d="M513.7,106.3a10.78,10.78,0,0,1-5.46,1.28,6.61,6.61,0,0,1-4.76-1.56c-1.19-1.09-1.82-2.89-1.87-5.41a18.35,18.35,0,0,1-7.22,5.6,25.31,25.31,0,0,1-15,1.25,13.9,13.9,0,0,1-4.95-2.14,10.7,10.7,0,0,1-3.36-3.94,13.28,13.28,0,0,1-1.34-6,13.62,13.62,0,0,1,1.21-6.5,11.8,11.8,0,0,1,3.47-4.17,16.33,16.33,0,0,1,5-2.49q2.82-.87,5.77-1.47,3.13-.69,6-1.07a32.16,32.16,0,0,0,5-1,8.37,8.37,0,0,0,3.39-1.78,4.18,4.18,0,0,0,1.19-3.31,7.7,7.7,0,0,0-1-4,6.55,6.55,0,0,0-2.48-2.29,10.23,10.23,0,0,0-3.35-1,26.5,26.5,0,0,0-3.65-.19,16.24,16.24,0,0,0-8.06,2q-3.19,1.92-3.36,7l-7.65.16A16.69,16.69,0,0,1,472.75,68a13.73,13.73,0,0,1,4.22-4.9,18,18,0,0,1,6.11-2.78,32.76,32.76,0,0,1,7.41-1,45,45,0,0,1,6.26.32,16.27,16.27,0,0,1,5.66,1.73,10.67,10.67,0,0,1,4.13,3.82,12.36,12.36,0,0,1,1.67,6.52l.5,23.88a17.87,17.87,0,0,0,.4,4c.22.83.94,1.23,2.14,1.21a9.54,9.54,0,0,0,2.33-.41ZM500.79,82.71A9.55,9.55,0,0,1,497,84.36c-1.55.36-3.18.66-4.89.91s-3.42.52-5.15.82a19.16,19.16,0,0,0-4.66,1.4A8.47,8.47,0,0,0,479,90.11a7.1,7.1,0,0,0-1.21,4.55,6,6,0,0,0,2.86,5.22,8.2,8.2,0,0,0,2.85,1.11,15.34,15.34,0,0,0,3.43.28,18.27,18.27,0,0,0,6.46-1.16,13.49,13.49,0,0,0,4.35-2.69A10.21,10.21,0,0,0,500.21,94,8.55,8.55,0,0,0,501,90.5Z"/><path d="M525.87,97.23a8.12,8.12,0,0,0,2.56,3,12.56,12.56,0,0,0,3.8,1.85,22.74,22.74,0,0,0,4.49.88,29.19,29.19,0,0,0,3.78.09,13.79,13.79,0,0,0,3.73-.65,6.81,6.81,0,0,0,2.93-1.84,5.71,5.71,0,0,0,1.41-3.44,5.1,5.1,0,0,0-1.82-4.69,19,19,0,0,0-5.37-3c-2.18-.84-4.56-1.63-7.14-2.39a37.7,37.7,0,0,1-7.1-2.84,15.21,15.21,0,0,1-5.23-4.43,10.2,10.2,0,0,1-1.58-7.2,11.06,11.06,0,0,1,2.14-5.85,12.83,12.83,0,0,1,4.42-3.7,18.46,18.46,0,0,1,5.77-1.8,25.44,25.44,0,0,1,6.21-.18,37.21,37.21,0,0,1,7.19,1.35,16.77,16.77,0,0,1,5.65,2.89,12.19,12.19,0,0,1,3.66,4.86,17.18,17.18,0,0,1,1.12,7.21l-7.61-.72a7.8,7.8,0,0,0-.81-3.83,7.67,7.67,0,0,0-2.29-2.61,11.71,11.71,0,0,0-3.24-1.62,17.05,17.05,0,0,0-3.68-.75,22.23,22.23,0,0,0-3.47-.06,11.65,11.65,0,0,0-3.27.64,6.47,6.47,0,0,0-2.5,1.57,4.51,4.51,0,0,0-1.17,2.83,4.26,4.26,0,0,0,1.08,3.4,11.06,11.06,0,0,0,3.33,2.48,30.56,30.56,0,0,0,4.71,1.9c1.75.55,3.51,1.13,5.26,1.71s3.69,1.29,5.45,2a18.56,18.56,0,0,1,4.62,2.84,11.47,11.47,0,0,1,3.05,4,10.91,10.91,0,0,1,.78,5.68,13,13,0,0,1-2.41,6.82,13.83,13.83,0,0,1-5,4,19.27,19.27,0,0,1-6.59,1.77,37.43,37.43,0,0,1-7.1,0,33,33,0,0,1-7.27-1.5,18.13,18.13,0,0,1-5.93-3.23,13.49,13.49,0,0,1-3.85-5.25,16.93,16.93,0,0,1-1.1-7.47l7.62.72A8.57,8.57,0,0,0,525.87,97.23Z"/><path d="M594.18,107.78a8.1,8.1,0,0,0,2,3.43,12.59,12.59,0,0,0,3.43,2.48,22.47,22.47,0,0,0,4.26,1.63,28.49,28.49,0,0,0,3.72.73,13.67,13.67,0,0,0,3.78,0,6.77,6.77,0,0,0,3.2-1.31,5.66,5.66,0,0,0,2-3.15,5.09,5.09,0,0,0-1-4.93,19.21,19.21,0,0,0-4.77-3.87q-3-1.8-6.63-3.58a37.48,37.48,0,0,1-6.51-4,15.18,15.18,0,0,1-4.4-5.26,10.19,10.19,0,0,1-.32-7.36,11.17,11.17,0,0,1,3.1-5.41,13,13,0,0,1,5-2.88,18.58,18.58,0,0,1,6-.79,25.28,25.28,0,0,1,6.14.88A36.87,36.87,0,0,1,620,77a17,17,0,0,1,5.07,3.81,12.1,12.1,0,0,1,2.77,5.41,17,17,0,0,1-.12,7.29l-7.38-2a7.34,7.34,0,0,0-2-6.87,11.33,11.33,0,0,0-2.92-2.15A17.45,17.45,0,0,0,612,81.06a22.23,22.23,0,0,0-3.42-.65,11.52,11.52,0,0,0-3.33.07,6.53,6.53,0,0,0-2.73,1.12,4.62,4.62,0,0,0-1.64,2.59,4.32,4.32,0,0,0,.49,3.53,10.93,10.93,0,0,0,2.86,3,30.74,30.74,0,0,0,4.31,2.67Q611,94.69,613.44,96a56.55,56.55,0,0,1,5,3,18.24,18.24,0,0,1,4.07,3.58,11.62,11.62,0,0,1,2.31,4.5,10.87,10.87,0,0,1-.21,5.73,13,13,0,0,1-3.53,6.31,13.75,13.75,0,0,1-5.62,3.13,19.2,19.2,0,0,1-6.79.62,37.56,37.56,0,0,1-7-1.21,32.19,32.19,0,0,1-6.91-2.72,17.88,17.88,0,0,1-5.29-4.19,13.41,13.41,0,0,1-2.89-5.83,16.76,16.76,0,0,1,.19-7.55l7.38,2A8.62,8.62,0,0,0,594.18,107.78Z"/><path d="M651.17,87.61l-15.75,43.78-7.2-2.59L644,85ZM646.8,77.14l3.17-8.8,7.2,2.59L654,79.73Z"/><path d="M671.41,95.51l-3.08,6.7.16.08q7.88-5.7,17.27-1.38a20.26,20.26,0,0,1,6.43,4.34,12.66,12.66,0,0,1,3,5.26,13,13,0,0,1,.18,6,29,29,0,0,1-2.18,6.58l-12.77,27.8-7-3.19L686.64,119a9.21,9.21,0,0,0,.57-7.26,9.41,9.41,0,0,0-5.25-5.19,15.65,15.65,0,0,0-6-1.55,11.31,11.31,0,0,0-5.16,1,13.15,13.15,0,0,0-4.27,3.14,18.8,18.8,0,0,0-3.19,4.92l-11,23.88-6.95-3.2L664.87,92.5Z"/><path d="M717.79,173.26l3.33-5.35-.16-.1a11.21,11.21,0,0,1-8,1.6,22.75,22.75,0,0,1-8.47-3.25,21.05,21.05,0,0,1-6.94-6.65,19.36,19.36,0,0,1-2.85-8,23.14,23.14,0,0,1,.69-8.69,32.07,32.07,0,0,1,3.8-8.66,32.62,32.62,0,0,1,6-7.25,22.09,22.09,0,0,1,7.43-4.45,19.1,19.1,0,0,1,8.41-.91A21.08,21.08,0,0,1,730,124.8a22,22,0,0,1,3.1,2.35,19.44,19.44,0,0,1,2.87,3.22,17.82,17.82,0,0,1,2.14,4,12.32,12.32,0,0,1,.8,4.59l.16.09,12.64-20.33,6.5,4L724.29,177.3Zm-14.62-28.55a17.08,17.08,0,0,0-.71,6.08,12.78,12.78,0,0,0,1.78,5.66,13.6,13.6,0,0,0,4.7,4.62,12.64,12.64,0,0,0,12.25,1.1,16.82,16.82,0,0,0,5.07-3.46,27.08,27.08,0,0,0,4-5,26.66,26.66,0,0,0,2.81-6,16.25,16.25,0,0,0,.79-6.13,13,13,0,0,0-1.79-5.73,14.11,14.11,0,0,0-4.94-4.82,13,13,0,0,0-6.39-2.17,12.18,12.18,0,0,0-5.81,1.15,17.81,17.81,0,0,0-5,3.66,31,31,0,0,0-4.13,5.27A23.92,23.92,0,0,0,703.17,144.71Z"/><path d="M802.82,157.77l-19.08,20,24.47,23.37,19.08-20,6.19,5.91L789.1,233.52l-6.19-5.9,20.33-21.29L778.77,183l-20.33,21.29-6.18-5.91,44.38-46.47Z"/><path d="M802.43,260a49.33,49.33,0,0,1-6.15,1.51,15.65,15.65,0,0,1-4.79.13,9.86,9.86,0,0,1-3.88-1.39,13.42,13.42,0,0,1-3.3-3.07,20.46,20.46,0,0,1-1.55-2.22,13.37,13.37,0,0,1-1.13-2.43l5.49-4.38a12.21,12.21,0,0,0,.83,2.27,10,10,0,0,0,1.13,1.92,6.54,6.54,0,0,0,3.32,2.36,7,7,0,0,0,4-.12l8.09-2.42,24.67-43.27,5.38,6.75L813.23,250l.11.14,37.9-13.54,5,6.34Z"/><path d="M866.34,258.16l-5.36,3.3.09.16a11.41,11.41,0,0,1,7.9,2.11,22,22,0,0,1,6.17,6.67,20.84,20.84,0,0,1,3.24,9,19,19,0,0,1-1.07,8.48,23.38,23.38,0,0,1-4.52,7.49,32,32,0,0,1-7.27,6.06,32.76,32.76,0,0,1-8.65,3.79,22,22,0,0,1-8.63.67,18.68,18.68,0,0,1-7.9-3,21.68,21.68,0,0,1-6.49-6.94,23.12,23.12,0,0,1-1.7-3.45,21.4,21.4,0,0,1-1.2-4.18,16.38,16.38,0,0,1-.17-4.49,12.11,12.11,0,0,1,1.32-4.46l-.09-.15-20.39,12.55-4-6.52,54.72-33.68Zm.35,32.07a17,17,0,0,0,3.35-5.12,12.9,12.9,0,0,0,.93-5.86,13.67,13.67,0,0,0-2.14-6.24,12.66,12.66,0,0,0-10.47-6.45,16.78,16.78,0,0,0-6.09.85,26.65,26.65,0,0,0-5.84,2.69,27,27,0,0,0-5.21,4.16,16.48,16.48,0,0,0-3.45,5.14,13,13,0,0,0-.95,5.92,14.21,14.21,0,0,0,2.27,6.52,13.19,13.19,0,0,0,4.78,4.84,12.3,12.3,0,0,0,5.68,1.51,17.73,17.73,0,0,0,6.14-1,31.56,31.56,0,0,0,6-2.88A23.62,23.62,0,0,0,866.69,290.23Z"/><path d="M865.24,348.79q-5.78-3.12-9-10.32a24,24,0,0,1-2.37-9.55,19,19,0,0,1,1.74-8.36,21.37,21.37,0,0,1,5.31-7,37.39,37.39,0,0,1,8.28-5.5,28.22,28.22,0,0,1,9.52-2.55,23.3,23.3,0,0,1,8.84,1,20.64,20.64,0,0,1,7.46,4.22,21.17,21.17,0,0,1,5.27,7.24,19,19,0,0,1,1.93,10.45,20.45,20.45,0,0,1-3.21,8.68,25.94,25.94,0,0,1-6.45,6.69,36.85,36.85,0,0,1-7.8,4.38l-14.42-31.7a18.41,18.41,0,0,0-5,3.06,12.71,12.71,0,0,0-4.52,10,16,16,0,0,0,1.57,6.51,13.26,13.26,0,0,0,5.35,6.31,10.82,10.82,0,0,0,7.92.9l3.13,6.88Q871,351.9,865.24,348.79Zm26.43-14.05a13.11,13.11,0,0,0,2.65-4.28,13.26,13.26,0,0,0,.83-4.92,13,13,0,0,0-1.24-5.22,13.4,13.4,0,0,0-3.16-4.45,12.42,12.42,0,0,0-4.27-2.55,13.56,13.56,0,0,0-4.93-.72,15.57,15.57,0,0,0-5.11,1L887.5,338A16,16,0,0,0,891.67,334.74Z"/><path d="M913.56,354.07l-9.25,3.25.06.17a20.7,20.7,0,0,1,10.16,3.68,17.23,17.23,0,0,1,5.78,8.84l-7.64,2.69a21.7,21.7,0,0,0-3.79-7,12.18,12.18,0,0,0-5.21-3.7,15.24,15.24,0,0,0-6.52-.77,31.68,31.68,0,0,0-7.81,1.8l-19.53,6.86-2.53-7.22,43.89-15.43Z"/><path d="M908,379.72a21.84,21.84,0,0,1,8.54,2.38,20.31,20.31,0,0,1,6.7,5.7,26.06,26.06,0,0,1,4.58,18.93,20.43,20.43,0,0,1-3.36,8.09,21.77,21.77,0,0,1-6.51,6,30.85,30.85,0,0,1-9,3.65,30.43,30.43,0,0,1-9.61.84,21.64,21.64,0,0,1-8.5-2.39,19.83,19.83,0,0,1-6.64-5.66,26.59,26.59,0,0,1-4.58-18.93,19.75,19.75,0,0,1,3.31-8.12,21.78,21.78,0,0,1,6.46-6,30.52,30.52,0,0,1,8.94-3.64A30.93,30.93,0,0,1,908,379.72Zm-14.79,11.59a15.56,15.56,0,0,0-4.6,4.31,13.4,13.4,0,0,0-2.19,5.3A14.06,14.06,0,0,0,889,411.85a13.44,13.44,0,0,0,4.37,3.72,15.78,15.78,0,0,0,6.07,1.72,25.63,25.63,0,0,0,14.61-3.53,16.45,16.45,0,0,0,4.65-4.32,13.35,13.35,0,0,0,2.23-5.31,14.16,14.16,0,0,0-2.65-10.94,13.22,13.22,0,0,0-4.41-3.7,16.18,16.18,0,0,0-6.11-1.71,25.63,25.63,0,0,0-14.61,3.53Z"/><path d="M952.24,437.81l-23.89,2.61,0,.18a11.41,11.41,0,0,1,6.23,5.3,22,22,0,0,1,2.71,8.66,20.92,20.92,0,0,1-.94,9.57,19.38,19.38,0,0,1-4.6,7.2,23.67,23.67,0,0,1-7.31,4.82,31.73,31.73,0,0,1-9.16,2.36,32.92,32.92,0,0,1-9.44-.28,22.13,22.13,0,0,1-8.08-3.1,18.8,18.8,0,0,1-5.87-6.06A21.61,21.61,0,0,1,889,460a24,24,0,0,1-.06-3.84,22.08,22.08,0,0,1,.71-4.29,16.61,16.61,0,0,1,1.77-4.13,12.44,12.44,0,0,1,3.11-3.46l0-.18-6.18.68-.82-7.61,63.88-7Zm-31.06,31.05a17,17,0,0,0,5.21-3.19,12.64,12.64,0,0,0,3.36-4.9,13.67,13.67,0,0,0,.74-6.55,12.61,12.61,0,0,0-6.7-10.31,16.37,16.37,0,0,0-5.86-1.85A27.24,27.24,0,0,0,905,443.51a16.32,16.32,0,0,0-5.31,3.16,13.05,13.05,0,0,0-3.4,4.94,14.31,14.31,0,0,0-.75,6.87,13.12,13.12,0,0,0,2.24,6.41,12.41,12.41,0,0,0,4.49,3.82,17.83,17.83,0,0,0,6,1.7,30.63,30.63,0,0,0,6.7,0A23.72,23.72,0,0,0,921.18,468.86Z"/><path d="M877.13,494.06a11.43,11.43,0,0,1-3-8.09,20.74,20.74,0,0,1,.29-3.88L881,482c0,.3-.09.56-.12.77s0,.43,0,.67l0,1.62c0,1.68.52,2.81,1.46,3.4s2.61.85,5,.81l51.11-.93.14,7.64-52.37,1Q880,497,877.13,494.06Zm69.7-5.91,9.35-.17.14,7.65-9.35.17Z"/><path d="M893.22,540.46q-3.6-5.48-3.08-13.37a23.9,23.9,0,0,1,2.43-9.54,19.12,19.12,0,0,1,5.49-6.54,21.36,21.36,0,0,1,8-3.66,37.42,37.42,0,0,1,9.89-.93,28.18,28.18,0,0,1,9.59,2.26,23.11,23.11,0,0,1,7.33,5,20.69,20.69,0,0,1,4.58,7.25,21.15,21.15,0,0,1,1.21,8.87A19.08,19.08,0,0,1,935.42,540a20.31,20.31,0,0,1-6.94,6.12,25.74,25.74,0,0,1-8.85,2.84,37.48,37.48,0,0,1-8.94.18l2.3-34.76a18.54,18.54,0,0,0-5.84.34,13.2,13.2,0,0,0-5,2.28,12.89,12.89,0,0,0-3.67,4.36,15.77,15.77,0,0,0-1.69,6.47,13.19,13.19,0,0,0,1.72,8.1,10.89,10.89,0,0,0,6.55,4.54l-.5,7.54Q896.83,545.93,893.22,540.46Zm29.94.13a13.53,13.53,0,0,0,8.12-17.05,12.49,12.49,0,0,0-2.56-4.28,13.47,13.47,0,0,0-4-3,16.06,16.06,0,0,0-5-1.5L918,541.46A15.64,15.64,0,0,0,923.16,540.59Z"/><path d="M950.46,573.45,913,566.52l16.14,24.59L927.3,601.2,914,580,881.3,594.06l1.77-9.55,26.79-11.25L904.62,565l-17.35-3.21,1.39-7.52,63.19,11.68Z"/><path d="M919,629.92l-6.5-1.83,2.52-8.92-27.81-7.84a8,8,0,0,0-2.14-.37,2.23,2.23,0,0,0-1.44.48,3.67,3.67,0,0,0-1,1.53,24.33,24.33,0,0,0-.92,2.78l-1,3.38-6.49-1.83,1.58-5.63a27.72,27.72,0,0,1,1.77-4.79A7.55,7.55,0,0,1,880,604a6.3,6.3,0,0,1,3.47-1,17.37,17.37,0,0,1,5.19.81l28.5,8,2.15-7.62,6.5,1.83-2.15,7.62,13.43,3.79L935,624.78,921.55,621Z"/><path d="M863.24,655.88q-1.82-6.28,1-13.68a24,24,0,0,1,5.16-8.38,19.1,19.1,0,0,1,7.18-4.61,21.4,21.4,0,0,1,8.73-1.12,37,37,0,0,1,9.72,2.07,27.78,27.78,0,0,1,8.48,5,23.11,23.11,0,0,1,5.5,7,20.57,20.57,0,0,1,2.21,8.28,21,21,0,0,1-1.48,8.83,19,19,0,0,1-6.1,8.69,20.32,20.32,0,0,1-8.46,3.79,26.11,26.11,0,0,1-9.29.08,37.15,37.15,0,0,1-8.59-2.5l12.54-32.49a18.6,18.6,0,0,0-5.67-1.42,12.78,12.78,0,0,0-10.28,3.75,15.93,15.93,0,0,0-3.54,5.68,13.31,13.31,0,0,0-.77,8.24,10.94,10.94,0,0,0,4.91,6.28l-2.72,7Q865.06,662.18,863.24,655.88Zm28.54,9a13.1,13.1,0,0,0,4.91-1.1,13.27,13.27,0,0,0,4.1-2.86,13,13,0,0,0,2.85-4.54,13.18,13.18,0,0,0,1-5.36,12.36,12.36,0,0,0-1.17-4.85,13.6,13.6,0,0,0-2.94-4,15.73,15.73,0,0,0-4.32-2.92l-9.62,24.94A15.79,15.79,0,0,0,891.78,664.92Z"/><path d="M852.73,693l-8.82-4.68,4.68-8.82,8.82,4.68Zm48.71-.58a20.2,20.2,0,0,1,4.2,6.76,17.81,17.81,0,0,1,1,7.78,21.37,21.37,0,0,1-2.53,8.23,23.49,23.49,0,0,1-4.68,6.23,17.32,17.32,0,0,1-5.91,3.64,15.8,15.8,0,0,1-6.81.82,19.66,19.66,0,0,1-7.4-2.36,17.1,17.1,0,0,1-4.1-2.93,18.28,18.28,0,0,1-2.72-3.43,21.42,21.42,0,0,1-1.78-3.75q-.69-2-1.29-3.9c-.35-1.27-.71-2.53-1.1-3.79a22.75,22.75,0,0,0-1.44-3.62,14.27,14.27,0,0,0-2.17-3.19,12.37,12.37,0,0,0-3.38-2.56l-3.1-1.64,3.58-6.76,3.74,2a17.63,17.63,0,0,1,5,4.25,20.57,20.57,0,0,1,2.78,4.84A41.28,41.28,0,0,1,875,704.1,41.34,41.34,0,0,0,876.6,709a16,16,0,0,0,2.53,4.35,12.73,12.73,0,0,0,4.63,3.38,11.61,11.61,0,0,0,8.33.8,10.47,10.47,0,0,0,6.08-5.48,12.38,12.38,0,0,0,1.58-5.48,11.61,11.61,0,0,0-1-4.94,12.62,12.62,0,0,0-3.06-4.22,22.52,22.52,0,0,0-4.83-3.38l3.59-6.75A24.13,24.13,0,0,1,901.44,692.45Z"/></svg>